<?xml version="1.0" encoding="utf-8" standalone="no"?>
<!DOCTYPE svg PUBLIC "-//W3C//DTD SVG 1.1//EN"
  "http://www.w3.org/Graphics/SVG/1.1/DTD/svg11.dtd">
<svg xmlns:xlink="http://www.w3.org/1999/xlink" width="460.8pt" height="345.6pt" viewBox="0 0 460.8 345.6" xmlns="http://www.w3.org/2000/svg" version="1.1">
 <metadata>
  <rdf:RDF xmlns:dc="http://purl.org/dc/elements/1.1/" xmlns:cc="http://creativecommons.org/ns#" xmlns:rdf="http://www.w3.org/1999/02/22-rdf-syntax-ns#">
   <cc:Work>
    <dc:type rdf:resource="http://purl.org/dc/dcmitype/StillImage"/>
    <dc:date>2024-05-01T15:16:50.211484</dc:date>
    <dc:format>image/svg+xml</dc:format>
    <dc:creator>
     <cc:Agent>
      <dc:title>Matplotlib v3.7.1, https://matplotlib.org/</dc:title>
     </cc:Agent>
    </dc:creator>
   </cc:Work>
  </rdf:RDF>
 </metadata>
 <defs>
  <style type="text/css">*{stroke-linejoin: round; stroke-linecap: butt}</style>
 </defs>
 <g id="figure_1">
  <g id="patch_1">
   <path d="M 0 345.6 
L 460.8 345.6 
L 460.8 0 
L 0 0 
z
" style="fill: #ffffff"/>
  </g>
  <g id="axes_1">
   <g id="patch_2">
    <path d="M 49.088 302.2 
L 383.002 302.2 
L 383.002 10.8 
L 49.088 10.8 
z
" style="fill: #ffffff"/>
   </g>
   <g id="matplotlib.axis_1">
    <g id="xtick_1">
     <g id="line2d_1">
      <defs>
       <path id="ma2aebe5ce1" d="M 0 0 
L 0 3.5 
" style="stroke: #000000; stroke-width: 0.8"/>
      </defs>
      <g>
       <use xlink:href="#ma2aebe5ce1" x="64.265909" y="302.2" style="stroke: #000000; stroke-width: 0.8"/>
      </g>
     </g>
     <g id="text_1">
      <!-- 0.000 -->
      <g transform="translate(49.951847 316.798437) scale(0.1 -0.1)">
       <defs>
        <path id="DejaVuSans-30" d="M 2034 4250 
Q 1547 4250 1301 3770 
Q 1056 3291 1056 2328 
Q 1056 1369 1301 889 
Q 1547 409 2034 409 
Q 2525 409 2770 889 
Q 3016 1369 3016 2328 
Q 3016 3291 2770 3770 
Q 2525 4250 2034 4250 
z
M 2034 4750 
Q 2819 4750 3233 4129 
Q 3647 3509 3647 2328 
Q 3647 1150 3233 529 
Q 2819 -91 2034 -91 
Q 1250 -91 836 529 
Q 422 1150 422 2328 
Q 422 3509 836 4129 
Q 1250 4750 2034 4750 
z
" transform="scale(0.015625)"/>
        <path id="DejaVuSans-2e" d="M 684 794 
L 1344 794 
L 1344 0 
L 684 0 
L 684 794 
z
" transform="scale(0.015625)"/>
       </defs>
       <use xlink:href="#DejaVuSans-30"/>
       <use xlink:href="#DejaVuSans-2e" x="63.623047"/>
       <use xlink:href="#DejaVuSans-30" x="95.410156"/>
       <use xlink:href="#DejaVuSans-30" x="159.033203"/>
       <use xlink:href="#DejaVuSans-30" x="222.65625"/>
      </g>
     </g>
    </g>
    <g id="xtick_2">
     <g id="line2d_2">
      <g>
       <use xlink:href="#ma2aebe5ce1" x="114.943402" y="302.2" style="stroke: #000000; stroke-width: 0.8"/>
      </g>
     </g>
     <g id="text_2">
      <!-- 0.001 -->
      <g transform="translate(100.629339 316.798437) scale(0.1 -0.1)">
       <defs>
        <path id="DejaVuSans-31" d="M 794 531 
L 1825 531 
L 1825 4091 
L 703 3866 
L 703 4441 
L 1819 4666 
L 2450 4666 
L 2450 531 
L 3481 531 
L 3481 0 
L 794 0 
L 794 531 
z
" transform="scale(0.015625)"/>
       </defs>
       <use xlink:href="#DejaVuSans-30"/>
       <use xlink:href="#DejaVuSans-2e" x="63.623047"/>
       <use xlink:href="#DejaVuSans-30" x="95.410156"/>
       <use xlink:href="#DejaVuSans-30" x="159.033203"/>
       <use xlink:href="#DejaVuSans-31" x="222.65625"/>
      </g>
     </g>
    </g>
    <g id="xtick_3">
     <g id="line2d_3">
      <g>
       <use xlink:href="#ma2aebe5ce1" x="165.620895" y="302.2" style="stroke: #000000; stroke-width: 0.8"/>
      </g>
     </g>
     <g id="text_3">
      <!-- 0.002 -->
      <g transform="translate(151.306832 316.798437) scale(0.1 -0.1)">
       <defs>
        <path id="DejaVuSans-32" d="M 1228 531 
L 3431 531 
L 3431 0 
L 469 0 
L 469 531 
Q 828 903 1448 1529 
Q 2069 2156 2228 2338 
Q 2531 2678 2651 2914 
Q 2772 3150 2772 3378 
Q 2772 3750 2511 3984 
Q 2250 4219 1831 4219 
Q 1534 4219 1204 4116 
Q 875 4013 500 3803 
L 500 4441 
Q 881 4594 1212 4672 
Q 1544 4750 1819 4750 
Q 2544 4750 2975 4387 
Q 3406 4025 3406 3419 
Q 3406 3131 3298 2873 
Q 3191 2616 2906 2266 
Q 2828 2175 2409 1742 
Q 1991 1309 1228 531 
z
" transform="scale(0.015625)"/>
       </defs>
       <use xlink:href="#DejaVuSans-30"/>
       <use xlink:href="#DejaVuSans-2e" x="63.623047"/>
       <use xlink:href="#DejaVuSans-30" x="95.410156"/>
       <use xlink:href="#DejaVuSans-30" x="159.033203"/>
       <use xlink:href="#DejaVuSans-32" x="222.65625"/>
      </g>
     </g>
    </g>
    <g id="xtick_4">
     <g id="line2d_4">
      <g>
       <use xlink:href="#ma2aebe5ce1" x="216.298387" y="302.2" style="stroke: #000000; stroke-width: 0.8"/>
      </g>
     </g>
     <g id="text_4">
      <!-- 0.003 -->
      <g transform="translate(201.984325 316.798437) scale(0.1 -0.1)">
       <defs>
        <path id="DejaVuSans-33" d="M 2597 2516 
Q 3050 2419 3304 2112 
Q 3559 1806 3559 1356 
Q 3559 666 3084 287 
Q 2609 -91 1734 -91 
Q 1441 -91 1130 -33 
Q 819 25 488 141 
L 488 750 
Q 750 597 1062 519 
Q 1375 441 1716 441 
Q 2309 441 2620 675 
Q 2931 909 2931 1356 
Q 2931 1769 2642 2001 
Q 2353 2234 1838 2234 
L 1294 2234 
L 1294 2753 
L 1863 2753 
Q 2328 2753 2575 2939 
Q 2822 3125 2822 3475 
Q 2822 3834 2567 4026 
Q 2313 4219 1838 4219 
Q 1578 4219 1281 4162 
Q 984 4106 628 3988 
L 628 4550 
Q 988 4650 1302 4700 
Q 1616 4750 1894 4750 
Q 2613 4750 3031 4423 
Q 3450 4097 3450 3541 
Q 3450 3153 3228 2886 
Q 3006 2619 2597 2516 
z
" transform="scale(0.015625)"/>
       </defs>
       <use xlink:href="#DejaVuSans-30"/>
       <use xlink:href="#DejaVuSans-2e" x="63.623047"/>
       <use xlink:href="#DejaVuSans-30" x="95.410156"/>
       <use xlink:href="#DejaVuSans-30" x="159.033203"/>
       <use xlink:href="#DejaVuSans-33" x="222.65625"/>
      </g>
     </g>
    </g>
    <g id="xtick_5">
     <g id="line2d_5">
      <g>
       <use xlink:href="#ma2aebe5ce1" x="266.97588" y="302.2" style="stroke: #000000; stroke-width: 0.8"/>
      </g>
     </g>
     <g id="text_5">
      <!-- 0.004 -->
      <g transform="translate(252.661818 316.798437) scale(0.1 -0.1)">
       <defs>
        <path id="DejaVuSans-34" d="M 2419 4116 
L 825 1625 
L 2419 1625 
L 2419 4116 
z
M 2253 4666 
L 3047 4666 
L 3047 1625 
L 3713 1625 
L 3713 1100 
L 3047 1100 
L 3047 0 
L 2419 0 
L 2419 1100 
L 313 1100 
L 313 1709 
L 2253 4666 
z
" transform="scale(0.015625)"/>
       </defs>
       <use xlink:href="#DejaVuSans-30"/>
       <use xlink:href="#DejaVuSans-2e" x="63.623047"/>
       <use xlink:href="#DejaVuSans-30" x="95.410156"/>
       <use xlink:href="#DejaVuSans-30" x="159.033203"/>
       <use xlink:href="#DejaVuSans-34" x="222.65625"/>
      </g>
     </g>
    </g>
    <g id="xtick_6">
     <g id="line2d_6">
      <g>
       <use xlink:href="#ma2aebe5ce1" x="317.653373" y="302.2" style="stroke: #000000; stroke-width: 0.8"/>
      </g>
     </g>
     <g id="text_6">
      <!-- 0.005 -->
      <g transform="translate(303.339311 316.798437) scale(0.1 -0.1)">
       <defs>
        <path id="DejaVuSans-35" d="M 691 4666 
L 3169 4666 
L 3169 4134 
L 1269 4134 
L 1269 2991 
Q 1406 3038 1543 3061 
Q 1681 3084 1819 3084 
Q 2600 3084 3056 2656 
Q 3513 2228 3513 1497 
Q 3513 744 3044 326 
Q 2575 -91 1722 -91 
Q 1428 -91 1123 -41 
Q 819 9 494 109 
L 494 744 
Q 775 591 1075 516 
Q 1375 441 1709 441 
Q 2250 441 2565 725 
Q 2881 1009 2881 1497 
Q 2881 1984 2565 2268 
Q 2250 2553 1709 2553 
Q 1456 2553 1204 2497 
Q 953 2441 691 2322 
L 691 4666 
z
" transform="scale(0.015625)"/>
       </defs>
       <use xlink:href="#DejaVuSans-30"/>
       <use xlink:href="#DejaVuSans-2e" x="63.623047"/>
       <use xlink:href="#DejaVuSans-30" x="95.410156"/>
       <use xlink:href="#DejaVuSans-30" x="159.033203"/>
       <use xlink:href="#DejaVuSans-35" x="222.65625"/>
      </g>
     </g>
    </g>
    <g id="xtick_7">
     <g id="line2d_7">
      <g>
       <use xlink:href="#ma2aebe5ce1" x="368.330866" y="302.2" style="stroke: #000000; stroke-width: 0.8"/>
      </g>
     </g>
     <g id="text_7">
      <!-- 0.006 -->
      <g transform="translate(354.016803 316.798437) scale(0.1 -0.1)">
       <defs>
        <path id="DejaVuSans-36" d="M 2113 2584 
Q 1688 2584 1439 2293 
Q 1191 2003 1191 1497 
Q 1191 994 1439 701 
Q 1688 409 2113 409 
Q 2538 409 2786 701 
Q 3034 994 3034 1497 
Q 3034 2003 2786 2293 
Q 2538 2584 2113 2584 
z
M 3366 4563 
L 3366 3988 
Q 3128 4100 2886 4159 
Q 2644 4219 2406 4219 
Q 1781 4219 1451 3797 
Q 1122 3375 1075 2522 
Q 1259 2794 1537 2939 
Q 1816 3084 2150 3084 
Q 2853 3084 3261 2657 
Q 3669 2231 3669 1497 
Q 3669 778 3244 343 
Q 2819 -91 2113 -91 
Q 1303 -91 875 529 
Q 447 1150 447 2328 
Q 447 3434 972 4092 
Q 1497 4750 2381 4750 
Q 2619 4750 2861 4703 
Q 3103 4656 3366 4563 
z
" transform="scale(0.015625)"/>
       </defs>
       <use xlink:href="#DejaVuSans-30"/>
       <use xlink:href="#DejaVuSans-2e" x="63.623047"/>
       <use xlink:href="#DejaVuSans-30" x="95.410156"/>
       <use xlink:href="#DejaVuSans-30" x="159.033203"/>
       <use xlink:href="#DejaVuSans-36" x="222.65625"/>
      </g>
     </g>
    </g>
    <g id="text_8">
     <!-- $t$ (s) -->
     <g transform="translate(205.945 330.476562) scale(0.1 -0.1)">
      <defs>
       <path id="DejaVuSans-Oblique-74" d="M 2706 3500 
L 2619 3053 
L 1472 3053 
L 1100 1153 
Q 1081 1047 1072 975 
Q 1063 903 1063 863 
Q 1063 663 1183 572 
Q 1303 481 1569 481 
L 2150 481 
L 2053 0 
L 1503 0 
Q 991 0 739 200 
Q 488 400 488 806 
Q 488 878 497 964 
Q 506 1050 525 1153 
L 897 3053 
L 409 3053 
L 500 3500 
L 978 3500 
L 1172 4494 
L 1747 4494 
L 1556 3500 
L 2706 3500 
z
" transform="scale(0.015625)"/>
       <path id="DejaVuSans-20" transform="scale(0.015625)"/>
       <path id="DejaVuSans-28" d="M 1984 4856 
Q 1566 4138 1362 3434 
Q 1159 2731 1159 2009 
Q 1159 1288 1364 580 
Q 1569 -128 1984 -844 
L 1484 -844 
Q 1016 -109 783 600 
Q 550 1309 550 2009 
Q 550 2706 781 3412 
Q 1013 4119 1484 4856 
L 1984 4856 
z
" transform="scale(0.015625)"/>
       <path id="DejaVuSans-73" d="M 2834 3397 
L 2834 2853 
Q 2591 2978 2328 3040 
Q 2066 3103 1784 3103 
Q 1356 3103 1142 2972 
Q 928 2841 928 2578 
Q 928 2378 1081 2264 
Q 1234 2150 1697 2047 
L 1894 2003 
Q 2506 1872 2764 1633 
Q 3022 1394 3022 966 
Q 3022 478 2636 193 
Q 2250 -91 1575 -91 
Q 1294 -91 989 -36 
Q 684 19 347 128 
L 347 722 
Q 666 556 975 473 
Q 1284 391 1588 391 
Q 1994 391 2212 530 
Q 2431 669 2431 922 
Q 2431 1156 2273 1281 
Q 2116 1406 1581 1522 
L 1381 1569 
Q 847 1681 609 1914 
Q 372 2147 372 2553 
Q 372 3047 722 3315 
Q 1072 3584 1716 3584 
Q 2034 3584 2315 3537 
Q 2597 3491 2834 3397 
z
" transform="scale(0.015625)"/>
       <path id="DejaVuSans-29" d="M 513 4856 
L 1013 4856 
Q 1481 4119 1714 3412 
Q 1947 2706 1947 2009 
Q 1947 1309 1714 600 
Q 1481 -109 1013 -844 
L 513 -844 
Q 928 -128 1133 580 
Q 1338 1288 1338 2009 
Q 1338 2731 1133 3434 
Q 928 4138 513 4856 
z
" transform="scale(0.015625)"/>
      </defs>
      <use xlink:href="#DejaVuSans-Oblique-74" transform="translate(0 0.125)"/>
      <use xlink:href="#DejaVuSans-20" transform="translate(39.208984 0.125)"/>
      <use xlink:href="#DejaVuSans-28" transform="translate(70.996094 0.125)"/>
      <use xlink:href="#DejaVuSans-73" transform="translate(110.009766 0.125)"/>
      <use xlink:href="#DejaVuSans-29" transform="translate(162.109375 0.125)"/>
     </g>
    </g>
   </g>
   <g id="matplotlib.axis_2">
    <g id="ytick_1">
     <g id="line2d_8">
      <defs>
       <path id="ma6d66cf4fb" d="M 0 0 
L -3.5 0 
" style="stroke: #000000; stroke-width: 0.8"/>
      </defs>
      <g>
       <use xlink:href="#ma6d66cf4fb" x="49.088" y="267.869944" style="stroke: #000000; stroke-width: 0.8"/>
      </g>
     </g>
     <g id="text_9">
      <!-- −4 -->
      <g style="fill: #ff7f0e" transform="translate(27.345813 271.669163) scale(0.1 -0.1)">
       <defs>
        <path id="DejaVuSans-2212" d="M 678 2272 
L 4684 2272 
L 4684 1741 
L 678 1741 
L 678 2272 
z
" transform="scale(0.015625)"/>
       </defs>
       <use xlink:href="#DejaVuSans-2212"/>
       <use xlink:href="#DejaVuSans-34" x="83.789062"/>
      </g>
     </g>
    </g>
    <g id="ytick_2">
     <g id="line2d_9">
      <g>
       <use xlink:href="#ma6d66cf4fb" x="49.088" y="213.806865" style="stroke: #000000; stroke-width: 0.8"/>
      </g>
     </g>
     <g id="text_10">
      <!-- −2 -->
      <g style="fill: #ff7f0e" transform="translate(27.345813 217.606083) scale(0.1 -0.1)">
       <use xlink:href="#DejaVuSans-2212"/>
       <use xlink:href="#DejaVuSans-32" x="83.789062"/>
      </g>
     </g>
    </g>
    <g id="ytick_3">
     <g id="line2d_10">
      <g>
       <use xlink:href="#ma6d66cf4fb" x="49.088" y="159.743785" style="stroke: #000000; stroke-width: 0.8"/>
      </g>
     </g>
     <g id="text_11">
      <!-- 0 -->
      <g style="fill: #ff7f0e" transform="translate(35.7255 163.543004) scale(0.1 -0.1)">
       <use xlink:href="#DejaVuSans-30"/>
      </g>
     </g>
    </g>
    <g id="ytick_4">
     <g id="line2d_11">
      <g>
       <use xlink:href="#ma6d66cf4fb" x="49.088" y="105.680705" style="stroke: #000000; stroke-width: 0.8"/>
      </g>
     </g>
     <g id="text_12">
      <!-- 2 -->
      <g style="fill: #ff7f0e" transform="translate(35.7255 109.479924) scale(0.1 -0.1)">
       <use xlink:href="#DejaVuSans-32"/>
      </g>
     </g>
    </g>
    <g id="ytick_5">
     <g id="line2d_12">
      <g>
       <use xlink:href="#ma6d66cf4fb" x="49.088" y="51.617625" style="stroke: #000000; stroke-width: 0.8"/>
      </g>
     </g>
     <g id="text_13">
      <!-- 4 -->
      <g style="fill: #ff7f0e" transform="translate(35.7255 55.416844) scale(0.1 -0.1)">
       <use xlink:href="#DejaVuSans-34"/>
      </g>
     </g>
    </g>
    <g id="text_14">
     <!-- $V_{\mathrm{out}}$ (V) -->
     <g style="fill: #ff7f0e" transform="translate(21.266125 174.75) rotate(-90) scale(0.1 -0.1)">
      <defs>
       <path id="DejaVuSans-Oblique-56" d="M 1319 0 
L 500 4666 
L 1119 4666 
L 1797 653 
L 4063 4666 
L 4750 4666 
L 2053 0 
L 1319 0 
z
" transform="scale(0.015625)"/>
       <path id="DejaVuSans-6f" d="M 1959 3097 
Q 1497 3097 1228 2736 
Q 959 2375 959 1747 
Q 959 1119 1226 758 
Q 1494 397 1959 397 
Q 2419 397 2687 759 
Q 2956 1122 2956 1747 
Q 2956 2369 2687 2733 
Q 2419 3097 1959 3097 
z
M 1959 3584 
Q 2709 3584 3137 3096 
Q 3566 2609 3566 1747 
Q 3566 888 3137 398 
Q 2709 -91 1959 -91 
Q 1206 -91 779 398 
Q 353 888 353 1747 
Q 353 2609 779 3096 
Q 1206 3584 1959 3584 
z
" transform="scale(0.015625)"/>
       <path id="DejaVuSans-75" d="M 544 1381 
L 544 3500 
L 1119 3500 
L 1119 1403 
Q 1119 906 1312 657 
Q 1506 409 1894 409 
Q 2359 409 2629 706 
Q 2900 1003 2900 1516 
L 2900 3500 
L 3475 3500 
L 3475 0 
L 2900 0 
L 2900 538 
Q 2691 219 2414 64 
Q 2138 -91 1772 -91 
Q 1169 -91 856 284 
Q 544 659 544 1381 
z
M 1991 3584 
L 1991 3584 
z
" transform="scale(0.015625)"/>
       <path id="DejaVuSans-74" d="M 1172 4494 
L 1172 3500 
L 2356 3500 
L 2356 3053 
L 1172 3053 
L 1172 1153 
Q 1172 725 1289 603 
Q 1406 481 1766 481 
L 2356 481 
L 2356 0 
L 1766 0 
Q 1100 0 847 248 
Q 594 497 594 1153 
L 594 3053 
L 172 3053 
L 172 3500 
L 594 3500 
L 594 4494 
L 1172 4494 
z
" transform="scale(0.015625)"/>
       <path id="DejaVuSans-56" d="M 1831 0 
L 50 4666 
L 709 4666 
L 2188 738 
L 3669 4666 
L 4325 4666 
L 2547 0 
L 1831 0 
z
" transform="scale(0.015625)"/>
      </defs>
      <use xlink:href="#DejaVuSans-Oblique-56" transform="translate(0 0.125)"/>
      <use xlink:href="#DejaVuSans-6f" transform="translate(68.408203 -16.28125) scale(0.7)"/>
      <use xlink:href="#DejaVuSans-75" transform="translate(111.235352 -16.28125) scale(0.7)"/>
      <use xlink:href="#DejaVuSans-74" transform="translate(155.600586 -16.28125) scale(0.7)"/>
      <use xlink:href="#DejaVuSans-20" transform="translate(185.78125 0.125)"/>
      <use xlink:href="#DejaVuSans-28" transform="translate(217.568359 0.125)"/>
      <use xlink:href="#DejaVuSans-56" transform="translate(256.582031 0.125)"/>
      <use xlink:href="#DejaVuSans-29" transform="translate(324.990234 0.125)"/>
     </g>
    </g>
   </g>
   <g id="line2d_13">
    <path d="M 64.265909 137.577922 
L 65.786234 105.140074 
L 66.293009 99.733766 
L 66.799784 88.92115 
L 67.306559 88.92115 
L 67.813334 72.702226 
L 68.320109 72.702226 
L 68.826883 61.88961 
L 69.333658 56.483302 
L 69.840433 45.670686 
L 70.347208 51.076994 
L 70.853983 40.264378 
L 71.360758 40.264378 
L 71.867533 34.858071 
L 72.374308 40.264378 
L 72.881083 34.858071 
L 73.387858 34.858071 
L 73.894633 29.451763 
L 74.401408 34.858071 
L 74.908183 29.451763 
L 75.921732 40.264378 
L 76.428507 34.858071 
L 76.935282 45.670686 
L 77.442057 45.670686 
L 77.948832 56.483302 
L 78.455607 51.076994 
L 78.962382 61.88961 
L 79.469157 61.88961 
L 79.975932 78.108534 
L 80.482707 72.702226 
L 80.989482 94.327458 
L 81.496257 94.327458 
L 82.003032 115.95269 
L 82.509806 115.95269 
L 83.016581 126.765306 
L 83.523356 126.765306 
L 84.030131 148.390538 
L 84.536906 142.98423 
L 85.043681 164.609462 
L 85.550456 164.609462 
L 86.057231 180.828386 
L 86.564006 180.828386 
L 87.070781 191.641002 
L 87.577556 191.641002 
L 88.084331 202.453618 
L 88.591106 207.859926 
L 89.097881 224.07885 
L 89.604655 224.07885 
L 90.11143 229.485158 
L 90.618205 229.485158 
L 91.12498 245.704082 
L 91.631755 245.704082 
L 92.13853 251.11039 
L 92.645305 251.11039 
L 93.15208 261.923006 
L 93.658855 261.923006 
L 94.16563 267.329314 
L 94.672405 267.329314 
L 95.17918 272.735622 
L 95.685955 272.735622 
L 96.19273 278.141929 
L 97.713054 278.141929 
L 98.219829 283.548237 
L 98.726604 283.548237 
L 99.233379 278.141929 
L 99.740154 278.141929 
L 100.246929 283.548237 
L 100.753704 283.548237 
L 101.260479 272.735622 
L 101.767254 278.141929 
L 102.274029 272.735622 
L 102.780804 278.141929 
L 103.287579 267.329314 
L 103.794353 272.735622 
L 104.301128 261.923006 
L 104.807903 267.329314 
L 105.314678 256.516698 
L 105.821453 261.923006 
L 106.328228 251.11039 
L 106.835003 251.11039 
L 107.341778 240.297774 
L 107.848553 240.297774 
L 108.355328 229.485158 
L 108.862103 229.485158 
L 109.368878 218.672542 
L 109.875653 218.672542 
L 110.382428 202.453618 
L 110.889202 202.453618 
L 111.395977 191.641002 
L 111.902752 186.234694 
L 112.409527 170.01577 
L 112.916302 170.01577 
L 113.423077 153.796846 
L 113.929852 159.203154 
L 114.436627 137.577922 
L 114.943402 132.171614 
L 115.450177 121.358998 
L 115.956952 121.358998 
L 116.463727 99.733766 
L 116.970502 105.140074 
L 117.477277 83.514842 
L 117.984051 83.514842 
L 118.490826 67.295918 
L 118.997601 72.702226 
L 119.504376 56.483302 
L 120.011151 56.483302 
L 120.517926 45.670686 
L 121.024701 40.264378 
L 121.531476 45.670686 
L 122.038251 40.264378 
L 122.545026 29.451763 
L 123.051801 34.858071 
L 123.558576 24.045455 
L 124.065351 24.045455 
L 124.572126 34.858071 
L 125.0789 34.858071 
L 125.585675 29.451763 
L 126.09245 29.451763 
L 126.599225 34.858071 
L 127.106 34.858071 
L 127.612775 40.264378 
L 128.11955 40.264378 
L 128.626325 45.670686 
L 129.1331 45.670686 
L 129.639875 61.88961 
L 130.14665 56.483302 
L 130.653425 72.702226 
L 131.1602 72.702226 
L 131.666975 88.92115 
L 132.173749 88.92115 
L 132.680524 105.140074 
L 133.187299 105.140074 
L 133.694074 115.95269 
L 134.200849 121.358998 
L 134.707624 137.577922 
L 135.214399 137.577922 
L 135.721174 153.796846 
L 136.227949 153.796846 
L 136.734724 175.422078 
L 137.241499 175.422078 
L 137.748274 186.234694 
L 138.255049 191.641002 
L 138.761823 202.453618 
L 139.268598 202.453618 
L 139.775373 213.266234 
L 140.282148 218.672542 
L 140.788923 229.485158 
L 141.295698 229.485158 
L 141.802473 240.297774 
L 142.309248 240.297774 
L 142.816023 251.11039 
L 143.322798 251.11039 
L 143.829573 261.923006 
L 144.336348 256.516698 
L 144.843123 267.329314 
L 145.349898 261.923006 
L 145.856672 272.735622 
L 146.363447 267.329314 
L 146.870222 278.141929 
L 147.376997 272.735622 
L 148.390547 283.548237 
L 148.897322 278.141929 
L 149.404097 278.141929 
L 149.910872 283.548237 
L 150.417647 283.548237 
L 150.924422 278.141929 
L 151.431197 278.141929 
L 151.937972 283.548237 
L 152.951521 272.735622 
L 153.458296 278.141929 
L 153.965071 272.735622 
L 154.471846 272.735622 
L 154.978621 261.923006 
L 155.485396 267.329314 
L 155.992171 256.516698 
L 156.498946 261.923006 
L 157.005721 251.11039 
L 157.512496 245.704082 
L 158.019271 251.11039 
L 159.032821 229.485158 
L 159.539596 229.485158 
L 160.04637 218.672542 
L 160.553145 218.672542 
L 161.05992 202.453618 
L 161.566695 202.453618 
L 162.07347 186.234694 
L 162.580245 186.234694 
L 163.08702 170.01577 
L 163.593795 170.01577 
L 164.10057 159.203154 
L 164.607345 159.203154 
L 165.11412 137.577922 
L 165.620895 132.171614 
L 166.12767 121.358998 
L 166.634445 121.358998 
L 167.141219 105.140074 
L 167.647994 110.546382 
L 168.154769 88.92115 
L 168.661544 88.92115 
L 169.168319 72.702226 
L 169.675094 72.702226 
L 170.181869 56.483302 
L 170.688644 61.88961 
L 171.195419 51.076994 
L 171.702194 51.076994 
L 172.208969 40.264378 
L 172.715744 40.264378 
L 173.222519 34.858071 
L 173.729294 40.264378 
L 174.236068 29.451763 
L 174.742843 29.451763 
L 175.249618 34.858071 
L 175.756393 29.451763 
L 176.263168 40.264378 
L 176.769943 34.858071 
L 177.276718 40.264378 
L 178.797043 40.264378 
L 179.303818 51.076994 
L 179.810593 51.076994 
L 180.317368 67.295918 
L 180.824143 61.88961 
L 181.330917 78.108534 
L 181.837692 78.108534 
L 182.344467 94.327458 
L 182.851242 94.327458 
L 183.358017 110.546382 
L 183.864792 110.546382 
L 184.371567 132.171614 
L 184.878342 126.765306 
L 185.385117 142.98423 
L 185.891892 148.390538 
L 186.398667 164.609462 
L 186.905442 164.609462 
L 187.412217 180.828386 
L 187.918992 180.828386 
L 188.425766 197.04731 
L 188.932541 197.04731 
L 189.439316 207.859926 
L 189.946091 207.859926 
L 190.452866 224.07885 
L 190.959641 224.07885 
L 191.466416 234.891466 
L 191.973191 229.485158 
L 192.479966 245.704082 
L 192.986741 251.11039 
L 193.493516 245.704082 
L 194.000291 251.11039 
L 194.507066 261.923006 
L 195.01384 261.923006 
L 195.520615 272.735622 
L 196.02739 267.329314 
L 196.534165 272.735622 
L 197.04094 272.735622 
L 197.547715 278.141929 
L 198.05449 278.141929 
L 198.561265 283.548237 
L 199.06804 283.548237 
L 199.574815 278.141929 
L 200.08159 278.141929 
L 200.588365 288.954545 
L 201.09514 278.141929 
L 201.601915 288.954545 
L 202.615464 278.141929 
L 203.122239 278.141929 
L 203.629014 283.548237 
L 204.642564 272.735622 
L 205.149339 272.735622 
L 205.656114 267.329314 
L 206.162889 272.735622 
L 206.669664 261.923006 
L 207.176439 261.923006 
L 207.683214 251.11039 
L 208.189989 251.11039 
L 208.696764 240.297774 
L 209.203538 240.297774 
L 209.710313 229.485158 
L 210.217088 234.891466 
L 210.723863 218.672542 
L 211.230638 218.672542 
L 211.737413 202.453618 
L 212.244188 202.453618 
L 212.750963 191.641002 
L 213.257738 186.234694 
L 213.764513 175.422078 
L 214.271288 175.422078 
L 214.778063 159.203154 
L 215.284838 153.796846 
L 215.791613 142.98423 
L 216.298387 142.98423 
L 216.805162 121.358998 
L 217.311937 121.358998 
L 217.818712 105.140074 
L 218.325487 105.140074 
L 218.832262 88.92115 
L 219.339037 88.92115 
L 219.845812 72.702226 
L 220.352587 72.702226 
L 220.859362 56.483302 
L 221.366137 61.88961 
L 221.872912 51.076994 
L 222.886462 40.264378 
L 223.393236 40.264378 
L 223.900011 34.858071 
L 224.406786 40.264378 
L 224.913561 29.451763 
L 225.420336 29.451763 
L 225.927111 34.858071 
L 226.433886 34.858071 
L 226.940661 29.451763 
L 227.954211 40.264378 
L 228.460986 40.264378 
L 228.967761 34.858071 
L 229.474536 40.264378 
L 229.981311 51.076994 
L 230.488085 51.076994 
L 230.99486 61.88961 
L 231.501635 61.88961 
L 232.00841 78.108534 
L 232.515185 72.702226 
L 233.02196 88.92115 
L 233.528735 88.92115 
L 234.03551 105.140074 
L 234.542285 110.546382 
L 235.04906 121.358998 
L 235.555835 121.358998 
L 236.06261 142.98423 
L 236.569385 142.98423 
L 237.07616 159.203154 
L 237.582934 159.203154 
L 238.089709 175.422078 
L 238.596484 180.828386 
L 239.103259 191.641002 
L 239.610034 191.641002 
L 240.116809 202.453618 
L 240.623584 207.859926 
L 241.130359 224.07885 
L 241.637134 224.07885 
L 242.143909 229.485158 
L 242.650684 229.485158 
L 243.157459 245.704082 
L 243.664234 245.704082 
L 244.171008 256.516698 
L 244.677783 251.11039 
L 245.184558 261.923006 
L 245.691333 261.923006 
L 246.198108 267.329314 
L 246.704883 267.329314 
L 247.211658 272.735622 
L 247.718433 272.735622 
L 248.225208 278.141929 
L 248.731983 272.735622 
L 249.745533 283.548237 
L 250.252308 278.141929 
L 250.759083 278.141929 
L 251.265857 288.954545 
L 251.772632 288.954545 
L 252.279407 278.141929 
L 252.786182 288.954545 
L 253.292957 278.141929 
L 253.799732 288.954545 
L 254.306507 278.141929 
L 254.813282 278.141929 
L 255.320057 272.735622 
L 256.333607 272.735622 
L 257.347157 261.923006 
L 257.853932 261.923006 
L 258.360706 251.11039 
L 258.867481 256.516698 
L 259.374256 245.704082 
L 259.881031 245.704082 
L 260.387806 234.891466 
L 260.894581 229.485158 
L 261.401356 218.672542 
L 261.908131 224.07885 
L 262.414906 202.453618 
L 262.921681 202.453618 
L 263.428456 197.04731 
L 263.935231 197.04731 
L 264.442006 180.828386 
L 264.948781 175.422078 
L 265.455555 159.203154 
L 265.96233 159.203154 
L 266.469105 142.98423 
L 266.97588 142.98423 
L 267.482655 126.765306 
L 267.98943 126.765306 
L 268.496205 105.140074 
L 269.00298 105.140074 
L 269.509755 94.327458 
L 270.01653 88.92115 
L 270.523305 78.108534 
L 271.03008 72.702226 
L 271.536855 61.88961 
L 272.04363 61.88961 
L 272.550404 51.076994 
L 273.057179 51.076994 
L 273.563954 40.264378 
L 274.070729 40.264378 
L 274.577504 34.858071 
L 275.084279 40.264378 
L 276.097829 29.451763 
L 276.604604 40.264378 
L 277.111379 29.451763 
L 277.618154 34.858071 
L 278.124929 34.858071 
L 278.631704 40.264378 
L 279.138479 40.264378 
L 279.645253 34.858071 
L 280.152028 40.264378 
L 280.658803 51.076994 
L 281.165578 51.076994 
L 281.672353 61.88961 
L 282.179128 61.88961 
L 282.685903 78.108534 
L 283.192678 72.702226 
L 283.699453 94.327458 
L 284.206228 94.327458 
L 284.713003 105.140074 
L 285.219778 110.546382 
L 285.726553 121.358998 
L 286.233328 121.358998 
L 286.740102 142.98423 
L 287.246877 142.98423 
L 287.753652 159.203154 
L 288.260427 159.203154 
L 288.767202 180.828386 
L 289.273977 180.828386 
L 289.780752 197.04731 
L 290.287527 191.641002 
L 290.794302 207.859926 
L 291.301077 202.453618 
L 291.807852 224.07885 
L 292.314627 224.07885 
L 292.821402 229.485158 
L 293.328177 229.485158 
L 293.834951 245.704082 
L 294.341726 245.704082 
L 295.862051 261.923006 
L 296.368826 261.923006 
L 296.875601 267.329314 
L 297.382376 267.329314 
L 297.889151 272.735622 
L 298.395926 272.735622 
L 298.902701 278.141929 
L 299.409476 278.141929 
L 299.916251 283.548237 
L 300.423025 278.141929 
L 300.9298 283.548237 
L 301.436575 278.141929 
L 301.94335 288.954545 
L 302.450125 288.954545 
L 302.9569 278.141929 
L 303.463675 288.954545 
L 303.97045 278.141929 
L 304.477225 283.548237 
L 304.984 272.735622 
L 305.490775 272.735622 
L 305.99755 278.141929 
L 307.0111 267.329314 
L 307.517874 267.329314 
L 308.024649 261.923006 
L 308.531424 261.923006 
L 309.038199 251.11039 
L 309.544974 251.11039 
L 310.051749 245.704082 
L 310.558524 245.704082 
L 311.065299 229.485158 
L 311.572074 229.485158 
L 312.078849 218.672542 
L 312.585624 224.07885 
L 313.092399 202.453618 
L 313.599174 202.453618 
L 314.105949 191.641002 
L 314.612723 191.641002 
L 315.119498 175.422078 
L 315.626273 170.01577 
L 316.133048 159.203154 
L 316.639823 153.796846 
L 317.146598 142.98423 
L 317.653373 137.577922 
L 318.160148 121.358998 
L 318.666923 121.358998 
L 319.173698 105.140074 
L 319.680473 105.140074 
L 320.187248 88.92115 
L 320.694023 83.514842 
L 321.200798 72.702226 
L 321.707572 72.702226 
L 322.214347 56.483302 
L 322.721122 56.483302 
L 323.227897 40.264378 
L 323.734672 51.076994 
L 324.241447 40.264378 
L 324.748222 40.264378 
L 325.254997 34.858071 
L 325.761772 34.858071 
L 326.268547 29.451763 
L 326.775322 34.858071 
L 327.282097 29.451763 
L 327.788872 34.858071 
L 328.295647 29.451763 
L 328.802421 29.451763 
L 329.309196 40.264378 
L 330.829521 40.264378 
L 331.843071 51.076994 
L 332.349846 67.295918 
L 332.856621 56.483302 
L 333.363396 78.108534 
L 333.870171 72.702226 
L 334.376946 88.92115 
L 334.883721 88.92115 
L 335.390496 99.733766 
L 335.89727 105.140074 
L 336.404045 121.358998 
L 336.91082 121.358998 
L 337.417595 137.577922 
L 337.92437 137.577922 
L 338.431145 153.796846 
L 338.93792 153.796846 
L 339.444695 175.422078 
L 339.95147 175.422078 
L 340.458245 186.234694 
L 340.96502 186.234694 
L 341.471795 197.04731 
L 341.97857 202.453618 
L 342.485345 213.266234 
L 342.992119 213.266234 
L 343.498894 224.07885 
L 344.005669 224.07885 
L 344.512444 240.297774 
L 345.019219 240.297774 
L 346.539544 256.516698 
L 347.046319 256.516698 
L 347.553094 267.329314 
L 348.059869 261.923006 
L 348.566644 272.735622 
L 349.073419 272.735622 
L 349.580194 267.329314 
L 350.593743 278.141929 
L 351.100518 272.735622 
L 351.607293 278.141929 
L 352.114068 278.141929 
L 352.620843 283.548237 
L 353.127618 283.548237 
L 353.634393 272.735622 
L 354.141168 283.548237 
L 354.647943 272.735622 
L 355.154718 272.735622 
L 355.661493 278.141929 
L 356.675042 267.329314 
L 357.181817 272.735622 
L 357.688592 261.923006 
L 358.195367 267.329314 
L 358.702142 256.516698 
L 359.208917 261.923006 
L 359.715692 245.704082 
L 360.222467 251.11039 
L 360.729242 240.297774 
L 361.236017 240.297774 
L 361.742792 229.485158 
L 362.249567 229.485158 
L 362.756342 213.266234 
L 363.263117 213.266234 
L 363.769891 202.453618 
L 364.276666 202.453618 
L 364.783441 186.234694 
L 365.290216 186.234694 
L 365.796991 170.01577 
L 366.303766 170.01577 
L 366.810541 153.796846 
L 367.317316 148.390538 
L 367.824091 137.577922 
L 367.824091 137.577922 
" clip-path="url(#pbda08fc9e1)" style="fill: none; stroke: #ff7f0e; stroke-width: 1.5; stroke-linecap: square"/>
   </g>
   <g id="patch_3">
    <path d="M 49.088 302.2 
L 49.088 10.8 
" style="fill: none; stroke: #000000; stroke-width: 0.8; stroke-linejoin: miter; stroke-linecap: square"/>
   </g>
   <g id="patch_4">
    <path d="M 383.002 302.2 
L 383.002 10.8 
" style="fill: none; stroke: #000000; stroke-width: 0.8; stroke-linejoin: miter; stroke-linecap: square"/>
   </g>
   <g id="patch_5">
    <path d="M 49.088 302.2 
L 383.002 302.2 
" style="fill: none; stroke: #000000; stroke-width: 0.8; stroke-linejoin: miter; stroke-linecap: square"/>
   </g>
   <g id="patch_6">
    <path d="M 49.088 10.8 
L 383.002 10.8 
" style="fill: none; stroke: #000000; stroke-width: 0.8; stroke-linejoin: miter; stroke-linecap: square"/>
   </g>
  </g>
  <g id="axes_2">
   <g id="matplotlib.axis_3">
    <g id="ytick_6">
     <g id="line2d_14">
      <defs>
       <path id="m6d3623aca8" d="M 0 0 
L 3.5 0 
" style="stroke: #000000; stroke-width: 0.8"/>
      </defs>
      <g>
       <use xlink:href="#m6d3623aca8" x="383.002" y="301.925094" style="stroke: #000000; stroke-width: 0.8"/>
      </g>
     </g>
     <g id="text_15">
      <!-- −0.0125 -->
      <g style="fill: #1f77b4" transform="translate(390.002 305.724313) scale(0.1 -0.1)">
       <use xlink:href="#DejaVuSans-2212"/>
       <use xlink:href="#DejaVuSans-30" x="83.789062"/>
       <use xlink:href="#DejaVuSans-2e" x="147.412109"/>
       <use xlink:href="#DejaVuSans-30" x="179.199219"/>
       <use xlink:href="#DejaVuSans-31" x="242.822266"/>
       <use xlink:href="#DejaVuSans-32" x="306.445312"/>
       <use xlink:href="#DejaVuSans-35" x="370.068359"/>
      </g>
     </g>
    </g>
    <g id="ytick_7">
     <g id="line2d_15">
      <g>
       <use xlink:href="#m6d3623aca8" x="383.002" y="267.561887" style="stroke: #000000; stroke-width: 0.8"/>
      </g>
     </g>
     <g id="text_16">
      <!-- −0.0100 -->
      <g style="fill: #1f77b4" transform="translate(390.002 271.361106) scale(0.1 -0.1)">
       <use xlink:href="#DejaVuSans-2212"/>
       <use xlink:href="#DejaVuSans-30" x="83.789062"/>
       <use xlink:href="#DejaVuSans-2e" x="147.412109"/>
       <use xlink:href="#DejaVuSans-30" x="179.199219"/>
       <use xlink:href="#DejaVuSans-31" x="242.822266"/>
       <use xlink:href="#DejaVuSans-30" x="306.445312"/>
       <use xlink:href="#DejaVuSans-30" x="370.068359"/>
      </g>
     </g>
    </g>
    <g id="ytick_8">
     <g id="line2d_16">
      <g>
       <use xlink:href="#m6d3623aca8" x="383.002" y="233.198679" style="stroke: #000000; stroke-width: 0.8"/>
      </g>
     </g>
     <g id="text_17">
      <!-- −0.0075 -->
      <g style="fill: #1f77b4" transform="translate(390.002 236.997898) scale(0.1 -0.1)">
       <defs>
        <path id="DejaVuSans-37" d="M 525 4666 
L 3525 4666 
L 3525 4397 
L 1831 0 
L 1172 0 
L 2766 4134 
L 525 4134 
L 525 4666 
z
" transform="scale(0.015625)"/>
       </defs>
       <use xlink:href="#DejaVuSans-2212"/>
       <use xlink:href="#DejaVuSans-30" x="83.789062"/>
       <use xlink:href="#DejaVuSans-2e" x="147.412109"/>
       <use xlink:href="#DejaVuSans-30" x="179.199219"/>
       <use xlink:href="#DejaVuSans-30" x="242.822266"/>
       <use xlink:href="#DejaVuSans-37" x="306.445312"/>
       <use xlink:href="#DejaVuSans-35" x="370.068359"/>
      </g>
     </g>
    </g>
    <g id="ytick_9">
     <g id="line2d_17">
      <g>
       <use xlink:href="#m6d3623aca8" x="383.002" y="198.835472" style="stroke: #000000; stroke-width: 0.8"/>
      </g>
     </g>
     <g id="text_18">
      <!-- −0.0050 -->
      <g style="fill: #1f77b4" transform="translate(390.002 202.63469) scale(0.1 -0.1)">
       <use xlink:href="#DejaVuSans-2212"/>
       <use xlink:href="#DejaVuSans-30" x="83.789062"/>
       <use xlink:href="#DejaVuSans-2e" x="147.412109"/>
       <use xlink:href="#DejaVuSans-30" x="179.199219"/>
       <use xlink:href="#DejaVuSans-30" x="242.822266"/>
       <use xlink:href="#DejaVuSans-35" x="306.445312"/>
       <use xlink:href="#DejaVuSans-30" x="370.068359"/>
      </g>
     </g>
    </g>
    <g id="ytick_10">
     <g id="line2d_18">
      <g>
       <use xlink:href="#m6d3623aca8" x="383.002" y="164.472264" style="stroke: #000000; stroke-width: 0.8"/>
      </g>
     </g>
     <g id="text_19">
      <!-- −0.0025 -->
      <g style="fill: #1f77b4" transform="translate(390.002 168.271483) scale(0.1 -0.1)">
       <use xlink:href="#DejaVuSans-2212"/>
       <use xlink:href="#DejaVuSans-30" x="83.789062"/>
       <use xlink:href="#DejaVuSans-2e" x="147.412109"/>
       <use xlink:href="#DejaVuSans-30" x="179.199219"/>
       <use xlink:href="#DejaVuSans-30" x="242.822266"/>
       <use xlink:href="#DejaVuSans-32" x="306.445312"/>
       <use xlink:href="#DejaVuSans-35" x="370.068359"/>
      </g>
     </g>
    </g>
    <g id="ytick_11">
     <g id="line2d_19">
      <g>
       <use xlink:href="#m6d3623aca8" x="383.002" y="130.109057" style="stroke: #000000; stroke-width: 0.8"/>
      </g>
     </g>
     <g id="text_20">
      <!-- 0.0000 -->
      <g style="fill: #1f77b4" transform="translate(390.002 133.908275) scale(0.1 -0.1)">
       <use xlink:href="#DejaVuSans-30"/>
       <use xlink:href="#DejaVuSans-2e" x="63.623047"/>
       <use xlink:href="#DejaVuSans-30" x="95.410156"/>
       <use xlink:href="#DejaVuSans-30" x="159.033203"/>
       <use xlink:href="#DejaVuSans-30" x="222.65625"/>
       <use xlink:href="#DejaVuSans-30" x="286.279297"/>
      </g>
     </g>
    </g>
    <g id="ytick_12">
     <g id="line2d_20">
      <g>
       <use xlink:href="#m6d3623aca8" x="383.002" y="95.745849" style="stroke: #000000; stroke-width: 0.8"/>
      </g>
     </g>
     <g id="text_21">
      <!-- 0.0025 -->
      <g style="fill: #1f77b4" transform="translate(390.002 99.545068) scale(0.1 -0.1)">
       <use xlink:href="#DejaVuSans-30"/>
       <use xlink:href="#DejaVuSans-2e" x="63.623047"/>
       <use xlink:href="#DejaVuSans-30" x="95.410156"/>
       <use xlink:href="#DejaVuSans-30" x="159.033203"/>
       <use xlink:href="#DejaVuSans-32" x="222.65625"/>
       <use xlink:href="#DejaVuSans-35" x="286.279297"/>
      </g>
     </g>
    </g>
    <g id="ytick_13">
     <g id="line2d_21">
      <g>
       <use xlink:href="#m6d3623aca8" x="383.002" y="61.382642" style="stroke: #000000; stroke-width: 0.8"/>
      </g>
     </g>
     <g id="text_22">
      <!-- 0.0050 -->
      <g style="fill: #1f77b4" transform="translate(390.002 65.18186) scale(0.1 -0.1)">
       <use xlink:href="#DejaVuSans-30"/>
       <use xlink:href="#DejaVuSans-2e" x="63.623047"/>
       <use xlink:href="#DejaVuSans-30" x="95.410156"/>
       <use xlink:href="#DejaVuSans-30" x="159.033203"/>
       <use xlink:href="#DejaVuSans-35" x="222.65625"/>
       <use xlink:href="#DejaVuSans-30" x="286.279297"/>
      </g>
     </g>
    </g>
    <g id="ytick_14">
     <g id="line2d_22">
      <g>
       <use xlink:href="#m6d3623aca8" x="383.002" y="27.019434" style="stroke: #000000; stroke-width: 0.8"/>
      </g>
     </g>
     <g id="text_23">
      <!-- 0.0075 -->
      <g style="fill: #1f77b4" transform="translate(390.002 30.818653) scale(0.1 -0.1)">
       <use xlink:href="#DejaVuSans-30"/>
       <use xlink:href="#DejaVuSans-2e" x="63.623047"/>
       <use xlink:href="#DejaVuSans-30" x="95.410156"/>
       <use xlink:href="#DejaVuSans-30" x="159.033203"/>
       <use xlink:href="#DejaVuSans-37" x="222.65625"/>
       <use xlink:href="#DejaVuSans-35" x="286.279297"/>
      </g>
     </g>
    </g>
    <g id="text_24">
     <!-- $V_{\mathrm{in}}$ (V) -->
     <g style="fill: #1f77b4" transform="translate(444.97075 172.2) rotate(-90) scale(0.1 -0.1)">
      <defs>
       <path id="DejaVuSans-69" d="M 603 3500 
L 1178 3500 
L 1178 0 
L 603 0 
L 603 3500 
z
M 603 4863 
L 1178 4863 
L 1178 4134 
L 603 4134 
L 603 4863 
z
" transform="scale(0.015625)"/>
       <path id="DejaVuSans-6e" d="M 3513 2113 
L 3513 0 
L 2938 0 
L 2938 2094 
Q 2938 2591 2744 2837 
Q 2550 3084 2163 3084 
Q 1697 3084 1428 2787 
Q 1159 2491 1159 1978 
L 1159 0 
L 581 0 
L 581 3500 
L 1159 3500 
L 1159 2956 
Q 1366 3272 1645 3428 
Q 1925 3584 2291 3584 
Q 2894 3584 3203 3211 
Q 3513 2838 3513 2113 
z
" transform="scale(0.015625)"/>
      </defs>
      <use xlink:href="#DejaVuSans-Oblique-56" transform="translate(0 0.125)"/>
      <use xlink:href="#DejaVuSans-69" transform="translate(68.408203 -16.28125) scale(0.7)"/>
      <use xlink:href="#DejaVuSans-6e" transform="translate(87.856445 -16.28125) scale(0.7)"/>
      <use xlink:href="#DejaVuSans-20" transform="translate(134.956055 0.125)"/>
      <use xlink:href="#DejaVuSans-28" transform="translate(166.743164 0.125)"/>
      <use xlink:href="#DejaVuSans-56" transform="translate(205.756836 0.125)"/>
      <use xlink:href="#DejaVuSans-29" transform="translate(274.165039 0.125)"/>
     </g>
    </g>
   </g>
   <g id="line2d_23">
    <path d="M 64.265909 174.918679 
L 64.772684 106.192264 
L 65.279459 114.439434 
L 65.786234 180.416792 
L 66.293009 114.439434 
L 66.799784 183.165849 
L 67.306559 111.690377 
L 67.813334 177.667736 
L 68.320109 125.43566 
L 68.826883 180.416792 
L 69.333658 122.686604 
L 69.840433 185.914906 
L 70.347208 119.937547 
L 70.853983 169.420566 
L 71.360758 136.431887 
L 71.867533 169.420566 
L 72.374308 130.933774 
L 72.881083 191.413019 
L 73.387858 180.416792 
L 73.894633 136.431887 
L 74.401408 130.933774 
L 74.908183 199.660189 
L 75.414958 130.933774 
L 75.921732 183.165849 
L 76.428507 183.165849 
L 76.935282 128.184717 
L 77.442057 125.43566 
L 77.948832 188.663962 
L 78.455607 125.43566 
L 78.962382 191.413019 
L 79.469157 180.416792 
L 79.975932 122.686604 
L 80.482707 122.686604 
L 80.989482 177.667736 
L 81.496257 122.686604 
L 82.003032 180.416792 
L 82.509806 172.169623 
L 83.016581 122.686604 
L 83.523356 117.188491 
L 84.030131 172.169623 
L 84.536906 174.918679 
L 85.043681 108.941321 
L 85.550456 169.420566 
L 86.057231 108.941321 
L 86.564006 174.918679 
L 87.070781 103.443208 
L 87.577556 108.941321 
L 88.084331 158.42434 
L 88.591106 92.446981 
L 89.097881 150.17717 
L 89.604655 150.17717 
L 90.11143 100.694151 
L 90.618205 158.42434 
L 91.12498 89.697925 
L 91.631755 95.196038 
L 92.13853 147.428113 
L 92.645305 84.199811 
L 93.15208 141.93 
L 93.658855 86.948868 
L 94.16563 161.173396 
L 94.672405 75.952642 
L 95.17918 144.679057 
L 95.685955 155.675283 
L 96.19273 81.450755 
L 96.699504 78.701698 
L 97.206279 125.43566 
L 97.713054 78.701698 
L 98.219829 136.431887 
L 98.726604 70.454528 
L 99.233379 141.93 
L 99.740154 141.93 
L 100.246929 75.952642 
L 100.753704 70.454528 
L 101.260479 130.933774 
L 101.767254 70.454528 
L 102.274029 136.431887 
L 102.780804 78.701698 
L 103.287579 125.43566 
L 103.794353 81.450755 
L 104.301128 147.428113 
L 104.807903 81.450755 
L 105.314678 141.93 
L 105.821453 70.454528 
L 106.328228 141.93 
L 106.835003 75.952642 
L 107.341778 136.431887 
L 107.848553 136.431887 
L 108.355328 81.450755 
L 108.862103 136.431887 
L 109.368878 84.199811 
L 109.875653 92.446981 
L 110.382428 147.428113 
L 110.889202 158.42434 
L 111.395977 86.948868 
L 111.902752 158.42434 
L 112.409527 89.697925 
L 112.916302 100.694151 
L 113.423077 163.922453 
L 113.929852 100.694151 
L 114.436627 163.922453 
L 114.943402 100.694151 
L 115.450177 158.42434 
L 115.956952 174.918679 
L 116.463727 106.192264 
L 116.970502 177.667736 
L 117.477277 111.690377 
L 117.984051 117.188491 
L 118.490826 177.667736 
L 118.997601 122.686604 
L 119.504376 183.165849 
L 120.011151 122.686604 
L 120.517926 177.667736 
L 121.024701 130.933774 
L 121.531476 174.918679 
L 122.038251 125.43566 
L 122.545026 185.914906 
L 123.051801 125.43566 
L 123.558576 185.914906 
L 124.065351 125.43566 
L 124.572126 196.911132 
L 125.0789 130.933774 
L 125.585675 196.911132 
L 126.09245 136.431887 
L 126.599225 177.667736 
L 127.106 130.933774 
L 127.612775 185.914906 
L 128.11955 128.184717 
L 128.626325 188.663962 
L 129.1331 125.43566 
L 129.639875 188.663962 
L 130.14665 125.43566 
L 130.653425 188.663962 
L 131.1602 122.686604 
L 131.666975 180.416792 
L 132.173749 180.416792 
L 132.680524 122.686604 
L 133.187299 119.937547 
L 133.694074 180.416792 
L 134.200849 180.416792 
L 134.707624 111.690377 
L 135.214399 180.416792 
L 135.721174 117.188491 
L 136.227949 169.420566 
L 136.734724 111.690377 
L 137.241499 169.420566 
L 137.748274 111.690377 
L 138.255049 152.926226 
L 138.761823 103.443208 
L 139.268598 163.922453 
L 139.775373 100.694151 
L 140.282148 169.420566 
L 140.788923 97.945094 
L 141.295698 166.671509 
L 141.802473 84.199811 
L 142.309248 95.196038 
L 142.816023 152.926226 
L 143.322798 136.431887 
L 143.829573 86.948868 
L 144.336348 139.180943 
L 144.843123 81.450755 
L 145.349898 144.679057 
L 145.856672 86.948868 
L 146.363447 81.450755 
L 146.870222 147.428113 
L 147.376997 136.431887 
L 147.883772 78.701698 
L 148.390547 73.203585 
L 148.897322 133.68283 
L 149.404097 147.428113 
L 149.910872 70.454528 
L 150.417647 70.454528 
L 150.924422 125.43566 
L 151.431197 136.431887 
L 151.937972 70.454528 
L 152.444747 75.952642 
L 152.951521 128.184717 
L 153.458296 75.952642 
L 153.965071 136.431887 
L 154.471846 141.93 
L 154.978621 81.450755 
L 155.485396 133.68283 
L 155.992171 78.701698 
L 156.498946 139.180943 
L 157.005721 75.952642 
L 157.512496 81.450755 
L 158.019271 152.926226 
L 158.526046 155.675283 
L 159.032821 78.701698 
L 159.539596 141.93 
L 160.04637 75.952642 
L 160.553145 89.697925 
L 161.05992 144.679057 
L 161.566695 95.196038 
L 162.07347 161.173396 
L 162.580245 100.694151 
L 163.08702 163.922453 
L 163.593795 166.671509 
L 164.10057 106.192264 
L 164.607345 103.443208 
L 165.11412 169.420566 
L 165.620895 108.941321 
L 166.12767 169.420566 
L 166.634445 106.192264 
L 167.141219 174.918679 
L 167.647994 177.667736 
L 168.154769 111.690377 
L 168.661544 111.690377 
L 169.168319 180.416792 
L 169.675094 169.420566 
L 170.181869 119.937547 
L 170.688644 188.663962 
L 171.195419 122.686604 
L 171.702194 125.43566 
L 172.208969 188.663962 
L 172.715744 122.686604 
L 173.222519 183.165849 
L 173.729294 177.667736 
L 174.236068 128.184717 
L 174.742843 125.43566 
L 175.249618 183.165849 
L 175.756393 180.416792 
L 176.263168 125.43566 
L 176.769943 133.68283 
L 177.276718 210.656415 
L 177.783493 174.918679 
L 178.290268 125.43566 
L 178.797043 136.431887 
L 179.303818 194.162075 
L 179.810593 133.68283 
L 180.317368 177.667736 
L 180.824143 133.68283 
L 181.330917 172.169623 
L 181.837692 177.667736 
L 182.344467 125.43566 
L 182.851242 174.918679 
L 183.358017 111.690377 
L 183.864792 169.420566 
L 184.371567 119.937547 
L 184.878342 183.165849 
L 185.385117 122.686604 
L 185.891892 180.416792 
L 186.398667 117.188491 
L 186.905442 119.937547 
L 187.412217 172.169623 
L 187.918992 111.690377 
L 188.425766 177.667736 
L 188.932541 155.675283 
L 189.439316 111.690377 
L 189.946091 161.173396 
L 190.452866 92.446981 
L 190.959641 166.671509 
L 191.466416 89.697925 
L 191.973191 92.446981 
L 192.479966 150.17717 
L 192.986741 95.196038 
L 193.493516 155.675283 
L 194.000291 141.93 
L 194.507066 84.199811 
L 195.01384 139.180943 
L 195.520615 81.450755 
L 196.02739 70.454528 
L 196.534165 155.675283 
L 197.04094 81.450755 
L 197.547715 150.17717 
L 198.05449 81.450755 
L 198.561265 130.933774 
L 199.06804 75.952642 
L 199.574815 125.43566 
L 200.08159 73.203585 
L 200.588365 136.431887 
L 201.09514 81.450755 
L 201.601915 139.180943 
L 202.108689 78.701698 
L 202.615464 122.686604 
L 203.122239 84.199811 
L 203.629014 139.180943 
L 204.135789 139.180943 
L 204.642564 75.952642 
L 205.149339 75.952642 
L 205.656114 139.180943 
L 206.162889 136.431887 
L 206.669664 78.701698 
L 207.176439 75.952642 
L 207.683214 147.428113 
L 208.189989 78.701698 
L 208.696764 133.68283 
L 209.203538 133.68283 
L 209.710313 84.199811 
L 210.217088 86.948868 
L 210.723863 150.17717 
L 211.230638 89.697925 
L 211.737413 141.93 
L 212.244188 92.446981 
L 212.750963 155.675283 
L 213.257738 150.17717 
L 213.764513 103.443208 
L 214.271288 103.443208 
L 214.778063 150.17717 
L 215.284838 103.443208 
L 215.791613 161.173396 
L 216.298387 158.42434 
L 216.805162 100.694151 
L 217.311937 155.675283 
L 217.818712 111.690377 
L 218.325487 111.690377 
L 218.832262 166.671509 
L 219.339037 119.937547 
L 219.845812 174.918679 
L 220.352587 114.439434 
L 220.859362 177.667736 
L 221.366137 114.439434 
L 221.872912 180.416792 
L 222.379687 185.914906 
L 222.886462 125.43566 
L 223.393236 128.184717 
L 223.900011 191.413019 
L 224.406786 188.663962 
L 224.913561 128.184717 
L 225.420336 130.933774 
L 225.927111 180.416792 
L 226.433886 133.68283 
L 226.940661 191.413019 
L 227.447436 128.184717 
L 227.954211 183.165849 
L 228.460986 169.420566 
L 228.967761 133.68283 
L 229.474536 191.413019 
L 229.981311 128.184717 
L 230.488085 122.686604 
L 230.99486 180.416792 
L 231.501635 130.933774 
L 232.00841 180.416792 
L 232.515185 125.43566 
L 233.02196 169.420566 
L 233.528735 122.686604 
L 234.03551 199.660189 
L 234.542285 180.416792 
L 235.04906 119.937547 
L 235.555835 119.937547 
L 236.06261 169.420566 
L 236.569385 103.443208 
L 237.07616 158.42434 
L 237.582934 183.165849 
L 238.089709 111.690377 
L 238.596484 108.941321 
L 239.103259 155.675283 
L 239.610034 106.192264 
L 240.116809 169.420566 
L 240.623584 106.192264 
L 241.130359 161.173396 
L 241.637134 155.675283 
L 242.143909 103.443208 
L 242.650684 100.694151 
L 243.157459 155.675283 
L 243.664234 158.42434 
L 244.171008 89.697925 
L 244.677783 89.697925 
L 245.184558 144.679057 
L 245.691333 158.42434 
L 246.198108 86.948868 
L 246.704883 136.431887 
L 247.211658 81.450755 
L 247.718433 147.428113 
L 248.225208 75.952642 
L 248.731983 81.450755 
L 249.238758 139.180943 
L 249.745533 144.679057 
L 250.252308 86.948868 
L 250.759083 81.450755 
L 251.265857 147.428113 
L 251.772632 78.701698 
L 252.279407 136.431887 
L 252.786182 125.43566 
L 253.292957 81.450755 
L 253.799732 139.180943 
L 254.306507 81.450755 
L 254.813282 147.428113 
L 255.320057 70.454528 
L 255.826832 73.203585 
L 256.333607 136.431887 
L 256.840382 141.93 
L 257.347157 70.454528 
L 257.853932 133.68283 
L 258.360706 75.952642 
L 258.867481 81.450755 
L 259.374256 147.428113 
L 259.881031 84.199811 
L 260.387806 147.428113 
L 260.894581 89.697925 
L 261.401356 155.675283 
L 261.908131 78.701698 
L 262.414906 128.184717 
L 262.921681 100.694151 
L 263.428456 155.675283 
L 263.935231 150.17717 
L 264.442006 100.694151 
L 264.948781 95.196038 
L 265.455555 158.42434 
L 265.96233 106.192264 
L 266.469105 166.671509 
L 266.97588 103.443208 
L 267.482655 163.922453 
L 267.98943 106.192264 
L 268.496205 158.42434 
L 269.00298 108.941321 
L 269.509755 177.667736 
L 270.01653 114.439434 
L 270.523305 161.173396 
L 271.03008 111.690377 
L 271.536855 174.918679 
L 272.04363 166.671509 
L 272.550404 119.937547 
L 273.057179 122.686604 
L 273.563954 166.671509 
L 274.070729 180.416792 
L 274.577504 125.43566 
L 275.084279 125.43566 
L 275.591054 177.667736 
L 276.097829 133.68283 
L 276.604604 191.413019 
L 277.111379 130.933774 
L 277.618154 191.413019 
L 278.124929 188.663962 
L 278.631704 128.184717 
L 279.138479 128.184717 
L 279.645253 180.416792 
L 280.152028 128.184717 
L 280.658803 180.416792 
L 281.165578 130.933774 
L 281.672353 216.154528 
L 282.179128 125.43566 
L 282.685903 191.413019 
L 283.192678 174.918679 
L 283.699453 119.937547 
L 284.206228 172.169623 
L 284.713003 119.937547 
L 285.219778 180.416792 
L 285.726553 117.188491 
L 286.233328 119.937547 
L 286.740102 166.671509 
L 287.246877 180.416792 
L 287.753652 108.941321 
L 288.260427 111.690377 
L 288.767202 169.420566 
L 289.273977 163.922453 
L 289.780752 111.690377 
L 290.287527 92.446981 
L 290.794302 158.42434 
L 291.301077 95.196038 
L 291.807852 166.671509 
L 292.314627 100.694151 
L 292.821402 163.922453 
L 293.328177 92.446981 
L 293.834951 150.17717 
L 294.341726 139.180943 
L 294.848501 92.446981 
L 295.355276 136.431887 
L 295.862051 81.450755 
L 296.368826 147.428113 
L 296.875601 84.199811 
L 297.382376 78.701698 
L 297.889151 133.68283 
L 298.395926 78.701698 
L 298.902701 128.184717 
L 299.409476 81.450755 
L 299.916251 139.180943 
L 300.423025 75.952642 
L 300.9298 133.68283 
L 301.436575 70.454528 
L 301.94335 130.933774 
L 302.450125 141.93 
L 302.9569 81.450755 
L 303.463675 147.428113 
L 303.97045 70.454528 
L 304.477225 78.701698 
L 304.984 147.428113 
L 305.490775 136.431887 
L 305.99755 78.701698 
L 306.504325 144.679057 
L 307.0111 81.450755 
L 307.517874 70.454528 
L 308.024649 136.431887 
L 308.531424 141.93 
L 309.038199 81.450755 
L 309.544974 75.952642 
L 310.051749 141.93 
L 310.558524 78.701698 
L 311.065299 133.68283 
L 311.572074 81.450755 
L 312.078849 139.180943 
L 312.585624 86.948868 
L 313.092399 163.922453 
L 313.599174 92.446981 
L 314.105949 136.431887 
L 314.612723 95.196038 
L 315.119498 152.926226 
L 315.626273 103.443208 
L 316.133048 155.675283 
L 316.639823 103.443208 
L 317.146598 155.675283 
L 317.653373 108.941321 
L 318.160148 161.173396 
L 318.666923 174.918679 
L 319.173698 92.446981 
L 319.680473 163.922453 
L 320.187248 103.443208 
L 320.694023 114.439434 
L 321.200798 166.671509 
L 321.707572 117.188491 
L 322.214347 188.663962 
L 322.721122 119.937547 
L 323.227897 191.413019 
L 323.734672 125.43566 
L 324.241447 188.663962 
L 324.748222 122.686604 
L 325.254997 174.918679 
L 325.761772 125.43566 
L 326.268547 174.918679 
L 326.775322 128.184717 
L 327.282097 172.169623 
L 327.788872 128.184717 
L 328.295647 199.660189 
L 328.802421 125.43566 
L 329.309196 169.420566 
L 329.815971 177.667736 
L 330.322746 133.68283 
L 330.829521 133.68283 
L 331.336296 177.667736 
L 331.843071 188.663962 
L 332.349846 122.686604 
L 332.856621 133.68283 
L 333.363396 191.413019 
L 333.870171 125.43566 
L 334.376946 172.169623 
L 334.883721 125.43566 
L 335.390496 188.663962 
L 335.89727 111.690377 
L 336.404045 169.420566 
L 336.91082 177.667736 
L 337.417595 117.188491 
L 337.92437 177.667736 
L 338.431145 111.690377 
L 338.93792 180.416792 
L 339.444695 111.690377 
L 339.95147 108.941321 
L 340.458245 172.169623 
L 340.96502 166.671509 
L 341.471795 100.694151 
L 341.97857 155.675283 
L 342.485345 100.694151 
L 342.992119 97.945094 
L 343.498894 144.679057 
L 344.005669 92.446981 
L 344.512444 161.173396 
L 345.019219 158.42434 
L 345.525994 92.446981 
L 346.032769 141.93 
L 346.539544 84.199811 
L 347.046319 141.93 
L 347.553094 86.948868 
L 348.059869 84.199811 
L 348.566644 155.675283 
L 349.073419 144.679057 
L 349.580194 70.454528 
L 350.086968 70.454528 
L 350.593743 141.93 
L 351.100518 75.952642 
L 351.607293 139.180943 
L 352.114068 81.450755 
L 352.620843 122.686604 
L 353.127618 139.180943 
L 353.634393 75.952642 
L 354.141168 81.450755 
L 354.647943 144.679057 
L 355.154718 70.454528 
L 355.661493 136.431887 
L 356.168268 81.450755 
L 356.675042 144.679057 
L 357.181817 141.93 
L 357.688592 84.199811 
L 358.195367 75.952642 
L 358.702142 144.679057 
L 359.208917 84.199811 
L 359.715692 133.68283 
L 360.222467 81.450755 
L 360.729242 150.17717 
L 361.236017 78.701698 
L 361.742792 130.933774 
L 362.249567 147.428113 
L 362.756342 86.948868 
L 363.263117 92.446981 
L 363.769891 158.42434 
L 364.276666 92.446981 
L 364.783441 144.679057 
L 365.290216 100.694151 
L 365.796991 158.42434 
L 366.303766 100.694151 
L 366.810541 163.922453 
L 367.317316 103.443208 
L 367.824091 166.671509 
L 367.824091 166.671509 
" clip-path="url(#pbda08fc9e1)" style="fill: none; stroke: #1f77b4; stroke-opacity: 0.5; stroke-width: 1.5; stroke-linecap: square"/>
   </g>
   <g id="patch_7">
    <path d="M 49.088 302.2 
L 49.088 10.8 
" style="fill: none; stroke: #000000; stroke-width: 0.8; stroke-linejoin: miter; stroke-linecap: square"/>
   </g>
   <g id="patch_8">
    <path d="M 383.002 302.2 
L 383.002 10.8 
" style="fill: none; stroke: #000000; stroke-width: 0.8; stroke-linejoin: miter; stroke-linecap: square"/>
   </g>
   <g id="patch_9">
    <path d="M 49.088 302.2 
L 383.002 302.2 
" style="fill: none; stroke: #000000; stroke-width: 0.8; stroke-linejoin: miter; stroke-linecap: square"/>
   </g>
   <g id="patch_10">
    <path d="M 49.088 10.8 
L 383.002 10.8 
" style="fill: none; stroke: #000000; stroke-width: 0.8; stroke-linejoin: miter; stroke-linecap: square"/>
   </g>
  </g>
  <g id="legend_1">
   <g id="patch_11">
    <path d="M 387.064062 37.35625 
L 453.8 37.35625 
Q 455.8 37.35625 455.8 35.35625 
L 455.8 7 
Q 455.8 5 453.8 5 
L 387.064062 5 
Q 385.064062 5 385.064062 7 
L 385.064062 35.35625 
Q 385.064062 37.35625 387.064062 37.35625 
z
" style="fill: #ffffff; opacity: 0.8; stroke: #cccccc; stroke-linejoin: miter"/>
   </g>
   <g id="line2d_24">
    <path d="M 389.064062 13.098437 
L 399.064062 13.098437 
L 409.064062 13.098437 
" style="fill: none; stroke: #ff7f0e; stroke-width: 1.5; stroke-linecap: square"/>
   </g>
   <g id="text_25">
    <!-- Output -->
    <g transform="translate(417.064062 16.598437) scale(0.1 -0.1)">
     <defs>
      <path id="DejaVuSans-4f" d="M 2522 4238 
Q 1834 4238 1429 3725 
Q 1025 3213 1025 2328 
Q 1025 1447 1429 934 
Q 1834 422 2522 422 
Q 3209 422 3611 934 
Q 4013 1447 4013 2328 
Q 4013 3213 3611 3725 
Q 3209 4238 2522 4238 
z
M 2522 4750 
Q 3503 4750 4090 4092 
Q 4678 3434 4678 2328 
Q 4678 1225 4090 567 
Q 3503 -91 2522 -91 
Q 1538 -91 948 565 
Q 359 1222 359 2328 
Q 359 3434 948 4092 
Q 1538 4750 2522 4750 
z
" transform="scale(0.015625)"/>
      <path id="DejaVuSans-70" d="M 1159 525 
L 1159 -1331 
L 581 -1331 
L 581 3500 
L 1159 3500 
L 1159 2969 
Q 1341 3281 1617 3432 
Q 1894 3584 2278 3584 
Q 2916 3584 3314 3078 
Q 3713 2572 3713 1747 
Q 3713 922 3314 415 
Q 2916 -91 2278 -91 
Q 1894 -91 1617 61 
Q 1341 213 1159 525 
z
M 3116 1747 
Q 3116 2381 2855 2742 
Q 2594 3103 2138 3103 
Q 1681 3103 1420 2742 
Q 1159 2381 1159 1747 
Q 1159 1113 1420 752 
Q 1681 391 2138 391 
Q 2594 391 2855 752 
Q 3116 1113 3116 1747 
z
" transform="scale(0.015625)"/>
     </defs>
     <use xlink:href="#DejaVuSans-4f"/>
     <use xlink:href="#DejaVuSans-75" x="78.710938"/>
     <use xlink:href="#DejaVuSans-74" x="142.089844"/>
     <use xlink:href="#DejaVuSans-70" x="181.298828"/>
     <use xlink:href="#DejaVuSans-75" x="244.775391"/>
     <use xlink:href="#DejaVuSans-74" x="308.154297"/>
    </g>
   </g>
   <g id="line2d_25">
    <path d="M 389.064062 27.776563 
L 399.064062 27.776563 
L 409.064062 27.776563 
" style="fill: none; stroke: #1f77b4; stroke-opacity: 0.5; stroke-width: 1.5; stroke-linecap: square"/>
   </g>
   <g id="text_26">
    <!-- Input -->
    <g transform="translate(417.064062 31.276563) scale(0.1 -0.1)">
     <defs>
      <path id="DejaVuSans-49" d="M 628 4666 
L 1259 4666 
L 1259 0 
L 628 0 
L 628 4666 
z
" transform="scale(0.015625)"/>
     </defs>
     <use xlink:href="#DejaVuSans-49"/>
     <use xlink:href="#DejaVuSans-6e" x="29.492188"/>
     <use xlink:href="#DejaVuSans-70" x="92.871094"/>
     <use xlink:href="#DejaVuSans-75" x="156.347656"/>
     <use xlink:href="#DejaVuSans-74" x="219.726562"/>
    </g>
   </g>
  </g>
 </g>
 <defs>
  <clipPath id="pbda08fc9e1">
   <rect x="49.088" y="10.8" width="333.914" height="291.4"/>
  </clipPath>
 </defs>
</svg>
