<?xml version="1.0" encoding="utf-8" standalone="no"?>
<!DOCTYPE svg PUBLIC "-//W3C//DTD SVG 1.1//EN"
  "http://www.w3.org/Graphics/SVG/1.1/DTD/svg11.dtd">
<svg xmlns:xlink="http://www.w3.org/1999/xlink" width="460.8pt" height="345.6pt" viewBox="0 0 460.8 345.6" xmlns="http://www.w3.org/2000/svg" version="1.1">
 <metadata>
  <rdf:RDF xmlns:dc="http://purl.org/dc/elements/1.1/" xmlns:cc="http://creativecommons.org/ns#" xmlns:rdf="http://www.w3.org/1999/02/22-rdf-syntax-ns#">
   <cc:Work>
    <dc:type rdf:resource="http://purl.org/dc/dcmitype/StillImage"/>
    <dc:date>2024-05-01T16:55:28.537100</dc:date>
    <dc:format>image/svg+xml</dc:format>
    <dc:creator>
     <cc:Agent>
      <dc:title>Matplotlib v3.7.1, https://matplotlib.org/</dc:title>
     </cc:Agent>
    </dc:creator>
   </cc:Work>
  </rdf:RDF>
 </metadata>
 <defs>
  <style type="text/css">*{stroke-linejoin: round; stroke-linecap: butt}</style>
 </defs>
 <g id="figure_1">
  <g id="patch_1">
   <path d="M 0 345.6 
L 460.8 345.6 
L 460.8 0 
L 0 0 
z
" style="fill: #ffffff"/>
  </g>
  <g id="axes_1">
   <g id="patch_2">
    <path d="M 59.0825 298.888 
L 450 298.888 
L 450 10.8 
L 59.0825 10.8 
z
" style="fill: #ffffff"/>
   </g>
   <g id="matplotlib.axis_1">
    <g id="xtick_1">
     <g id="line2d_1">
      <defs>
       <path id="md2b6473e7f" d="M 0 0 
L 0 3.5 
" style="stroke: #000000; stroke-width: 0.8"/>
      </defs>
      <g>
       <use xlink:href="#md2b6473e7f" x="76.851477" y="298.888" style="stroke: #000000; stroke-width: 0.8"/>
      </g>
     </g>
     <g id="text_1">
      <!-- $\mathdefault{10^{1}}$ -->
      <g transform="translate(68.051477 313.486437) scale(0.1 -0.1)">
       <defs>
        <path id="DejaVuSans-31" d="M 794 531 
L 1825 531 
L 1825 4091 
L 703 3866 
L 703 4441 
L 1819 4666 
L 2450 4666 
L 2450 531 
L 3481 531 
L 3481 0 
L 794 0 
L 794 531 
z
" transform="scale(0.015625)"/>
        <path id="DejaVuSans-30" d="M 2034 4250 
Q 1547 4250 1301 3770 
Q 1056 3291 1056 2328 
Q 1056 1369 1301 889 
Q 1547 409 2034 409 
Q 2525 409 2770 889 
Q 3016 1369 3016 2328 
Q 3016 3291 2770 3770 
Q 2525 4250 2034 4250 
z
M 2034 4750 
Q 2819 4750 3233 4129 
Q 3647 3509 3647 2328 
Q 3647 1150 3233 529 
Q 2819 -91 2034 -91 
Q 1250 -91 836 529 
Q 422 1150 422 2328 
Q 422 3509 836 4129 
Q 1250 4750 2034 4750 
z
" transform="scale(0.015625)"/>
       </defs>
       <use xlink:href="#DejaVuSans-31" transform="translate(0 0.684375)"/>
       <use xlink:href="#DejaVuSans-30" transform="translate(63.623047 0.684375)"/>
       <use xlink:href="#DejaVuSans-31" transform="translate(128.203125 38.965625) scale(0.7)"/>
      </g>
     </g>
    </g>
    <g id="xtick_2">
     <g id="line2d_2">
      <g>
       <use xlink:href="#md2b6473e7f" x="172.926748" y="298.888" style="stroke: #000000; stroke-width: 0.8"/>
      </g>
     </g>
     <g id="text_2">
      <!-- $\mathdefault{10^{2}}$ -->
      <g transform="translate(164.126748 313.486437) scale(0.1 -0.1)">
       <defs>
        <path id="DejaVuSans-32" d="M 1228 531 
L 3431 531 
L 3431 0 
L 469 0 
L 469 531 
Q 828 903 1448 1529 
Q 2069 2156 2228 2338 
Q 2531 2678 2651 2914 
Q 2772 3150 2772 3378 
Q 2772 3750 2511 3984 
Q 2250 4219 1831 4219 
Q 1534 4219 1204 4116 
Q 875 4013 500 3803 
L 500 4441 
Q 881 4594 1212 4672 
Q 1544 4750 1819 4750 
Q 2544 4750 2975 4387 
Q 3406 4025 3406 3419 
Q 3406 3131 3298 2873 
Q 3191 2616 2906 2266 
Q 2828 2175 2409 1742 
Q 1991 1309 1228 531 
z
" transform="scale(0.015625)"/>
       </defs>
       <use xlink:href="#DejaVuSans-31" transform="translate(0 0.765625)"/>
       <use xlink:href="#DejaVuSans-30" transform="translate(63.623047 0.765625)"/>
       <use xlink:href="#DejaVuSans-32" transform="translate(128.203125 39.046875) scale(0.7)"/>
      </g>
     </g>
    </g>
    <g id="xtick_3">
     <g id="line2d_3">
      <g>
       <use xlink:href="#md2b6473e7f" x="269.002019" y="298.888" style="stroke: #000000; stroke-width: 0.8"/>
      </g>
     </g>
     <g id="text_3">
      <!-- $\mathdefault{10^{3}}$ -->
      <g transform="translate(260.202019 313.486437) scale(0.1 -0.1)">
       <defs>
        <path id="DejaVuSans-33" d="M 2597 2516 
Q 3050 2419 3304 2112 
Q 3559 1806 3559 1356 
Q 3559 666 3084 287 
Q 2609 -91 1734 -91 
Q 1441 -91 1130 -33 
Q 819 25 488 141 
L 488 750 
Q 750 597 1062 519 
Q 1375 441 1716 441 
Q 2309 441 2620 675 
Q 2931 909 2931 1356 
Q 2931 1769 2642 2001 
Q 2353 2234 1838 2234 
L 1294 2234 
L 1294 2753 
L 1863 2753 
Q 2328 2753 2575 2939 
Q 2822 3125 2822 3475 
Q 2822 3834 2567 4026 
Q 2313 4219 1838 4219 
Q 1578 4219 1281 4162 
Q 984 4106 628 3988 
L 628 4550 
Q 988 4650 1302 4700 
Q 1616 4750 1894 4750 
Q 2613 4750 3031 4423 
Q 3450 4097 3450 3541 
Q 3450 3153 3228 2886 
Q 3006 2619 2597 2516 
z
" transform="scale(0.015625)"/>
       </defs>
       <use xlink:href="#DejaVuSans-31" transform="translate(0 0.765625)"/>
       <use xlink:href="#DejaVuSans-30" transform="translate(63.623047 0.765625)"/>
       <use xlink:href="#DejaVuSans-33" transform="translate(128.203125 39.046875) scale(0.7)"/>
      </g>
     </g>
    </g>
    <g id="xtick_4">
     <g id="line2d_4">
      <g>
       <use xlink:href="#md2b6473e7f" x="365.07729" y="298.888" style="stroke: #000000; stroke-width: 0.8"/>
      </g>
     </g>
     <g id="text_4">
      <!-- $\mathdefault{10^{4}}$ -->
      <g transform="translate(356.27729 313.486437) scale(0.1 -0.1)">
       <defs>
        <path id="DejaVuSans-34" d="M 2419 4116 
L 825 1625 
L 2419 1625 
L 2419 4116 
z
M 2253 4666 
L 3047 4666 
L 3047 1625 
L 3713 1625 
L 3713 1100 
L 3047 1100 
L 3047 0 
L 2419 0 
L 2419 1100 
L 313 1100 
L 313 1709 
L 2253 4666 
z
" transform="scale(0.015625)"/>
       </defs>
       <use xlink:href="#DejaVuSans-31" transform="translate(0 0.684375)"/>
       <use xlink:href="#DejaVuSans-30" transform="translate(63.623047 0.684375)"/>
       <use xlink:href="#DejaVuSans-34" transform="translate(128.203125 38.965625) scale(0.7)"/>
      </g>
     </g>
    </g>
    <g id="xtick_5">
     <g id="line2d_5">
      <defs>
       <path id="m01da8990d6" d="M 0 0 
L 0 2 
" style="stroke: #000000; stroke-width: 0.6"/>
      </defs>
      <g>
       <use xlink:href="#m01da8990d6" x="61.969229" y="298.888" style="stroke: #000000; stroke-width: 0.6"/>
      </g>
     </g>
    </g>
    <g id="xtick_6">
     <g id="line2d_6">
      <g>
       <use xlink:href="#m01da8990d6" x="67.540822" y="298.888" style="stroke: #000000; stroke-width: 0.6"/>
      </g>
     </g>
    </g>
    <g id="xtick_7">
     <g id="line2d_7">
      <g>
       <use xlink:href="#m01da8990d6" x="72.455314" y="298.888" style="stroke: #000000; stroke-width: 0.6"/>
      </g>
     </g>
    </g>
    <g id="xtick_8">
     <g id="line2d_8">
      <g>
       <use xlink:href="#m01da8990d6" x="105.773016" y="298.888" style="stroke: #000000; stroke-width: 0.6"/>
      </g>
     </g>
    </g>
    <g id="xtick_9">
     <g id="line2d_9">
      <g>
       <use xlink:href="#m01da8990d6" x="122.691031" y="298.888" style="stroke: #000000; stroke-width: 0.6"/>
      </g>
     </g>
    </g>
    <g id="xtick_10">
     <g id="line2d_10">
      <g>
       <use xlink:href="#m01da8990d6" x="134.694554" y="298.888" style="stroke: #000000; stroke-width: 0.6"/>
      </g>
     </g>
    </g>
    <g id="xtick_11">
     <g id="line2d_11">
      <g>
       <use xlink:href="#m01da8990d6" x="144.00521" y="298.888" style="stroke: #000000; stroke-width: 0.6"/>
      </g>
     </g>
    </g>
    <g id="xtick_12">
     <g id="line2d_12">
      <g>
       <use xlink:href="#m01da8990d6" x="151.61257" y="298.888" style="stroke: #000000; stroke-width: 0.6"/>
      </g>
     </g>
    </g>
    <g id="xtick_13">
     <g id="line2d_13">
      <g>
       <use xlink:href="#m01da8990d6" x="158.0445" y="298.888" style="stroke: #000000; stroke-width: 0.6"/>
      </g>
     </g>
    </g>
    <g id="xtick_14">
     <g id="line2d_14">
      <g>
       <use xlink:href="#m01da8990d6" x="163.616092" y="298.888" style="stroke: #000000; stroke-width: 0.6"/>
      </g>
     </g>
    </g>
    <g id="xtick_15">
     <g id="line2d_15">
      <g>
       <use xlink:href="#m01da8990d6" x="168.530585" y="298.888" style="stroke: #000000; stroke-width: 0.6"/>
      </g>
     </g>
    </g>
    <g id="xtick_16">
     <g id="line2d_16">
      <g>
       <use xlink:href="#m01da8990d6" x="201.848287" y="298.888" style="stroke: #000000; stroke-width: 0.6"/>
      </g>
     </g>
    </g>
    <g id="xtick_17">
     <g id="line2d_17">
      <g>
       <use xlink:href="#m01da8990d6" x="218.766302" y="298.888" style="stroke: #000000; stroke-width: 0.6"/>
      </g>
     </g>
    </g>
    <g id="xtick_18">
     <g id="line2d_18">
      <g>
       <use xlink:href="#m01da8990d6" x="230.769825" y="298.888" style="stroke: #000000; stroke-width: 0.6"/>
      </g>
     </g>
    </g>
    <g id="xtick_19">
     <g id="line2d_19">
      <g>
       <use xlink:href="#m01da8990d6" x="240.080481" y="298.888" style="stroke: #000000; stroke-width: 0.6"/>
      </g>
     </g>
    </g>
    <g id="xtick_20">
     <g id="line2d_20">
      <g>
       <use xlink:href="#m01da8990d6" x="247.68784" y="298.888" style="stroke: #000000; stroke-width: 0.6"/>
      </g>
     </g>
    </g>
    <g id="xtick_21">
     <g id="line2d_21">
      <g>
       <use xlink:href="#m01da8990d6" x="254.119771" y="298.888" style="stroke: #000000; stroke-width: 0.6"/>
      </g>
     </g>
    </g>
    <g id="xtick_22">
     <g id="line2d_22">
      <g>
       <use xlink:href="#m01da8990d6" x="259.691363" y="298.888" style="stroke: #000000; stroke-width: 0.6"/>
      </g>
     </g>
    </g>
    <g id="xtick_23">
     <g id="line2d_23">
      <g>
       <use xlink:href="#m01da8990d6" x="264.605856" y="298.888" style="stroke: #000000; stroke-width: 0.6"/>
      </g>
     </g>
    </g>
    <g id="xtick_24">
     <g id="line2d_24">
      <g>
       <use xlink:href="#m01da8990d6" x="297.923558" y="298.888" style="stroke: #000000; stroke-width: 0.6"/>
      </g>
     </g>
    </g>
    <g id="xtick_25">
     <g id="line2d_25">
      <g>
       <use xlink:href="#m01da8990d6" x="314.841573" y="298.888" style="stroke: #000000; stroke-width: 0.6"/>
      </g>
     </g>
    </g>
    <g id="xtick_26">
     <g id="line2d_26">
      <g>
       <use xlink:href="#m01da8990d6" x="326.845096" y="298.888" style="stroke: #000000; stroke-width: 0.6"/>
      </g>
     </g>
    </g>
    <g id="xtick_27">
     <g id="line2d_27">
      <g>
       <use xlink:href="#m01da8990d6" x="336.155752" y="298.888" style="stroke: #000000; stroke-width: 0.6"/>
      </g>
     </g>
    </g>
    <g id="xtick_28">
     <g id="line2d_28">
      <g>
       <use xlink:href="#m01da8990d6" x="343.763111" y="298.888" style="stroke: #000000; stroke-width: 0.6"/>
      </g>
     </g>
    </g>
    <g id="xtick_29">
     <g id="line2d_29">
      <g>
       <use xlink:href="#m01da8990d6" x="350.195042" y="298.888" style="stroke: #000000; stroke-width: 0.6"/>
      </g>
     </g>
    </g>
    <g id="xtick_30">
     <g id="line2d_30">
      <g>
       <use xlink:href="#m01da8990d6" x="355.766634" y="298.888" style="stroke: #000000; stroke-width: 0.6"/>
      </g>
     </g>
    </g>
    <g id="xtick_31">
     <g id="line2d_31">
      <g>
       <use xlink:href="#m01da8990d6" x="360.681127" y="298.888" style="stroke: #000000; stroke-width: 0.6"/>
      </g>
     </g>
    </g>
    <g id="xtick_32">
     <g id="line2d_32">
      <g>
       <use xlink:href="#m01da8990d6" x="393.998829" y="298.888" style="stroke: #000000; stroke-width: 0.6"/>
      </g>
     </g>
    </g>
    <g id="xtick_33">
     <g id="line2d_33">
      <g>
       <use xlink:href="#m01da8990d6" x="410.916844" y="298.888" style="stroke: #000000; stroke-width: 0.6"/>
      </g>
     </g>
    </g>
    <g id="xtick_34">
     <g id="line2d_34">
      <g>
       <use xlink:href="#m01da8990d6" x="422.920367" y="298.888" style="stroke: #000000; stroke-width: 0.6"/>
      </g>
     </g>
    </g>
    <g id="xtick_35">
     <g id="line2d_35">
      <g>
       <use xlink:href="#m01da8990d6" x="432.231023" y="298.888" style="stroke: #000000; stroke-width: 0.6"/>
      </g>
     </g>
    </g>
    <g id="xtick_36">
     <g id="line2d_36">
      <g>
       <use xlink:href="#m01da8990d6" x="439.838382" y="298.888" style="stroke: #000000; stroke-width: 0.6"/>
      </g>
     </g>
    </g>
    <g id="xtick_37">
     <g id="line2d_37">
      <g>
       <use xlink:href="#m01da8990d6" x="446.270313" y="298.888" style="stroke: #000000; stroke-width: 0.6"/>
      </g>
     </g>
    </g>
    <g id="text_5">
     <!-- $f$ (Hz) -->
     <g transform="translate(240.89125 327.164562) scale(0.1 -0.1)">
      <defs>
       <path id="DejaVuSans-Oblique-66" d="M 3059 4863 
L 2969 4384 
L 2419 4384 
Q 2106 4384 1964 4261 
Q 1822 4138 1753 3809 
L 1691 3500 
L 2638 3500 
L 2553 3053 
L 1606 3053 
L 1013 0 
L 434 0 
L 1031 3053 
L 481 3053 
L 563 3500 
L 1113 3500 
L 1159 3744 
Q 1278 4363 1576 4613 
Q 1875 4863 2516 4863 
L 3059 4863 
z
" transform="scale(0.015625)"/>
       <path id="DejaVuSans-20" transform="scale(0.015625)"/>
       <path id="DejaVuSans-28" d="M 1984 4856 
Q 1566 4138 1362 3434 
Q 1159 2731 1159 2009 
Q 1159 1288 1364 580 
Q 1569 -128 1984 -844 
L 1484 -844 
Q 1016 -109 783 600 
Q 550 1309 550 2009 
Q 550 2706 781 3412 
Q 1013 4119 1484 4856 
L 1984 4856 
z
" transform="scale(0.015625)"/>
       <path id="DejaVuSans-48" d="M 628 4666 
L 1259 4666 
L 1259 2753 
L 3553 2753 
L 3553 4666 
L 4184 4666 
L 4184 0 
L 3553 0 
L 3553 2222 
L 1259 2222 
L 1259 0 
L 628 0 
L 628 4666 
z
" transform="scale(0.015625)"/>
       <path id="DejaVuSans-7a" d="M 353 3500 
L 3084 3500 
L 3084 2975 
L 922 459 
L 3084 459 
L 3084 0 
L 275 0 
L 275 525 
L 2438 3041 
L 353 3041 
L 353 3500 
z
" transform="scale(0.015625)"/>
       <path id="DejaVuSans-29" d="M 513 4856 
L 1013 4856 
Q 1481 4119 1714 3412 
Q 1947 2706 1947 2009 
Q 1947 1309 1714 600 
Q 1481 -109 1013 -844 
L 513 -844 
Q 928 -128 1133 580 
Q 1338 1288 1338 2009 
Q 1338 2731 1133 3434 
Q 928 4138 513 4856 
z
" transform="scale(0.015625)"/>
      </defs>
      <use xlink:href="#DejaVuSans-Oblique-66" transform="translate(0 0.015625)"/>
      <use xlink:href="#DejaVuSans-20" transform="translate(35.205078 0.015625)"/>
      <use xlink:href="#DejaVuSans-28" transform="translate(66.992188 0.015625)"/>
      <use xlink:href="#DejaVuSans-48" transform="translate(106.005859 0.015625)"/>
      <use xlink:href="#DejaVuSans-7a" transform="translate(181.201172 0.015625)"/>
      <use xlink:href="#DejaVuSans-29" transform="translate(233.691406 0.015625)"/>
     </g>
    </g>
   </g>
   <g id="matplotlib.axis_2">
    <g id="ytick_1">
     <g id="line2d_38">
      <defs>
       <path id="me898c82808" d="M 0 0 
L -3.5 0 
" style="stroke: #000000; stroke-width: 0.8"/>
      </defs>
      <g>
       <use xlink:href="#me898c82808" x="59.0825" y="285.80167" style="stroke: #000000; stroke-width: 0.8"/>
      </g>
     </g>
     <g id="text_6">
      <!-- 0 -->
      <g transform="translate(45.72 289.600888) scale(0.1 -0.1)">
       <use xlink:href="#DejaVuSans-30"/>
      </g>
     </g>
    </g>
    <g id="ytick_2">
     <g id="line2d_39">
      <g>
       <use xlink:href="#me898c82808" x="59.0825" y="229.201626" style="stroke: #000000; stroke-width: 0.8"/>
      </g>
     </g>
     <g id="text_7">
      <!-- 2000 -->
      <g transform="translate(26.6325 233.000845) scale(0.1 -0.1)">
       <use xlink:href="#DejaVuSans-32"/>
       <use xlink:href="#DejaVuSans-30" x="63.623047"/>
       <use xlink:href="#DejaVuSans-30" x="127.246094"/>
       <use xlink:href="#DejaVuSans-30" x="190.869141"/>
      </g>
     </g>
    </g>
    <g id="ytick_3">
     <g id="line2d_40">
      <g>
       <use xlink:href="#me898c82808" x="59.0825" y="172.601582" style="stroke: #000000; stroke-width: 0.8"/>
      </g>
     </g>
     <g id="text_8">
      <!-- 4000 -->
      <g transform="translate(26.6325 176.400801) scale(0.1 -0.1)">
       <use xlink:href="#DejaVuSans-34"/>
       <use xlink:href="#DejaVuSans-30" x="63.623047"/>
       <use xlink:href="#DejaVuSans-30" x="127.246094"/>
       <use xlink:href="#DejaVuSans-30" x="190.869141"/>
      </g>
     </g>
    </g>
    <g id="ytick_4">
     <g id="line2d_41">
      <g>
       <use xlink:href="#me898c82808" x="59.0825" y="116.001539" style="stroke: #000000; stroke-width: 0.8"/>
      </g>
     </g>
     <g id="text_9">
      <!-- 6000 -->
      <g transform="translate(26.6325 119.800757) scale(0.1 -0.1)">
       <defs>
        <path id="DejaVuSans-36" d="M 2113 2584 
Q 1688 2584 1439 2293 
Q 1191 2003 1191 1497 
Q 1191 994 1439 701 
Q 1688 409 2113 409 
Q 2538 409 2786 701 
Q 3034 994 3034 1497 
Q 3034 2003 2786 2293 
Q 2538 2584 2113 2584 
z
M 3366 4563 
L 3366 3988 
Q 3128 4100 2886 4159 
Q 2644 4219 2406 4219 
Q 1781 4219 1451 3797 
Q 1122 3375 1075 2522 
Q 1259 2794 1537 2939 
Q 1816 3084 2150 3084 
Q 2853 3084 3261 2657 
Q 3669 2231 3669 1497 
Q 3669 778 3244 343 
Q 2819 -91 2113 -91 
Q 1303 -91 875 529 
Q 447 1150 447 2328 
Q 447 3434 972 4092 
Q 1497 4750 2381 4750 
Q 2619 4750 2861 4703 
Q 3103 4656 3366 4563 
z
" transform="scale(0.015625)"/>
       </defs>
       <use xlink:href="#DejaVuSans-36"/>
       <use xlink:href="#DejaVuSans-30" x="63.623047"/>
       <use xlink:href="#DejaVuSans-30" x="127.246094"/>
       <use xlink:href="#DejaVuSans-30" x="190.869141"/>
      </g>
     </g>
    </g>
    <g id="ytick_5">
     <g id="line2d_42">
      <g>
       <use xlink:href="#me898c82808" x="59.0825" y="59.401495" style="stroke: #000000; stroke-width: 0.8"/>
      </g>
     </g>
     <g id="text_10">
      <!-- 8000 -->
      <g transform="translate(26.6325 63.200714) scale(0.1 -0.1)">
       <defs>
        <path id="DejaVuSans-38" d="M 2034 2216 
Q 1584 2216 1326 1975 
Q 1069 1734 1069 1313 
Q 1069 891 1326 650 
Q 1584 409 2034 409 
Q 2484 409 2743 651 
Q 3003 894 3003 1313 
Q 3003 1734 2745 1975 
Q 2488 2216 2034 2216 
z
M 1403 2484 
Q 997 2584 770 2862 
Q 544 3141 544 3541 
Q 544 4100 942 4425 
Q 1341 4750 2034 4750 
Q 2731 4750 3128 4425 
Q 3525 4100 3525 3541 
Q 3525 3141 3298 2862 
Q 3072 2584 2669 2484 
Q 3125 2378 3379 2068 
Q 3634 1759 3634 1313 
Q 3634 634 3220 271 
Q 2806 -91 2034 -91 
Q 1263 -91 848 271 
Q 434 634 434 1313 
Q 434 1759 690 2068 
Q 947 2378 1403 2484 
z
M 1172 3481 
Q 1172 3119 1398 2916 
Q 1625 2713 2034 2713 
Q 2441 2713 2670 2916 
Q 2900 3119 2900 3481 
Q 2900 3844 2670 4047 
Q 2441 4250 2034 4250 
Q 1625 4250 1398 4047 
Q 1172 3844 1172 3481 
z
" transform="scale(0.015625)"/>
       </defs>
       <use xlink:href="#DejaVuSans-38"/>
       <use xlink:href="#DejaVuSans-30" x="63.623047"/>
       <use xlink:href="#DejaVuSans-30" x="127.246094"/>
       <use xlink:href="#DejaVuSans-30" x="190.869141"/>
      </g>
     </g>
    </g>
    <g id="text_11">
     <!-- $\mathcal{F}\{V\}$ (V) -->
     <g transform="translate(20.552813 176.844) rotate(-90) scale(0.1 -0.1)">
      <defs>
       <path id="STIXNonUnicode-Italic-e232" d="M 378 3418 
L 275 3533 
Q 730 3955 1174 4096 
Q 1619 4237 2163 4237 
Q 2714 4237 3110 4208 
Q 3507 4179 3849 4099 
Q 4192 4019 4368 3868 
Q 4544 3718 4544 3488 
Q 4544 3270 4429 3123 
Q 4314 2976 4109 2976 
Q 3962 2976 3853 3062 
Q 3744 3149 3744 3277 
Q 3744 3398 3792 3465 
Q 3840 3533 3897 3549 
Q 3955 3565 4000 3593 
Q 4045 3622 4045 3680 
Q 4045 3808 3696 3894 
Q 3347 3981 2893 3981 
Q 2694 3981 2608 3920 
Q 2522 3859 2464 3667 
L 2099 2413 
L 3494 2413 
L 3411 2157 
L 2029 2157 
L 1747 1203 
Q 1626 787 1491 537 
Q 1357 288 1174 173 
Q 992 58 829 29 
Q 666 0 384 0 
L 435 154 
Q 608 154 726 288 
Q 845 422 934 742 
L 1690 3334 
Q 1754 3558 1754 3667 
Q 1754 3776 1690 3827 
Q 1626 3878 1459 3878 
Q 858 3878 378 3418 
z
" transform="scale(0.015625)"/>
       <path id="DejaVuSans-7b" d="M 3272 -594 
L 3272 -1044 
L 3078 -1044 
Q 2300 -1044 2036 -812 
Q 1772 -581 1772 109 
L 1772 856 
Q 1772 1328 1603 1509 
Q 1434 1691 991 1691 
L 800 1691 
L 800 2138 
L 991 2138 
Q 1438 2138 1605 2317 
Q 1772 2497 1772 2963 
L 1772 3713 
Q 1772 4403 2036 4633 
Q 2300 4863 3078 4863 
L 3272 4863 
L 3272 4416 
L 3059 4416 
Q 2619 4416 2484 4278 
Q 2350 4141 2350 3700 
L 2350 2925 
Q 2350 2434 2208 2212 
Q 2066 1991 1722 1913 
Q 2069 1828 2209 1606 
Q 2350 1384 2350 897 
L 2350 122 
Q 2350 -319 2484 -456 
Q 2619 -594 3059 -594 
L 3272 -594 
z
" transform="scale(0.015625)"/>
       <path id="DejaVuSans-Oblique-56" d="M 1319 0 
L 500 4666 
L 1119 4666 
L 1797 653 
L 4063 4666 
L 4750 4666 
L 2053 0 
L 1319 0 
z
" transform="scale(0.015625)"/>
       <path id="DejaVuSans-7d" d="M 800 -594 
L 1019 -594 
Q 1456 -594 1589 -459 
Q 1722 -325 1722 122 
L 1722 897 
Q 1722 1384 1862 1606 
Q 2003 1828 2350 1913 
Q 2003 1991 1862 2212 
Q 1722 2434 1722 2925 
L 1722 3700 
Q 1722 4144 1589 4280 
Q 1456 4416 1019 4416 
L 800 4416 
L 800 4863 
L 997 4863 
Q 1775 4863 2036 4633 
Q 2297 4403 2297 3713 
L 2297 2963 
Q 2297 2497 2465 2317 
Q 2634 2138 3078 2138 
L 3272 2138 
L 3272 1691 
L 3078 1691 
Q 2634 1691 2465 1509 
Q 2297 1328 2297 856 
L 2297 109 
Q 2297 -581 2036 -812 
Q 1775 -1044 997 -1044 
L 800 -1044 
L 800 -594 
z
" transform="scale(0.015625)"/>
       <path id="DejaVuSans-56" d="M 1831 0 
L 50 4666 
L 709 4666 
L 2188 738 
L 3669 4666 
L 4325 4666 
L 2547 0 
L 1831 0 
z
" transform="scale(0.015625)"/>
      </defs>
      <use xlink:href="#STIXNonUnicode-Italic-e232" transform="translate(0 0.015625)"/>
      <use xlink:href="#DejaVuSans-7b" transform="translate(65.199997 0.015625)"/>
      <use xlink:href="#DejaVuSans-Oblique-56" transform="translate(128.823044 0.015625)"/>
      <use xlink:href="#DejaVuSans-7d" transform="translate(197.231247 0.015625)"/>
      <use xlink:href="#DejaVuSans-20" transform="translate(260.854294 0.015625)"/>
      <use xlink:href="#DejaVuSans-28" transform="translate(292.641403 0.015625)"/>
      <use xlink:href="#DejaVuSans-56" transform="translate(331.655075 0.015625)"/>
      <use xlink:href="#DejaVuSans-29" transform="translate(400.063278 0.015625)"/>
     </g>
    </g>
   </g>
   <g id="line2d_43">
    <path d="M -1 275.82682 
L 76.851477 275.822706 
L 105.773016 276.996958 
L 122.691031 281.864641 
L 134.694554 279.955854 
L 144.00521 281.129098 
L 151.61257 279.323585 
L 158.0445 284.842876 
L 163.616092 282.827283 
L 168.530585 282.409728 
L 172.926748 283.802701 
L 176.903562 284.78576 
L 180.534108 282.119893 
L 183.873887 285.079235 
L 186.966039 280.776638 
L 189.844764 285.039209 
L 192.537631 284.520365 
L 195.067191 281.130187 
L 197.452123 284.267937 
L 199.708076 284.584204 
L 201.848287 282.807255 
L 203.884054 283.99252 
L 205.8251 284.551617 
L 207.679848 282.631859 
L 209.455646 284.689834 
L 211.158942 283.482883 
L 212.795425 282.686125 
L 214.370139 282.791504 
L 215.887577 285.116632 
L 217.351761 284.656216 
L 218.766302 283.539529 
L 220.134456 284.95625 
L 221.459169 284.242306 
L 222.743116 281.917018 
L 223.988729 282.697696 
L 225.198233 283.835218 
L 226.373662 282.935073 
L 227.516883 284.715083 
L 228.629614 284.711063 
L 229.713441 285.072765 
L 230.769825 285.165351 
L 231.800123 283.981985 
L 232.805593 283.217698 
L 233.787402 284.659422 
L 234.746638 283.906403 
L 235.684317 283.617521 
L 236.601386 284.336912 
L 237.498732 282.430805 
L 238.377185 283.329694 
L 239.237524 283.035901 
L 240.080481 283.276939 
L 240.906745 281.112125 
L 241.716963 283.761377 
L 242.511749 282.522099 
L 244.057294 284.772255 
L 244.809116 281.416567 
L 245.54763 281.352844 
L 246.2733 285.473353 
L 246.986564 283.638685 
L 247.68784 282.876914 
L 248.377525 285.174455 
L 249.055995 282.280531 
L 249.723608 282.174687 
L 250.380708 284.222896 
L 251.027619 281.078747 
L 251.664654 282.231404 
L 252.292109 285.340565 
L 252.910268 281.722723 
L 253.519402 281.103542 
L 254.119771 284.962247 
L 254.711625 282.535834 
L 255.2952 282.529138 
L 255.870726 284.23964 
L 256.438421 281.581661 
L 256.998496 281.156291 
L 257.551153 285.543106 
L 258.096585 280.841836 
L 258.634979 280.448628 
L 259.166514 285.070068 
L 259.691363 278.779873 
L 260.209693 279.16673 
L 260.721662 284.688659 
L 261.227425 278.570292 
L 261.727131 278.696018 
L 262.220923 284.906674 
L 262.70894 278.739068 
L 263.191315 275.290231 
L 263.668177 284.067872 
L 264.13965 275.23912 
L 264.605856 274.173261 
L 265.06691 284.833021 
L 265.522925 272.163423 
L 265.97401 269.632255 
L 266.42027 284.19136 
L 266.861809 262.780803 
L 267.298723 257.964081 
L 267.73111 284.368494 
L 268.582669 178.009126 
L 269.002019 23.894909 
L 269.417196 177.179632 
L 270.235359 284.153945 
L 270.638502 259.934491 
L 271.037787 265.135644 
L 271.433287 285.096137 
L 271.825074 269.48368 
L 272.213216 272.183005 
L 272.59778 285.067836 
L 272.978833 275.001198 
L 273.356437 275.136803 
L 273.730654 284.717369 
L 274.101545 276.387304 
L 274.469168 278.934086 
L 274.833581 284.701462 
L 275.194838 279.082066 
L 275.552994 280.468801 
L 275.908103 284.159746 
L 276.260214 279.625783 
L 276.609379 282.190786 
L 276.955646 285.703803 
L 277.299063 280.267474 
L 277.639677 281.667458 
L 277.977533 285.18803 
L 278.312675 281.986 
L 278.645147 281.706388 
L 278.97499 283.527594 
L 279.302246 281.653568 
L 279.626956 281.880899 
L 279.949158 284.389386 
L 280.586192 282.293474 
L 280.901099 285.078173 
L 281.213647 283.180379 
L 281.523871 283.265369 
L 281.831806 285.379227 
L 282.137485 282.425526 
L 282.44094 283.151846 
L 282.742205 285.190388 
L 283.04131 283.038376 
L 283.338286 283.79166 
L 283.633163 285.40931 
L 283.925971 282.565735 
L 284.216739 282.662253 
L 284.505494 284.137937 
L 284.792264 283.001039 
L 285.35996 284.115362 
L 285.640937 284.489584 
L 285.920035 283.611674 
L 286.197278 284.474586 
L 286.472691 283.267416 
L 286.746298 283.24414 
L 287.018123 285.194829 
L 287.288189 283.954411 
L 287.556517 283.831666 
L 287.823131 284.572574 
L 288.351302 283.523253 
L 288.612902 283.970685 
L 288.872871 284.118234 
L 289.131231 283.031626 
L 289.388001 285.013649 
L 289.6432 284.462675 
L 289.896848 283.422197 
L 290.148963 283.296673 
L 290.399565 283.917692 
L 290.648669 285.244518 
L 290.896296 285.467308 
L 291.142462 283.915703 
L 291.630479 284.726765 
L 291.872363 283.841962 
L 292.112853 284.165205 
L 292.351966 283.941683 
L 292.589715 284.96184 
L 293.061189 285.078264 
L 293.294943 283.968146 
L 293.527394 284.624176 
L 293.758558 284.271958 
L 294.217079 284.777524 
L 294.444463 283.714416 
L 294.670615 284.751256 
L 294.895548 283.569488 
L 295.119275 285.25342 
L 295.341809 285.399924 
L 295.783347 284.206645 
L 296.002376 285.24218 
L 296.220262 284.772156 
L 296.437015 284.776172 
L 296.652648 284.995967 
L 296.867173 284.912342 
L 297.0806 284.976704 
L 297.504208 282.888038 
L 297.714409 282.676615 
L 297.923558 279.124883 
L 298.131663 283.996594 
L 298.338735 285.401069 
L 298.544784 285.028262 
L 298.749821 285.015491 
L 298.953856 283.710752 
L 299.156897 284.881294 
L 299.358956 285.011826 
L 299.56004 284.565134 
L 299.76016 284.746933 
L 299.959325 284.253673 
L 300.157544 285.345302 
L 300.354825 284.372954 
L 300.746612 284.394515 
L 300.941134 284.530173 
L 301.134754 282.389073 
L 301.519319 285.457777 
L 301.71028 283.115632 
L 301.900371 284.894851 
L 302.277975 283.463484 
L 302.465503 285.23445 
L 302.652192 284.520151 
L 302.83805 285.298397 
L 303.2073 284.233842 
L 303.573311 285.62896 
L 304.116376 285.013057 
L 304.295839 283.845515 
L 304.652465 285.136831 
L 304.829641 285.48682 
L 305.006068 284.864026 
L 305.181752 285.431092 
L 305.3567 284.769442 
L 305.530917 285.40242 
L 305.70441 285.309248 
L 305.877184 284.016387 
L 306.220602 285.482183 
L 306.391256 284.871517 
L 306.561216 285.561044 
L 306.730485 285.119261 
L 306.899071 283.985547 
L 307.066979 285.107361 
L 307.234213 285.41382 
L 307.40078 284.407808 
L 307.566685 284.350082 
L 307.731933 285.776115 
L 308.060477 284.360117 
L 308.386455 285.427717 
L 308.548494 284.777264 
L 308.709906 284.791573 
L 308.870696 284.517711 
L 309.030869 285.011795 
L 309.349382 282.900664 
L 309.507731 285.471194 
L 309.822638 285.284232 
L 309.979204 285.163446 
L 310.135186 285.359629 
L 310.44541 284.566037 
L 310.599661 285.453983 
L 310.753344 285.010155 
L 310.906464 285.472791 
L 311.362479 284.686011 
L 311.513383 285.486495 
L 311.813564 284.953641 
L 311.962848 285.02223 
L 312.1116 285.636704 
L 312.259824 284.079964 
L 312.554702 285.347079 
L 312.701362 285.555078 
L 312.847509 284.964749 
L 312.993146 285.298016 
L 313.138277 284.567834 
L 313.282904 285.503158 
L 313.570664 284.530079 
L 313.713803 285.05383 
L 313.856452 284.857135 
L 314.140297 285.631291 
L 314.422223 285.230261 
L 314.562475 284.382073 
L 314.702258 282.839876 
L 314.841573 279.859369 
L 315.118816 284.68607 
L 315.25675 285.143111 
L 315.39423 284.421346 
L 315.531257 284.864468 
L 315.667837 284.813418 
L 315.803971 284.269872 
L 315.939662 285.584374 
L 316.074913 283.869903 
L 316.611576 285.396587 
L 316.74467 283.237951 
L 317.009591 285.646529 
L 317.141424 284.355935 
L 317.272841 285.330297 
L 317.403846 284.322378 
L 317.53444 285.405134 
L 317.664627 284.403628 
L 317.79441 284.855439 
L 317.92379 284.214789 
L 318.181352 285.075896 
L 318.309539 284.99711 
L 318.437334 285.38601 
L 318.564739 285.358565 
L 318.691755 284.448872 
L 319.19599 285.608964 
L 319.321103 284.154396 
L 319.570208 285.47421 
L 319.694205 284.874683 
L 319.941099 285.35883 
L 320.064 284.155285 
L 320.186541 284.580306 
L 320.308722 283.959744 
L 320.430547 285.248801 
L 320.552017 284.972772 
L 320.673134 283.844305 
L 320.91432 285.211811 
L 321.034392 284.897882 
L 321.154119 285.704559 
L 321.273504 285.147359 
L 321.392548 283.49632 
L 321.511254 284.794355 
L 321.629622 283.62946 
L 321.747656 284.505074 
L 321.865357 283.881199 
L 321.982727 285.60719 
L 322.099768 285.149497 
L 322.216481 285.499901 
L 322.448933 285.065887 
L 322.564675 285.177804 
L 322.680097 284.65234 
L 322.7952 284.983306 
L 323.024459 284.429318 
L 323.252464 284.608891 
L 323.366002 285.521373 
L 323.479231 285.476231 
L 323.592154 284.479804 
L 323.817087 285.071424 
L 323.9291 284.843687 
L 324.040814 285.32315 
L 324.152229 284.559889 
L 324.263347 285.498565 
L 324.374171 284.961974 
L 324.4847 285.039674 
L 324.594938 285.551534 
L 324.704885 284.314175 
L 324.814544 284.457976 
L 324.923915 284.881324 
L 325.032999 284.572544 
L 325.1418 284.794171 
L 325.250317 284.375815 
L 325.358553 285.479644 
L 325.574187 284.989714 
L 325.681587 284.960483 
L 325.788711 284.659901 
L 325.895562 283.845875 
L 326.108445 285.076225 
L 326.425746 283.170636 
L 326.530979 283.912529 
L 326.740653 277.975858 
L 326.845096 267.067619 
L 327.053201 281.310033 
L 327.156866 285.047132 
L 327.260273 283.531449 
L 327.466323 284.814743 
L 327.568967 283.52445 
L 327.67136 285.236542 
L 327.773502 285.071714 
L 327.875394 284.39313 
L 327.977039 285.325496 
L 328.078436 283.924192 
L 328.179587 285.401611 
L 328.280494 284.344894 
L 328.381158 284.996852 
L 328.481579 283.054745 
L 328.581759 285.113016 
L 328.681699 284.83503 
L 328.880864 283.753627 
L 328.980091 285.450913 
L 329.17784 284.709917 
L 329.276364 284.569164 
L 329.374656 285.665172 
L 329.570548 284.00172 
L 329.66815 284.178378 
L 329.862673 285.454684 
L 329.959595 284.760288 
L 330.152766 285.290629 
L 330.249018 284.142976 
L 330.345048 284.849459 
L 330.440857 284.790446 
L 330.536447 283.973562 
L 330.726972 285.441915 
L 330.821909 285.673805 
L 331.011139 284.531206 
L 331.105432 284.558783 
L 331.293383 285.700102 
L 331.387042 285.382258 
L 331.480491 284.597489 
L 331.573731 285.349434 
L 331.666763 285.205312 
L 331.759588 285.523795 
L 331.944622 283.477901 
L 332.128838 285.187805 
L 332.220642 285.6738 
L 332.312245 285.070388 
L 332.494849 285.369486 
L 332.676657 285.02211 
L 332.767265 285.49743 
L 332.857677 283.836405 
L 333.217377 285.730496 
L 333.396071 283.586678 
L 333.485132 284.999189 
L 333.574003 284.138934 
L 333.662685 285.020539 
L 333.751179 284.855449 
L 333.839486 284.339091 
L 334.015541 285.537271 
L 334.103291 285.047836 
L 334.190856 285.4373 
L 334.278238 284.650197 
L 334.365438 285.063862 
L 334.539292 284.874818 
L 334.625948 283.550042 
L 334.712425 283.892908 
L 334.798723 285.017395 
L 334.884843 284.456762 
L 334.970785 284.586146 
L 335.227555 285.532807 
L 335.312795 285.416522 
L 335.397861 284.497529 
L 335.482754 285.094347 
L 335.567475 285.036507 
L 335.652024 284.436339 
L 335.736402 285.078464 
L 335.82061 284.302989 
L 335.904648 285.010897 
L 336.155752 278.035322 
L 336.322319 285.663091 
L 336.405353 285.164319 
L 336.488223 285.348277 
L 336.570929 284.488382 
L 336.73585 285.213378 
L 336.818067 285.243389 
L 337.063749 284.421931 
L 337.145323 284.168544 
L 337.226737 285.360206 
L 337.307994 285.32934 
L 337.389092 284.611073 
L 337.631444 285.334692 
L 337.711917 285.358208 
L 337.792234 285.618117 
L 338.032264 284.390282 
L 338.111968 284.720165 
L 338.191519 283.845332 
L 338.35017 284.967989 
L 338.429269 285.26071 
L 338.58702 284.765114 
L 338.665672 285.062008 
L 338.744176 284.770265 
L 338.822533 285.358335 
L 338.900743 285.157528 
L 338.978806 285.357999 
L 339.134496 284.827157 
L 339.212124 285.742215 
L 339.366948 285.171036 
L 339.444145 285.359503 
L 339.598112 283.342802 
L 339.751513 285.446868 
L 339.828002 284.405794 
L 339.904352 285.146654 
L 339.980562 284.444276 
L 340.132565 284.957571 
L 340.20836 284.671665 
L 340.284017 285.463215 
L 340.359537 285.104527 
L 340.510169 284.245398 
L 340.585282 284.751313 
L 340.660259 284.361886 
L 340.735102 285.447475 
L 340.884387 283.899889 
L 341.033139 285.670379 
L 341.107317 285.508198 
L 341.181363 284.300157 
L 341.255278 284.559574 
L 341.329062 284.77573 
L 341.402716 285.40372 
L 341.47624 284.713641 
L 341.549635 285.059804 
L 341.622901 284.482825 
L 341.769048 285.03625 
L 341.84193 284.885713 
L 341.914685 283.939958 
L 341.987313 284.989964 
L 342.059815 284.44672 
L 342.132192 284.320331 
L 342.276569 285.148756 
L 342.348571 285.281392 
L 342.420448 284.427365 
L 342.492202 284.50342 
L 342.563833 285.142824 
L 342.635341 283.878037 
L 342.777991 285.444628 
L 342.849133 285.053112 
L 342.991055 284.467781 
L 343.132495 285.12319 
L 343.203036 284.799747 
L 343.343762 285.42625 
L 343.413947 284.339884 
L 343.484014 284.352168 
L 343.553963 285.409327 
L 343.763111 278.900811 
L 343.971216 284.896375 
L 344.040355 283.813558 
L 344.109379 284.917839 
L 344.178289 284.825971 
L 344.247085 284.851534 
L 344.384338 285.552996 
L 344.521141 284.970224 
L 344.589375 285.616298 
L 344.657498 284.550768 
L 344.725509 285.334671 
L 344.79341 285.047552 
L 344.92888 284.319482 
L 345.063913 285.5167 
L 345.131265 284.483832 
L 345.19851 284.941788 
L 345.332674 284.830451 
L 345.399594 285.226729 
L 345.466408 284.493424 
L 345.533114 285.482895 
L 345.599714 285.412803 
L 345.666208 285.314382 
L 345.798879 284.708521 
L 345.931129 285.283372 
L 345.997098 284.34922 
L 346.062962 285.005034 
L 346.128722 284.855744 
L 346.194379 284.583172 
L 346.259933 284.621755 
L 346.325384 285.422171 
L 346.390732 284.880709 
L 346.455979 284.95485 
L 346.651107 285.316282 
L 346.715948 284.729313 
L 346.780688 285.418817 
L 346.845328 284.986206 
L 346.909868 284.577061 
L 347.038649 285.282143 
L 347.10289 284.657998 
L 347.167033 284.911022 
L 347.231078 284.867074 
L 347.295024 284.398648 
L 347.358872 285.438032 
L 347.422623 283.765465 
L 347.486277 285.546517 
L 347.549834 284.435152 
L 347.676657 285.219817 
L 347.739925 284.730772 
L 347.803097 285.52589 
L 347.866173 284.582043 
L 347.929154 284.652423 
L 347.99204 284.773481 
L 348.054832 285.206898 
L 348.117529 285.051856 
L 348.180132 284.356105 
L 348.36738 285.644434 
L 348.429609 283.986463 
L 348.491746 284.418182 
L 348.553791 285.679045 
L 348.615743 285.60535 
L 348.739373 284.623906 
L 348.801051 284.789169 
L 348.862637 284.782977 
L 348.924133 284.048608 
L 348.985539 284.881171 
L 349.046854 284.676694 
L 349.108079 284.544859 
L 349.169214 284.712954 
L 349.291217 283.892177 
L 349.473555 285.20689 
L 349.6551 284.456499 
L 349.71544 285.045289 
L 349.775693 284.396374 
L 349.835858 284.927422 
L 349.895937 284.958311 
L 349.95593 283.950182 
L 350.015837 285.03756 
L 350.075658 284.45394 
L 350.195042 279.219378 
L 350.373482 285.525578 
L 350.492018 284.820932 
L 350.551161 284.929044 
L 350.61022 285.482959 
L 350.669195 284.27125 
L 350.728087 285.34192 
L 350.786896 285.738331 
L 350.962827 284.481508 
L 351.021306 284.76041 
L 351.079704 285.354226 
L 351.138019 283.834507 
L 351.196254 285.381066 
L 351.254407 284.353678 
L 351.486213 285.200627 
L 351.601635 284.465832 
L 351.659226 284.550172 
L 351.716738 285.599969 
L 351.774171 285.016178 
L 351.831525 284.768965 
L 351.8888 285.455314 
L 351.945997 284.333094 
L 352.003115 284.51289 
L 352.117118 284.727944 
L 352.174003 285.443071 
L 352.23081 284.914412 
L 352.28754 284.336054 
L 352.344193 284.748152 
L 352.400769 284.548504 
L 352.457269 285.322203 
L 352.513692 284.862933 
L 352.570039 284.423252 
L 352.62631 285.379144 
L 352.682505 284.351844 
L 352.738625 284.700495 
L 352.794669 284.701623 
L 352.906533 285.737615 
L 352.962352 285.050334 
L 353.018097 285.521238 
L 353.073767 285.605269 
L 353.129363 284.878634 
L 353.184886 285.383848 
L 353.240334 285.523248 
L 353.295709 283.857114 
L 353.35101 285.145499 
L 353.406239 285.268966 
L 353.461394 284.414037 
L 353.516476 285.411547 
L 353.571486 284.603396 
L 353.626424 283.960507 
L 353.681289 284.192156 
L 353.790803 285.649083 
L 353.954538 284.869623 
L 354.008974 285.647857 
L 354.063338 284.768723 
L 354.117632 285.210457 
L 354.171856 284.934023 
L 354.226009 285.364412 
L 354.280092 284.218217 
L 354.334105 285.598046 
L 354.441921 285.57736 
L 354.495725 285.388875 
L 354.54946 284.185455 
L 354.603125 284.752872 
L 354.71025 285.559052 
L 354.763709 284.611699 
L 354.923677 285.721498 
L 354.976864 284.882584 
L 355.029983 285.386968 
L 355.083034 285.587451 
L 355.136018 285.388486 
L 355.188935 284.884881 
L 355.241785 285.269035 
L 355.347285 284.804476 
L 355.399934 284.94548 
L 355.452518 285.272152 
L 355.557486 283.639751 
L 355.609872 285.070498 
L 355.714446 280.899046 
L 355.766634 272.777891 
L 355.818758 280.623038 
L 356.078404 285.747627 
L 356.13014 283.913935 
L 356.181812 284.851593 
L 356.233419 285.341139 
L 356.284964 284.383151 
L 356.336444 285.426088 
L 356.439215 284.942211 
L 356.541733 285.708416 
L 356.69504 284.824104 
L 356.746018 284.927754 
L 356.796933 284.146415 
L 356.847786 285.481603 
L 356.898577 285.236754 
L 356.949306 284.662803 
L 356.999974 285.497455 
L 357.15161 284.028823 
L 357.302696 285.199409 
L 357.403117 284.41053 
L 357.553297 285.385295 
L 357.7527 284.923012 
L 357.852045 284.591459 
L 358.000621 285.482776 
L 358.050029 285.066052 
L 358.099378 283.707177 
L 358.148669 285.207169 
L 358.247077 284.53733 
L 358.345254 285.275981 
L 358.394255 285.068441 
L 358.4432 285.052684 
L 358.492087 284.516629 
L 358.540916 285.132387 
L 358.687063 285.21209 
L 358.735665 284.221779 
L 358.784211 285.289637 
L 358.881133 285.698954 
L 358.977831 284.752299 
L 359.026096 285.183483 
L 359.218599 284.775623 
L 359.314518 284.981039 
L 359.362395 284.967901 
L 359.410218 285.068855 
L 359.505698 284.271176 
L 359.553357 285.582815 
L 359.64851 285.437732 
L 359.743448 284.517104 
L 359.83817 284.714836 
L 359.932677 285.347699 
L 359.979851 285.141866 
L 360.026971 284.886732 
L 360.074038 283.477436 
L 360.121052 285.783894 
L 360.214921 285.154037 
L 360.261777 285.745927 
L 360.355331 284.61891 
L 360.402029 284.799542 
L 360.448675 284.825371 
L 360.495269 285.5075 
L 360.541811 284.950499 
L 360.681127 267.877557 
L 360.727462 278.023443 
L 360.819979 284.718631 
L 360.86616 283.980651 
L 360.95837 285.486706 
L 361.004399 284.141109 
L 361.050377 284.204812 
L 361.188007 285.378447 
L 361.233783 285.525031 
L 361.279509 284.670343 
L 361.325185 284.889843 
L 361.370811 285.315606 
L 361.461914 285.276889 
L 361.507391 285.253474 
L 361.552818 285.655955 
L 361.643524 284.690552 
L 361.688804 285.17449 
L 361.734034 285.482862 
L 361.824348 284.26555 
L 361.869432 284.695594 
L 361.959453 285.35759 
L 362.004391 285.341086 
L 362.049281 285.061387 
L 362.094122 285.232298 
L 362.138916 285.4089 
L 362.183661 284.806181 
L 362.228358 284.978257 
L 362.273008 285.591176 
L 362.31761 285.442484 
L 362.362164 284.716404 
L 362.40667 285.443773 
L 362.45113 285.608803 
L 362.539906 283.803734 
L 362.584224 285.313578 
L 362.672718 284.710009 
L 362.716895 285.402992 
L 362.761025 284.749565 
L 362.805108 284.321859 
L 362.93708 285.646479 
L 363.068635 284.670164 
L 363.112395 285.444848 
L 363.156109 284.564404 
L 363.199777 285.027589 
L 363.243399 284.158962 
L 363.286976 285.1697 
L 363.417435 285.675567 
L 363.460831 285.628809 
L 363.547487 285.059405 
L 363.590748 285.536377 
L 363.633964 284.930321 
L 363.677135 284.157829 
L 363.720261 285.550378 
L 363.806381 285.256707 
L 363.849374 285.493209 
L 363.892323 284.834114 
L 363.978089 284.991208 
L 364.020906 284.71847 
L 364.106408 284.87591 
L 364.149093 284.77915 
L 364.191735 285.381432 
L 364.234333 284.855353 
L 364.276888 284.802107 
L 364.319399 285.651092 
L 364.361867 285.209139 
L 364.446674 285.24816 
L 364.489013 284.544817 
L 364.531309 285.476952 
L 364.573562 285.350817 
L 364.615773 284.139428 
L 364.65794 284.900067 
L 364.700065 285.596292 
L 364.742148 284.33845 
L 364.784188 284.856314 
L 364.868142 285.428684 
L 364.910056 285.285195 
L 364.993757 285.334579 
L 365.035544 284.084977 
L 365.160657 285.300954 
L 365.202278 284.848803 
L 365.243857 285.200055 
L 365.285395 284.717136 
L 365.326892 284.750523 
L 365.368347 285.682919 
L 365.451135 285.054857 
L 365.492467 284.980609 
L 365.533759 283.973695 
L 365.575009 284.710887 
L 365.616219 285.125692 
L 365.657388 284.497626 
L 365.698517 284.728127 
L 365.739605 285.644343 
L 365.780653 285.2375 
L 365.82166 284.497797 
L 365.862627 284.876453 
L 365.944441 284.406922 
L 365.985288 285.582824 
L 366.026094 285.529456 
L 366.270101 284.269969 
L 366.31063 285.035286 
L 366.391571 284.758562 
L 366.472355 284.394194 
L 366.633455 285.593826 
L 366.673633 284.441193 
L 366.753874 285.155735 
L 366.793936 284.257206 
L 366.873946 284.859354 
L 366.913893 285.478297 
L 366.953802 284.788923 
L 366.993673 285.304443 
L 367.033506 284.657634 
L 367.073301 285.604305 
L 367.113058 285.026015 
L 367.152777 285.100442 
L 367.192458 284.987951 
L 367.232102 284.469724 
L 367.271708 285.136813 
L 367.311277 285.17883 
L 367.429757 284.651643 
L 367.469176 285.481275 
L 367.547903 284.845597 
L 367.58721 285.432757 
L 367.665714 284.984309 
L 367.744071 284.326021 
L 367.900345 285.399537 
L 367.939322 284.466047 
L 367.978262 285.029874 
L 368.017167 285.348529 
L 368.056035 285.286574 
L 368.133663 285.386455 
L 368.172423 284.686292 
L 368.249834 284.614444 
L 368.288487 285.393747 
L 368.365684 285.440582 
L 368.404229 284.923611 
L 368.481212 285.490488 
L 368.51965 285.00408 
L 368.558053 285.038819 
L 368.596421 285.793091 
L 368.749541 283.80338 
L 368.864012 285.616867 
L 368.978171 282.53557 
L 369.016155 282.762627 
L 369.054104 277.483382 
L 369.092018 282.074826 
L 369.167744 285.161633 
L 369.243333 284.564724 
L 369.318785 283.959363 
L 369.394101 285.5798 
L 369.431708 284.344259 
L 369.50682 284.799201 
L 369.544326 284.542892 
L 369.581798 285.360458 
L 369.656641 285.014592 
L 369.694012 285.277915 
L 369.768654 285.038002 
L 369.843163 284.364289 
L 369.880367 284.883313 
L 369.917539 284.809778 
L 369.954677 284.152156 
L 369.991783 285.434163 
L 370.065894 285.136047 
L 370.102901 285.663895 
L 370.139875 284.581142 
L 370.213724 285.243469 
L 370.324254 284.256469 
L 370.471173 285.368878 
L 370.581024 284.723455 
L 370.727043 285.335886 
L 370.799862 284.825381 
L 370.836223 285.13054 
L 370.872553 285.525405 
L 370.908852 284.87252 
L 370.945118 284.77794 
L 370.981354 285.513209 
L 371.05373 285.396021 
L 371.089871 284.693578 
L 371.125981 285.179719 
L 371.16206 285.504313 
L 371.198107 285.465899 
L 371.270109 284.676464 
L 371.306063 285.483127 
L 371.377879 284.880677 
L 371.413741 285.183297 
L 371.449571 285.390604 
L 371.592588 284.372101 
L 371.699529 285.621864 
L 371.735115 284.38771 
L 371.806197 285.581359 
L 371.912593 284.710894 
L 371.947998 285.161381 
L 372.054034 285.101991 
L 372.089319 284.326767 
L 372.124575 284.858928 
L 372.159801 285.458825 
L 372.194997 284.324521 
L 372.230163 285.322921 
L 372.335485 283.985678 
L 372.405552 285.271223 
L 372.440542 285.204108 
L 372.475502 283.917075 
L 372.510433 285.342824 
L 372.545334 285.019747 
L 372.580207 284.938296 
L 372.649865 279.532056 
L 372.68465 272.295062 
L 372.719406 280.256294 
L 372.788832 285.517532 
L 372.892755 285.020676 
L 372.927338 284.425578 
L 372.961893 284.820741 
L 373.030917 284.690367 
L 373.099827 285.699301 
L 373.237306 283.938256 
L 373.271606 285.651922 
L 373.340119 285.049397 
L 373.374334 285.029508 
L 373.44268 285.495569 
L 373.476811 285.098223 
L 373.510914 284.700567 
L 373.544989 284.987879 
L 373.579036 285.742478 
L 373.613056 285.081108 
L 373.647047 284.002861 
L 373.714948 285.295664 
L 373.782738 284.9799 
L 373.850419 284.383326 
L 373.985451 285.662819 
L 374.086439 284.452716 
L 374.120048 285.688958 
L 374.187184 285.326463 
L 374.287686 284.720502 
L 374.321133 285.118544 
L 374.354553 285.161266 
L 374.387946 284.128078 
L 374.454653 284.47638 
L 374.487966 285.650475 
L 374.554513 285.451704 
L 374.587747 284.579098 
L 374.654135 285.387273 
L 374.753519 285.431439 
L 374.819645 283.66542 
L 374.885665 285.723249 
L 374.918636 284.882065 
L 374.951581 284.661145 
L 374.9845 284.698394 
L 375.017394 285.212303 
L 375.083102 284.810116 
L 375.115918 284.983039 
L 375.148707 284.659684 
L 375.181471 284.410519 
L 375.279609 285.238046 
L 375.312271 285.194829 
L 375.410102 285.543606 
L 375.442661 284.119358 
L 375.507704 285.118236 
L 375.540188 285.175552 
L 375.572646 284.628933 
L 375.605079 285.195208 
L 375.637486 284.990085 
L 375.669869 285.494842 
L 375.702227 284.676286 
L 375.734559 285.211232 
L 375.766866 284.53922 
L 375.799149 285.288256 
L 375.831406 285.514888 
L 375.863639 284.56208 
L 375.928029 284.882743 
L 375.960187 285.108516 
L 375.99232 284.806768 
L 376.056512 283.947982 
L 376.088572 284.156175 
L 376.120606 285.422162 
L 376.184601 284.579133 
L 376.216562 284.465426 
L 376.312298 285.577759 
L 376.344162 284.945643 
L 376.376001 285.208942 
L 376.439606 285.651885 
L 376.471372 284.377889 
L 376.503114 285.535927 
L 376.598196 285.144534 
L 376.629841 284.405993 
L 376.693061 284.732106 
L 376.724635 285.077562 
L 376.787711 284.979153 
L 376.819214 284.569218 
L 376.850692 285.266427 
L 376.882147 285.169963 
L 376.913579 284.907388 
L 376.944986 285.465689 
L 376.97637 285.240026 
L 377.00773 285.749549 
L 377.070381 284.120256 
L 377.10167 285.09404 
L 377.195399 285.470506 
L 377.226596 285.279883 
L 377.320045 285.466717 
L 377.382228 284.041691 
L 377.506317 285.548003 
L 377.660911 284.730533 
L 377.691762 284.753114 
L 377.722589 285.679759 
L 377.784176 285.605324 
L 377.876386 284.817974 
L 377.907077 285.446676 
L 377.937746 284.73988 
L 377.999016 285.057864 
L 378.029617 285.290814 
L 378.090753 285.159649 
L 378.151799 285.413188 
L 378.212756 284.454106 
L 378.273624 285.149546 
L 378.334403 285.098344 
L 378.364759 284.22287 
L 378.395094 285.466253 
L 378.425406 285.249825 
L 378.455696 285.226737 
L 378.485965 285.3112 
L 378.546436 284.782625 
L 378.606819 285.743851 
L 378.636978 284.522457 
L 378.727325 285.024369 
L 378.757397 284.890113 
L 378.787447 285.518465 
L 378.817476 284.695132 
L 378.877469 285.153226 
L 378.937375 285.365261 
L 379.056931 284.494909 
L 379.116581 284.165737 
L 379.205896 285.62012 
L 379.29502 284.313793 
L 379.383954 285.453842 
L 379.35433 284.079912 
L 379.413557 285.42197 
L 379.531758 284.603166 
L 379.590733 285.535403 
L 379.62019 284.682486 
L 379.67904 284.754499 
L 379.76716 285.564461 
L 379.825804 285.125266 
L 379.855095 284.927679 
L 379.884365 285.457615 
L 379.913615 285.527145 
L 379.972054 284.91605 
L 380.001242 285.463285 
L 380.03041 285.605605 
L 380.059558 285.373036 
L 380.146879 284.347976 
L 380.175946 284.351865 
L 380.29201 285.466436 
L 380.407751 284.183075 
L 380.436637 285.394511 
L 380.523173 284.800489 
L 380.551979 284.141513 
L 380.609531 284.670662 
L 380.667003 284.396755 
L 380.724396 285.360199 
L 380.753063 284.996433 
L 380.781711 285.542148 
L 380.810339 285.224333 
L 380.838947 285.346427 
L 380.867535 284.872473 
L 380.924654 285.643307 
L 380.953184 285.58752 
L 381.038656 284.047159 
L 381.067108 285.416654 
L 381.095541 285.198602 
L 381.123954 285.563879 
L 381.152348 285.631332 
L 381.180723 285.474459 
L 381.209079 284.762309 
L 381.265732 285.519449 
L 381.294029 285.022478 
L 381.322308 285.138226 
L 381.378807 285.218868 
L 381.407029 284.621305 
L 381.435231 285.562775 
L 381.519723 284.730826 
L 381.575956 285.290185 
L 381.604044 284.300195 
L 381.688195 284.585229 
L 381.716208 285.322988 
L 381.800133 285.017226 
L 381.828071 285.017126 
L 381.911772 285.366592 
L 381.96748 281.100979 
L 381.995306 275.781278 
L 382.050902 283.647847 
L 382.189569 285.630199 
L 382.272549 284.45836 
L 382.300172 285.441271 
L 382.438015 284.045767 
L 382.493025 285.675963 
L 382.602827 285.080603 
L 382.630233 284.928365 
L 382.65762 285.563706 
L 382.739675 285.28186 
L 382.821569 284.606002 
L 382.794289 285.656384 
L 382.848832 285.07781 
L 382.903303 284.775332 
L 382.984877 285.552488 
L 383.066291 285.292634 
L 383.12048 285.663511 
L 383.147547 285.47292 
L 383.20163 284.629831 
L 383.255643 285.480436 
L 383.282623 285.38634 
L 383.309586 284.860479 
L 383.36346 285.661627 
L 383.524664 285.051927 
L 383.551471 285.478685 
L 383.605033 284.604937 
L 383.631788 285.433528 
L 383.658526 283.969632 
L 383.738638 285.505433 
L 383.765308 284.085971 
L 383.791961 285.671427 
L 383.871817 284.490904 
L 383.978055 285.273056 
L 384.031073 285.388027 
L 384.084024 284.382251 
L 384.216107 285.483689 
L 384.347773 284.927626 
L 384.374056 285.452784 
L 384.400323 284.345319 
L 384.452807 285.099296 
L 384.58373 283.174003 
L 384.609865 284.91069 
L 384.635984 283.684833 
L 384.688173 271.820175 
L 384.740296 282.956344 
L 384.844349 285.733684 
L 384.870321 284.579401 
L 384.948142 285.029482 
L 384.97405 284.191291 
L 384.999942 285.384614 
L 385.051678 284.434937 
L 385.154958 285.247048 
L 385.180738 284.122104 
L 385.257982 284.525428 
L 385.335084 285.501428 
L 385.360753 284.777943 
L 385.386407 284.760167 
L 385.412044 284.903999 
L 385.463272 285.202782 
L 385.488862 284.123175 
L 385.514437 285.468098 
L 385.616579 285.088834 
L 385.642075 284.678478 
L 385.693021 284.746755 
L 385.718471 285.699785 
L 385.794728 285.249078 
L 385.870845 285.258157 
L 385.896186 284.245046 
L 385.921513 285.503734 
L 386.022664 285.219258 
L 386.073148 285.629989 
L 386.123571 284.612036 
L 386.224234 285.540604 
L 386.324655 284.056127 
L 386.299573 285.655325 
L 386.349723 285.149675 
L 386.374776 285.615135 
L 386.424836 284.52998 
L 386.549723 285.69063 
L 386.624477 285.45073 
L 386.72394 284.035951 
L 386.699097 285.55608 
L 386.748769 284.831976 
L 386.798383 285.635359 
L 386.847937 284.680592 
L 386.872693 285.187982 
L 386.897433 285.495058 
L 386.922159 284.929445 
L 386.971567 284.276529 
L 386.996249 285.221696 
L 387.020917 284.979106 
L 387.045569 285.068259 
L 387.070208 284.819321 
L 387.094831 284.793263 
L 387.217733 283.102532 
L 387.24227 283.906216 
L 387.2913 285.310856 
L 387.389189 285.251635 
L 387.413625 284.520934 
L 387.486848 285.007935 
L 387.511227 285.494388 
L 387.535592 284.928013 
L 387.584279 285.031273 
L 387.608602 285.171261 
L 387.63291 284.745849 
L 387.681484 285.106137 
L 387.730001 285.618684 
L 387.778462 284.535806 
L 387.875216 285.51617 
L 387.923509 285.492331 
L 388.043997 284.178029 
L 388.140137 285.48356 
L 388.164138 284.543627 
L 388.236057 285.361161 
L 388.260002 285.453571 
L 388.403387 284.710507 
L 388.522499 285.677226 
L 388.570049 284.37615 
L 388.641272 284.840701 
L 388.688687 284.521348 
L 388.783355 285.623952 
L 388.830609 284.923939 
L 388.877809 284.418517 
L 388.901389 284.91947 
L 388.924956 285.600998 
L 388.972049 284.063571 
L 388.995576 285.012035 
L 389.01909 284.699495 
L 389.066077 285.174722 
L 389.113012 284.79119 
L 389.13646 285.538262 
L 389.230119 285.451747 
L 389.276869 284.270486 
L 389.346897 284.790832 
L 389.393517 285.783696 
L 389.440085 285.170722 
L 389.50984 284.44893 
L 389.533066 284.674788 
L 389.556278 285.332385 
L 389.579478 283.972225 
L 389.602665 283.232374 
L 389.649001 284.958797 
L 389.672149 285.280156 
L 389.718407 284.503379 
L 389.787699 284.920811 
L 389.81077 284.545242 
L 389.833829 283.461586 
L 389.879909 285.662407 
L 389.902929 285.380213 
L 389.948932 285.461043 
L 390.017842 284.632332 
L 390.063719 285.627583 
L 390.086639 284.252715 
L 390.109546 284.275451 
L 390.315144 285.749561 
L 390.497051 284.379121 
L 390.542405 285.495547 
L 390.632964 285.095294 
L 390.745886 284.125469 
L 390.678169 285.418139 
L 390.79097 284.398032 
L 390.858504 285.535326 
L 390.903467 285.333703 
L 390.948381 284.524823 
L 390.993246 285.424077 
L 391.038063 284.742535 
L 391.060454 285.54777 
L 391.127554 284.523322 
L 391.149897 285.479651 
L 391.194546 284.212447 
L 391.216853 285.64389 
L 391.239148 284.388295 
L 391.328209 285.569958 
L 391.305961 284.267276 
L 391.350444 284.757792 
L 391.39488 285.176156 
L 391.41708 284.898016 
L 391.439268 283.96504 
L 391.483609 285.129618 
L 391.505762 284.767659 
L 391.527903 285.630239 
L 391.550033 284.760716 
L 391.594256 284.846896 
L 391.61635 284.737913 
L 391.638433 285.037368 
L 391.70461 285.631953 
L 391.726646 284.951138 
L 391.748671 285.106196 
L 391.770683 285.166458 
L 391.836652 282.211502 
L 391.858618 278.089428 
L 391.924447 284.845186 
L 391.968276 285.345319 
L 391.990173 285.317333 
L 392.033933 283.936179 
L 392.077647 285.034507 
L 392.099487 285.698858 
L 392.143132 284.285731 
L 392.164938 285.443937 
L 392.186732 284.902715 
L 392.208515 285.530542 
L 392.252046 285.198061 
L 392.273795 285.583766 
L 392.295532 285.096397 
L 392.338973 285.493747 
L 392.447378 284.589504 
L 392.490661 285.631867 
L 392.5339 284.557982 
L 392.577093 285.196205 
L 392.598673 285.253404 
L 392.620242 285.012203 
L 392.684882 284.847039 
L 392.706406 285.259192 
L 392.770913 284.699484 
L 392.792393 284.76334 
L 392.813862 284.722499 
L 392.83532 285.605214 
L 392.921041 285.085699 
L 392.942444 285.059919 
L 392.985217 284.948652 
L 393.027946 285.461769 
L 393.113273 284.087963 
L 393.134578 284.960177 
L 393.240938 285.553434 
L 393.262177 284.409789 
L 393.347027 284.980611 
L 393.389387 284.647256 
L 393.410552 285.146065 
L 393.452847 285.508795 
L 393.473979 284.786628 
L 393.516211 285.466032 
L 393.5584 285.109463 
L 393.621604 285.120135 
L 393.726731 285.61304 
L 393.78968 284.264994 
L 393.831594 284.718445 
L 393.852535 285.256524 
L 393.873466 284.409548 
L 393.936194 284.674956 
L 393.957083 284.738339 
L 393.998829 280.46548 
L 394.061369 284.840451 
L 394.082195 284.76681 
L 394.165395 285.725806 
L 394.18617 285.182057 
L 394.24843 284.410453 
L 394.269163 285.395607 
L 394.289886 285.106664 
L 394.3313 284.79369 
L 394.393345 285.409925 
L 394.496548 284.84985 
L 394.475928 285.502662 
L 394.517158 285.035491 
L 394.599496 285.742271 
L 394.7227 284.616934 
L 394.906826 285.66872 
L 394.784166 284.60186 
L 394.9884 285.603184 
L 395.008768 285.054991 
L 395.069814 285.710908 
L 395.110462 285.23085 
L 395.130771 285.471824 
L 395.17136 285.148454 
L 395.211909 283.931985 
L 395.232168 285.526396 
L 395.272658 285.362861 
L 395.353521 285.710651 
L 395.313109 284.858459 
L 395.393893 285.553664 
L 395.454379 284.849072 
L 395.514777 285.119308 
L 395.53489 284.977655 
L 395.554994 285.16698 
L 395.575088 285.605977 
L 395.595172 284.285294 
L 395.635311 284.96125 
L 395.675412 285.188316 
L 395.715475 284.318531 
L 395.735491 285.554292 
L 395.835431 285.309726 
L 395.855391 285.484812 
L 395.87534 285.047344 
L 395.915211 285.085376 
L 395.955044 284.959554 
L 396.034596 278.910546 
L 396.074315 283.418615 
L 396.173448 285.675141 
L 396.193246 285.368829 
L 396.232815 284.531096 
L 396.272346 285.492745 
L 396.311839 284.814907 
L 396.37101 284.379923 
L 396.430096 285.506067 
L 396.508749 284.647821 
L 396.548019 285.053192 
L 396.567641 284.991673 
L 396.587253 285.151768 
L 396.62645 284.608307 
L 396.685176 285.747632 
L 396.782869 284.557607 
L 396.802381 284.849153 
L 396.821883 284.838232 
L 396.86086 285.223858 
L 396.899801 284.569859 
L 396.958144 285.166562 
L 397.016405 284.785295 
L 396.996994 285.377272 
L 397.074586 285.105068 
L 397.093961 285.582847 
L 397.113327 284.299511 
L 397.171373 285.537785 
L 397.190703 284.136217 
L 397.267936 285.5978 
L 397.287222 285.080705 
L 397.383518 284.391366 
L 397.345026 285.317266 
L 397.40275 284.974061 
L 397.460395 285.313895 
L 397.49878 284.773781 
L 397.556292 285.162114 
L 397.613725 284.187611 
L 397.690179 285.55821 
L 397.728354 285.371304 
L 397.785551 284.741294 
L 397.766494 285.691877 
L 397.823638 285.250554 
L 397.842669 285.420235 
L 397.861691 284.844486 
L 397.880705 285.255126 
L 397.975642 281.699918 
L 397.994604 283.544533 
L 398.127094 285.381273 
L 398.145987 285.336684 
L 398.164871 285.35656 
L 398.296823 284.319476 
L 398.390819 285.516506 
L 398.409593 285.397581 
L 398.484604 285.500311 
L 398.503336 284.280252 
L 398.540774 285.528348 
L 398.61555 285.00484 
L 398.634223 284.534366 
L 398.690192 285.443937 
L 398.708832 285.466019 
L 398.727463 285.755834 
L 398.764701 284.924982 
L 398.783308 285.086426 
L 398.801906 284.66515 
L 398.857651 285.406718 
L 398.876216 285.113585 
L 398.913321 285.171345 
L 398.987433 285.569565 
L 398.968917 284.68775 
L 399.024439 285.323051 
L 399.208982 284.526573 
L 399.098354 285.461904 
L 399.227391 284.577999 
L 399.319317 285.4504 
L 399.337678 285.391541 
L 399.35603 284.442187 
L 399.41104 285.497967 
L 399.447673 285.292954 
L 399.520843 284.575297 
L 399.484274 285.544248 
L 399.575636 284.716438 
L 399.593884 285.357503 
L 399.630357 284.675282 
L 399.666798 284.798446 
L 399.685007 284.356447 
L 399.703207 285.617417 
L 399.757762 284.925167 
L 399.775931 285.682741 
L 399.83039 284.105104 
L 399.848527 283.85363 
L 399.866657 284.828753 
L 399.939096 285.624766 
L 399.993343 285.313049 
L 400.04752 285.410828 
L 400.137658 284.213073 
L 400.155662 285.17245 
L 400.263525 285.130764 
L 400.299417 284.05612 
L 400.37111 284.822728 
L 400.460552 285.499795 
L 400.442679 284.578677 
L 400.496276 285.364404 
L 400.603263 284.293158 
L 400.531969 285.719041 
L 400.621068 284.817722 
L 400.674436 285.416067 
L 400.709976 284.759949 
L 400.727736 284.10465 
L 400.798696 285.442336 
L 400.834132 284.600459 
L 400.869537 285.56988 
L 400.922588 284.806484 
L 400.993219 285.666071 
L 400.975572 284.776994 
L 401.098941 285.294201 
L 401.116535 284.720932 
L 401.151702 285.633422 
L 401.204396 284.871388 
L 401.257023 283.951796 
L 401.292072 285.616514 
L 401.309585 284.226789 
L 401.414509 284.691735 
L 401.466873 283.756982 
L 401.519171 285.727052 
L 401.606188 280.264436 
L 401.640945 284.803751 
L 401.71037 285.410168 
L 401.74504 284.664776 
L 401.762364 285.390885 
L 401.779681 285.403175 
L 401.831589 284.599453 
L 401.848877 285.681871 
L 401.866158 285.57256 
L 401.883432 285.593675 
L 402.004149 284.296133 
L 402.107343 285.492085 
L 402.124517 285.456074 
L 402.158845 285.408965 
L 402.175998 284.146447 
L 402.24454 285.479387 
L 402.261658 285.364357 
L 402.364218 284.574445 
L 402.295873 285.374261 
L 402.381287 284.916188 
L 402.415404 285.657756 
L 402.500574 285.198099 
L 402.517588 284.659968 
L 402.568586 285.596892 
L 402.60255 285.308386 
L 402.636487 285.440335 
L 402.721207 284.624751 
L 402.805756 285.281665 
L 402.822646 284.32684 
L 402.890134 285.726539 
L 402.923838 284.854647 
L 402.94068 285.534013 
L 402.957514 284.712333 
L 403.041586 285.226336 
L 403.05838 285.290259 
L 403.075168 283.789 
L 403.108722 285.510202 
L 403.159003 284.730163 
L 403.242671 284.175153 
L 403.259384 285.277417 
L 403.342851 285.597324 
L 403.359524 284.361039 
L 403.492671 285.63668 
L 403.575673 284.794581 
L 403.559086 285.708702 
L 403.625395 285.025833 
L 403.641956 285.666718 
L 403.691599 284.606969 
L 403.741183 285.570369 
L 403.774206 283.987591 
L 403.840175 285.739641 
L 403.85665 284.499777 
L 403.988223 285.53331 
L 404.070246 284.589557 
L 404.10301 285.154714 
L 404.119382 285.094048 
L 404.184807 284.616516 
L 404.217482 285.715781 
L 404.282753 284.831985 
L 404.315351 285.261419 
L 404.33164 285.68297 
L 404.412991 285.137502 
L 404.429243 285.389213 
L 404.445488 285.475512 
L 404.461726 284.712471 
L 404.494184 285.619065 
L 404.559025 285.137907 
L 404.575219 284.80601 
L 404.639934 285.606119 
L 404.656097 285.600925 
L 404.672254 284.825229 
L 404.688405 285.677447 
L 404.769064 285.169731 
L 404.801284 285.473117 
L 404.833479 284.954755 
L 404.849567 284.709703 
L 404.897795 285.517176 
L 404.913859 285.489113 
L 405.01011 284.468615 
L 404.994083 285.573796 
L 405.02613 284.727225 
L 405.042144 285.533641 
L 405.122123 284.724646 
L 405.138101 285.269997 
L 405.170037 285.419633 
L 405.185996 285.29182 
L 405.2657 284.89888 
L 405.281623 285.483995 
L 405.361144 285.615171 
L 405.39291 284.932087 
L 405.408784 285.396168 
L 405.503902 285.307776 
L 405.519734 284.538538 
L 405.583002 285.496928 
L 405.598804 284.643616 
L 405.6146 285.585892 
L 405.70925 285.52136 
L 405.803686 284.940006 
L 405.835117 284.977627 
L 405.897909 285.679047 
L 405.88222 284.693664 
L 405.94494 284.950482 
L 405.960606 284.43009 
L 405.976265 285.707025 
L 406.038845 285.408651 
L 406.085718 285.447521 
L 406.132539 284.9403 
L 406.148134 285.704695 
L 406.226023 285.422307 
L 406.241583 284.824032 
L 406.257137 285.674679 
L 406.334823 285.299562 
L 406.350343 285.476968 
L 406.396868 284.754384 
L 406.412364 284.818059 
L 406.427855 285.483946 
L 406.505224 284.192619 
L 406.520681 282.031972 
L 406.567016 285.746501 
L 406.597878 285.161789 
L 406.6133 284.866937 
L 406.644127 285.775012 
L 406.674932 285.172625 
L 406.751844 285.715625 
L 406.721097 285.014337 
L 406.76721 285.043753 
L 406.78257 284.320156 
L 406.828615 285.572671 
L 406.87461 285.12799 
L 406.889931 284.5281 
L 406.935858 285.701031 
L 406.966448 285.255191 
L 406.981735 285.542888 
L 407.012291 284.807144 
L 407.027561 284.945228 
L 407.042825 284.46929 
L 407.058084 285.461311 
L 407.119063 285.442144 
L 407.179953 284.790813 
L 407.164739 285.666354 
L 407.255941 285.077036 
L 407.331791 285.501942 
L 407.377235 285.401133 
L 407.452865 285.455829 
L 407.498177 284.529401 
L 407.51327 285.690204 
L 407.588654 284.482332 
L 407.618769 285.580226 
L 407.633819 285.607708 
L 407.678935 284.177739 
L 407.724003 285.6487 
L 407.754021 285.240878 
L 407.873877 284.516507 
L 407.978469 285.506413 
L 407.99339 285.16314 
L 408.008305 285.031626 
L 408.038119 281.868705 
L 408.097684 285.436328 
L 408.112562 285.433955 
L 408.17202 284.432488 
L 408.201718 285.308566 
L 408.261049 284.820662 
L 408.320297 285.655875 
L 408.40901 284.963567 
L 408.423777 285.39165 
L 408.43854 285.718274 
L 408.512272 285.227362 
L 408.527002 284.461354 
L 408.615278 285.512268 
L 408.703367 285.105528 
L 408.718031 285.428345 
L 408.732689 285.669635 
L 408.791271 285.089428 
L 408.805904 285.208889 
L 408.820531 284.650088 
L 408.835154 285.555877 
L 408.908189 285.297819 
L 408.966525 284.568042 
L 408.981096 285.324428 
L 409.02478 284.866776 
L 409.039331 285.718648 
L 409.053877 284.491466 
L 409.141046 285.203897 
L 409.155556 285.670231 
L 409.184562 284.444689 
L 409.242514 285.15357 
L 409.300384 284.909651 
L 409.271459 285.350383 
L 409.31484 285.286202 
L 409.32929 285.740895 
L 409.343735 284.847992 
L 409.401466 285.262768 
L 409.502303 280.300084 
L 409.444712 285.33436 
L 409.516689 283.672335 
L 409.617248 285.50313 
L 409.631594 284.248102 
L 409.703249 284.086429 
L 409.760485 285.526325 
L 409.774782 284.854998 
L 409.803361 285.69574 
L 409.874722 285.340213 
L 409.945961 285.049025 
L 409.931723 285.632458 
L 410.002866 285.178574 
L 410.045493 284.594319 
L 410.116442 285.725925 
L 410.18727 284.89143 
L 410.229709 285.242944 
L 410.243846 285.207911 
L 410.300346 285.303769 
L 410.356769 284.592669 
L 410.455326 284.431996 
L 410.469387 285.613501 
L 410.539619 284.780811 
L 410.581702 284.921806 
L 410.59572 285.653129 
L 410.623742 284.914368 
L 410.693715 285.161164 
L 410.707696 285.15853 
L 410.777528 284.625655 
L 410.805429 285.347182 
L 410.916844 284.016349 
L 410.875098 285.716943 
L 410.944651 284.781494 
L 410.986328 285.625205 
L 411.041831 284.696165 
L 411.055696 284.903387 
L 411.111108 284.831977 
L 411.180269 285.717535 
L 411.249316 284.588397 
L 411.290689 284.890239 
L 411.345789 285.505306 
L 411.373313 284.808483 
L 411.387067 285.180766 
L 411.400817 284.71469 
L 411.455773 285.590575 
L 411.483224 285.381478 
L 411.496942 285.52046 
L 411.538071 284.914437 
L 411.565467 285.275001 
L 411.620207 284.548941 
L 411.592846 285.377696 
L 411.661214 284.756386 
L 411.77037 285.583714 
L 411.702181 284.731693 
L 411.783995 285.546945 
L 411.797615 284.127671 
L 411.81123 285.782395 
L 411.892831 285.591031 
L 411.933571 284.580627 
L 412.014933 285.011327 
L 412.042018 284.371705 
L 412.136678 285.614189 
L 412.150184 284.786163 
L 412.244599 285.219769 
L 412.25807 285.553929 
L 412.298456 284.845877 
L 412.352242 285.19562 
L 412.365678 285.192214 
L 412.446202 285.572538 
L 412.486406 283.898102 
L 412.499799 285.636545 
L 412.606786 285.3237 
L 412.63349 285.426119 
L 412.726819 284.795804 
L 412.766754 285.50449 
L 412.753447 284.584633 
L 412.846509 285.470191 
L 412.87306 284.537109 
L 412.965856 284.999297 
L 412.992331 284.720183 
L 413.032012 285.574021 
L 413.045231 284.564984 
L 413.124456 285.774411 
L 413.15083 284.970547 
L 413.229855 284.789189 
L 413.269311 285.742979 
L 413.400563 284.720752 
L 413.466035 285.668138 
L 413.426764 284.625814 
L 413.505268 285.229641 
L 413.609711 284.389121 
L 413.59667 285.371299 
L 413.622748 284.466079 
L 413.661835 285.710141 
L 413.726898 285.235309 
L 413.79186 283.820146 
L 413.778875 285.32692 
L 413.830788 285.060397 
L 413.856721 285.646542 
L 413.934421 285.064321 
L 413.973217 285.616725 
L 414.037796 284.72436 
L 414.166657 285.705977 
L 414.269459 284.52353 
L 414.282292 285.256669 
L 414.29512 285.252666 
L 414.38481 284.686325 
L 414.372009 285.517938 
L 414.397607 285.420882 
L 414.4104 285.366098 
L 414.42319 284.285008 
L 414.474308 285.718549 
L 414.525363 284.915047 
L 414.589094 284.49607 
L 414.550867 285.530713 
L 414.61456 284.857801 
L 414.716266 285.608852 
L 414.678155 284.205808 
L 414.741654 285.456381 
L 414.83039 285.613068 
L 414.855708 284.657546 
L 414.956829 285.474972 
L 414.969452 284.922535 
L 415.045109 285.428584 
L 415.032509 284.81323 
L 415.070298 285.129403 
L 415.082887 284.549644 
L 415.12063 285.588592 
L 415.170901 285.271119 
L 415.196014 285.630468 
L 415.233654 285.105354 
L 415.271261 285.171498 
L 415.333865 284.052352 
L 415.346374 285.651727 
L 415.38388 284.806837 
L 415.433835 285.660501 
L 415.533566 285.116431 
L 415.608208 284.813528 
L 415.570903 285.682054 
L 415.633059 284.920329 
L 415.732315 285.698267 
L 415.707523 284.699943 
L 415.744706 285.289909 
L 415.794231 284.869338 
L 415.806603 285.669074 
L 415.856055 285.267063 
L 415.868409 285.667894 
L 415.880759 284.85479 
L 415.954783 285.285344 
L 415.967108 284.608328 
L 416.028676 285.562108 
L 416.053278 285.162459 
L 416.11472 284.942712 
L 416.126997 285.634914 
L 416.139271 283.481793 
L 416.200586 285.740346 
L 416.237332 285.044881 
L 416.310727 284.586337 
L 416.359585 285.507349 
L 416.371791 284.831362 
L 416.44495 285.685705 
L 416.469308 285.102963 
L 416.493651 284.631129 
L 416.542296 285.242876 
L 416.554448 285.578563 
L 416.590884 284.605059 
L 416.65154 285.311203 
L 416.712107 284.680229 
L 416.687891 285.762694 
L 416.772587 285.031687 
L 416.845047 285.650627 
L 416.88123 284.964885 
L 416.989591 285.763223 
L 416.917382 284.53681 
L 417.001614 285.451091 
L 417.013633 284.443804 
L 417.061675 285.571194 
L 417.097671 285.253775 
L 417.109663 285.722362 
L 417.133636 284.858085 
L 417.193508 285.20608 
L 417.277185 284.681586 
L 417.22939 285.524158 
L 417.289125 285.518471 
L 417.324925 284.775784 
L 417.336852 285.592786 
L 417.408339 285.030829 
L 417.420242 285.660176 
L 417.491587 284.833386 
L 417.503466 284.914612 
L 417.515342 284.329375 
L 417.550948 285.68664 
L 417.598377 285.361361 
L 417.669418 284.912373 
L 417.645751 285.694474 
L 417.704893 285.418792 
L 417.716712 285.547847 
L 417.728527 284.936629 
L 417.752147 285.269525 
L 417.787552 284.830813 
L 417.811139 285.714673 
L 417.870048 284.867097 
L 417.881819 285.704525 
L 417.975874 285.369839 
L 418.057998 284.594738 
L 417.999354 285.732473 
L 418.081433 285.159043 
L 418.104854 285.451809 
L 418.163349 284.614215 
L 418.175039 285.535634 
L 418.210087 285.436787 
L 418.245106 284.258792 
L 418.291752 285.649686 
L 418.315056 285.012475 
L 418.326702 285.614207 
L 418.431378 285.440681 
L 418.524204 279.943354 
L 418.547378 283.984183 
L 418.663056 285.685858 
L 418.697696 285.067885 
L 418.732309 285.716286 
L 418.778414 285.083165 
L 418.893454 285.574009 
L 418.90494 284.591229 
L 419.008177 285.188579 
L 419.07686 285.720968 
L 419.099729 285.176463 
L 419.111159 285.347837 
L 419.122586 285.054341 
L 419.202486 285.51821 
L 419.213888 285.337397 
L 419.248075 284.88235 
L 419.293614 285.524839 
L 419.339103 284.767271 
L 419.350467 285.77375 
L 419.395895 285.561718 
L 419.407244 285.650861 
L 419.41859 284.780373 
L 419.497926 285.755325 
L 419.520565 285.363438 
L 419.588411 284.749549 
L 419.554502 285.559739 
L 419.63358 284.982606 
L 419.644865 284.981312 
L 419.667425 282.937994 
L 419.746289 285.552331 
L 419.780043 285.035412 
L 419.825005 285.640677 
L 419.858695 285.308025 
L 419.914784 284.994381 
L 419.937199 285.768748 
L 419.948402 284.707377 
L 420.049092 285.345425 
L 420.060265 285.32594 
L 420.071435 285.596979 
L 420.14954 284.979969 
L 420.249747 285.533957 
L 420.171829 284.886273 
L 420.283096 285.264325 
L 420.294206 284.914852 
L 420.349714 285.72392 
L 420.382983 285.386235 
L 420.416225 285.546945 
L 420.460508 284.325391 
L 420.515795 285.692738 
L 420.526843 285.089709 
L 420.637168 285.74115 
L 420.648185 285.537428 
L 420.736212 284.772485 
L 420.75819 285.498095 
L 420.769175 285.783697 
L 420.780156 284.814718 
L 420.845986 285.332666 
L 420.856947 285.002444 
L 420.911712 285.602609 
L 420.944536 285.403386 
L 420.955472 285.631035 
L 420.999185 285.128693 
L 421.042854 285.515246 
L 421.151825 284.943626 
L 421.162706 285.275552 
L 421.238797 284.956965 
L 421.249656 285.65175 
L 421.260512 285.005193 
L 421.358089 285.553641 
L 421.379741 284.934905 
L 421.423013 285.572342 
L 421.47704 285.26773 
L 421.509423 285.56313 
L 421.520212 285.032571 
L 421.563338 285.627881 
L 421.617184 285.275844 
L 421.692451 285.674925 
L 421.67096 284.802429 
L 421.724667 285.557422 
L 421.756858 284.899106 
L 421.74613 285.675853 
L 421.84258 285.11283 
L 421.863982 284.201493 
L 421.917442 285.55481 
L 421.928125 285.223438 
L 421.970833 285.678951 
L 421.981503 285.141746 
L 422.013496 285.358263 
L 422.024155 284.726465 
L 422.066764 285.734568 
L 422.119965 285.215306 
L 422.130597 285.69333 
L 422.226162 285.03626 
L 422.342668 285.686683 
L 422.353243 285.606864 
L 422.416639 285.684298 
L 422.490479 284.63377 
L 422.553667 285.75912 
L 422.60625 285.455498 
L 422.616759 285.442943 
L 422.669263 285.689082 
L 422.742658 284.762484 
L 422.795004 285.702422 
L 422.857733 285.499085 
L 422.909934 285.101512 
L 422.920367 285.731964 
L 422.972491 285.156903 
L 422.982908 285.678038 
L 422.993322 285.015478 
L 423.076543 285.587622 
L 423.190702 285.1792 
L 423.263186 285.728802 
L 423.242489 284.844005 
L 423.304549 285.310078 
L 423.407777 285.668437 
L 423.335544 285.084981 
L 423.418086 285.56782 
L 423.510751 285.166551 
L 423.500465 285.5875 
L 423.541594 285.171798 
L 423.582682 285.723729 
L 423.62373 284.64335 
L 423.654489 285.291367 
L 423.695466 285.582637 
L 423.756856 285.318702 
L 423.767079 285.215039 
L 423.787518 285.727972 
L 423.858973 285.385978 
L 423.88956 285.13513 
L 423.879367 285.455582 
L 423.909938 285.445489 
L 423.920124 285.731818 
L 423.971014 284.6853 
L 424.021842 285.661667 
L 424.092898 284.669092 
L 424.103039 285.767238 
L 424.133447 285.491693 
L 424.163833 284.914997 
L 424.194197 285.686125 
L 424.244754 285.387156 
L 424.29525 285.222434 
L 424.315432 285.646396 
L 424.325519 284.654045 
L 424.426255 285.503139 
L 424.436315 285.08805 
L 424.466482 285.698303 
L 424.536785 285.437127 
L 424.647022 285.131212 
L 424.596951 285.697821 
L 424.65703 285.154334 
L 424.727013 285.691572 
L 424.677037 285.02095 
L 424.766951 285.443573 
L 424.776929 284.679281 
L 424.80685 285.673405 
L 424.876583 285.40761 
L 424.92632 285.145096 
L 424.936261 285.605378 
L 425.015699 284.872961 
L 425.035535 285.134034 
L 425.04545 284.877269 
L 425.065271 285.688115 
L 425.12468 285.315626 
L 425.174124 285.748208 
L 425.144465 285.196055 
L 425.233378 285.637522 
L 425.302402 285.106463 
L 425.341793 285.498541 
L 425.410638 285.685771 
L 425.390979 284.763699 
L 425.420464 285.431368 
L 425.430287 285.144802 
L 425.459743 285.642548 
L 425.528394 285.511168 
L 425.557781 285.737791 
L 425.626271 285.276496 
L 425.704408 285.63441 
L 425.65559 285.247949 
L 425.743421 285.568937 
L 425.762914 285.045546 
L 425.811607 285.597702 
L 425.860244 285.12152 
L 425.869964 285.65446 
L 425.937944 283.399861 
L 425.967044 285.588514 
L 425.97674 284.900016 
L 426.073572 285.131413 
L 426.189474 285.737451 
L 426.247305 285.043135 
L 426.305056 285.530108 
L 426.314674 285.211851 
L 426.381933 285.672734 
L 426.420319 285.365797 
L 426.429909 285.371419 
L 426.487408 284.987778 
L 426.496984 285.623412 
L 426.525697 285.113388 
L 426.621265 285.776405 
L 426.640352 285.551903 
L 426.649892 285.596274 
L 426.668967 285.284468 
L 426.678501 285.073363 
L 426.697562 285.629725 
L 426.764208 285.148255 
L 426.811746 285.726751 
L 426.792737 284.9207 
L 426.868722 285.344537 
L 426.89718 282.568148 
L 426.944568 285.671126 
L 426.972975 285.345599 
L 426.98244 285.339097 
L 426.991902 285.379475 
L 427.001363 285.746201 
L 427.039183 285.156326 
L 427.105285 285.554791 
L 427.152438 284.917626 
L 427.190121 285.625102 
L 427.218361 285.229829 
L 427.22777 285.611179 
L 427.321746 285.130465 
L 427.331131 285.530512 
L 427.406143 285.071537 
L 427.378029 285.618876 
L 427.424874 285.527266 
L 427.434237 285.725764 
L 427.499717 285.105942 
L 427.537089 285.59637 
L 427.611731 284.930928 
L 427.555762 285.658304 
L 427.649002 285.22589 
L 427.658314 285.761906 
L 427.760616 285.381754 
L 427.779189 285.656042 
L 427.797754 285.102986 
L 427.844131 285.572055 
L 427.927479 284.966013 
L 427.881195 285.595561 
L 427.955224 285.308515 
L 428.029123 285.779861 
L 428.038351 285.187188 
L 428.056801 285.425476 
L 428.139726 285.105374 
L 428.112103 285.490825 
L 428.167331 285.3658 
L 428.176529 285.352276 
L 428.259216 285.693807 
L 428.213299 284.93726 
L 428.295913 285.658904 
L 428.31425 285.708995 
L 428.442381 285.150396 
L 428.497174 285.690262 
L 428.524544 285.054492 
L 428.551896 285.310981 
L 428.561009 285.289473 
L 428.579229 285.467963 
L 428.588337 285.657159 
L 428.624746 285.126361 
L 428.688386 285.609359 
L 428.751928 284.920317 
L 428.724708 285.696953 
L 428.797257 285.566623 
L 428.842536 285.317599 
L 428.851586 285.630801 
L 428.932948 285.749876 
L 428.969058 284.787263 
L 429.059196 285.713416 
L 429.095197 285.627733 
L 429.113186 285.040701 
L 429.14914 285.761588 
L 429.211986 285.363512 
L 429.283693 285.700683 
L 429.256817 285.066635 
L 429.319501 285.530428 
L 429.337393 284.990356 
L 429.346337 285.664341 
L 429.42674 285.276113 
L 429.462426 285.759253 
L 429.506989 285.169699 
L 429.515896 285.301189 
L 429.551505 284.855689 
L 429.578192 285.684825 
L 429.622633 285.138475 
L 429.711371 285.62428 
L 429.649274 284.106214 
L 429.737956 285.491058 
L 429.782227 285.084677 
L 429.791075 285.698814 
L 429.852962 285.373988 
L 429.923578 285.748349 
L 429.941213 285.241909 
L 429.958841 285.549262 
L 429.985268 285.743579 
L 430.064451 285.07404 
L 430.152256 285.77319 
L 430.178562 285.699887 
L 430.19609 284.920112 
L 430.274874 285.742963 
L 430.292361 285.531366 
L 430.370964 285.241427 
L 430.362238 285.653973 
L 430.388411 285.399883 
L 430.492941 285.752046 
L 430.440709 285.135419 
L 430.50164 285.57499 
L 430.571168 285.626943 
L 430.614563 285.01524 
L 430.649247 285.692746 
L 430.727181 285.333455 
L 430.779056 285.208269 
L 430.761772 285.705474 
L 430.830867 285.322158 
L 430.891232 285.782989 
L 430.908463 285.21917 
L 430.942904 285.485359 
L 430.968716 285.397522 
L 430.977316 285.46648 
L 431.080383 285.167311 
L 431.020292 285.695169 
L 431.088961 285.380671 
L 431.166078 284.919377 
L 431.200307 285.647274 
L 431.319888 284.966734 
L 431.294292 285.658834 
L 431.336942 285.125475 
L 431.371031 285.631094 
L 431.388066 283.253766 
L 431.44763 285.144816 
L 431.498618 285.66743 
L 431.50711 285.060282 
L 431.558025 285.518177 
L 431.600407 285.027673 
L 431.659669 285.742462 
L 431.676586 285.051807 
L 431.769505 285.437181 
L 431.828528 285.710888 
L 431.845376 285.164255 
L 431.870636 285.244523 
L 432.013487 285.570065 
L 432.021875 285.366718 
L 432.030261 284.823208 
L 432.063788 285.655892 
L 432.130762 285.502881 
L 432.139127 285.705248 
L 432.214329 285.141709 
L 432.231023 284.205353 
L 432.231023 284.205353 
" clip-path="url(#p1cd68bfd94)" style="fill: none; stroke: #1f77b4; stroke-width: 1.5; stroke-linecap: square"/>
   </g>
   <g id="patch_3">
    <path d="M 59.0825 298.888 
L 59.0825 10.8 
" style="fill: none; stroke: #000000; stroke-width: 0.8; stroke-linejoin: miter; stroke-linecap: square"/>
   </g>
   <g id="patch_4">
    <path d="M 450 298.888 
L 450 10.8 
" style="fill: none; stroke: #000000; stroke-width: 0.8; stroke-linejoin: miter; stroke-linecap: square"/>
   </g>
   <g id="patch_5">
    <path d="M 59.0825 298.888 
L 450 298.888 
" style="fill: none; stroke: #000000; stroke-width: 0.8; stroke-linejoin: miter; stroke-linecap: square"/>
   </g>
   <g id="patch_6">
    <path d="M 59.0825 10.8 
L 450 10.8 
" style="fill: none; stroke: #000000; stroke-width: 0.8; stroke-linejoin: miter; stroke-linecap: square"/>
   </g>
  </g>
 </g>
 <defs>
  <clipPath id="p1cd68bfd94">
   <rect x="59.0825" y="10.8" width="390.9175" height="288.088"/>
  </clipPath>
 </defs>
</svg>
