<?xml version="1.0" encoding="utf-8" standalone="no"?>
<!DOCTYPE svg PUBLIC "-//W3C//DTD SVG 1.1//EN"
  "http://www.w3.org/Graphics/SVG/1.1/DTD/svg11.dtd">
<svg xmlns:xlink="http://www.w3.org/1999/xlink" width="460.8pt" height="345.6pt" viewBox="0 0 460.8 345.6" xmlns="http://www.w3.org/2000/svg" version="1.1">
 <metadata>
  <rdf:RDF xmlns:dc="http://purl.org/dc/elements/1.1/" xmlns:cc="http://creativecommons.org/ns#" xmlns:rdf="http://www.w3.org/1999/02/22-rdf-syntax-ns#">
   <cc:Work>
    <dc:type rdf:resource="http://purl.org/dc/dcmitype/StillImage"/>
    <dc:date>2024-05-01T16:49:56.116630</dc:date>
    <dc:format>image/svg+xml</dc:format>
    <dc:creator>
     <cc:Agent>
      <dc:title>Matplotlib v3.7.1, https://matplotlib.org/</dc:title>
     </cc:Agent>
    </dc:creator>
   </cc:Work>
  </rdf:RDF>
 </metadata>
 <defs>
  <style type="text/css">*{stroke-linejoin: round; stroke-linecap: butt}</style>
 </defs>
 <g id="figure_1">
  <g id="patch_1">
   <path d="M 0 345.6 
L 460.8 345.6 
L 460.8 0 
L 0 0 
z
" style="fill: #ffffff"/>
  </g>
  <g id="axes_1">
   <g id="patch_2">
    <path d="M 49.088 302.2 
L 389.392 302.2 
L 389.392 13.319186 
L 49.088 13.319186 
z
" style="fill: #ffffff"/>
   </g>
   <g id="matplotlib.axis_1">
    <g id="xtick_1">
     <g id="line2d_1">
      <defs>
       <path id="mc6ef9c1989" d="M 0 0 
L 0 3.5 
" style="stroke: #000000; stroke-width: 0.8"/>
      </defs>
      <g>
       <use xlink:href="#mc6ef9c1989" x="49.088" y="302.2" style="stroke: #000000; stroke-width: 0.8"/>
      </g>
     </g>
     <g id="text_1">
      <!-- 0.000 -->
      <g transform="translate(34.773938 316.798437) scale(0.1 -0.1)">
       <defs>
        <path id="DejaVuSans-30" d="M 2034 4250 
Q 1547 4250 1301 3770 
Q 1056 3291 1056 2328 
Q 1056 1369 1301 889 
Q 1547 409 2034 409 
Q 2525 409 2770 889 
Q 3016 1369 3016 2328 
Q 3016 3291 2770 3770 
Q 2525 4250 2034 4250 
z
M 2034 4750 
Q 2819 4750 3233 4129 
Q 3647 3509 3647 2328 
Q 3647 1150 3233 529 
Q 2819 -91 2034 -91 
Q 1250 -91 836 529 
Q 422 1150 422 2328 
Q 422 3509 836 4129 
Q 1250 4750 2034 4750 
z
" transform="scale(0.015625)"/>
        <path id="DejaVuSans-2e" d="M 684 794 
L 1344 794 
L 1344 0 
L 684 0 
L 684 794 
z
" transform="scale(0.015625)"/>
       </defs>
       <use xlink:href="#DejaVuSans-30"/>
       <use xlink:href="#DejaVuSans-2e" x="63.623047"/>
       <use xlink:href="#DejaVuSans-30" x="95.410156"/>
       <use xlink:href="#DejaVuSans-30" x="159.033203"/>
       <use xlink:href="#DejaVuSans-30" x="222.65625"/>
      </g>
     </g>
    </g>
    <g id="xtick_2">
     <g id="line2d_2">
      <g>
       <use xlink:href="#mc6ef9c1989" x="117.1488" y="302.2" style="stroke: #000000; stroke-width: 0.8"/>
      </g>
     </g>
     <g id="text_2">
      <!-- 0.001 -->
      <g transform="translate(102.834738 316.798437) scale(0.1 -0.1)">
       <defs>
        <path id="DejaVuSans-31" d="M 794 531 
L 1825 531 
L 1825 4091 
L 703 3866 
L 703 4441 
L 1819 4666 
L 2450 4666 
L 2450 531 
L 3481 531 
L 3481 0 
L 794 0 
L 794 531 
z
" transform="scale(0.015625)"/>
       </defs>
       <use xlink:href="#DejaVuSans-30"/>
       <use xlink:href="#DejaVuSans-2e" x="63.623047"/>
       <use xlink:href="#DejaVuSans-30" x="95.410156"/>
       <use xlink:href="#DejaVuSans-30" x="159.033203"/>
       <use xlink:href="#DejaVuSans-31" x="222.65625"/>
      </g>
     </g>
    </g>
    <g id="xtick_3">
     <g id="line2d_3">
      <g>
       <use xlink:href="#mc6ef9c1989" x="185.2096" y="302.2" style="stroke: #000000; stroke-width: 0.8"/>
      </g>
     </g>
     <g id="text_3">
      <!-- 0.002 -->
      <g transform="translate(170.895538 316.798437) scale(0.1 -0.1)">
       <defs>
        <path id="DejaVuSans-32" d="M 1228 531 
L 3431 531 
L 3431 0 
L 469 0 
L 469 531 
Q 828 903 1448 1529 
Q 2069 2156 2228 2338 
Q 2531 2678 2651 2914 
Q 2772 3150 2772 3378 
Q 2772 3750 2511 3984 
Q 2250 4219 1831 4219 
Q 1534 4219 1204 4116 
Q 875 4013 500 3803 
L 500 4441 
Q 881 4594 1212 4672 
Q 1544 4750 1819 4750 
Q 2544 4750 2975 4387 
Q 3406 4025 3406 3419 
Q 3406 3131 3298 2873 
Q 3191 2616 2906 2266 
Q 2828 2175 2409 1742 
Q 1991 1309 1228 531 
z
" transform="scale(0.015625)"/>
       </defs>
       <use xlink:href="#DejaVuSans-30"/>
       <use xlink:href="#DejaVuSans-2e" x="63.623047"/>
       <use xlink:href="#DejaVuSans-30" x="95.410156"/>
       <use xlink:href="#DejaVuSans-30" x="159.033203"/>
       <use xlink:href="#DejaVuSans-32" x="222.65625"/>
      </g>
     </g>
    </g>
    <g id="xtick_4">
     <g id="line2d_4">
      <g>
       <use xlink:href="#mc6ef9c1989" x="253.2704" y="302.2" style="stroke: #000000; stroke-width: 0.8"/>
      </g>
     </g>
     <g id="text_4">
      <!-- 0.003 -->
      <g transform="translate(238.956338 316.798437) scale(0.1 -0.1)">
       <defs>
        <path id="DejaVuSans-33" d="M 2597 2516 
Q 3050 2419 3304 2112 
Q 3559 1806 3559 1356 
Q 3559 666 3084 287 
Q 2609 -91 1734 -91 
Q 1441 -91 1130 -33 
Q 819 25 488 141 
L 488 750 
Q 750 597 1062 519 
Q 1375 441 1716 441 
Q 2309 441 2620 675 
Q 2931 909 2931 1356 
Q 2931 1769 2642 2001 
Q 2353 2234 1838 2234 
L 1294 2234 
L 1294 2753 
L 1863 2753 
Q 2328 2753 2575 2939 
Q 2822 3125 2822 3475 
Q 2822 3834 2567 4026 
Q 2313 4219 1838 4219 
Q 1578 4219 1281 4162 
Q 984 4106 628 3988 
L 628 4550 
Q 988 4650 1302 4700 
Q 1616 4750 1894 4750 
Q 2613 4750 3031 4423 
Q 3450 4097 3450 3541 
Q 3450 3153 3228 2886 
Q 3006 2619 2597 2516 
z
" transform="scale(0.015625)"/>
       </defs>
       <use xlink:href="#DejaVuSans-30"/>
       <use xlink:href="#DejaVuSans-2e" x="63.623047"/>
       <use xlink:href="#DejaVuSans-30" x="95.410156"/>
       <use xlink:href="#DejaVuSans-30" x="159.033203"/>
       <use xlink:href="#DejaVuSans-33" x="222.65625"/>
      </g>
     </g>
    </g>
    <g id="xtick_5">
     <g id="line2d_5">
      <g>
       <use xlink:href="#mc6ef9c1989" x="321.3312" y="302.2" style="stroke: #000000; stroke-width: 0.8"/>
      </g>
     </g>
     <g id="text_5">
      <!-- 0.004 -->
      <g transform="translate(307.017138 316.798437) scale(0.1 -0.1)">
       <defs>
        <path id="DejaVuSans-34" d="M 2419 4116 
L 825 1625 
L 2419 1625 
L 2419 4116 
z
M 2253 4666 
L 3047 4666 
L 3047 1625 
L 3713 1625 
L 3713 1100 
L 3047 1100 
L 3047 0 
L 2419 0 
L 2419 1100 
L 313 1100 
L 313 1709 
L 2253 4666 
z
" transform="scale(0.015625)"/>
       </defs>
       <use xlink:href="#DejaVuSans-30"/>
       <use xlink:href="#DejaVuSans-2e" x="63.623047"/>
       <use xlink:href="#DejaVuSans-30" x="95.410156"/>
       <use xlink:href="#DejaVuSans-30" x="159.033203"/>
       <use xlink:href="#DejaVuSans-34" x="222.65625"/>
      </g>
     </g>
    </g>
    <g id="xtick_6">
     <g id="line2d_6">
      <g>
       <use xlink:href="#mc6ef9c1989" x="389.392" y="302.2" style="stroke: #000000; stroke-width: 0.8"/>
      </g>
     </g>
     <g id="text_6">
      <!-- 0.005 -->
      <g transform="translate(375.077938 316.798437) scale(0.1 -0.1)">
       <defs>
        <path id="DejaVuSans-35" d="M 691 4666 
L 3169 4666 
L 3169 4134 
L 1269 4134 
L 1269 2991 
Q 1406 3038 1543 3061 
Q 1681 3084 1819 3084 
Q 2600 3084 3056 2656 
Q 3513 2228 3513 1497 
Q 3513 744 3044 326 
Q 2575 -91 1722 -91 
Q 1428 -91 1123 -41 
Q 819 9 494 109 
L 494 744 
Q 775 591 1075 516 
Q 1375 441 1709 441 
Q 2250 441 2565 725 
Q 2881 1009 2881 1497 
Q 2881 1984 2565 2268 
Q 2250 2553 1709 2553 
Q 1456 2553 1204 2497 
Q 953 2441 691 2322 
L 691 4666 
z
" transform="scale(0.015625)"/>
       </defs>
       <use xlink:href="#DejaVuSans-30"/>
       <use xlink:href="#DejaVuSans-2e" x="63.623047"/>
       <use xlink:href="#DejaVuSans-30" x="95.410156"/>
       <use xlink:href="#DejaVuSans-30" x="159.033203"/>
       <use xlink:href="#DejaVuSans-35" x="222.65625"/>
      </g>
     </g>
    </g>
    <g id="text_7">
     <!-- $t$ (s) -->
     <g transform="translate(209.14 330.476562) scale(0.1 -0.1)">
      <defs>
       <path id="DejaVuSans-Oblique-74" d="M 2706 3500 
L 2619 3053 
L 1472 3053 
L 1100 1153 
Q 1081 1047 1072 975 
Q 1063 903 1063 863 
Q 1063 663 1183 572 
Q 1303 481 1569 481 
L 2150 481 
L 2053 0 
L 1503 0 
Q 991 0 739 200 
Q 488 400 488 806 
Q 488 878 497 964 
Q 506 1050 525 1153 
L 897 3053 
L 409 3053 
L 500 3500 
L 978 3500 
L 1172 4494 
L 1747 4494 
L 1556 3500 
L 2706 3500 
z
" transform="scale(0.015625)"/>
       <path id="DejaVuSans-20" transform="scale(0.015625)"/>
       <path id="DejaVuSans-28" d="M 1984 4856 
Q 1566 4138 1362 3434 
Q 1159 2731 1159 2009 
Q 1159 1288 1364 580 
Q 1569 -128 1984 -844 
L 1484 -844 
Q 1016 -109 783 600 
Q 550 1309 550 2009 
Q 550 2706 781 3412 
Q 1013 4119 1484 4856 
L 1984 4856 
z
" transform="scale(0.015625)"/>
       <path id="DejaVuSans-73" d="M 2834 3397 
L 2834 2853 
Q 2591 2978 2328 3040 
Q 2066 3103 1784 3103 
Q 1356 3103 1142 2972 
Q 928 2841 928 2578 
Q 928 2378 1081 2264 
Q 1234 2150 1697 2047 
L 1894 2003 
Q 2506 1872 2764 1633 
Q 3022 1394 3022 966 
Q 3022 478 2636 193 
Q 2250 -91 1575 -91 
Q 1294 -91 989 -36 
Q 684 19 347 128 
L 347 722 
Q 666 556 975 473 
Q 1284 391 1588 391 
Q 1994 391 2212 530 
Q 2431 669 2431 922 
Q 2431 1156 2273 1281 
Q 2116 1406 1581 1522 
L 1381 1569 
Q 847 1681 609 1914 
Q 372 2147 372 2553 
Q 372 3047 722 3315 
Q 1072 3584 1716 3584 
Q 2034 3584 2315 3537 
Q 2597 3491 2834 3397 
z
" transform="scale(0.015625)"/>
       <path id="DejaVuSans-29" d="M 513 4856 
L 1013 4856 
Q 1481 4119 1714 3412 
Q 1947 2706 1947 2009 
Q 1947 1309 1714 600 
Q 1481 -109 1013 -844 
L 513 -844 
Q 928 -128 1133 580 
Q 1338 1288 1338 2009 
Q 1338 2731 1133 3434 
Q 928 4138 513 4856 
z
" transform="scale(0.015625)"/>
      </defs>
      <use xlink:href="#DejaVuSans-Oblique-74" transform="translate(0 0.125)"/>
      <use xlink:href="#DejaVuSans-20" transform="translate(39.208984 0.125)"/>
      <use xlink:href="#DejaVuSans-28" transform="translate(70.996094 0.125)"/>
      <use xlink:href="#DejaVuSans-73" transform="translate(110.009766 0.125)"/>
      <use xlink:href="#DejaVuSans-29" transform="translate(162.109375 0.125)"/>
     </g>
    </g>
   </g>
   <g id="matplotlib.axis_2">
    <g id="ytick_1">
     <g id="line2d_7">
      <defs>
       <path id="mcbcbe80a2a" d="M 0 0 
L -3.5 0 
" style="stroke: #000000; stroke-width: 0.8"/>
      </defs>
      <g>
       <use xlink:href="#mcbcbe80a2a" x="49.088" y="298.817066" style="stroke: #000000; stroke-width: 0.8"/>
      </g>
     </g>
     <g id="text_8">
      <!-- −4 -->
      <g style="fill: #ff7f0e" transform="translate(27.345813 302.616285) scale(0.1 -0.1)">
       <defs>
        <path id="DejaVuSans-2212" d="M 678 2272 
L 4684 2272 
L 4684 1741 
L 678 1741 
L 678 2272 
z
" transform="scale(0.015625)"/>
       </defs>
       <use xlink:href="#DejaVuSans-2212"/>
       <use xlink:href="#DejaVuSans-34" x="83.789062"/>
      </g>
     </g>
    </g>
    <g id="ytick_2">
     <g id="line2d_8">
      <g>
       <use xlink:href="#mcbcbe80a2a" x="49.088" y="238.161453" style="stroke: #000000; stroke-width: 0.8"/>
      </g>
     </g>
     <g id="text_9">
      <!-- −2 -->
      <g style="fill: #ff7f0e" transform="translate(27.345813 241.960672) scale(0.1 -0.1)">
       <use xlink:href="#DejaVuSans-2212"/>
       <use xlink:href="#DejaVuSans-32" x="83.789062"/>
      </g>
     </g>
    </g>
    <g id="ytick_3">
     <g id="line2d_9">
      <g>
       <use xlink:href="#mcbcbe80a2a" x="49.088" y="177.50584" style="stroke: #000000; stroke-width: 0.8"/>
      </g>
     </g>
     <g id="text_10">
      <!-- 0 -->
      <g style="fill: #ff7f0e" transform="translate(35.7255 181.305059) scale(0.1 -0.1)">
       <use xlink:href="#DejaVuSans-30"/>
      </g>
     </g>
    </g>
    <g id="ytick_4">
     <g id="line2d_10">
      <g>
       <use xlink:href="#mcbcbe80a2a" x="49.088" y="116.850228" style="stroke: #000000; stroke-width: 0.8"/>
      </g>
     </g>
     <g id="text_11">
      <!-- 2 -->
      <g style="fill: #ff7f0e" transform="translate(35.7255 120.649446) scale(0.1 -0.1)">
       <use xlink:href="#DejaVuSans-32"/>
      </g>
     </g>
    </g>
    <g id="ytick_5">
     <g id="line2d_11">
      <g>
       <use xlink:href="#mcbcbe80a2a" x="49.088" y="56.194615" style="stroke: #000000; stroke-width: 0.8"/>
      </g>
     </g>
     <g id="text_12">
      <!-- 4 -->
      <g style="fill: #ff7f0e" transform="translate(35.7255 59.993834) scale(0.1 -0.1)">
       <use xlink:href="#DejaVuSans-34"/>
      </g>
     </g>
    </g>
    <g id="text_13">
     <!-- $V_{\mathrm{out}}$ (V) -->
     <g style="fill: #ff7f0e" transform="translate(21.266125 176.009593) rotate(-90) scale(0.1 -0.1)">
      <defs>
       <path id="DejaVuSans-Oblique-56" d="M 1319 0 
L 500 4666 
L 1119 4666 
L 1797 653 
L 4063 4666 
L 4750 4666 
L 2053 0 
L 1319 0 
z
" transform="scale(0.015625)"/>
       <path id="DejaVuSans-6f" d="M 1959 3097 
Q 1497 3097 1228 2736 
Q 959 2375 959 1747 
Q 959 1119 1226 758 
Q 1494 397 1959 397 
Q 2419 397 2687 759 
Q 2956 1122 2956 1747 
Q 2956 2369 2687 2733 
Q 2419 3097 1959 3097 
z
M 1959 3584 
Q 2709 3584 3137 3096 
Q 3566 2609 3566 1747 
Q 3566 888 3137 398 
Q 2709 -91 1959 -91 
Q 1206 -91 779 398 
Q 353 888 353 1747 
Q 353 2609 779 3096 
Q 1206 3584 1959 3584 
z
" transform="scale(0.015625)"/>
       <path id="DejaVuSans-75" d="M 544 1381 
L 544 3500 
L 1119 3500 
L 1119 1403 
Q 1119 906 1312 657 
Q 1506 409 1894 409 
Q 2359 409 2629 706 
Q 2900 1003 2900 1516 
L 2900 3500 
L 3475 3500 
L 3475 0 
L 2900 0 
L 2900 538 
Q 2691 219 2414 64 
Q 2138 -91 1772 -91 
Q 1169 -91 856 284 
Q 544 659 544 1381 
z
M 1991 3584 
L 1991 3584 
z
" transform="scale(0.015625)"/>
       <path id="DejaVuSans-74" d="M 1172 4494 
L 1172 3500 
L 2356 3500 
L 2356 3053 
L 1172 3053 
L 1172 1153 
Q 1172 725 1289 603 
Q 1406 481 1766 481 
L 2356 481 
L 2356 0 
L 1766 0 
Q 1100 0 847 248 
Q 594 497 594 1153 
L 594 3053 
L 172 3053 
L 172 3500 
L 594 3500 
L 594 4494 
L 1172 4494 
z
" transform="scale(0.015625)"/>
       <path id="DejaVuSans-56" d="M 1831 0 
L 50 4666 
L 709 4666 
L 2188 738 
L 3669 4666 
L 4325 4666 
L 2547 0 
L 1831 0 
z
" transform="scale(0.015625)"/>
      </defs>
      <use xlink:href="#DejaVuSans-Oblique-56" transform="translate(0 0.125)"/>
      <use xlink:href="#DejaVuSans-6f" transform="translate(68.408203 -16.28125) scale(0.7)"/>
      <use xlink:href="#DejaVuSans-75" transform="translate(111.235352 -16.28125) scale(0.7)"/>
      <use xlink:href="#DejaVuSans-74" transform="translate(155.600586 -16.28125) scale(0.7)"/>
      <use xlink:href="#DejaVuSans-20" transform="translate(185.78125 0.125)"/>
      <use xlink:href="#DejaVuSans-28" transform="translate(217.568359 0.125)"/>
      <use xlink:href="#DejaVuSans-56" transform="translate(256.582031 0.125)"/>
      <use xlink:href="#DejaVuSans-29" transform="translate(324.990234 0.125)"/>
     </g>
    </g>
   </g>
   <g id="line2d_12">
    <path d="M 49.088 259.6743 
L 49.768608 236.616674 
L 50.449216 227.998576 
L 51.129824 239.334003 
L 51.810432 234.781981 
L 52.49104 187.714672 
L 53.171648 195.936079 
L 53.852256 187.17914 
L 54.532864 167.46363 
L 55.213472 157.724882 
L 55.89408 134.915188 
L 56.574688 140.637446 
L 57.255296 131.285471 
L 57.935904 118.264111 
L 58.616512 125.216109 
L 59.29712 119.146747 
L 59.977728 125.007847 
L 60.658336 62.360525 
L 61.338944 40.235121 
L 62.019552 37.369033 
L 62.70016 65.008433 
L 63.380768 83.444616 
L 64.061376 87.550361 
L 64.741984 76.383528 
L 65.422592 100.561804 
L 66.1032 147.85721 
L 66.783808 144.525011 
L 67.464416 141.857269 
L 68.145024 128.706984 
L 68.825632 137.374668 
L 69.50624 163.704989 
L 70.186848 167.989245 
L 70.867456 176.855274 
L 71.548064 189.648537 
L 72.228672 194.785677 
L 72.90928 211.119402 
L 73.589888 212.904509 
L 74.270496 242.269511 
L 74.951104 257.234654 
L 75.631712 244.0447 
L 76.31232 246.32567 
L 76.992928 259.12885 
L 77.673536 255.98508 
L 78.354144 259.495789 
L 79.034752 264.285825 
L 79.71536 248.725646 
L 80.395968 248.438046 
L 81.076576 245.175268 
L 81.757184 256.808212 
L 82.437792 258.990009 
L 83.1184 249.211592 
L 83.799008 249.320682 
L 84.479616 252.424784 
L 85.160224 248.259535 
L 86.52144 201.003798 
L 87.202048 196.94764 
L 87.882656 177.182544 
L 89.243872 153.599303 
L 89.92448 123.72852 
L 90.605088 118.551711 
L 91.285696 123.44092 
L 91.966304 112.531935 
L 92.646912 124.016121 
L 93.32752 112.849288 
L 94.008128 109.437751 
L 94.688736 61.904331 
L 95.369344 41.454944 
L 96.049952 48.962308 
L 96.73056 61.249792 
L 97.411168 57.302723 
L 98.091776 51.600299 
L 98.772384 79.745479 
L 99.452992 81.619841 
L 100.1336 127.060719 
L 100.814208 135.440803 
L 101.494816 129.232599 
L 102.175424 140.677115 
L 102.856032 136.452363 
L 103.53664 154.511691 
L 104.217248 151.536513 
L 104.897856 187.982438 
L 105.578464 203.969059 
L 106.259072 209.889662 
L 106.93968 226.382063 
L 107.620288 239.244747 
L 108.300896 267.261002 
L 108.981504 272.368391 
L 109.662112 257.413165 
L 110.34272 248.071107 
L 111.023328 253.357006 
L 111.703936 271.287409 
L 112.384544 266.170104 
L 113.065152 268.560163 
L 113.74576 289.069054 
L 114.426368 270.137007 
L 115.106976 259.872645 
L 115.787584 259.902397 
L 116.468192 258.44456 
L 117.1488 270.573367 
L 117.829408 235.54561 
L 118.510016 232.183659 
L 119.190624 243.489334 
L 119.871232 227.492796 
L 120.55184 193.357592 
L 121.232448 193.347675 
L 122.593664 165.40084 
L 123.274272 167.800817 
L 123.95488 138.296973 
L 124.635488 124.135128 
L 125.316096 136.690377 
L 125.996704 138.237469 
L 126.677312 134.61767 
L 127.35792 131.999514 
L 128.038528 111.738555 
L 128.719136 64.552239 
L 129.399744 65.821648 
L 130.080352 69.808386 
L 130.76096 89.295799 
L 131.441568 68.48939 
L 132.122176 67.229899 
L 132.802784 66.525773 
L 133.483392 74.519084 
L 134.844608 153.668724 
L 135.525216 138.148214 
L 136.205824 134.211062 
L 136.886432 150.078676 
L 137.56704 153.678641 
L 138.247648 155.076974 
L 138.928256 192.127852 
L 139.608864 197.820358 
L 140.289472 201.152557 
L 140.97008 203.721127 
L 142.331296 253.059488 
L 143.011904 254.804926 
L 143.692512 257.82969 
L 144.37312 253.337172 
L 145.053728 259.416451 
L 145.734336 267.370092 
L 146.414944 279.290637 
L 147.095552 260.28917 
L 148.456768 251.919004 
L 149.137376 254.705753 
L 149.817984 258.067704 
L 150.498592 269.135364 
L 151.1792 263.016416 
L 151.859808 254.507408 
L 152.540416 251.96859 
L 153.221024 257.641262 
L 153.901632 235.287761 
L 154.58224 199.932735 
L 155.262848 183.688265 
L 155.943456 179.037071 
L 156.624064 171.936314 
L 157.98528 137.354833 
L 158.665888 143.344858 
L 159.346496 150.485284 
L 160.027104 127.705341 
L 160.707712 130.472256 
L 161.38832 130.323497 
L 162.068928 111.629465 
L 162.749536 86.033021 
L 163.430144 66.75387 
L 164.79136 72.843067 
L 165.471968 68.588563 
L 166.152576 82.928919 
L 167.513792 97.03126 
L 168.1944 125.79131 
L 168.875008 132.842481 
L 169.555616 135.62923 
L 170.236224 126.416097 
L 170.916832 142.878746 
L 171.59744 143.414278 
L 172.958656 193.645193 
L 173.639264 194.577415 
L 174.319872 196.322852 
L 175.00048 203.49303 
L 175.681088 228.722536 
L 176.361696 244.421556 
L 177.042304 255.251202 
L 177.722912 243.717431 
L 178.40352 243.459582 
L 179.764736 274.381594 
L 180.445344 268.946936 
L 181.125952 268.758508 
L 181.80656 273.786559 
L 182.487168 265.247799 
L 183.167776 258.880919 
L 183.848384 254.814843 
L 184.528992 245.770303 
L 185.2096 242.031497 
L 185.890208 256.441273 
L 186.570816 259.743721 
L 187.251424 243.509168 
L 188.61264 194.617084 
L 189.293248 185.255192 
L 189.973856 170.448725 
L 190.654464 166.422318 
L 191.335072 160.709977 
L 192.01568 130.472256 
L 192.696288 136.650708 
L 193.376896 133.526772 
L 194.057504 126.981381 
L 194.738112 118.353366 
L 195.41872 124.254135 
L 196.099328 113.969938 
L 196.779936 70.294331 
L 197.460544 61.72582 
L 199.502368 97.616379 
L 200.182976 79.914072 
L 200.863584 74.092641 
L 201.544192 99.937017 
L 202.2248 132.535046 
L 202.905408 133.120164 
L 203.586016 130.0954 
L 204.266624 119.087243 
L 204.947232 142.085366 
L 205.62784 154.293511 
L 206.308448 162.336408 
L 206.989056 188.498135 
L 207.669664 209.35413 
L 208.350272 196.51128 
L 209.711488 223.327547 
L 210.392096 266.65605 
L 211.072704 261.270978 
L 211.753312 252.999985 
L 212.43392 263.244513 
L 213.114528 277.465861 
L 213.795136 268.341984 
L 214.475744 266.21969 
L 215.156352 263.046168 
L 215.83696 270.275849 
L 216.517568 270.067587 
L 217.198176 282.335235 
L 217.878784 264.365163 
L 218.559392 254.199973 
L 219.24 247.575244 
L 219.920608 247.962017 
L 220.601216 240.672832 
L 221.281824 235.019995 
L 221.962432 221.592027 
L 222.64304 198.742664 
L 223.323648 188.686563 
L 224.004256 182.954388 
L 224.684864 181.774234 
L 225.365472 167.57272 
L 226.04608 138.653994 
L 226.726688 132.624301 
L 227.407296 141.936607 
L 228.087904 126.336759 
L 228.768512 115.288933 
L 229.44912 130.740022 
L 230.129728 128.538391 
L 230.810336 75.887665 
L 231.490944 65.801813 
L 232.171552 53.494496 
L 232.85216 48.19868 
L 233.532768 53.415158 
L 234.213376 71.226554 
L 234.893984 79.557051 
L 235.574592 93.411461 
L 236.2552 141.440744 
L 236.935808 154.362932 
L 238.977632 129.401192 
L 239.65824 143.315106 
L 241.019456 197.483172 
L 241.700064 215.145809 
L 242.380672 200.02199 
L 243.06128 220.957323 
L 243.741888 229.744014 
L 244.422496 251.53223 
L 245.103104 252.484287 
L 246.46432 237.033199 
L 247.144928 258.970174 
L 247.825536 271.35683 
L 248.506144 261.538744 
L 249.186752 272.47748 
L 249.86736 268.89735 
L 250.547968 273.399785 
L 251.228576 272.755164 
L 251.909184 262.788319 
L 252.589792 272.318804 
L 253.2704 266.130435 
L 253.951008 240.256308 
L 254.631616 243.300906 
L 255.312224 233.036543 
L 255.992832 229.734096 
L 256.67344 203.066588 
L 257.354048 186.108076 
L 258.034656 172.402425 
L 258.715264 162.604174 
L 259.395872 169.913193 
L 260.07648 163.010781 
L 260.757088 137.701937 
L 261.437696 143.672127 
L 262.118304 125.702055 
L 262.798912 122.954974 
L 263.47952 112.779867 
L 264.160128 96.475894 
L 264.840736 73.210005 
L 265.521344 59.871293 
L 266.201952 58.205193 
L 266.88256 66.942298 
L 267.563168 72.704225 
L 268.243776 75.530644 
L 268.924384 83.047926 
L 270.2856 138.624243 
L 270.966208 140.865543 
L 271.646816 141.09364 
L 272.327424 136.640791 
L 273.008032 153.073688 
L 273.68864 160.005852 
L 274.369248 171.529706 
L 275.049856 198.494732 
L 275.730464 203.502948 
L 276.411072 211.982204 
L 277.09168 212.884674 
L 277.772288 231.42003 
L 278.452896 253.852869 
L 279.133504 252.047928 
L 279.814112 242.715788 
L 280.49472 262.213118 
L 281.175328 264.067645 
L 281.855936 279.191464 
L 282.536544 266.368449 
L 283.217152 260.844536 
L 283.89776 263.135423 
L 284.578368 267.528768 
L 285.258976 263.204844 
L 285.939584 265.93209 
L 286.620192 274.827871 
L 287.3008 264.910612 
L 287.981408 248.051273 
L 288.662016 248.140528 
L 289.342624 239.780279 
L 290.023232 233.492737 
L 290.70384 196.709626 
L 291.384448 183.113064 
L 292.065056 179.324671 
L 292.745664 172.858619 
L 293.426272 162.881857 
L 294.10688 134.925105 
L 294.787488 132.257363 
L 295.468096 116.548425 
L 296.148704 126.971464 
L 296.829312 128.915246 
L 297.50992 118.41287 
L 298.190528 110.280718 
L 298.871136 63.927452 
L 299.551744 63.253078 
L 300.232352 69.610041 
L 300.91296 78.1488 
L 301.593568 83.831389 
L 302.274176 85.299144 
L 302.954784 64.393563 
L 303.635392 86.994995 
L 304.316 135.331713 
L 305.677216 140.290342 
L 306.357824 130.333414 
L 307.038432 151.397671 
L 307.71904 144.237411 
L 308.399648 148.124976 
L 309.080256 196.600536 
L 309.760864 208.580584 
L 310.441472 206.49796 
L 311.802688 216.365632 
L 312.483296 252.157018 
L 313.163904 251.5719 
L 313.844512 248.447963 
L 314.52512 248.725646 
L 315.205728 259.832976 
L 315.886336 264.315577 
L 316.566944 264.48417 
L 317.247552 260.07099 
L 317.92816 271.9717 
L 318.608768 266.983319 
L 319.289376 265.198213 
L 319.969984 252.970233 
L 320.650592 269.234537 
L 321.3312 258.771829 
L 322.011808 241.952159 
L 322.692416 240.871178 
L 323.373024 246.355422 
L 324.053632 231.063009 
L 324.73424 203.42361 
L 325.414848 195.10303 
L 326.095456 163.26863 
L 326.776064 168.891715 
L 327.456672 176.656929 
L 328.817888 121.348378 
L 329.498496 127.447492 
L 330.179104 129.054088 
L 330.859712 108.872467 
L 331.54032 127.030967 
L 332.220928 121.59631 
L 332.901536 91.10074 
L 333.582144 81.252902 
L 334.262752 76.30419 
L 335.623968 82.38347 
L 336.304576 80.53886 
L 336.985184 103.051036 
L 337.665792 98.945291 
L 338.3464 133.38793 
L 339.027008 153.876986 
L 339.707616 140.26059 
L 340.388224 116.409583 
L 341.74944 163.833914 
L 342.430048 178.015593 
L 343.110656 195.916245 
L 343.791264 203.661624 
L 344.471872 215.899521 
L 345.15248 220.768895 
L 345.833088 231.995231 
L 346.513696 263.343685 
L 347.194304 258.295801 
L 347.874912 254.467739 
L 348.55552 252.087597 
L 349.236128 268.907267 
L 349.916736 279.310472 
L 350.597344 274.222918 
L 351.277952 266.338697 
L 351.95856 267.518851 
L 352.639168 264.474253 
L 353.319776 257.224737 
L 354.000384 263.5817 
L 354.680992 262.74865 
L 355.3616 254.894181 
L 356.042208 257.224737 
L 356.722816 250.322325 
L 357.403424 246.990126 
L 358.084032 227.919238 
L 358.76464 202.332711 
L 359.445248 202.114531 
L 360.125856 195.489803 
L 360.806464 187.724589 
L 361.487072 182.785795 
L 362.16768 154.819126 
L 362.848288 140.270507 
L 363.528896 141.777931 
L 364.209504 127.665672 
L 364.890112 124.006203 
L 365.57072 134.697008 
L 366.251328 125.017764 
L 366.931936 78.694249 
L 367.612544 57.322557 
L 368.293152 54.922581 
L 369.654368 80.489273 
L 370.334976 87.510692 
L 371.015584 76.343859 
L 371.696192 112.422846 
L 372.3768 139.853983 
L 373.057408 144.019231 
L 373.738016 137.384585 
L 374.418624 134.062304 
L 375.099232 125.850814 
L 375.77984 129.450778 
L 376.460448 145.010957 
L 377.141056 177.777579 
L 377.821664 191.522899 
L 378.502272 187.714672 
L 379.18288 202.26329 
L 380.544096 248.001686 
L 381.224704 248.477715 
L 381.905312 240.722419 
L 382.58592 247.138885 
L 383.947136 274.421263 
L 384.627744 275.194809 
L 385.308352 266.080849 
L 385.98896 266.1106 
L 386.669568 269.889076 
L 387.350176 252.454536 
L 388.030784 249.836379 
L 389.392 243.876107 
L 390.072608 238.352194 
L 390.072608 238.352194 
" clip-path="url(#pcf98cdb6d8)" style="fill: none; stroke: #ff7f0e; stroke-width: 1.5; stroke-linecap: square"/>
   </g>
   <g id="patch_3">
    <path d="M 49.088 302.2 
L 49.088 13.319186 
" style="fill: none; stroke: #000000; stroke-width: 0.8; stroke-linejoin: miter; stroke-linecap: square"/>
   </g>
   <g id="patch_4">
    <path d="M 389.392 302.2 
L 389.392 13.319186 
" style="fill: none; stroke: #000000; stroke-width: 0.8; stroke-linejoin: miter; stroke-linecap: square"/>
   </g>
   <g id="patch_5">
    <path d="M 49.088 302.2 
L 389.392 302.2 
" style="fill: none; stroke: #000000; stroke-width: 0.8; stroke-linejoin: miter; stroke-linecap: square"/>
   </g>
   <g id="patch_6">
    <path d="M 49.088 13.319186 
L 389.392 13.319186 
" style="fill: none; stroke: #000000; stroke-width: 0.8; stroke-linejoin: miter; stroke-linecap: square"/>
   </g>
  </g>
  <g id="axes_2">
   <g id="matplotlib.axis_3">
    <g id="ytick_6">
     <g id="line2d_13">
      <defs>
       <path id="m4fdc6d418c" d="M 0 0 
L 3.5 0 
" style="stroke: #000000; stroke-width: 0.8"/>
      </defs>
      <g>
       <use xlink:href="#m4fdc6d418c" x="389.392" y="286.705341" style="stroke: #000000; stroke-width: 0.8"/>
      </g>
     </g>
     <g id="text_14">
      <!-- −0.007 -->
      <g style="fill: #1f77b4" transform="translate(396.392 290.504559) scale(0.1 -0.1)">
       <defs>
        <path id="DejaVuSans-37" d="M 525 4666 
L 3525 4666 
L 3525 4397 
L 1831 0 
L 1172 0 
L 2766 4134 
L 525 4134 
L 525 4666 
z
" transform="scale(0.015625)"/>
       </defs>
       <use xlink:href="#DejaVuSans-2212"/>
       <use xlink:href="#DejaVuSans-30" x="83.789062"/>
       <use xlink:href="#DejaVuSans-2e" x="147.412109"/>
       <use xlink:href="#DejaVuSans-30" x="179.199219"/>
       <use xlink:href="#DejaVuSans-30" x="242.822266"/>
       <use xlink:href="#DejaVuSans-37" x="306.445312"/>
      </g>
     </g>
    </g>
    <g id="ytick_7">
     <g id="line2d_14">
      <g>
       <use xlink:href="#m4fdc6d418c" x="389.392" y="252.727583" style="stroke: #000000; stroke-width: 0.8"/>
      </g>
     </g>
     <g id="text_15">
      <!-- −0.006 -->
      <g style="fill: #1f77b4" transform="translate(396.392 256.526802) scale(0.1 -0.1)">
       <defs>
        <path id="DejaVuSans-36" d="M 2113 2584 
Q 1688 2584 1439 2293 
Q 1191 2003 1191 1497 
Q 1191 994 1439 701 
Q 1688 409 2113 409 
Q 2538 409 2786 701 
Q 3034 994 3034 1497 
Q 3034 2003 2786 2293 
Q 2538 2584 2113 2584 
z
M 3366 4563 
L 3366 3988 
Q 3128 4100 2886 4159 
Q 2644 4219 2406 4219 
Q 1781 4219 1451 3797 
Q 1122 3375 1075 2522 
Q 1259 2794 1537 2939 
Q 1816 3084 2150 3084 
Q 2853 3084 3261 2657 
Q 3669 2231 3669 1497 
Q 3669 778 3244 343 
Q 2819 -91 2113 -91 
Q 1303 -91 875 529 
Q 447 1150 447 2328 
Q 447 3434 972 4092 
Q 1497 4750 2381 4750 
Q 2619 4750 2861 4703 
Q 3103 4656 3366 4563 
z
" transform="scale(0.015625)"/>
       </defs>
       <use xlink:href="#DejaVuSans-2212"/>
       <use xlink:href="#DejaVuSans-30" x="83.789062"/>
       <use xlink:href="#DejaVuSans-2e" x="147.412109"/>
       <use xlink:href="#DejaVuSans-30" x="179.199219"/>
       <use xlink:href="#DejaVuSans-30" x="242.822266"/>
       <use xlink:href="#DejaVuSans-36" x="306.445312"/>
      </g>
     </g>
    </g>
    <g id="ytick_8">
     <g id="line2d_15">
      <g>
       <use xlink:href="#m4fdc6d418c" x="389.392" y="218.749825" style="stroke: #000000; stroke-width: 0.8"/>
      </g>
     </g>
     <g id="text_16">
      <!-- −0.005 -->
      <g style="fill: #1f77b4" transform="translate(396.392 222.549044) scale(0.1 -0.1)">
       <use xlink:href="#DejaVuSans-2212"/>
       <use xlink:href="#DejaVuSans-30" x="83.789062"/>
       <use xlink:href="#DejaVuSans-2e" x="147.412109"/>
       <use xlink:href="#DejaVuSans-30" x="179.199219"/>
       <use xlink:href="#DejaVuSans-30" x="242.822266"/>
       <use xlink:href="#DejaVuSans-35" x="306.445312"/>
      </g>
     </g>
    </g>
    <g id="ytick_9">
     <g id="line2d_16">
      <g>
       <use xlink:href="#m4fdc6d418c" x="389.392" y="184.772067" style="stroke: #000000; stroke-width: 0.8"/>
      </g>
     </g>
     <g id="text_17">
      <!-- −0.004 -->
      <g style="fill: #1f77b4" transform="translate(396.392 188.571286) scale(0.1 -0.1)">
       <use xlink:href="#DejaVuSans-2212"/>
       <use xlink:href="#DejaVuSans-30" x="83.789062"/>
       <use xlink:href="#DejaVuSans-2e" x="147.412109"/>
       <use xlink:href="#DejaVuSans-30" x="179.199219"/>
       <use xlink:href="#DejaVuSans-30" x="242.822266"/>
       <use xlink:href="#DejaVuSans-34" x="306.445312"/>
      </g>
     </g>
    </g>
    <g id="ytick_10">
     <g id="line2d_17">
      <g>
       <use xlink:href="#m4fdc6d418c" x="389.392" y="150.794309" style="stroke: #000000; stroke-width: 0.8"/>
      </g>
     </g>
     <g id="text_18">
      <!-- −0.003 -->
      <g style="fill: #1f77b4" transform="translate(396.392 154.593528) scale(0.1 -0.1)">
       <use xlink:href="#DejaVuSans-2212"/>
       <use xlink:href="#DejaVuSans-30" x="83.789062"/>
       <use xlink:href="#DejaVuSans-2e" x="147.412109"/>
       <use xlink:href="#DejaVuSans-30" x="179.199219"/>
       <use xlink:href="#DejaVuSans-30" x="242.822266"/>
       <use xlink:href="#DejaVuSans-33" x="306.445312"/>
      </g>
     </g>
    </g>
    <g id="ytick_11">
     <g id="line2d_18">
      <g>
       <use xlink:href="#m4fdc6d418c" x="389.392" y="116.816551" style="stroke: #000000; stroke-width: 0.8"/>
      </g>
     </g>
     <g id="text_19">
      <!-- −0.002 -->
      <g style="fill: #1f77b4" transform="translate(396.392 120.61577) scale(0.1 -0.1)">
       <use xlink:href="#DejaVuSans-2212"/>
       <use xlink:href="#DejaVuSans-30" x="83.789062"/>
       <use xlink:href="#DejaVuSans-2e" x="147.412109"/>
       <use xlink:href="#DejaVuSans-30" x="179.199219"/>
       <use xlink:href="#DejaVuSans-30" x="242.822266"/>
       <use xlink:href="#DejaVuSans-32" x="306.445312"/>
      </g>
     </g>
    </g>
    <g id="ytick_12">
     <g id="line2d_19">
      <g>
       <use xlink:href="#m4fdc6d418c" x="389.392" y="82.838793" style="stroke: #000000; stroke-width: 0.8"/>
      </g>
     </g>
     <g id="text_20">
      <!-- −0.001 -->
      <g style="fill: #1f77b4" transform="translate(396.392 86.638012) scale(0.1 -0.1)">
       <use xlink:href="#DejaVuSans-2212"/>
       <use xlink:href="#DejaVuSans-30" x="83.789062"/>
       <use xlink:href="#DejaVuSans-2e" x="147.412109"/>
       <use xlink:href="#DejaVuSans-30" x="179.199219"/>
       <use xlink:href="#DejaVuSans-30" x="242.822266"/>
       <use xlink:href="#DejaVuSans-31" x="306.445312"/>
      </g>
     </g>
    </g>
    <g id="ytick_13">
     <g id="line2d_20">
      <g>
       <use xlink:href="#m4fdc6d418c" x="389.392" y="48.861035" style="stroke: #000000; stroke-width: 0.8"/>
      </g>
     </g>
     <g id="text_21">
      <!-- 0.000 -->
      <g style="fill: #1f77b4" transform="translate(396.392 52.660254) scale(0.1 -0.1)">
       <use xlink:href="#DejaVuSans-30"/>
       <use xlink:href="#DejaVuSans-2e" x="63.623047"/>
       <use xlink:href="#DejaVuSans-30" x="95.410156"/>
       <use xlink:href="#DejaVuSans-30" x="159.033203"/>
       <use xlink:href="#DejaVuSans-30" x="222.65625"/>
      </g>
     </g>
    </g>
    <g id="ytick_14">
     <g id="line2d_21">
      <g>
       <use xlink:href="#m4fdc6d418c" x="389.392" y="14.883278" style="stroke: #000000; stroke-width: 0.8"/>
      </g>
     </g>
     <g id="text_22">
      <!-- 0.001 -->
      <g style="fill: #1f77b4" transform="translate(396.392 18.682496) scale(0.1 -0.1)">
       <use xlink:href="#DejaVuSans-30"/>
       <use xlink:href="#DejaVuSans-2e" x="63.623047"/>
       <use xlink:href="#DejaVuSans-30" x="95.410156"/>
       <use xlink:href="#DejaVuSans-30" x="159.033203"/>
       <use xlink:href="#DejaVuSans-31" x="222.65625"/>
      </g>
     </g>
    </g>
    <g id="text_23">
     <!-- $V_{\mathrm{in}}$ (V) -->
     <g style="fill: #1f77b4" transform="translate(444.99825 173.459593) rotate(-90) scale(0.1 -0.1)">
      <defs>
       <path id="DejaVuSans-69" d="M 603 3500 
L 1178 3500 
L 1178 0 
L 603 0 
L 603 3500 
z
M 603 4863 
L 1178 4863 
L 1178 4134 
L 603 4134 
L 603 4863 
z
" transform="scale(0.015625)"/>
       <path id="DejaVuSans-6e" d="M 3513 2113 
L 3513 0 
L 2938 0 
L 2938 2094 
Q 2938 2591 2744 2837 
Q 2550 3084 2163 3084 
Q 1697 3084 1428 2787 
Q 1159 2491 1159 1978 
L 1159 0 
L 581 0 
L 581 3500 
L 1159 3500 
L 1159 2956 
Q 1366 3272 1645 3428 
Q 1925 3584 2291 3584 
Q 2894 3584 3203 3211 
Q 3513 2838 3513 2113 
z
" transform="scale(0.015625)"/>
      </defs>
      <use xlink:href="#DejaVuSans-Oblique-56" transform="translate(0 0.125)"/>
      <use xlink:href="#DejaVuSans-69" transform="translate(68.408203 -16.28125) scale(0.7)"/>
      <use xlink:href="#DejaVuSans-6e" transform="translate(87.856445 -16.28125) scale(0.7)"/>
      <use xlink:href="#DejaVuSans-20" transform="translate(134.956055 0.125)"/>
      <use xlink:href="#DejaVuSans-28" transform="translate(166.743164 0.125)"/>
      <use xlink:href="#DejaVuSans-56" transform="translate(205.756836 0.125)"/>
      <use xlink:href="#DejaVuSans-29" transform="translate(274.165039 0.125)"/>
     </g>
    </g>
   </g>
   <g id="line2d_22">
    <path d="M 49.088 53.311712 
L 49.768608 64.422512 
L 50.449216 53.311712 
L 51.129824 53.311712 
L 51.810432 108.865714 
L 52.49104 97.754914 
L 53.171648 108.865714 
L 53.852256 75.533313 
L 54.532864 131.087316 
L 55.213472 86.644113 
L 55.89408 108.865714 
L 56.574688 108.865714 
L 57.255296 86.644113 
L 57.935904 131.087316 
L 59.29712 108.865714 
L 59.977728 108.865714 
L 60.658336 97.754914 
L 61.338944 108.865714 
L 62.019552 131.087316 
L 62.70016 108.865714 
L 63.380768 131.087316 
L 64.061376 131.087316 
L 64.741984 86.644113 
L 65.422592 97.754914 
L 66.1032 142.198116 
L 66.783808 108.865714 
L 67.464416 108.865714 
L 68.145024 97.754914 
L 69.50624 97.754914 
L 70.186848 75.533313 
L 70.867456 108.865714 
L 71.548064 86.644113 
L 72.228672 97.754914 
L 72.90928 86.644113 
L 73.589888 97.754914 
L 74.270496 86.644113 
L 74.951104 97.754914 
L 75.631712 86.644113 
L 76.31232 53.311712 
L 76.992928 64.422512 
L 77.673536 97.754914 
L 79.034752 75.533313 
L 79.71536 86.644113 
L 80.395968 64.422512 
L 81.757184 42.200911 
L 82.437792 75.533313 
L 83.1184 75.533313 
L 83.799008 86.644113 
L 84.479616 64.422512 
L 85.160224 75.533313 
L 85.840832 97.754914 
L 86.52144 75.533313 
L 87.202048 86.644113 
L 87.882656 108.865714 
L 88.563264 75.533313 
L 89.243872 131.087316 
L 89.92448 97.754914 
L 90.605088 131.087316 
L 91.285696 86.644113 
L 91.966304 108.865714 
L 92.646912 108.865714 
L 93.32752 153.308917 
L 94.008128 142.198116 
L 94.688736 119.976515 
L 95.369344 142.198116 
L 96.049952 153.308917 
L 96.73056 119.976515 
L 97.411168 108.865714 
L 98.091776 108.865714 
L 98.772384 131.087316 
L 99.452992 86.644113 
L 100.1336 119.976515 
L 100.814208 108.865714 
L 101.494816 119.976515 
L 102.856032 97.754914 
L 103.53664 108.865714 
L 104.217248 86.644113 
L 104.897856 86.644113 
L 105.578464 131.087316 
L 106.259072 75.533313 
L 107.620288 75.533313 
L 108.300896 42.200911 
L 108.981504 42.200911 
L 109.662112 97.754914 
L 111.023328 53.311712 
L 111.703936 108.865714 
L 112.384544 75.533313 
L 113.065152 86.644113 
L 113.74576 53.311712 
L 114.426368 86.644113 
L 115.106976 64.422512 
L 115.787584 75.533313 
L 116.468192 64.422512 
L 117.1488 86.644113 
L 117.829408 86.644113 
L 118.510016 75.533313 
L 119.190624 142.198116 
L 119.871232 97.754914 
L 120.55184 97.754914 
L 121.232448 86.644113 
L 121.913056 97.754914 
L 122.593664 97.754914 
L 123.274272 119.976515 
L 123.95488 119.976515 
L 124.635488 97.754914 
L 125.996704 97.754914 
L 127.35792 119.976515 
L 128.038528 108.865714 
L 129.399744 131.087316 
L 130.080352 86.644113 
L 130.76096 119.976515 
L 131.441568 86.644113 
L 132.122176 119.976515 
L 132.802784 119.976515 
L 133.483392 108.865714 
L 134.164 86.644113 
L 134.844608 131.087316 
L 135.525216 86.644113 
L 136.205824 97.754914 
L 136.886432 97.754914 
L 137.56704 108.865714 
L 138.247648 97.754914 
L 138.928256 97.754914 
L 139.608864 75.533313 
L 140.289472 75.533313 
L 140.97008 53.311712 
L 141.650688 75.533313 
L 142.331296 53.311712 
L 144.37312 86.644113 
L 145.053728 86.644113 
L 145.734336 75.533313 
L 147.77616 75.533313 
L 149.137376 53.311712 
L 149.817984 75.533313 
L 150.498592 75.533313 
L 151.1792 86.644113 
L 151.859808 53.311712 
L 152.540416 53.311712 
L 153.221024 86.644113 
L 153.901632 64.422512 
L 154.58224 86.644113 
L 155.262848 97.754914 
L 155.943456 119.976515 
L 156.624064 97.754914 
L 157.304672 97.754914 
L 157.98528 86.644113 
L 158.665888 86.644113 
L 159.346496 119.976515 
L 160.027104 97.754914 
L 160.707712 142.198116 
L 161.38832 108.865714 
L 162.068928 131.087316 
L 163.430144 108.865714 
L 164.110752 119.976515 
L 164.79136 142.198116 
L 165.471968 108.865714 
L 166.152576 131.087316 
L 168.1944 97.754914 
L 168.875008 119.976515 
L 169.555616 131.087316 
L 170.236224 97.754914 
L 170.916832 97.754914 
L 171.59744 86.644113 
L 172.278048 86.644113 
L 172.958656 97.754914 
L 173.639264 97.754914 
L 174.319872 119.976515 
L 175.00048 75.533313 
L 175.681088 108.865714 
L 176.361696 108.865714 
L 177.042304 97.754914 
L 177.722912 64.422512 
L 178.40352 86.644113 
L 179.084128 86.644113 
L 181.125952 53.311712 
L 181.80656 97.754914 
L 182.487168 64.422512 
L 183.848384 86.644113 
L 185.2096 64.422512 
L 185.890208 86.644113 
L 186.570816 31.090111 
L 187.251424 108.865714 
L 187.932032 75.533313 
L 188.61264 75.533313 
L 189.293248 108.865714 
L 190.654464 131.087316 
L 191.335072 108.865714 
L 192.01568 97.754914 
L 192.696288 119.976515 
L 193.376896 97.754914 
L 194.057504 108.865714 
L 194.738112 108.865714 
L 195.41872 131.087316 
L 196.099328 131.087316 
L 196.779936 86.644113 
L 197.460544 131.087316 
L 198.82176 131.087316 
L 199.502368 142.198116 
L 200.182976 108.865714 
L 200.863584 86.644113 
L 201.544192 131.087316 
L 202.2248 108.865714 
L 202.905408 131.087316 
L 203.586016 119.976515 
L 204.266624 86.644113 
L 204.947232 131.087316 
L 205.62784 119.976515 
L 206.308448 119.976515 
L 206.989056 86.644113 
L 207.669664 75.533313 
L 208.350272 97.754914 
L 209.03088 108.865714 
L 209.711488 53.311712 
L 210.392096 86.644113 
L 211.072704 108.865714 
L 211.753312 86.644113 
L 212.43392 86.644113 
L 213.114528 97.754914 
L 213.795136 86.644113 
L 214.475744 64.422512 
L 215.83696 108.865714 
L 216.517568 53.311712 
L 217.198176 97.754914 
L 217.878784 108.865714 
L 218.559392 97.754914 
L 219.24 108.865714 
L 219.920608 64.422512 
L 220.601216 64.422512 
L 221.281824 108.865714 
L 221.962432 108.865714 
L 222.64304 97.754914 
L 223.323648 97.754914 
L 224.004256 108.865714 
L 224.684864 108.865714 
L 225.365472 97.754914 
L 226.04608 108.865714 
L 226.726688 131.087316 
L 227.407296 108.865714 
L 228.087904 97.754914 
L 230.129728 131.087316 
L 230.810336 131.087316 
L 231.490944 108.865714 
L 232.85216 108.865714 
L 234.213376 131.087316 
L 234.893984 86.644113 
L 235.574592 131.087316 
L 236.935808 108.865714 
L 237.616416 153.308917 
L 238.297024 108.865714 
L 238.977632 108.865714 
L 239.65824 75.533313 
L 240.338848 97.754914 
L 241.019456 86.644113 
L 241.700064 86.644113 
L 242.380672 97.754914 
L 243.06128 86.644113 
L 243.741888 97.754914 
L 244.422496 97.754914 
L 245.783712 75.533313 
L 246.46432 86.644113 
L 247.144928 108.865714 
L 247.825536 75.533313 
L 249.186752 75.533313 
L 249.86736 64.422512 
L 250.547968 64.422512 
L 251.228576 97.754914 
L 251.909184 97.754914 
L 252.589792 86.644113 
L 253.2704 97.754914 
L 253.951008 86.644113 
L 254.631616 97.754914 
L 255.312224 64.422512 
L 255.992832 97.754914 
L 256.67344 64.422512 
L 257.354048 97.754914 
L 258.034656 108.865714 
L 258.715264 97.754914 
L 259.395872 108.865714 
L 260.07648 108.865714 
L 260.757088 86.644113 
L 261.437696 75.533313 
L 262.798912 119.976515 
L 263.47952 108.865714 
L 264.840736 108.865714 
L 265.521344 97.754914 
L 266.201952 108.865714 
L 266.88256 86.644113 
L 267.563168 97.754914 
L 268.243776 131.087316 
L 268.924384 119.976515 
L 269.604992 119.976515 
L 270.2856 131.087316 
L 270.966208 108.865714 
L 272.327424 108.865714 
L 273.008032 97.754914 
L 273.68864 108.865714 
L 274.369248 108.865714 
L 275.049856 86.644113 
L 276.411072 86.644113 
L 277.09168 75.533313 
L 277.772288 86.644113 
L 279.814112 86.644113 
L 280.49472 108.865714 
L 281.175328 64.422512 
L 281.855936 75.533313 
L 282.536544 64.422512 
L 283.217152 64.422512 
L 283.89776 75.533313 
L 284.578368 108.865714 
L 285.258976 86.644113 
L 286.620192 86.644113 
L 287.3008 75.533313 
L 287.981408 86.644113 
L 288.662016 75.533313 
L 289.342624 108.865714 
L 290.023232 108.865714 
L 290.70384 131.087316 
L 291.384448 97.754914 
L 292.065056 97.754914 
L 292.745664 86.644113 
L 293.426272 119.976515 
L 294.10688 108.865714 
L 294.787488 131.087316 
L 295.468096 131.087316 
L 296.148704 97.754914 
L 297.50992 142.198116 
L 298.190528 131.087316 
L 298.871136 153.308917 
L 300.232352 131.087316 
L 301.593568 131.087316 
L 302.274176 142.198116 
L 302.954784 64.422512 
L 303.635392 119.976515 
L 304.996608 119.976515 
L 305.677216 97.754914 
L 306.357824 108.865714 
L 307.038432 131.087316 
L 307.71904 131.087316 
L 308.399648 53.311712 
L 309.080256 75.533313 
L 309.760864 86.644113 
L 310.441472 86.644113 
L 311.12208 108.865714 
L 311.802688 75.533313 
L 312.483296 108.865714 
L 313.163904 86.644113 
L 313.844512 75.533313 
L 314.52512 75.533313 
L 315.205728 64.422512 
L 315.886336 64.422512 
L 316.566944 75.533313 
L 317.247552 64.422512 
L 318.608768 64.422512 
L 320.650592 97.754914 
L 321.3312 86.644113 
L 322.011808 42.200911 
L 322.692416 97.754914 
L 324.053632 75.533313 
L 324.73424 119.976515 
L 325.414848 131.087316 
L 326.095456 97.754914 
L 327.456672 97.754914 
L 328.13728 131.087316 
L 328.817888 75.533313 
L 329.498496 97.754914 
L 330.179104 131.087316 
L 330.859712 108.865714 
L 332.220928 153.308917 
L 332.901536 119.976515 
L 333.582144 142.198116 
L 334.262752 108.865714 
L 334.94336 142.198116 
L 336.985184 108.865714 
L 337.665792 86.644113 
L 338.3464 97.754914 
L 339.027008 142.198116 
L 339.707616 131.087316 
L 340.388224 97.754914 
L 341.068832 97.754914 
L 341.74944 75.533313 
L 342.430048 86.644113 
L 343.110656 86.644113 
L 343.791264 75.533313 
L 345.15248 75.533313 
L 346.513696 97.754914 
L 347.194304 86.644113 
L 347.874912 97.754914 
L 348.55552 75.533313 
L 349.236128 75.533313 
L 349.916736 64.422512 
L 350.597344 86.644113 
L 351.95856 64.422512 
L 352.639168 75.533313 
L 354.000384 75.533313 
L 354.680992 97.754914 
L 355.3616 64.422512 
L 356.042208 86.644113 
L 356.722816 97.754914 
L 357.403424 86.644113 
L 358.084032 108.865714 
L 358.76464 108.865714 
L 359.445248 86.644113 
L 360.125856 97.754914 
L 360.806464 86.644113 
L 362.16768 108.865714 
L 362.848288 97.754914 
L 364.890112 97.754914 
L 365.57072 142.198116 
L 366.251328 142.198116 
L 366.931936 119.976515 
L 367.612544 131.087316 
L 368.293152 119.976515 
L 368.97376 142.198116 
L 369.654368 119.976515 
L 370.334976 131.087316 
L 371.015584 108.865714 
L 371.696192 64.422512 
L 372.3768 119.976515 
L 373.057408 119.976515 
L 373.738016 153.308917 
L 374.418624 108.865714 
L 375.77984 131.087316 
L 376.460448 108.865714 
L 377.821664 86.644113 
L 378.502272 86.644113 
L 379.18288 64.422512 
L 381.224704 97.754914 
L 381.905312 64.422512 
L 382.58592 64.422512 
L 383.266528 53.311712 
L 383.947136 86.644113 
L 385.308352 64.422512 
L 385.98896 86.644113 
L 386.669568 42.200911 
L 387.350176 53.311712 
L 388.030784 75.533313 
L 388.711392 119.976515 
L 389.392 75.533313 
L 390.072608 108.865714 
L 390.072608 108.865714 
" clip-path="url(#pcf98cdb6d8)" style="fill: none; stroke: #1f77b4; stroke-opacity: 0.5; stroke-width: 1.5; stroke-linecap: square"/>
   </g>
   <g id="patch_7">
    <path d="M 49.088 302.2 
L 49.088 13.319186 
" style="fill: none; stroke: #000000; stroke-width: 0.8; stroke-linejoin: miter; stroke-linecap: square"/>
   </g>
   <g id="patch_8">
    <path d="M 389.392 302.2 
L 389.392 13.319186 
" style="fill: none; stroke: #000000; stroke-width: 0.8; stroke-linejoin: miter; stroke-linecap: square"/>
   </g>
   <g id="patch_9">
    <path d="M 49.088 302.2 
L 389.392 302.2 
" style="fill: none; stroke: #000000; stroke-width: 0.8; stroke-linejoin: miter; stroke-linecap: square"/>
   </g>
   <g id="patch_10">
    <path d="M 49.088 13.319186 
L 389.392 13.319186 
" style="fill: none; stroke: #000000; stroke-width: 0.8; stroke-linejoin: miter; stroke-linecap: square"/>
   </g>
  </g>
  <g id="legend_1">
   <g id="patch_11">
    <path d="M 387.064062 37.35625 
L 453.8 37.35625 
Q 455.8 37.35625 455.8 35.35625 
L 455.8 7 
Q 455.8 5 453.8 5 
L 387.064062 5 
Q 385.064062 5 385.064062 7 
L 385.064062 35.35625 
Q 385.064062 37.35625 387.064062 37.35625 
z
" style="fill: #ffffff; opacity: 0.8; stroke: #cccccc; stroke-linejoin: miter"/>
   </g>
   <g id="line2d_23">
    <path d="M 389.064062 13.098437 
L 399.064062 13.098437 
L 409.064062 13.098437 
" style="fill: none; stroke: #ff7f0e; stroke-width: 1.5; stroke-linecap: square"/>
   </g>
   <g id="text_24">
    <!-- Output -->
    <g transform="translate(417.064062 16.598437) scale(0.1 -0.1)">
     <defs>
      <path id="DejaVuSans-4f" d="M 2522 4238 
Q 1834 4238 1429 3725 
Q 1025 3213 1025 2328 
Q 1025 1447 1429 934 
Q 1834 422 2522 422 
Q 3209 422 3611 934 
Q 4013 1447 4013 2328 
Q 4013 3213 3611 3725 
Q 3209 4238 2522 4238 
z
M 2522 4750 
Q 3503 4750 4090 4092 
Q 4678 3434 4678 2328 
Q 4678 1225 4090 567 
Q 3503 -91 2522 -91 
Q 1538 -91 948 565 
Q 359 1222 359 2328 
Q 359 3434 948 4092 
Q 1538 4750 2522 4750 
z
" transform="scale(0.015625)"/>
      <path id="DejaVuSans-70" d="M 1159 525 
L 1159 -1331 
L 581 -1331 
L 581 3500 
L 1159 3500 
L 1159 2969 
Q 1341 3281 1617 3432 
Q 1894 3584 2278 3584 
Q 2916 3584 3314 3078 
Q 3713 2572 3713 1747 
Q 3713 922 3314 415 
Q 2916 -91 2278 -91 
Q 1894 -91 1617 61 
Q 1341 213 1159 525 
z
M 3116 1747 
Q 3116 2381 2855 2742 
Q 2594 3103 2138 3103 
Q 1681 3103 1420 2742 
Q 1159 2381 1159 1747 
Q 1159 1113 1420 752 
Q 1681 391 2138 391 
Q 2594 391 2855 752 
Q 3116 1113 3116 1747 
z
" transform="scale(0.015625)"/>
     </defs>
     <use xlink:href="#DejaVuSans-4f"/>
     <use xlink:href="#DejaVuSans-75" x="78.710938"/>
     <use xlink:href="#DejaVuSans-74" x="142.089844"/>
     <use xlink:href="#DejaVuSans-70" x="181.298828"/>
     <use xlink:href="#DejaVuSans-75" x="244.775391"/>
     <use xlink:href="#DejaVuSans-74" x="308.154297"/>
    </g>
   </g>
   <g id="line2d_24">
    <path d="M 389.064062 27.776563 
L 399.064062 27.776563 
L 409.064062 27.776563 
" style="fill: none; stroke: #1f77b4; stroke-opacity: 0.5; stroke-width: 1.5; stroke-linecap: square"/>
   </g>
   <g id="text_25">
    <!-- Input -->
    <g transform="translate(417.064062 31.276563) scale(0.1 -0.1)">
     <defs>
      <path id="DejaVuSans-49" d="M 628 4666 
L 1259 4666 
L 1259 0 
L 628 0 
L 628 4666 
z
" transform="scale(0.015625)"/>
     </defs>
     <use xlink:href="#DejaVuSans-49"/>
     <use xlink:href="#DejaVuSans-6e" x="29.492188"/>
     <use xlink:href="#DejaVuSans-70" x="92.871094"/>
     <use xlink:href="#DejaVuSans-75" x="156.347656"/>
     <use xlink:href="#DejaVuSans-74" x="219.726562"/>
    </g>
   </g>
  </g>
 </g>
 <defs>
  <clipPath id="pcf98cdb6d8">
   <rect x="49.088" y="13.319186" width="340.304" height="288.880814"/>
  </clipPath>
 </defs>
</svg>
