<?xml version="1.0" encoding="utf-8" standalone="no"?>
<!DOCTYPE svg PUBLIC "-//W3C//DTD SVG 1.1//EN"
  "http://www.w3.org/Graphics/SVG/1.1/DTD/svg11.dtd">
<svg xmlns:xlink="http://www.w3.org/1999/xlink" width="460.8pt" height="345.6pt" viewBox="0 0 460.8 345.6" xmlns="http://www.w3.org/2000/svg" version="1.1">
 <metadata>
  <rdf:RDF xmlns:dc="http://purl.org/dc/elements/1.1/" xmlns:cc="http://creativecommons.org/ns#" xmlns:rdf="http://www.w3.org/1999/02/22-rdf-syntax-ns#">
   <cc:Work>
    <dc:type rdf:resource="http://purl.org/dc/dcmitype/StillImage"/>
    <dc:date>2024-05-06T15:07:28.848055</dc:date>
    <dc:format>image/svg+xml</dc:format>
    <dc:creator>
     <cc:Agent>
      <dc:title>Matplotlib v3.8.0, https://matplotlib.org/</dc:title>
     </cc:Agent>
    </dc:creator>
   </cc:Work>
  </rdf:RDF>
 </metadata>
 <defs>
  <style type="text/css">*{stroke-linejoin: round; stroke-linecap: butt}</style>
 </defs>
 <g id="figure_1">
  <g id="patch_1">
   <path d="M 0 345.6 
L 460.8 345.6 
L 460.8 0 
L 0 0 
z
" style="fill: #ffffff"/>
  </g>
  <g id="axes_1">
   <g id="patch_2">
    <path d="M 48.08 302.2 
L 396.79 302.2 
L 396.79 10.8 
L 48.08 10.8 
z
" style="fill: #ffffff"/>
   </g>
   <g id="matplotlib.axis_1">
    <g id="xtick_1">
     <g id="line2d_1">
      <defs>
       <path id="m5df24f8e0f" d="M 0 0 
L 0 3.5 
" style="stroke: #000000; stroke-width: 0.8"/>
      </defs>
      <g>
       <use xlink:href="#m5df24f8e0f" x="74.795981" y="302.2" style="stroke: #000000; stroke-width: 0.8"/>
      </g>
     </g>
     <g id="text_1">
      <!-- 0.997 -->
      <g transform="translate(60.481918 316.798437) scale(0.1 -0.1)">
       <defs>
        <path id="DejaVuSans-30" d="M 2034 4250 
Q 1547 4250 1301 3770 
Q 1056 3291 1056 2328 
Q 1056 1369 1301 889 
Q 1547 409 2034 409 
Q 2525 409 2770 889 
Q 3016 1369 3016 2328 
Q 3016 3291 2770 3770 
Q 2525 4250 2034 4250 
z
M 2034 4750 
Q 2819 4750 3233 4129 
Q 3647 3509 3647 2328 
Q 3647 1150 3233 529 
Q 2819 -91 2034 -91 
Q 1250 -91 836 529 
Q 422 1150 422 2328 
Q 422 3509 836 4129 
Q 1250 4750 2034 4750 
z
" transform="scale(0.015625)"/>
        <path id="DejaVuSans-2e" d="M 684 794 
L 1344 794 
L 1344 0 
L 684 0 
L 684 794 
z
" transform="scale(0.015625)"/>
        <path id="DejaVuSans-39" d="M 703 97 
L 703 672 
Q 941 559 1184 500 
Q 1428 441 1663 441 
Q 2288 441 2617 861 
Q 2947 1281 2994 2138 
Q 2813 1869 2534 1725 
Q 2256 1581 1919 1581 
Q 1219 1581 811 2004 
Q 403 2428 403 3163 
Q 403 3881 828 4315 
Q 1253 4750 1959 4750 
Q 2769 4750 3195 4129 
Q 3622 3509 3622 2328 
Q 3622 1225 3098 567 
Q 2575 -91 1691 -91 
Q 1453 -91 1209 -44 
Q 966 3 703 97 
z
M 1959 2075 
Q 2384 2075 2632 2365 
Q 2881 2656 2881 3163 
Q 2881 3666 2632 3958 
Q 2384 4250 1959 4250 
Q 1534 4250 1286 3958 
Q 1038 3666 1038 3163 
Q 1038 2656 1286 2365 
Q 1534 2075 1959 2075 
z
" transform="scale(0.015625)"/>
        <path id="DejaVuSans-37" d="M 525 4666 
L 3525 4666 
L 3525 4397 
L 1831 0 
L 1172 0 
L 2766 4134 
L 525 4134 
L 525 4666 
z
" transform="scale(0.015625)"/>
       </defs>
       <use xlink:href="#DejaVuSans-30"/>
       <use xlink:href="#DejaVuSans-2e" x="63.623047"/>
       <use xlink:href="#DejaVuSans-39" x="95.410156"/>
       <use xlink:href="#DejaVuSans-39" x="159.033203"/>
       <use xlink:href="#DejaVuSans-37" x="222.65625"/>
      </g>
     </g>
    </g>
    <g id="xtick_2">
     <g id="line2d_2">
      <g>
       <use xlink:href="#m5df24f8e0f" x="121.296459" y="302.2" style="stroke: #000000; stroke-width: 0.8"/>
      </g>
     </g>
     <g id="text_2">
      <!-- 0.998 -->
      <g transform="translate(106.982397 316.798437) scale(0.1 -0.1)">
       <defs>
        <path id="DejaVuSans-38" d="M 2034 2216 
Q 1584 2216 1326 1975 
Q 1069 1734 1069 1313 
Q 1069 891 1326 650 
Q 1584 409 2034 409 
Q 2484 409 2743 651 
Q 3003 894 3003 1313 
Q 3003 1734 2745 1975 
Q 2488 2216 2034 2216 
z
M 1403 2484 
Q 997 2584 770 2862 
Q 544 3141 544 3541 
Q 544 4100 942 4425 
Q 1341 4750 2034 4750 
Q 2731 4750 3128 4425 
Q 3525 4100 3525 3541 
Q 3525 3141 3298 2862 
Q 3072 2584 2669 2484 
Q 3125 2378 3379 2068 
Q 3634 1759 3634 1313 
Q 3634 634 3220 271 
Q 2806 -91 2034 -91 
Q 1263 -91 848 271 
Q 434 634 434 1313 
Q 434 1759 690 2068 
Q 947 2378 1403 2484 
z
M 1172 3481 
Q 1172 3119 1398 2916 
Q 1625 2713 2034 2713 
Q 2441 2713 2670 2916 
Q 2900 3119 2900 3481 
Q 2900 3844 2670 4047 
Q 2441 4250 2034 4250 
Q 1625 4250 1398 4047 
Q 1172 3844 1172 3481 
z
" transform="scale(0.015625)"/>
       </defs>
       <use xlink:href="#DejaVuSans-30"/>
       <use xlink:href="#DejaVuSans-2e" x="63.623047"/>
       <use xlink:href="#DejaVuSans-39" x="95.410156"/>
       <use xlink:href="#DejaVuSans-39" x="159.033203"/>
       <use xlink:href="#DejaVuSans-38" x="222.65625"/>
      </g>
     </g>
    </g>
    <g id="xtick_3">
     <g id="line2d_3">
      <g>
       <use xlink:href="#m5df24f8e0f" x="167.796938" y="302.2" style="stroke: #000000; stroke-width: 0.8"/>
      </g>
     </g>
     <g id="text_3">
      <!-- 0.999 -->
      <g transform="translate(153.482875 316.798437) scale(0.1 -0.1)">
       <use xlink:href="#DejaVuSans-30"/>
       <use xlink:href="#DejaVuSans-2e" x="63.623047"/>
       <use xlink:href="#DejaVuSans-39" x="95.410156"/>
       <use xlink:href="#DejaVuSans-39" x="159.033203"/>
       <use xlink:href="#DejaVuSans-39" x="222.65625"/>
      </g>
     </g>
    </g>
    <g id="xtick_4">
     <g id="line2d_4">
      <g>
       <use xlink:href="#m5df24f8e0f" x="214.297416" y="302.2" style="stroke: #000000; stroke-width: 0.8"/>
      </g>
     </g>
     <g id="text_4">
      <!-- 1.000 -->
      <g transform="translate(199.983354 316.798437) scale(0.1 -0.1)">
       <defs>
        <path id="DejaVuSans-31" d="M 794 531 
L 1825 531 
L 1825 4091 
L 703 3866 
L 703 4441 
L 1819 4666 
L 2450 4666 
L 2450 531 
L 3481 531 
L 3481 0 
L 794 0 
L 794 531 
z
" transform="scale(0.015625)"/>
       </defs>
       <use xlink:href="#DejaVuSans-31"/>
       <use xlink:href="#DejaVuSans-2e" x="63.623047"/>
       <use xlink:href="#DejaVuSans-30" x="95.410156"/>
       <use xlink:href="#DejaVuSans-30" x="159.033203"/>
       <use xlink:href="#DejaVuSans-30" x="222.65625"/>
      </g>
     </g>
    </g>
    <g id="xtick_5">
     <g id="line2d_5">
      <g>
       <use xlink:href="#m5df24f8e0f" x="260.797895" y="302.2" style="stroke: #000000; stroke-width: 0.8"/>
      </g>
     </g>
     <g id="text_5">
      <!-- 1.001 -->
      <g transform="translate(246.483832 316.798437) scale(0.1 -0.1)">
       <use xlink:href="#DejaVuSans-31"/>
       <use xlink:href="#DejaVuSans-2e" x="63.623047"/>
       <use xlink:href="#DejaVuSans-30" x="95.410156"/>
       <use xlink:href="#DejaVuSans-30" x="159.033203"/>
       <use xlink:href="#DejaVuSans-31" x="222.65625"/>
      </g>
     </g>
    </g>
    <g id="xtick_6">
     <g id="line2d_6">
      <g>
       <use xlink:href="#m5df24f8e0f" x="307.298373" y="302.2" style="stroke: #000000; stroke-width: 0.8"/>
      </g>
     </g>
     <g id="text_6">
      <!-- 1.002 -->
      <g transform="translate(292.984311 316.798437) scale(0.1 -0.1)">
       <defs>
        <path id="DejaVuSans-32" d="M 1228 531 
L 3431 531 
L 3431 0 
L 469 0 
L 469 531 
Q 828 903 1448 1529 
Q 2069 2156 2228 2338 
Q 2531 2678 2651 2914 
Q 2772 3150 2772 3378 
Q 2772 3750 2511 3984 
Q 2250 4219 1831 4219 
Q 1534 4219 1204 4116 
Q 875 4013 500 3803 
L 500 4441 
Q 881 4594 1212 4672 
Q 1544 4750 1819 4750 
Q 2544 4750 2975 4387 
Q 3406 4025 3406 3419 
Q 3406 3131 3298 2873 
Q 3191 2616 2906 2266 
Q 2828 2175 2409 1742 
Q 1991 1309 1228 531 
z
" transform="scale(0.015625)"/>
       </defs>
       <use xlink:href="#DejaVuSans-31"/>
       <use xlink:href="#DejaVuSans-2e" x="63.623047"/>
       <use xlink:href="#DejaVuSans-30" x="95.410156"/>
       <use xlink:href="#DejaVuSans-30" x="159.033203"/>
       <use xlink:href="#DejaVuSans-32" x="222.65625"/>
      </g>
     </g>
    </g>
    <g id="xtick_7">
     <g id="line2d_7">
      <g>
       <use xlink:href="#m5df24f8e0f" x="353.798852" y="302.2" style="stroke: #000000; stroke-width: 0.8"/>
      </g>
     </g>
     <g id="text_7">
      <!-- 1.003 -->
      <g transform="translate(339.484789 316.798437) scale(0.1 -0.1)">
       <defs>
        <path id="DejaVuSans-33" d="M 2597 2516 
Q 3050 2419 3304 2112 
Q 3559 1806 3559 1356 
Q 3559 666 3084 287 
Q 2609 -91 1734 -91 
Q 1441 -91 1130 -33 
Q 819 25 488 141 
L 488 750 
Q 750 597 1062 519 
Q 1375 441 1716 441 
Q 2309 441 2620 675 
Q 2931 909 2931 1356 
Q 2931 1769 2642 2001 
Q 2353 2234 1838 2234 
L 1294 2234 
L 1294 2753 
L 1863 2753 
Q 2328 2753 2575 2939 
Q 2822 3125 2822 3475 
Q 2822 3834 2567 4026 
Q 2313 4219 1838 4219 
Q 1578 4219 1281 4162 
Q 984 4106 628 3988 
L 628 4550 
Q 988 4650 1302 4700 
Q 1616 4750 1894 4750 
Q 2613 4750 3031 4423 
Q 3450 4097 3450 3541 
Q 3450 3153 3228 2886 
Q 3006 2619 2597 2516 
z
" transform="scale(0.015625)"/>
       </defs>
       <use xlink:href="#DejaVuSans-31"/>
       <use xlink:href="#DejaVuSans-2e" x="63.623047"/>
       <use xlink:href="#DejaVuSans-30" x="95.410156"/>
       <use xlink:href="#DejaVuSans-30" x="159.033203"/>
       <use xlink:href="#DejaVuSans-33" x="222.65625"/>
      </g>
     </g>
    </g>
    <g id="text_8">
     <!-- $t$ (s) -->
     <g transform="translate(212.335 330.476562) scale(0.1 -0.1)">
      <defs>
       <path id="DejaVuSans-Oblique-74" d="M 2706 3500 
L 2619 3053 
L 1472 3053 
L 1100 1153 
Q 1081 1047 1072 975 
Q 1063 903 1063 863 
Q 1063 663 1183 572 
Q 1303 481 1569 481 
L 2150 481 
L 2053 0 
L 1503 0 
Q 991 0 739 200 
Q 488 400 488 806 
Q 488 878 497 964 
Q 506 1050 525 1153 
L 897 3053 
L 409 3053 
L 500 3500 
L 978 3500 
L 1172 4494 
L 1747 4494 
L 1556 3500 
L 2706 3500 
z
" transform="scale(0.015625)"/>
       <path id="DejaVuSans-20" transform="scale(0.015625)"/>
       <path id="DejaVuSans-28" d="M 1984 4856 
Q 1566 4138 1362 3434 
Q 1159 2731 1159 2009 
Q 1159 1288 1364 580 
Q 1569 -128 1984 -844 
L 1484 -844 
Q 1016 -109 783 600 
Q 550 1309 550 2009 
Q 550 2706 781 3412 
Q 1013 4119 1484 4856 
L 1984 4856 
z
" transform="scale(0.015625)"/>
       <path id="DejaVuSans-73" d="M 2834 3397 
L 2834 2853 
Q 2591 2978 2328 3040 
Q 2066 3103 1784 3103 
Q 1356 3103 1142 2972 
Q 928 2841 928 2578 
Q 928 2378 1081 2264 
Q 1234 2150 1697 2047 
L 1894 2003 
Q 2506 1872 2764 1633 
Q 3022 1394 3022 966 
Q 3022 478 2636 193 
Q 2250 -91 1575 -91 
Q 1294 -91 989 -36 
Q 684 19 347 128 
L 347 722 
Q 666 556 975 473 
Q 1284 391 1588 391 
Q 1994 391 2212 530 
Q 2431 669 2431 922 
Q 2431 1156 2273 1281 
Q 2116 1406 1581 1522 
L 1381 1569 
Q 847 1681 609 1914 
Q 372 2147 372 2553 
Q 372 3047 722 3315 
Q 1072 3584 1716 3584 
Q 2034 3584 2315 3537 
Q 2597 3491 2834 3397 
z
" transform="scale(0.015625)"/>
       <path id="DejaVuSans-29" d="M 513 4856 
L 1013 4856 
Q 1481 4119 1714 3412 
Q 1947 2706 1947 2009 
Q 1947 1309 1714 600 
Q 1481 -109 1013 -844 
L 513 -844 
Q 928 -128 1133 580 
Q 1338 1288 1338 2009 
Q 1338 2731 1133 3434 
Q 928 4138 513 4856 
z
" transform="scale(0.015625)"/>
      </defs>
      <use xlink:href="#DejaVuSans-Oblique-74" transform="translate(0 0.125)"/>
      <use xlink:href="#DejaVuSans-20" transform="translate(39.208984 0.125)"/>
      <use xlink:href="#DejaVuSans-28" transform="translate(70.996094 0.125)"/>
      <use xlink:href="#DejaVuSans-73" transform="translate(110.009766 0.125)"/>
      <use xlink:href="#DejaVuSans-29" transform="translate(162.109375 0.125)"/>
     </g>
    </g>
   </g>
   <g id="matplotlib.axis_2">
    <g id="ytick_1">
     <g id="line2d_8">
      <defs>
       <path id="m06f5f0db35" d="M 0 0 
L -3.5 0 
" style="stroke: #000000; stroke-width: 0.8"/>
      </defs>
      <g>
       <use xlink:href="#m06f5f0db35" x="48.08" y="295.862255" style="stroke: #000000; stroke-width: 0.8"/>
      </g>
     </g>
     <g id="text_9">
      <!-- −8 -->
      <g style="fill: #ff7f0e" transform="translate(26.337813 299.661473) scale(0.1 -0.1)">
       <defs>
        <path id="DejaVuSans-2212" d="M 678 2272 
L 4684 2272 
L 4684 1741 
L 678 1741 
L 678 2272 
z
" transform="scale(0.015625)"/>
       </defs>
       <use xlink:href="#DejaVuSans-2212"/>
       <use xlink:href="#DejaVuSans-38" x="83.789062"/>
      </g>
     </g>
    </g>
    <g id="ytick_2">
     <g id="line2d_9">
      <g>
       <use xlink:href="#m06f5f0db35" x="48.08" y="257.500035" style="stroke: #000000; stroke-width: 0.8"/>
      </g>
     </g>
     <g id="text_10">
      <!-- −6 -->
      <g style="fill: #ff7f0e" transform="translate(26.337813 261.299254) scale(0.1 -0.1)">
       <defs>
        <path id="DejaVuSans-36" d="M 2113 2584 
Q 1688 2584 1439 2293 
Q 1191 2003 1191 1497 
Q 1191 994 1439 701 
Q 1688 409 2113 409 
Q 2538 409 2786 701 
Q 3034 994 3034 1497 
Q 3034 2003 2786 2293 
Q 2538 2584 2113 2584 
z
M 3366 4563 
L 3366 3988 
Q 3128 4100 2886 4159 
Q 2644 4219 2406 4219 
Q 1781 4219 1451 3797 
Q 1122 3375 1075 2522 
Q 1259 2794 1537 2939 
Q 1816 3084 2150 3084 
Q 2853 3084 3261 2657 
Q 3669 2231 3669 1497 
Q 3669 778 3244 343 
Q 2819 -91 2113 -91 
Q 1303 -91 875 529 
Q 447 1150 447 2328 
Q 447 3434 972 4092 
Q 1497 4750 2381 4750 
Q 2619 4750 2861 4703 
Q 3103 4656 3366 4563 
z
" transform="scale(0.015625)"/>
       </defs>
       <use xlink:href="#DejaVuSans-2212"/>
       <use xlink:href="#DejaVuSans-36" x="83.789062"/>
      </g>
     </g>
    </g>
    <g id="ytick_3">
     <g id="line2d_10">
      <g>
       <use xlink:href="#m06f5f0db35" x="48.08" y="219.137816" style="stroke: #000000; stroke-width: 0.8"/>
      </g>
     </g>
     <g id="text_11">
      <!-- −4 -->
      <g style="fill: #ff7f0e" transform="translate(26.337813 222.937034) scale(0.1 -0.1)">
       <defs>
        <path id="DejaVuSans-34" d="M 2419 4116 
L 825 1625 
L 2419 1625 
L 2419 4116 
z
M 2253 4666 
L 3047 4666 
L 3047 1625 
L 3713 1625 
L 3713 1100 
L 3047 1100 
L 3047 0 
L 2419 0 
L 2419 1100 
L 313 1100 
L 313 1709 
L 2253 4666 
z
" transform="scale(0.015625)"/>
       </defs>
       <use xlink:href="#DejaVuSans-2212"/>
       <use xlink:href="#DejaVuSans-34" x="83.789062"/>
      </g>
     </g>
    </g>
    <g id="ytick_4">
     <g id="line2d_11">
      <g>
       <use xlink:href="#m06f5f0db35" x="48.08" y="180.775596" style="stroke: #000000; stroke-width: 0.8"/>
      </g>
     </g>
     <g id="text_12">
      <!-- −2 -->
      <g style="fill: #ff7f0e" transform="translate(26.337813 184.574815) scale(0.1 -0.1)">
       <use xlink:href="#DejaVuSans-2212"/>
       <use xlink:href="#DejaVuSans-32" x="83.789062"/>
      </g>
     </g>
    </g>
    <g id="ytick_5">
     <g id="line2d_12">
      <g>
       <use xlink:href="#m06f5f0db35" x="48.08" y="142.413377" style="stroke: #000000; stroke-width: 0.8"/>
      </g>
     </g>
     <g id="text_13">
      <!-- 0 -->
      <g style="fill: #ff7f0e" transform="translate(34.7175 146.212596) scale(0.1 -0.1)">
       <use xlink:href="#DejaVuSans-30"/>
      </g>
     </g>
    </g>
    <g id="ytick_6">
     <g id="line2d_13">
      <g>
       <use xlink:href="#m06f5f0db35" x="48.08" y="104.051157" style="stroke: #000000; stroke-width: 0.8"/>
      </g>
     </g>
     <g id="text_14">
      <!-- 2 -->
      <g style="fill: #ff7f0e" transform="translate(34.7175 107.850376) scale(0.1 -0.1)">
       <use xlink:href="#DejaVuSans-32"/>
      </g>
     </g>
    </g>
    <g id="ytick_7">
     <g id="line2d_14">
      <g>
       <use xlink:href="#m06f5f0db35" x="48.08" y="65.688938" style="stroke: #000000; stroke-width: 0.8"/>
      </g>
     </g>
     <g id="text_15">
      <!-- 4 -->
      <g style="fill: #ff7f0e" transform="translate(34.7175 69.488157) scale(0.1 -0.1)">
       <use xlink:href="#DejaVuSans-34"/>
      </g>
     </g>
    </g>
    <g id="ytick_8">
     <g id="line2d_15">
      <g>
       <use xlink:href="#m06f5f0db35" x="48.08" y="27.326719" style="stroke: #000000; stroke-width: 0.8"/>
      </g>
     </g>
     <g id="text_16">
      <!-- 6 -->
      <g style="fill: #ff7f0e" transform="translate(34.7175 31.125937) scale(0.1 -0.1)">
       <use xlink:href="#DejaVuSans-36"/>
      </g>
     </g>
    </g>
    <g id="text_17">
     <!-- $V$ (V) -->
     <g style="fill: #ff7f0e" transform="translate(20.258125 168.85) rotate(-90) scale(0.1 -0.1)">
      <defs>
       <path id="DejaVuSans-Oblique-56" d="M 1319 0 
L 500 4666 
L 1119 4666 
L 1797 653 
L 4063 4666 
L 4750 4666 
L 2053 0 
L 1319 0 
z
" transform="scale(0.015625)"/>
       <path id="DejaVuSans-56" d="M 1831 0 
L 50 4666 
L 709 4666 
L 2188 738 
L 3669 4666 
L 4325 4666 
L 2547 0 
L 1831 0 
z
" transform="scale(0.015625)"/>
      </defs>
      <use xlink:href="#DejaVuSans-Oblique-56" transform="translate(0 0.125)"/>
      <use xlink:href="#DejaVuSans-20" transform="translate(68.408203 0.125)"/>
      <use xlink:href="#DejaVuSans-28" transform="translate(100.195312 0.125)"/>
      <use xlink:href="#DejaVuSans-56" transform="translate(139.208984 0.125)"/>
      <use xlink:href="#DejaVuSans-29" transform="translate(207.617188 0.125)"/>
     </g>
    </g>
   </g>
   <g id="line2d_16">
    <path d="M 48.058206 26.290925 
L 51.778244 26.184297 
L 52.010746 52.615619 
L 52.243249 26.742528 
L 52.475751 41.614067 
L 52.708253 27.915442 
L 52.940756 36.445721 
L 53.173258 78.369537 
L 53.405761 25.563343 
L 53.638263 90.819982 
L 53.870765 91.710644 
L 54.103268 32.958342 
L 54.33577 70.152871 
L 54.568273 83.61315 
L 54.800775 49.630021 
L 55.033277 44.7502 
L 55.26578 86.868456 
L 55.498282 100.102934 
L 55.730785 98.948837 
L 55.963287 100.962234 
L 56.195789 115.206547 
L 56.893297 193.54713 
L 58.288311 288.885551 
L 58.520813 288.684838 
L 59.915828 288.672294 
L 61.310842 288.684838 
L 65.728387 288.672294 
L 69.215923 288.753833 
L 70.145933 288.797739 
L 70.378435 282.280856 
L 70.610938 211.05302 
L 70.84344 24.540963 
L 71.075942 25.883228 
L 71.308445 26.159208 
L 71.540947 56.140632 
L 71.77345 27.137681 
L 72.005952 26.259564 
L 72.470957 26.22193 
L 79.678531 26.309742 
L 86.653603 26.178024 
L 86.886105 52.502719 
L 87.118608 26.014946 
L 87.35111 29.439602 
L 87.583612 49.479487 
L 87.816115 26.874246 
L 88.048617 85.444652 
L 88.28112 40.196536 
L 88.513622 30.380442 
L 88.746124 118.524575 
L 89.211129 25.945951 
L 89.443631 125.054002 
L 89.676134 133.182857 
L 90.141139 55.783113 
L 90.373641 50.445416 
L 90.838646 81.154423 
L 91.768655 183.392334 
L 92.466163 238.237015 
L 93.16367 288.697383 
L 104.788789 288.797739 
L 105.021292 288.873006 
L 105.253794 288.728744 
L 105.486297 262.711391 
L 105.718799 107.171776 
L 105.951301 27.187859 
L 106.183804 26.259564 
L 106.416306 58.749894 
L 106.648809 26.679806 
L 106.881311 26.046307 
L 107.346316 26.203114 
L 108.276325 26.240747 
L 114.55389 26.30347 
L 121.063957 26.196841 
L 121.296459 26.184297 
L 121.528962 40.384704 
L 121.761464 24.114449 
L 121.993966 25.845594 
L 122.226469 48.036866 
L 122.458971 24.566052 
L 122.691474 55.099436 
L 122.923976 66.558863 
L 123.156478 27.081231 
L 123.388981 111.048035 
L 123.621483 82.195619 
L 123.853986 25.845594 
L 124.086488 116.398277 
L 124.31899 124.934829 
L 124.783995 42.253838 
L 125.481502 96.565377 
L 126.17901 137.140656 
L 127.341521 235.690475 
L 128.039029 288.666021 
L 128.504033 288.672294 
L 132.456574 288.684838 
L 134.549096 288.678566 
L 139.896651 288.810283 
L 140.129153 287.769087 
L 140.361655 256.313681 
L 140.594158 84.403456 
L 140.82666 26.817795 
L 141.059163 26.253292 
L 141.291665 60.738202 
L 141.524167 27.156498 
L 141.75667 26.209386 
L 142.221675 26.203114 
L 145.941713 26.309742 
L 149.894254 26.309742 
L 155.706813 26.203114 
L 156.404321 26.115302 
L 156.636823 56.19081 
L 156.869325 26.817795 
L 157.101828 50.840568 
L 157.33433 24.152083 
L 157.566832 44.260963 
L 157.799335 76.989639 
L 158.031837 25.475531 
L 158.26434 84.666891 
L 158.496842 95.812705 
L 158.729344 25.017656 
L 159.194349 129.915007 
L 159.659354 55.85838 
L 159.891856 54.879907 
L 160.124359 81.041522 
L 160.589364 100.686254 
L 160.821866 116.417094 
L 161.519373 193.873288 
L 162.21688 238.262104 
L 162.681885 269.378808 
L 162.914388 288.672294 
L 163.611895 288.678566 
L 174.074502 288.77265 
L 175.004512 288.747561 
L 175.237014 268.243528 
L 175.702019 27.212948 
L 175.934522 26.247019 
L 176.167024 26.134119 
L 176.399526 24.911027 
L 176.632029 26.008673 
L 176.864531 26.240747 
L 178.492048 26.253292 
L 184.072105 26.297197 
L 190.814675 26.203114 
L 191.279679 26.159208 
L 191.512182 53.173851 
L 191.744684 26.861701 
L 191.977187 54.296586 
L 192.209689 29.947655 
L 192.442191 28.053432 
L 192.674694 82.546865 
L 192.907196 24.208533 
L 193.372201 107.209409 
L 193.604703 49.027884 
L 193.837206 42.015492 
L 194.069708 115.934129 
L 194.302211 93.74913 
L 194.534713 50.533228 
L 194.767215 48.513558 
L 194.999718 94.33245 
L 195.464722 106.85189 
L 196.859737 220.844025 
L 197.324742 260.572549 
L 197.557244 268.971111 
L 197.789746 288.553121 
L 198.254751 288.678566 
L 201.974789 288.678566 
L 203.369804 288.666021 
L 209.647368 288.816556 
L 209.879871 280.468172 
L 210.344876 25.764055 
L 210.80988 26.077668 
L 211.042383 59.370848 
L 211.274885 27.181587 
L 211.507388 26.240747 
L 211.972392 26.228203 
L 214.297416 26.272108 
L 226.155038 26.171752 
L 226.387541 47.46609 
L 226.620043 24.666409 
L 226.852545 25.682516 
L 227.085048 63.968418 
L 227.31755 24.773037 
L 227.550053 78.037107 
L 227.782555 79.297832 
L 228.015057 26.485365 
L 228.24756 98.748125 
L 228.480062 99.952399 
L 228.712565 36.41436 
L 228.945067 65.204054 
L 229.177569 73.132196 
L 229.410072 64.319665 
L 229.642574 63.736344 
L 229.875077 69.550733 
L 230.107579 81.831827 
L 231.037589 174.121927 
L 231.967598 238.111569 
L 232.2001 246.641849 
L 232.432603 262.378961 
L 232.665105 288.540576 
L 232.897608 288.760105 
L 233.362612 288.666021 
L 234.757627 288.678566 
L 235.920139 288.672294 
L 238.01266 288.678566 
L 243.82522 288.785194 
L 244.522727 288.816556 
L 244.75523 288.609571 
L 244.987732 249.60863 
L 245.220234 72.611599 
L 245.452737 26.610811 
L 245.917742 26.16548 
L 246.150244 52.615619 
L 246.382746 27.143953 
L 246.615249 26.234475 
L 247.080254 26.215658 
L 248.940273 26.272108 
L 251.497799 26.30347 
L 255.45034 26.30347 
L 260.565392 26.196841 
L 260.797895 26.178024 
L 261.030397 25.782872 
L 261.2629 26.040035 
L 261.495402 56.059093 
L 261.727904 26.83034 
L 261.960407 55.852108 
L 262.192909 27.501472 
L 262.425412 32.475378 
L 262.657914 82.553138 
L 262.890416 24.352796 
L 263.122919 86.818278 
L 263.355421 115.570338 
L 263.587923 55.695301 
L 263.820426 53.311841 
L 264.052928 74.606179 
L 264.517933 45.371154 
L 264.750435 56.303711 
L 265.447943 133.935528 
L 265.912947 170.948161 
L 266.377952 192.531023 
L 267.307962 288.459037 
L 267.540464 288.666021 
L 268.470474 288.678566 
L 270.330493 288.666021 
L 272.423014 288.697383 
L 273.818029 288.653477 
L 274.980541 288.678566 
L 278.700579 288.77265 
L 279.398086 288.816556 
L 279.630589 288.709927 
L 279.863091 272.772103 
L 280.328096 27.225493 
L 280.560598 26.209386 
L 280.793101 26.152935 
L 281.025603 51.216904 
L 281.258105 27.118864 
L 281.490608 26.259564 
L 281.955612 26.215658 
L 284.048134 26.290925 
L 287.53567 26.30347 
L 289.628191 26.316014 
L 295.905756 26.178024 
L 296.138258 52.910416 
L 296.370761 26.115302 
L 296.603263 49.247413 
L 296.835766 46.481345 
L 297.068268 26.353648 
L 297.30077 77.930479 
L 297.533273 24.42179 
L 297.998278 105.597437 
L 298.23078 33.460124 
L 298.463282 67.524792 
L 298.695785 141.374434 
L 298.928287 112.246038 
L 299.16079 63.761433 
L 299.393292 40.861396 
L 299.625794 57.106561 
L 301.020809 194.01755 
L 301.485813 231.500603 
L 302.183321 286.677713 
L 302.415823 288.659749 
L 304.508345 288.684838 
L 306.600866 288.659749 
L 307.298373 288.666021 
L 308.693388 288.684838 
L 313.343435 288.77265 
L 314.273445 288.797739 
L 314.505947 279.702955 
L 314.73845 197.128593 
L 314.970952 24.484513 
L 315.435957 26.817795 
L 315.668459 45.835301 
L 315.900962 26.761345 
L 316.133464 26.322287 
L 316.598469 26.228203 
L 330.781115 26.140391 
L 331.013617 50.79039 
L 331.24612 25.757783 
L 331.478622 33.861548 
L 331.711124 57.181828 
L 331.943627 27.056142 
L 332.176129 85.432107 
L 332.408632 28.856281 
L 332.641134 47.177566 
L 332.873636 124.031623 
L 333.338641 26.416371 
L 333.571144 142.145923 
L 333.803646 138.583276 
L 334.268651 59.163863 
L 334.501153 53.512553 
L 334.733656 62.381535 
L 334.966158 84.911509 
L 335.663665 178.888848 
L 336.593675 240.488758 
L 337.05868 262.171976 
L 337.291182 288.264596 
L 337.523684 288.697383 
L 338.686196 288.678566 
L 342.871239 288.672294 
L 348.451297 288.778922 
L 349.148804 288.77265 
L 349.381306 287.154406 
L 349.613809 288.77265 
L 349.846311 264.329635 
L 350.078813 92.620122 
L 350.311316 26.930696 
L 350.543818 26.322287 
L 350.776321 26.184297 
L 351.008823 30.129551 
L 351.241325 24.390429 
L 351.473828 25.876956 
L 351.70633 26.209386 
L 353.101345 26.265836 
L 365.656474 26.178024 
L 365.888976 53.104856 
L 366.121479 26.02749 
L 366.353981 31.590989 
L 366.586483 58.505276 
L 366.818986 27.056142 
L 367.051488 89.220555 
L 367.283991 38.659831 
L 367.516493 40.986841 
L 367.748995 113.77647 
L 367.981498 58.944334 
L 368.214 47.572719 
L 368.446502 66.903838 
L 368.911507 40.478788 
L 369.376512 73.884868 
L 369.609014 76.857922 
L 369.841517 92.055618 
L 370.539024 164.230566 
L 371.469034 240.400946 
L 371.701536 253.202638 
L 372.166541 288.797739 
L 372.631546 288.672294 
L 383.326656 288.766378 
L 384.024163 288.778922 
L 384.256665 263.093999 
L 384.72167 27.206676 
L 384.954172 26.253292 
L 385.186675 37.374017 
L 385.419177 25.538253 
L 385.884182 26.134119 
L 386.349187 26.209386 
L 396.811794 26.284653 
L 396.811794 26.284653 
" clip-path="url(#p4829488c45)" style="fill: none; stroke: #ff7f0e; stroke-width: 1.5; stroke-linecap: square"/>
   </g>
   <g id="patch_3">
    <path d="M 48.08 302.2 
L 48.08 10.8 
" style="fill: none; stroke: #000000; stroke-width: 0.8; stroke-linejoin: miter; stroke-linecap: square"/>
   </g>
   <g id="patch_4">
    <path d="M 396.79 302.2 
L 396.79 10.8 
" style="fill: none; stroke: #000000; stroke-width: 0.8; stroke-linejoin: miter; stroke-linecap: square"/>
   </g>
   <g id="patch_5">
    <path d="M 48.08 302.2 
L 396.79 302.2 
" style="fill: none; stroke: #000000; stroke-width: 0.8; stroke-linejoin: miter; stroke-linecap: square"/>
   </g>
   <g id="patch_6">
    <path d="M 48.08 10.8 
L 396.79 10.8 
" style="fill: none; stroke: #000000; stroke-width: 0.8; stroke-linejoin: miter; stroke-linecap: square"/>
   </g>
  </g>
  <g id="axes_2">
   <g id="matplotlib.axis_3">
    <g id="ytick_9">
     <g id="line2d_17">
      <defs>
       <path id="m23fdf83234" d="M 0 0 
L 3.5 0 
" style="stroke: #000000; stroke-width: 0.8"/>
      </defs>
      <g>
       <use xlink:href="#m23fdf83234" x="396.79" y="253.046436" style="stroke: #000000; stroke-width: 0.8"/>
      </g>
     </g>
     <g id="text_18">
      <!-- −0.02 -->
      <g style="fill: #1f77b4" transform="translate(403.79 256.845655) scale(0.1 -0.1)">
       <use xlink:href="#DejaVuSans-2212"/>
       <use xlink:href="#DejaVuSans-30" x="83.789062"/>
       <use xlink:href="#DejaVuSans-2e" x="147.412109"/>
       <use xlink:href="#DejaVuSans-30" x="179.199219"/>
       <use xlink:href="#DejaVuSans-32" x="242.822266"/>
      </g>
     </g>
    </g>
    <g id="ytick_10">
     <g id="line2d_18">
      <g>
       <use xlink:href="#m23fdf83234" x="396.79" y="194.419753" style="stroke: #000000; stroke-width: 0.8"/>
      </g>
     </g>
     <g id="text_19">
      <!-- −0.01 -->
      <g style="fill: #1f77b4" transform="translate(403.79 198.218972) scale(0.1 -0.1)">
       <use xlink:href="#DejaVuSans-2212"/>
       <use xlink:href="#DejaVuSans-30" x="83.789062"/>
       <use xlink:href="#DejaVuSans-2e" x="147.412109"/>
       <use xlink:href="#DejaVuSans-30" x="179.199219"/>
       <use xlink:href="#DejaVuSans-31" x="242.822266"/>
      </g>
     </g>
    </g>
    <g id="ytick_11">
     <g id="line2d_19">
      <g>
       <use xlink:href="#m23fdf83234" x="396.79" y="135.79307" style="stroke: #000000; stroke-width: 0.8"/>
      </g>
     </g>
     <g id="text_20">
      <!-- 0.00 -->
      <g style="fill: #1f77b4" transform="translate(403.79 139.592289) scale(0.1 -0.1)">
       <use xlink:href="#DejaVuSans-30"/>
       <use xlink:href="#DejaVuSans-2e" x="63.623047"/>
       <use xlink:href="#DejaVuSans-30" x="95.410156"/>
       <use xlink:href="#DejaVuSans-30" x="159.033203"/>
      </g>
     </g>
    </g>
    <g id="ytick_12">
     <g id="line2d_20">
      <g>
       <use xlink:href="#m23fdf83234" x="396.79" y="77.166387" style="stroke: #000000; stroke-width: 0.8"/>
      </g>
     </g>
     <g id="text_21">
      <!-- 0.01 -->
      <g style="fill: #1f77b4" transform="translate(403.79 80.965605) scale(0.1 -0.1)">
       <use xlink:href="#DejaVuSans-30"/>
       <use xlink:href="#DejaVuSans-2e" x="63.623047"/>
       <use xlink:href="#DejaVuSans-30" x="95.410156"/>
       <use xlink:href="#DejaVuSans-31" x="159.033203"/>
      </g>
     </g>
    </g>
    <g id="ytick_13">
     <g id="line2d_21">
      <g>
       <use xlink:href="#m23fdf83234" x="396.79" y="18.539703" style="stroke: #000000; stroke-width: 0.8"/>
      </g>
     </g>
     <g id="text_22">
      <!-- 0.02 -->
      <g style="fill: #1f77b4" transform="translate(403.79 22.338922) scale(0.1 -0.1)">
       <use xlink:href="#DejaVuSans-30"/>
       <use xlink:href="#DejaVuSans-2e" x="63.623047"/>
       <use xlink:href="#DejaVuSans-30" x="95.410156"/>
       <use xlink:href="#DejaVuSans-32" x="159.033203"/>
      </g>
     </g>
    </g>
    <g id="text_23">
     <!-- $V$ (V) -->
     <g style="fill: #1f77b4" transform="translate(446.03375 168.85) rotate(-90) scale(0.1 -0.1)">
      <use xlink:href="#DejaVuSans-Oblique-56" transform="translate(0 0.125)"/>
      <use xlink:href="#DejaVuSans-20" transform="translate(68.408203 0.125)"/>
      <use xlink:href="#DejaVuSans-28" transform="translate(100.195312 0.125)"/>
      <use xlink:href="#DejaVuSans-56" transform="translate(139.208984 0.125)"/>
      <use xlink:href="#DejaVuSans-29" transform="translate(207.617188 0.125)"/>
     </g>
    </g>
   </g>
   <g id="line2d_22">
    <path d="M 48.058206 197.908377 
L 48.290708 199.825482 
L 48.52321 195.991272 
L 48.755713 194.074166 
L 48.988215 190.239956 
L 49.220718 192.157061 
L 49.45322 188.322851 
L 49.685722 190.239956 
L 49.918225 182.571535 
L 50.150727 184.48864 
L 50.38323 176.820219 
L 50.615732 178.737324 
L 50.848234 172.986009 
L 51.080737 174.903114 
L 51.313239 174.903114 
L 51.545742 161.483377 
L 51.778244 165.317588 
L 52.010746 157.649166 
L 52.243249 167.234693 
L 52.475751 159.566272 
L 52.708253 155.732061 
L 52.940756 157.649166 
L 53.173258 155.732061 
L 53.405761 157.649166 
L 53.870765 142.312324 
L 54.103268 148.06364 
L 54.33577 146.146535 
L 54.568273 138.478114 
L 54.800775 134.643903 
L 55.033277 134.643903 
L 55.498282 126.975482 
L 55.730785 125.058377 
L 55.963287 125.058377 
L 56.428292 117.389956 
L 56.660794 115.472851 
L 56.893297 109.721535 
L 57.125799 109.721535 
L 57.358301 105.887324 
L 57.590804 98.218903 
L 57.823306 96.301798 
L 58.055809 100.136009 
L 58.288311 94.384693 
L 58.520813 94.384693 
L 58.753316 90.550482 
L 58.985818 94.384693 
L 59.21832 90.550482 
L 59.450823 88.633377 
L 59.683325 88.633377 
L 59.915828 82.882061 
L 60.14833 86.716272 
L 60.613335 82.882061 
L 60.845837 82.882061 
L 61.07834 79.047851 
L 61.310842 80.964956 
L 61.543344 80.964956 
L 61.775847 84.799166 
L 62.008349 84.799166 
L 62.240852 86.716272 
L 62.473354 82.882061 
L 62.705856 84.799166 
L 62.938359 84.799166 
L 63.170861 79.047851 
L 63.403364 84.799166 
L 63.635866 82.882061 
L 63.868368 82.882061 
L 64.100871 80.964956 
L 64.333373 90.550482 
L 64.565875 82.882061 
L 65.03088 86.716272 
L 65.263383 86.716272 
L 65.495885 90.550482 
L 65.728387 90.550482 
L 66.193392 94.384693 
L 66.425895 98.218903 
L 66.658397 96.301798 
L 66.890899 103.970219 
L 67.123402 100.136009 
L 67.355904 107.80443 
L 67.588407 107.80443 
L 67.820909 105.887324 
L 68.285914 115.472851 
L 68.518416 111.63864 
L 68.750919 119.307061 
L 68.983421 119.307061 
L 69.448426 126.975482 
L 69.680928 128.892588 
L 69.913431 125.058377 
L 70.145933 128.892588 
L 70.378435 134.643903 
L 70.610938 136.561009 
L 70.84344 153.814956 
L 71.075942 148.06364 
L 71.308445 155.732061 
L 71.540947 157.649166 
L 71.77345 157.649166 
L 72.005952 161.483377 
L 72.238454 161.483377 
L 72.470957 167.234693 
L 72.703459 165.317588 
L 72.935962 176.820219 
L 73.168464 176.820219 
L 73.400966 171.068903 
L 73.633469 171.068903 
L 74.330976 186.405745 
L 74.563478 188.322851 
L 74.795981 195.991272 
L 75.028483 190.239956 
L 75.260986 190.239956 
L 75.72599 194.074166 
L 75.958493 197.908377 
L 76.190995 192.157061 
L 76.423498 195.991272 
L 76.656 205.576798 
L 76.888502 199.825482 
L 77.121005 201.742588 
L 77.353507 205.576798 
L 77.586009 203.659693 
L 77.818512 207.493903 
L 78.051014 207.493903 
L 78.283517 205.576798 
L 78.516019 211.328114 
L 78.748521 207.493903 
L 78.981024 209.411009 
L 79.446029 205.576798 
L 79.678531 205.576798 
L 79.911033 207.493903 
L 80.143536 205.576798 
L 80.376038 209.411009 
L 80.608541 209.411009 
L 80.841043 207.493903 
L 81.306048 207.493903 
L 81.53855 209.411009 
L 82.003555 197.908377 
L 82.236057 201.742588 
L 82.46856 197.908377 
L 82.701062 199.825482 
L 82.933565 194.074166 
L 83.166067 199.825482 
L 83.398569 199.825482 
L 83.631072 190.239956 
L 83.863574 190.239956 
L 84.096076 192.157061 
L 84.328579 190.239956 
L 84.561081 192.157061 
L 84.793584 178.737324 
L 85.026086 182.571535 
L 85.258588 182.571535 
L 85.491091 184.48864 
L 85.956096 172.986009 
L 86.188598 172.986009 
L 86.653603 169.151798 
L 86.886105 163.400482 
L 87.118608 163.400482 
L 87.35111 159.566272 
L 87.583612 157.649166 
L 87.816115 161.483377 
L 88.048617 151.897851 
L 88.513622 151.897851 
L 88.746124 140.395219 
L 88.978627 140.395219 
L 89.211129 142.312324 
L 89.676134 134.643903 
L 89.908636 132.726798 
L 90.141139 128.892588 
L 90.373641 130.809693 
L 90.606143 130.809693 
L 90.838646 125.058377 
L 91.071148 123.141272 
L 91.768655 111.63864 
L 92.001158 111.63864 
L 92.466163 103.970219 
L 92.698665 98.218903 
L 92.931167 98.218903 
L 93.16367 96.301798 
L 93.396172 100.136009 
L 93.861177 92.467588 
L 94.093679 92.467588 
L 94.326182 86.716272 
L 94.558684 84.799166 
L 94.791187 86.716272 
L 95.023689 82.882061 
L 95.256191 82.882061 
L 95.488694 80.964956 
L 95.721196 82.882061 
L 95.953698 82.882061 
L 96.186201 84.799166 
L 96.651206 80.964956 
L 96.883708 80.964956 
L 97.348713 84.799166 
L 97.581215 80.964956 
L 97.813718 82.882061 
L 98.278722 79.047851 
L 98.511225 82.882061 
L 98.743727 84.799166 
L 98.97623 84.799166 
L 99.208732 88.633377 
L 99.441234 82.882061 
L 99.673737 92.467588 
L 99.906239 84.799166 
L 100.138742 90.550482 
L 100.371244 92.467588 
L 100.603746 96.301798 
L 100.836249 96.301798 
L 101.068751 98.218903 
L 101.301254 94.384693 
L 101.533756 100.136009 
L 101.998761 100.136009 
L 102.231263 107.80443 
L 102.463765 105.887324 
L 102.696268 107.80443 
L 102.92877 105.887324 
L 103.161273 113.555745 
L 103.393775 113.555745 
L 103.626277 119.307061 
L 104.091282 119.307061 
L 104.323785 126.975482 
L 104.556287 125.058377 
L 104.788789 125.058377 
L 105.021292 136.561009 
L 105.253794 130.809693 
L 105.486297 134.643903 
L 105.718799 148.06364 
L 105.951301 153.814956 
L 106.183804 151.897851 
L 106.416306 157.649166 
L 106.648809 157.649166 
L 106.881311 165.317588 
L 107.113813 163.400482 
L 107.346316 167.234693 
L 107.578818 167.234693 
L 107.81132 169.151798 
L 108.043823 172.986009 
L 108.276325 172.986009 
L 108.508828 182.571535 
L 108.74133 178.737324 
L 108.973832 180.65443 
L 109.206335 184.48864 
L 109.438837 178.737324 
L 109.67134 186.405745 
L 109.903842 188.322851 
L 110.136344 188.322851 
L 110.368847 192.157061 
L 110.601349 188.322851 
L 110.833852 192.157061 
L 111.531359 197.908377 
L 111.763861 201.742588 
L 111.996364 197.908377 
L 112.228866 203.659693 
L 112.461368 201.742588 
L 112.693871 207.493903 
L 112.926373 205.576798 
L 113.158876 201.742588 
L 113.62388 211.328114 
L 113.856383 207.493903 
L 114.088885 211.328114 
L 114.321387 207.493903 
L 114.55389 207.493903 
L 114.786392 203.659693 
L 115.251397 213.245219 
L 115.483899 209.411009 
L 115.716402 209.411009 
L 115.948904 203.659693 
L 116.181407 207.493903 
L 116.413909 203.659693 
L 116.646411 207.493903 
L 117.111416 203.659693 
L 117.343919 205.576798 
L 117.576421 194.074166 
L 117.808923 195.991272 
L 118.041426 195.991272 
L 118.506431 192.157061 
L 118.738933 194.074166 
L 118.971435 192.157061 
L 119.203938 192.157061 
L 119.43644 184.48864 
L 119.668943 188.322851 
L 119.901445 176.820219 
L 120.133947 180.65443 
L 120.36645 176.820219 
L 120.598952 178.737324 
L 120.831454 167.234693 
L 121.063957 176.820219 
L 121.528962 167.234693 
L 121.761464 169.151798 
L 121.993966 169.151798 
L 122.226469 157.649166 
L 122.458971 153.814956 
L 122.923976 149.980745 
L 123.156478 159.566272 
L 123.388981 142.312324 
L 123.853986 151.897851 
L 124.31899 136.561009 
L 124.551493 136.561009 
L 124.783995 134.643903 
L 125.016498 128.892588 
L 125.249 126.975482 
L 125.481502 132.726798 
L 125.714005 126.975482 
L 125.946507 115.472851 
L 126.17901 117.389956 
L 126.411512 113.555745 
L 126.644014 113.555745 
L 126.876517 111.63864 
L 127.109019 115.472851 
L 127.341521 102.053114 
L 127.574024 105.887324 
L 127.806526 105.887324 
L 128.039029 94.384693 
L 128.271531 92.467588 
L 128.504033 92.467588 
L 128.736536 88.633377 
L 128.969038 88.633377 
L 129.201541 92.467588 
L 129.434043 88.633377 
L 129.666545 92.467588 
L 130.13155 88.633377 
L 130.364053 90.550482 
L 130.596555 80.964956 
L 130.829057 84.799166 
L 131.06156 82.882061 
L 131.294062 79.047851 
L 131.759067 82.882061 
L 131.991569 82.882061 
L 132.224072 84.799166 
L 132.689076 84.799166 
L 132.921579 82.882061 
L 133.154081 82.882061 
L 133.619086 79.047851 
L 134.084091 90.550482 
L 134.316593 92.467588 
L 134.549096 84.799166 
L 134.781598 86.716272 
L 135.0141 92.467588 
L 135.246603 86.716272 
L 135.479105 92.467588 
L 135.711608 92.467588 
L 135.94411 98.218903 
L 136.176612 94.384693 
L 136.409115 100.136009 
L 136.641617 98.218903 
L 136.87412 100.136009 
L 137.106622 98.218903 
L 137.339124 105.887324 
L 137.571627 105.887324 
L 137.804129 113.555745 
L 138.036632 113.555745 
L 138.269134 111.63864 
L 138.501636 119.307061 
L 138.734139 123.141272 
L 138.966641 121.224166 
L 139.199143 128.892588 
L 139.431646 126.975482 
L 139.664148 130.809693 
L 139.896651 128.892588 
L 140.129153 132.726798 
L 140.361655 132.726798 
L 140.594158 153.814956 
L 140.82666 149.980745 
L 141.291665 153.814956 
L 141.524167 161.483377 
L 141.75667 165.317588 
L 141.989172 163.400482 
L 142.221675 167.234693 
L 142.454177 169.151798 
L 142.686679 167.234693 
L 142.919182 171.068903 
L 143.151684 171.068903 
L 143.384187 174.903114 
L 143.616689 180.65443 
L 143.849191 178.737324 
L 144.081694 184.48864 
L 145.011703 192.157061 
L 145.244206 186.405745 
L 145.476708 190.239956 
L 145.70921 197.908377 
L 145.941713 201.742588 
L 146.174215 203.659693 
L 146.406718 199.825482 
L 146.63922 203.659693 
L 146.871722 197.908377 
L 147.104225 207.493903 
L 147.336727 205.576798 
L 147.56923 209.411009 
L 147.801732 205.576798 
L 148.034234 203.659693 
L 148.266737 209.411009 
L 148.499239 211.328114 
L 148.731742 211.328114 
L 148.964244 209.411009 
L 149.196746 211.328114 
L 149.429249 207.493903 
L 149.661751 205.576798 
L 149.894254 207.493903 
L 150.591761 207.493903 
L 150.824263 203.659693 
L 151.056766 207.493903 
L 151.289268 207.493903 
L 151.52177 205.576798 
L 151.754273 205.576798 
L 151.986775 199.825482 
L 152.219277 201.742588 
L 152.45178 201.742588 
L 152.684282 197.908377 
L 152.916785 199.825482 
L 153.149287 199.825482 
L 153.381789 192.157061 
L 153.614292 190.239956 
L 153.846794 190.239956 
L 154.079297 195.991272 
L 154.311799 192.157061 
L 154.544301 184.48864 
L 154.776804 186.405745 
L 155.009306 184.48864 
L 155.241809 186.405745 
L 155.474311 172.986009 
L 155.706813 176.820219 
L 155.939316 174.903114 
L 156.171818 165.317588 
L 156.404321 167.234693 
L 156.636823 167.234693 
L 156.869325 163.400482 
L 157.33433 159.566272 
L 157.566832 159.566272 
L 158.031837 149.980745 
L 158.26434 148.06364 
L 158.496842 140.395219 
L 158.729344 148.06364 
L 158.961847 144.22943 
L 159.194349 134.643903 
L 159.426852 138.478114 
L 159.659354 136.561009 
L 160.124359 128.892588 
L 160.356861 134.643903 
L 160.589364 123.141272 
L 160.821866 123.141272 
L 161.054368 119.307061 
L 161.286871 119.307061 
L 161.751876 109.721535 
L 161.984378 105.887324 
L 162.21688 109.721535 
L 162.449383 102.053114 
L 162.681885 100.136009 
L 162.914388 96.301798 
L 163.14689 94.384693 
L 163.379392 88.633377 
L 163.611895 96.301798 
L 163.844397 92.467588 
L 164.076899 86.716272 
L 164.309402 86.716272 
L 164.541904 90.550482 
L 164.774407 84.799166 
L 165.006909 82.882061 
L 165.471914 82.882061 
L 165.704416 88.633377 
L 165.936919 84.799166 
L 166.169421 84.799166 
L 166.401923 80.964956 
L 166.634426 82.882061 
L 166.866928 82.882061 
L 167.099431 84.799166 
L 167.331933 80.964956 
L 167.564435 82.882061 
L 167.796938 80.964956 
L 168.02944 84.799166 
L 168.261943 82.882061 
L 168.494445 86.716272 
L 168.726947 84.799166 
L 168.95945 86.716272 
L 169.191952 84.799166 
L 169.424455 92.467588 
L 169.656957 82.882061 
L 169.889459 92.467588 
L 170.121962 92.467588 
L 170.354464 88.633377 
L 170.586966 92.467588 
L 170.819469 94.384693 
L 171.051971 98.218903 
L 171.284474 100.136009 
L 171.516976 100.136009 
L 171.749478 98.218903 
L 172.214483 111.63864 
L 172.446986 111.63864 
L 172.679488 107.80443 
L 172.91199 115.472851 
L 173.144493 113.555745 
L 173.376995 119.307061 
L 173.609498 115.472851 
L 173.842 125.058377 
L 174.074502 123.141272 
L 174.307005 125.058377 
L 174.539507 125.058377 
L 175.004512 136.561009 
L 175.237014 138.478114 
L 175.469517 151.897851 
L 175.702019 157.649166 
L 175.934522 149.980745 
L 176.167024 155.732061 
L 176.399526 157.649166 
L 176.632029 161.483377 
L 176.864531 161.483377 
L 177.097033 167.234693 
L 177.329536 169.151798 
L 177.562038 169.151798 
L 177.794541 172.986009 
L 178.027043 172.986009 
L 178.259545 180.65443 
L 178.492048 178.737324 
L 178.72455 182.571535 
L 178.957053 188.322851 
L 179.422057 184.48864 
L 179.65456 188.322851 
L 179.887062 186.405745 
L 180.352067 199.825482 
L 180.584569 199.825482 
L 180.817072 195.991272 
L 181.049574 199.825482 
L 181.282077 197.908377 
L 181.514579 203.659693 
L 181.747081 199.825482 
L 181.979584 205.576798 
L 182.212086 201.742588 
L 182.444588 201.742588 
L 182.677091 211.328114 
L 182.909593 205.576798 
L 183.142096 209.411009 
L 183.374598 203.659693 
L 183.6071 201.742588 
L 184.072105 209.411009 
L 184.304608 211.328114 
L 184.53711 209.411009 
L 184.769612 213.245219 
L 185.002115 207.493903 
L 185.234617 205.576798 
L 185.46712 205.576798 
L 185.699622 201.742588 
L 185.932124 207.493903 
L 186.164627 203.659693 
L 186.397129 209.411009 
L 186.629632 205.576798 
L 186.862134 203.659693 
L 187.094636 203.659693 
L 187.327139 197.908377 
L 187.559641 197.908377 
L 187.792144 199.825482 
L 188.024646 195.991272 
L 188.257148 194.074166 
L 188.489651 195.991272 
L 188.722153 186.405745 
L 188.954655 184.48864 
L 189.187158 190.239956 
L 189.652163 176.820219 
L 189.884665 180.65443 
L 190.117167 178.737324 
L 190.582172 171.068903 
L 190.814675 176.820219 
L 191.047177 169.151798 
L 191.279679 172.986009 
L 191.512182 161.483377 
L 191.744684 167.234693 
L 192.209689 157.649166 
L 192.907196 146.146535 
L 193.139699 149.980745 
L 193.372201 146.146535 
L 193.604703 140.395219 
L 193.837206 146.146535 
L 194.069708 130.809693 
L 194.302211 136.561009 
L 194.534713 130.809693 
L 194.767215 132.726798 
L 194.999718 126.975482 
L 195.464722 126.975482 
L 195.697225 119.307061 
L 195.929727 119.307061 
L 196.16223 113.555745 
L 196.394732 113.555745 
L 196.859737 105.887324 
L 197.092239 109.721535 
L 197.557244 92.467588 
L 197.789746 96.301798 
L 198.022249 94.384693 
L 198.254751 90.550482 
L 198.487254 90.550482 
L 198.719756 92.467588 
L 198.952258 84.799166 
L 199.184761 88.633377 
L 199.417263 88.633377 
L 199.649766 84.799166 
L 200.579775 84.799166 
L 200.812277 79.047851 
L 201.04478 82.882061 
L 201.277282 79.047851 
L 201.509785 80.964956 
L 201.742287 84.799166 
L 201.974789 77.130745 
L 202.207292 86.716272 
L 202.672297 82.882061 
L 202.904799 82.882061 
L 203.137301 86.716272 
L 203.369804 80.964956 
L 203.602306 84.799166 
L 204.067311 88.633377 
L 204.299813 84.799166 
L 204.764818 92.467588 
L 204.997321 88.633377 
L 205.229823 92.467588 
L 205.462325 94.384693 
L 205.694828 94.384693 
L 205.92733 98.218903 
L 206.392335 98.218903 
L 206.624837 105.887324 
L 206.85734 103.970219 
L 207.089842 107.80443 
L 207.322344 109.721535 
L 207.554847 109.721535 
L 207.787349 113.555745 
L 208.019852 115.472851 
L 208.484856 115.472851 
L 208.717359 128.892588 
L 208.949861 125.058377 
L 209.182364 128.892588 
L 209.414866 123.141272 
L 209.647368 136.561009 
L 209.879871 132.726798 
L 210.112373 138.478114 
L 210.344876 155.732061 
L 210.577378 155.732061 
L 210.80988 159.566272 
L 211.042383 161.483377 
L 211.274885 159.566272 
L 211.507388 159.566272 
L 211.73989 165.317588 
L 211.972392 161.483377 
L 212.437397 174.903114 
L 212.6699 169.151798 
L 212.902402 174.903114 
L 213.134904 176.820219 
L 213.367407 182.571535 
L 213.599909 176.820219 
L 213.832411 188.322851 
L 214.064914 182.571535 
L 214.297416 190.239956 
L 214.762421 186.405745 
L 214.994923 192.157061 
L 215.227426 188.322851 
L 215.692431 197.908377 
L 215.924933 199.825482 
L 216.157435 199.825482 
L 216.854943 205.576798 
L 217.319947 205.576798 
L 217.55245 201.742588 
L 217.784952 201.742588 
L 218.017455 211.328114 
L 218.249957 209.411009 
L 218.482459 205.576798 
L 218.714962 207.493903 
L 218.947464 205.576798 
L 219.179967 209.411009 
L 219.412469 211.328114 
L 219.644971 207.493903 
L 219.877474 213.245219 
L 220.109976 205.576798 
L 220.342478 209.411009 
L 220.574981 211.328114 
L 220.807483 205.576798 
L 221.039986 207.493903 
L 221.272488 203.659693 
L 221.50499 201.742588 
L 221.737493 201.742588 
L 221.969995 199.825482 
L 222.202498 195.991272 
L 222.435 199.825482 
L 222.667502 194.074166 
L 222.900005 192.157061 
L 223.132507 188.322851 
L 223.36501 192.157061 
L 223.597512 192.157061 
L 224.062517 188.322851 
L 224.295019 188.322851 
L 224.527522 184.48864 
L 224.760024 182.571535 
L 224.992526 178.737324 
L 225.457531 178.737324 
L 225.690033 172.986009 
L 225.922536 171.068903 
L 226.155038 174.903114 
L 226.387541 163.400482 
L 226.620043 167.234693 
L 226.852545 163.400482 
L 227.085048 153.814956 
L 227.31755 159.566272 
L 227.782555 140.395219 
L 228.015057 149.980745 
L 228.24756 140.395219 
L 228.480062 136.561009 
L 228.712565 144.22943 
L 228.945067 142.312324 
L 229.177569 138.478114 
L 229.410072 136.561009 
L 229.642574 130.809693 
L 229.875077 130.809693 
L 230.107579 132.726798 
L 230.340081 123.141272 
L 230.572584 123.141272 
L 230.805086 121.224166 
L 231.502593 109.721535 
L 231.735096 107.80443 
L 231.967598 107.80443 
L 232.2001 105.887324 
L 232.432603 98.218903 
L 232.665105 94.384693 
L 232.897608 92.467588 
L 233.13011 92.467588 
L 233.362612 84.799166 
L 233.595115 90.550482 
L 233.827617 92.467588 
L 234.06012 88.633377 
L 234.292622 88.633377 
L 234.525124 84.799166 
L 234.757627 84.799166 
L 234.990129 82.882061 
L 235.222632 84.799166 
L 235.455134 80.964956 
L 235.687636 82.882061 
L 235.920139 82.882061 
L 236.152641 80.964956 
L 236.385144 82.882061 
L 236.617646 90.550482 
L 236.850148 80.964956 
L 237.082651 77.130745 
L 237.315153 79.047851 
L 237.547656 79.047851 
L 237.780158 77.130745 
L 238.01266 84.799166 
L 238.245163 82.882061 
L 238.477665 82.882061 
L 238.710167 84.799166 
L 238.94267 90.550482 
L 239.175172 84.799166 
L 239.407675 82.882061 
L 239.640177 92.467588 
L 239.872679 92.467588 
L 240.105182 96.301798 
L 240.337684 96.301798 
L 240.570187 94.384693 
L 240.802689 100.136009 
L 241.035191 102.053114 
L 241.267694 98.218903 
L 241.500196 103.970219 
L 241.732699 102.053114 
L 241.965201 107.80443 
L 242.197703 105.887324 
L 242.430206 109.721535 
L 242.662708 111.63864 
L 242.895211 115.472851 
L 243.127713 117.389956 
L 243.360215 125.058377 
L 243.592718 119.307061 
L 244.057723 130.809693 
L 244.522727 126.975482 
L 244.75523 140.395219 
L 244.987732 130.809693 
L 245.452737 155.732061 
L 245.685239 159.566272 
L 245.917742 157.649166 
L 246.382746 157.649166 
L 246.615249 163.400482 
L 247.312756 169.151798 
L 247.545258 174.903114 
L 247.777761 171.068903 
L 248.010263 172.986009 
L 248.475268 182.571535 
L 248.70777 182.571535 
L 248.940273 184.48864 
L 249.172775 182.571535 
L 249.405278 190.239956 
L 249.63778 186.405745 
L 249.870282 192.157061 
L 250.102785 188.322851 
L 250.335287 197.908377 
L 250.800292 205.576798 
L 251.032794 197.908377 
L 251.265297 205.576798 
L 251.497799 197.908377 
L 251.730301 207.493903 
L 251.962804 205.576798 
L 252.427809 205.576798 
L 252.660311 199.825482 
L 252.892813 209.411009 
L 253.125316 209.411009 
L 253.357818 211.328114 
L 253.590321 211.328114 
L 253.822823 205.576798 
L 254.055325 211.328114 
L 254.287828 207.493903 
L 254.52033 209.411009 
L 254.752833 209.411009 
L 254.985335 211.328114 
L 255.217837 211.328114 
L 255.45034 207.493903 
L 255.682842 205.576798 
L 255.915345 207.493903 
L 256.147847 203.659693 
L 256.380349 209.411009 
L 256.612852 199.825482 
L 257.077856 195.991272 
L 257.310359 195.991272 
L 257.542861 201.742588 
L 257.775364 192.157061 
L 258.007866 195.991272 
L 258.240368 197.908377 
L 258.705373 184.48864 
L 258.937876 184.48864 
L 259.170378 186.405745 
L 259.40288 186.405745 
L 259.635383 180.65443 
L 259.867885 169.151798 
L 260.100388 174.903114 
L 260.565392 171.068903 
L 260.797895 171.068903 
L 261.030397 165.317588 
L 261.2629 169.151798 
L 261.495402 157.649166 
L 261.727904 165.317588 
L 261.960407 157.649166 
L 262.192909 163.400482 
L 262.657914 146.146535 
L 262.890416 149.980745 
L 263.122919 142.312324 
L 263.355421 138.478114 
L 263.587923 140.395219 
L 263.820426 136.561009 
L 264.052928 138.478114 
L 264.517933 128.892588 
L 264.750435 126.975482 
L 264.982938 126.975482 
L 265.21544 121.224166 
L 265.447943 123.141272 
L 265.680445 117.389956 
L 265.912947 119.307061 
L 266.14545 117.389956 
L 266.377952 109.721535 
L 266.610455 109.721535 
L 266.842957 105.887324 
L 267.075459 105.887324 
L 267.307962 96.301798 
L 267.772967 92.467588 
L 268.005469 92.467588 
L 268.237971 90.550482 
L 268.470474 96.301798 
L 268.702976 88.633377 
L 268.935478 84.799166 
L 269.167981 92.467588 
L 269.400483 84.799166 
L 269.632986 86.716272 
L 270.09799 82.882061 
L 270.330493 82.882061 
L 270.562995 80.964956 
L 270.795498 84.799166 
L 271.028 84.799166 
L 271.260502 80.964956 
L 271.493005 82.882061 
L 271.725507 79.047851 
L 271.95801 80.964956 
L 272.190512 79.047851 
L 272.423014 80.964956 
L 272.655517 80.964956 
L 272.888019 86.716272 
L 273.120522 84.799166 
L 273.353024 84.799166 
L 273.585526 88.633377 
L 273.818029 80.964956 
L 274.050531 84.799166 
L 274.283034 86.716272 
L 274.515536 90.550482 
L 274.748038 96.301798 
L 275.213043 88.633377 
L 275.678048 100.136009 
L 275.91055 98.218903 
L 276.143053 100.136009 
L 276.375555 103.970219 
L 276.84056 107.80443 
L 277.073062 107.80443 
L 277.305565 117.389956 
L 277.538067 107.80443 
L 277.770569 115.472851 
L 278.003072 119.307061 
L 278.235574 126.975482 
L 278.468077 121.224166 
L 278.700579 123.141272 
L 278.933081 126.975482 
L 279.165584 126.975482 
L 279.398086 134.643903 
L 279.630589 130.809693 
L 279.863091 134.643903 
L 280.095593 149.980745 
L 280.328096 157.649166 
L 280.560598 155.732061 
L 280.793101 159.566272 
L 281.025603 157.649166 
L 281.258105 167.234693 
L 281.490608 169.151798 
L 281.72311 165.317588 
L 282.188115 174.903114 
L 282.420617 172.986009 
L 282.65312 178.737324 
L 282.885622 176.820219 
L 283.118124 184.48864 
L 283.350627 182.571535 
L 283.583129 184.48864 
L 283.815632 182.571535 
L 284.048134 188.322851 
L 284.280636 190.239956 
L 284.513139 195.991272 
L 284.745641 192.157061 
L 284.978144 192.157061 
L 285.210646 195.991272 
L 285.675651 199.825482 
L 286.140656 199.825482 
L 286.60566 203.659693 
L 286.838163 199.825482 
L 287.070665 205.576798 
L 287.303168 207.493903 
L 287.53567 203.659693 
L 287.768172 209.411009 
L 288.000675 211.328114 
L 288.233177 205.576798 
L 288.465679 209.411009 
L 288.698182 209.411009 
L 288.930684 207.493903 
L 289.163187 201.742588 
L 289.628191 209.411009 
L 289.860694 205.576798 
L 290.093196 207.493903 
L 290.325699 199.825482 
L 290.558201 203.659693 
L 290.790703 199.825482 
L 291.023206 203.659693 
L 291.255708 201.742588 
L 291.488211 195.991272 
L 291.720713 207.493903 
L 291.953215 201.742588 
L 292.185718 201.742588 
L 292.650723 194.074166 
L 292.883225 197.908377 
L 293.115727 192.157061 
L 293.34823 190.239956 
L 293.580732 180.65443 
L 293.813234 192.157061 
L 294.045737 184.48864 
L 294.510742 180.65443 
L 294.743244 176.820219 
L 294.975746 176.820219 
L 295.905756 169.151798 
L 296.370761 161.483377 
L 296.603263 155.732061 
L 296.835766 159.566272 
L 297.068268 153.814956 
L 297.30077 153.814956 
L 297.533273 151.897851 
L 297.765775 148.06364 
L 297.998278 142.312324 
L 298.23078 148.06364 
L 298.463282 144.22943 
L 298.695785 134.643903 
L 298.928287 138.478114 
L 299.16079 130.809693 
L 299.393292 134.643903 
L 299.625794 130.809693 
L 299.858297 123.141272 
L 300.090799 126.975482 
L 300.323301 117.389956 
L 300.555804 119.307061 
L 300.788306 113.555745 
L 301.020809 115.472851 
L 301.253311 107.80443 
L 301.485813 103.970219 
L 301.718316 107.80443 
L 302.183321 94.384693 
L 302.415823 100.136009 
L 302.648325 90.550482 
L 302.880828 94.384693 
L 303.11333 96.301798 
L 303.345833 86.716272 
L 303.578335 82.882061 
L 303.810837 90.550482 
L 304.04334 86.716272 
L 304.275842 84.799166 
L 304.508345 86.716272 
L 304.740847 84.799166 
L 304.973349 80.964956 
L 305.205852 79.047851 
L 305.438354 79.047851 
L 305.903359 82.882061 
L 306.135861 88.633377 
L 306.368364 82.882061 
L 306.600866 80.964956 
L 306.833368 82.882061 
L 307.065871 80.964956 
L 307.298373 82.882061 
L 307.530876 82.882061 
L 307.763378 86.716272 
L 307.99588 84.799166 
L 308.228383 84.799166 
L 308.460885 88.633377 
L 308.693388 84.799166 
L 308.92589 84.799166 
L 309.158392 88.633377 
L 309.390895 88.633377 
L 309.623397 96.301798 
L 310.088402 92.467588 
L 310.320904 96.301798 
L 310.553407 94.384693 
L 311.018412 105.887324 
L 311.250914 100.136009 
L 311.715919 109.721535 
L 311.948421 107.80443 
L 312.413426 111.63864 
L 312.645928 115.472851 
L 312.878431 113.555745 
L 313.343435 123.141272 
L 313.575938 121.224166 
L 313.80844 126.975482 
L 314.040943 126.975482 
L 314.505947 130.809693 
L 314.73845 136.561009 
L 314.970952 149.980745 
L 315.203455 151.897851 
L 315.435957 155.732061 
L 315.668459 157.649166 
L 315.900962 163.400482 
L 316.133464 165.317588 
L 316.365967 159.566272 
L 316.598469 169.151798 
L 316.830971 167.234693 
L 317.063474 167.234693 
L 317.295976 172.986009 
L 317.528479 171.068903 
L 317.760981 180.65443 
L 318.225986 180.65443 
L 318.458488 182.571535 
L 318.69099 186.405745 
L 318.923493 188.322851 
L 319.388498 188.322851 
L 319.621 194.074166 
L 319.853502 188.322851 
L 320.086005 195.991272 
L 320.318507 199.825482 
L 320.55101 194.074166 
L 320.783512 199.825482 
L 321.016014 197.908377 
L 321.248517 199.825482 
L 321.481019 203.659693 
L 321.946024 207.493903 
L 322.178526 205.576798 
L 322.411029 207.493903 
L 322.643531 201.742588 
L 322.876034 211.328114 
L 323.108536 211.328114 
L 323.341038 205.576798 
L 323.573541 207.493903 
L 323.806043 205.576798 
L 324.038546 211.328114 
L 324.271048 213.245219 
L 324.50355 213.245219 
L 324.736053 207.493903 
L 324.968555 205.576798 
L 325.201057 209.411009 
L 325.43356 199.825482 
L 325.666062 211.328114 
L 325.898565 203.659693 
L 326.131067 205.576798 
L 326.363569 201.742588 
L 326.596072 203.659693 
L 326.828574 195.991272 
L 327.061077 195.991272 
L 327.293579 201.742588 
L 327.991086 190.239956 
L 328.223589 188.322851 
L 328.456091 184.48864 
L 328.688593 194.074166 
L 328.921096 190.239956 
L 329.153598 188.322851 
L 329.386101 180.65443 
L 329.618603 178.737324 
L 329.851105 180.65443 
L 330.083608 174.903114 
L 330.31611 174.903114 
L 330.548613 169.151798 
L 330.781115 169.151798 
L 331.013617 161.483377 
L 331.24612 159.566272 
L 331.478622 163.400482 
L 331.711124 159.566272 
L 331.943627 157.649166 
L 332.176129 153.814956 
L 332.408632 153.814956 
L 332.641134 149.980745 
L 333.106139 140.395219 
L 333.338641 144.22943 
L 333.571144 128.892588 
L 333.803646 132.726798 
L 334.036148 130.809693 
L 334.268651 130.809693 
L 334.501153 132.726798 
L 334.733656 130.809693 
L 334.966158 123.141272 
L 335.19866 123.141272 
L 335.431163 119.307061 
L 335.663665 117.389956 
L 335.896168 109.721535 
L 336.12867 105.887324 
L 336.361172 109.721535 
L 336.593675 103.970219 
L 336.826177 103.970219 
L 337.05868 98.218903 
L 337.291182 98.218903 
L 337.523684 92.467588 
L 337.756187 90.550482 
L 337.988689 90.550482 
L 338.221191 94.384693 
L 338.453694 90.550482 
L 338.686196 82.882061 
L 338.918699 88.633377 
L 339.151201 86.716272 
L 339.383703 86.716272 
L 339.616206 84.799166 
L 339.848708 80.964956 
L 340.081211 84.799166 
L 340.313713 84.799166 
L 340.546215 82.882061 
L 340.778718 88.633377 
L 341.01122 84.799166 
L 341.243723 82.882061 
L 341.476225 84.799166 
L 341.708727 79.047851 
L 341.94123 84.799166 
L 342.173732 84.799166 
L 342.406235 82.882061 
L 342.638737 84.799166 
L 342.871239 79.047851 
L 343.336244 92.467588 
L 343.568746 84.799166 
L 343.801249 82.882061 
L 344.266254 92.467588 
L 344.498756 96.301798 
L 344.731258 94.384693 
L 344.963761 90.550482 
L 345.428766 100.136009 
L 346.126273 100.136009 
L 346.358775 103.970219 
L 346.591278 105.887324 
L 346.82378 109.721535 
L 347.056282 109.721535 
L 347.521287 117.389956 
L 347.986292 121.224166 
L 348.218794 119.307061 
L 348.683799 128.892588 
L 348.916302 132.726798 
L 349.148804 130.809693 
L 349.613809 130.809693 
L 349.846311 136.561009 
L 350.078813 153.814956 
L 350.311316 151.897851 
L 350.543818 161.483377 
L 350.776321 151.897851 
L 351.008823 159.566272 
L 351.241325 161.483377 
L 351.473828 161.483377 
L 351.938833 165.317588 
L 352.403837 174.903114 
L 352.63634 172.986009 
L 353.101345 182.571535 
L 353.333847 182.571535 
L 353.566349 180.65443 
L 353.798852 186.405745 
L 354.031354 186.405745 
L 354.496359 194.074166 
L 354.728861 190.239956 
L 354.961364 195.991272 
L 355.193866 195.991272 
L 355.426369 197.908377 
L 355.658871 195.991272 
L 355.891373 192.157061 
L 356.123876 201.742588 
L 356.356378 205.576798 
L 356.58888 211.328114 
L 356.821383 207.493903 
L 357.053885 207.493903 
L 357.51889 203.659693 
L 357.751392 207.493903 
L 357.983895 207.493903 
L 358.216397 211.328114 
L 358.4489 209.411009 
L 358.681402 211.328114 
L 358.913904 211.328114 
L 359.378909 207.493903 
L 359.611412 203.659693 
L 359.843914 207.493903 
L 360.076416 203.659693 
L 360.308919 203.659693 
L 360.541421 205.576798 
L 360.773924 197.908377 
L 361.006426 199.825482 
L 361.238928 203.659693 
L 361.471431 201.742588 
L 362.168938 201.742588 
L 362.866445 190.239956 
L 363.098947 184.48864 
L 363.33145 190.239956 
L 363.563952 186.405745 
L 363.796455 186.405745 
L 364.028957 180.65443 
L 364.261459 180.65443 
L 364.493962 176.820219 
L 364.726464 171.068903 
L 364.958967 178.737324 
L 365.656474 167.234693 
L 366.353981 161.483377 
L 366.586483 161.483377 
L 366.818986 165.317588 
L 367.051488 146.146535 
L 367.283991 157.649166 
L 367.516493 149.980745 
L 367.748995 148.06364 
L 367.981498 142.312324 
L 368.214 140.395219 
L 368.446502 136.561009 
L 368.679005 130.809693 
L 369.14401 134.643903 
L 369.376512 130.809693 
L 369.609014 123.141272 
L 369.841517 125.058377 
L 370.074019 117.389956 
L 370.306522 119.307061 
L 370.539024 111.63864 
L 370.771526 113.555745 
L 371.004029 111.63864 
L 371.236531 105.887324 
L 371.469034 103.970219 
L 371.701536 105.887324 
L 371.934038 100.136009 
L 372.166541 90.550482 
L 372.399043 94.384693 
L 372.631546 88.633377 
L 372.864048 92.467588 
L 373.09655 84.799166 
L 373.329053 86.716272 
L 373.561555 92.467588 
L 373.794058 82.882061 
L 374.02656 80.964956 
L 374.259062 86.716272 
L 374.491565 80.964956 
L 374.956569 80.964956 
L 375.189072 79.047851 
L 375.421574 82.882061 
L 375.654077 79.047851 
L 375.886579 82.882061 
L 376.119081 84.799166 
L 376.351584 84.799166 
L 376.584086 80.964956 
L 376.816589 90.550482 
L 377.049091 84.799166 
L 377.514096 84.799166 
L 377.746598 79.047851 
L 377.979101 80.964956 
L 378.211603 86.716272 
L 378.444105 84.799166 
L 378.676608 88.633377 
L 378.90911 90.550482 
L 379.141613 94.384693 
L 379.374115 92.467588 
L 379.83912 96.301798 
L 380.071622 100.136009 
L 380.304125 100.136009 
L 380.536627 102.053114 
L 380.769129 96.301798 
L 381.001632 98.218903 
L 381.234134 105.887324 
L 381.466636 105.887324 
L 381.699139 109.721535 
L 381.931641 107.80443 
L 382.396646 115.472851 
L 382.629148 115.472851 
L 382.861651 119.307061 
L 383.094153 121.224166 
L 383.326656 125.058377 
L 383.559158 125.058377 
L 383.79166 138.478114 
L 384.024163 134.643903 
L 384.256665 136.561009 
L 384.489168 151.897851 
L 384.72167 149.980745 
L 384.954172 159.566272 
L 385.186675 151.897851 
L 385.419177 161.483377 
L 385.65168 157.649166 
L 385.884182 163.400482 
L 386.116684 157.649166 
L 386.349187 161.483377 
L 386.581689 172.986009 
L 386.814191 167.234693 
L 387.046694 176.820219 
L 387.279196 172.986009 
L 387.511699 176.820219 
L 387.744201 176.820219 
L 387.976703 178.737324 
L 388.209206 182.571535 
L 388.441708 184.48864 
L 388.674211 190.239956 
L 388.906713 188.322851 
L 389.139215 188.322851 
L 389.371718 192.157061 
L 389.60422 192.157061 
L 389.836723 194.074166 
L 390.069225 197.908377 
L 390.301727 195.991272 
L 390.53423 195.991272 
L 390.999235 199.825482 
L 391.231737 205.576798 
L 391.696742 205.576798 
L 391.929244 201.742588 
L 392.161747 205.576798 
L 392.626751 209.411009 
L 392.859254 207.493903 
L 393.091756 209.411009 
L 393.324258 207.493903 
L 393.556761 207.493903 
L 393.789263 203.659693 
L 394.254268 207.493903 
L 394.719273 207.493903 
L 394.951775 209.411009 
L 395.184278 203.659693 
L 395.41678 209.411009 
L 395.881785 205.576798 
L 396.114287 201.742588 
L 396.34679 195.991272 
L 396.579292 199.825482 
L 396.811794 194.074166 
L 396.811794 194.074166 
" clip-path="url(#p4829488c45)" style="fill: none; stroke: #1f77b4; stroke-opacity: 0.5; stroke-width: 1.5; stroke-linecap: square"/>
   </g>
   <g id="patch_7">
    <path d="M 48.08 302.2 
L 48.08 10.8 
" style="fill: none; stroke: #000000; stroke-width: 0.8; stroke-linejoin: miter; stroke-linecap: square"/>
   </g>
   <g id="patch_8">
    <path d="M 396.79 302.2 
L 396.79 10.8 
" style="fill: none; stroke: #000000; stroke-width: 0.8; stroke-linejoin: miter; stroke-linecap: square"/>
   </g>
   <g id="patch_9">
    <path d="M 48.08 302.2 
L 396.79 302.2 
" style="fill: none; stroke: #000000; stroke-width: 0.8; stroke-linejoin: miter; stroke-linecap: square"/>
   </g>
   <g id="patch_10">
    <path d="M 48.08 10.8 
L 396.79 10.8 
" style="fill: none; stroke: #000000; stroke-width: 0.8; stroke-linejoin: miter; stroke-linecap: square"/>
   </g>
  </g>
  <g id="legend_1">
   <g id="patch_11">
    <path d="M 384.509375 37.35625 
L 453.8 37.35625 
Q 455.8 37.35625 455.8 35.35625 
L 455.8 7 
Q 455.8 5 453.8 5 
L 384.509375 5 
Q 382.509375 5 382.509375 7 
L 382.509375 35.35625 
Q 382.509375 37.35625 384.509375 37.35625 
z
" style="fill: #ffffff; opacity: 0.8; stroke: #cccccc; stroke-linejoin: miter"/>
   </g>
   <g id="line2d_23">
    <path d="M 386.509375 13.098437 
L 396.509375 13.098437 
L 406.509375 13.098437 
" style="fill: none; stroke: #ff7f0e; stroke-width: 1.5; stroke-linecap: square"/>
   </g>
   <g id="text_24">
    <!-- System -->
    <g transform="translate(414.509375 16.598437) scale(0.1 -0.1)">
     <defs>
      <path id="DejaVuSans-53" d="M 3425 4513 
L 3425 3897 
Q 3066 4069 2747 4153 
Q 2428 4238 2131 4238 
Q 1616 4238 1336 4038 
Q 1056 3838 1056 3469 
Q 1056 3159 1242 3001 
Q 1428 2844 1947 2747 
L 2328 2669 
Q 3034 2534 3370 2195 
Q 3706 1856 3706 1288 
Q 3706 609 3251 259 
Q 2797 -91 1919 -91 
Q 1588 -91 1214 -16 
Q 841 59 441 206 
L 441 856 
Q 825 641 1194 531 
Q 1563 422 1919 422 
Q 2459 422 2753 634 
Q 3047 847 3047 1241 
Q 3047 1584 2836 1778 
Q 2625 1972 2144 2069 
L 1759 2144 
Q 1053 2284 737 2584 
Q 422 2884 422 3419 
Q 422 4038 858 4394 
Q 1294 4750 2059 4750 
Q 2388 4750 2728 4690 
Q 3069 4631 3425 4513 
z
" transform="scale(0.015625)"/>
      <path id="DejaVuSans-79" d="M 2059 -325 
Q 1816 -950 1584 -1140 
Q 1353 -1331 966 -1331 
L 506 -1331 
L 506 -850 
L 844 -850 
Q 1081 -850 1212 -737 
Q 1344 -625 1503 -206 
L 1606 56 
L 191 3500 
L 800 3500 
L 1894 763 
L 2988 3500 
L 3597 3500 
L 2059 -325 
z
" transform="scale(0.015625)"/>
      <path id="DejaVuSans-74" d="M 1172 4494 
L 1172 3500 
L 2356 3500 
L 2356 3053 
L 1172 3053 
L 1172 1153 
Q 1172 725 1289 603 
Q 1406 481 1766 481 
L 2356 481 
L 2356 0 
L 1766 0 
Q 1100 0 847 248 
Q 594 497 594 1153 
L 594 3053 
L 172 3053 
L 172 3500 
L 594 3500 
L 594 4494 
L 1172 4494 
z
" transform="scale(0.015625)"/>
      <path id="DejaVuSans-65" d="M 3597 1894 
L 3597 1613 
L 953 1613 
Q 991 1019 1311 708 
Q 1631 397 2203 397 
Q 2534 397 2845 478 
Q 3156 559 3463 722 
L 3463 178 
Q 3153 47 2828 -22 
Q 2503 -91 2169 -91 
Q 1331 -91 842 396 
Q 353 884 353 1716 
Q 353 2575 817 3079 
Q 1281 3584 2069 3584 
Q 2775 3584 3186 3129 
Q 3597 2675 3597 1894 
z
M 3022 2063 
Q 3016 2534 2758 2815 
Q 2500 3097 2075 3097 
Q 1594 3097 1305 2825 
Q 1016 2553 972 2059 
L 3022 2063 
z
" transform="scale(0.015625)"/>
      <path id="DejaVuSans-6d" d="M 3328 2828 
Q 3544 3216 3844 3400 
Q 4144 3584 4550 3584 
Q 5097 3584 5394 3201 
Q 5691 2819 5691 2113 
L 5691 0 
L 5113 0 
L 5113 2094 
Q 5113 2597 4934 2840 
Q 4756 3084 4391 3084 
Q 3944 3084 3684 2787 
Q 3425 2491 3425 1978 
L 3425 0 
L 2847 0 
L 2847 2094 
Q 2847 2600 2669 2842 
Q 2491 3084 2119 3084 
Q 1678 3084 1418 2786 
Q 1159 2488 1159 1978 
L 1159 0 
L 581 0 
L 581 3500 
L 1159 3500 
L 1159 2956 
Q 1356 3278 1631 3431 
Q 1906 3584 2284 3584 
Q 2666 3584 2933 3390 
Q 3200 3197 3328 2828 
z
" transform="scale(0.015625)"/>
     </defs>
     <use xlink:href="#DejaVuSans-53"/>
     <use xlink:href="#DejaVuSans-79" x="63.476562"/>
     <use xlink:href="#DejaVuSans-73" x="122.65625"/>
     <use xlink:href="#DejaVuSans-74" x="174.755859"/>
     <use xlink:href="#DejaVuSans-65" x="213.964844"/>
     <use xlink:href="#DejaVuSans-6d" x="275.488281"/>
    </g>
   </g>
   <g id="line2d_24">
    <path d="M 386.509375 27.776563 
L 396.509375 27.776563 
L 406.509375 27.776563 
" style="fill: none; stroke: #1f77b4; stroke-opacity: 0.5; stroke-width: 1.5; stroke-linecap: square"/>
   </g>
   <g id="text_25">
    <!-- Input -->
    <g transform="translate(414.509375 31.276563) scale(0.1 -0.1)">
     <defs>
      <path id="DejaVuSans-49" d="M 628 4666 
L 1259 4666 
L 1259 0 
L 628 0 
L 628 4666 
z
" transform="scale(0.015625)"/>
      <path id="DejaVuSans-6e" d="M 3513 2113 
L 3513 0 
L 2938 0 
L 2938 2094 
Q 2938 2591 2744 2837 
Q 2550 3084 2163 3084 
Q 1697 3084 1428 2787 
Q 1159 2491 1159 1978 
L 1159 0 
L 581 0 
L 581 3500 
L 1159 3500 
L 1159 2956 
Q 1366 3272 1645 3428 
Q 1925 3584 2291 3584 
Q 2894 3584 3203 3211 
Q 3513 2838 3513 2113 
z
" transform="scale(0.015625)"/>
      <path id="DejaVuSans-70" d="M 1159 525 
L 1159 -1331 
L 581 -1331 
L 581 3500 
L 1159 3500 
L 1159 2969 
Q 1341 3281 1617 3432 
Q 1894 3584 2278 3584 
Q 2916 3584 3314 3078 
Q 3713 2572 3713 1747 
Q 3713 922 3314 415 
Q 2916 -91 2278 -91 
Q 1894 -91 1617 61 
Q 1341 213 1159 525 
z
M 3116 1747 
Q 3116 2381 2855 2742 
Q 2594 3103 2138 3103 
Q 1681 3103 1420 2742 
Q 1159 2381 1159 1747 
Q 1159 1113 1420 752 
Q 1681 391 2138 391 
Q 2594 391 2855 752 
Q 3116 1113 3116 1747 
z
" transform="scale(0.015625)"/>
      <path id="DejaVuSans-75" d="M 544 1381 
L 544 3500 
L 1119 3500 
L 1119 1403 
Q 1119 906 1312 657 
Q 1506 409 1894 409 
Q 2359 409 2629 706 
Q 2900 1003 2900 1516 
L 2900 3500 
L 3475 3500 
L 3475 0 
L 2900 0 
L 2900 538 
Q 2691 219 2414 64 
Q 2138 -91 1772 -91 
Q 1169 -91 856 284 
Q 544 659 544 1381 
z
M 1991 3584 
L 1991 3584 
z
" transform="scale(0.015625)"/>
     </defs>
     <use xlink:href="#DejaVuSans-49"/>
     <use xlink:href="#DejaVuSans-6e" x="29.492188"/>
     <use xlink:href="#DejaVuSans-70" x="92.871094"/>
     <use xlink:href="#DejaVuSans-75" x="156.347656"/>
     <use xlink:href="#DejaVuSans-74" x="219.726562"/>
    </g>
   </g>
  </g>
 </g>
 <defs>
  <clipPath id="p4829488c45">
   <rect x="48.08" y="10.8" width="348.71" height="291.4"/>
  </clipPath>
 </defs>
</svg>
