<?xml version="1.0" encoding="utf-8" standalone="no"?>
<!DOCTYPE svg PUBLIC "-//W3C//DTD SVG 1.1//EN"
  "http://www.w3.org/Graphics/SVG/1.1/DTD/svg11.dtd">
<svg xmlns:xlink="http://www.w3.org/1999/xlink" width="460.8pt" height="345.6pt" viewBox="0 0 460.8 345.6" xmlns="http://www.w3.org/2000/svg" version="1.1">
 <metadata>
  <rdf:RDF xmlns:dc="http://purl.org/dc/elements/1.1/" xmlns:cc="http://creativecommons.org/ns#" xmlns:rdf="http://www.w3.org/1999/02/22-rdf-syntax-ns#">
   <cc:Work>
    <dc:type rdf:resource="http://purl.org/dc/dcmitype/StillImage"/>
    <dc:date>2024-05-07T09:13:40.926832</dc:date>
    <dc:format>image/svg+xml</dc:format>
    <dc:creator>
     <cc:Agent>
      <dc:title>Matplotlib v3.7.1, https://matplotlib.org/</dc:title>
     </cc:Agent>
    </dc:creator>
   </cc:Work>
  </rdf:RDF>
 </metadata>
 <defs>
  <style type="text/css">*{stroke-linejoin: round; stroke-linecap: butt}</style>
 </defs>
 <g id="figure_1">
  <g id="patch_1">
   <path d="M 0 345.6 
L 460.8 345.6 
L 460.8 0 
L 0 0 
z
" style="fill: #ffffff"/>
  </g>
  <g id="axes_1">
   <g id="patch_2">
    <path d="M 49.088 302.2 
L 389.392 302.2 
L 389.392 10.8 
L 49.088 10.8 
z
" style="fill: #ffffff"/>
   </g>
   <g id="matplotlib.axis_1">
    <g id="xtick_1">
     <g id="line2d_1">
      <defs>
       <path id="mfb8394492d" d="M 0 0 
L 0 3.5 
" style="stroke: #000000; stroke-width: 0.8"/>
      </defs>
      <g>
       <use xlink:href="#mfb8394492d" x="83.203476" y="302.2" style="stroke: #000000; stroke-width: 0.8"/>
      </g>
     </g>
     <g id="text_1">
      <!-- 0.996 -->
      <g transform="translate(68.889414 316.798437) scale(0.1 -0.1)">
       <defs>
        <path id="DejaVuSans-30" d="M 2034 4250 
Q 1547 4250 1301 3770 
Q 1056 3291 1056 2328 
Q 1056 1369 1301 889 
Q 1547 409 2034 409 
Q 2525 409 2770 889 
Q 3016 1369 3016 2328 
Q 3016 3291 2770 3770 
Q 2525 4250 2034 4250 
z
M 2034 4750 
Q 2819 4750 3233 4129 
Q 3647 3509 3647 2328 
Q 3647 1150 3233 529 
Q 2819 -91 2034 -91 
Q 1250 -91 836 529 
Q 422 1150 422 2328 
Q 422 3509 836 4129 
Q 1250 4750 2034 4750 
z
" transform="scale(0.015625)"/>
        <path id="DejaVuSans-2e" d="M 684 794 
L 1344 794 
L 1344 0 
L 684 0 
L 684 794 
z
" transform="scale(0.015625)"/>
        <path id="DejaVuSans-39" d="M 703 97 
L 703 672 
Q 941 559 1184 500 
Q 1428 441 1663 441 
Q 2288 441 2617 861 
Q 2947 1281 2994 2138 
Q 2813 1869 2534 1725 
Q 2256 1581 1919 1581 
Q 1219 1581 811 2004 
Q 403 2428 403 3163 
Q 403 3881 828 4315 
Q 1253 4750 1959 4750 
Q 2769 4750 3195 4129 
Q 3622 3509 3622 2328 
Q 3622 1225 3098 567 
Q 2575 -91 1691 -91 
Q 1453 -91 1209 -44 
Q 966 3 703 97 
z
M 1959 2075 
Q 2384 2075 2632 2365 
Q 2881 2656 2881 3163 
Q 2881 3666 2632 3958 
Q 2384 4250 1959 4250 
Q 1534 4250 1286 3958 
Q 1038 3666 1038 3163 
Q 1038 2656 1286 2365 
Q 1534 2075 1959 2075 
z
" transform="scale(0.015625)"/>
        <path id="DejaVuSans-36" d="M 2113 2584 
Q 1688 2584 1439 2293 
Q 1191 2003 1191 1497 
Q 1191 994 1439 701 
Q 1688 409 2113 409 
Q 2538 409 2786 701 
Q 3034 994 3034 1497 
Q 3034 2003 2786 2293 
Q 2538 2584 2113 2584 
z
M 3366 4563 
L 3366 3988 
Q 3128 4100 2886 4159 
Q 2644 4219 2406 4219 
Q 1781 4219 1451 3797 
Q 1122 3375 1075 2522 
Q 1259 2794 1537 2939 
Q 1816 3084 2150 3084 
Q 2853 3084 3261 2657 
Q 3669 2231 3669 1497 
Q 3669 778 3244 343 
Q 2819 -91 2113 -91 
Q 1303 -91 875 529 
Q 447 1150 447 2328 
Q 447 3434 972 4092 
Q 1497 4750 2381 4750 
Q 2619 4750 2861 4703 
Q 3103 4656 3366 4563 
z
" transform="scale(0.015625)"/>
       </defs>
       <use xlink:href="#DejaVuSans-30"/>
       <use xlink:href="#DejaVuSans-2e" x="63.623047"/>
       <use xlink:href="#DejaVuSans-39" x="95.410156"/>
       <use xlink:href="#DejaVuSans-39" x="159.033203"/>
       <use xlink:href="#DejaVuSans-36" x="222.65625"/>
      </g>
     </g>
    </g>
    <g id="xtick_2">
     <g id="line2d_2">
      <g>
       <use xlink:href="#mfb8394492d" x="151.264276" y="302.2" style="stroke: #000000; stroke-width: 0.8"/>
      </g>
     </g>
     <g id="text_2">
      <!-- 0.998 -->
      <g transform="translate(136.950214 316.798437) scale(0.1 -0.1)">
       <defs>
        <path id="DejaVuSans-38" d="M 2034 2216 
Q 1584 2216 1326 1975 
Q 1069 1734 1069 1313 
Q 1069 891 1326 650 
Q 1584 409 2034 409 
Q 2484 409 2743 651 
Q 3003 894 3003 1313 
Q 3003 1734 2745 1975 
Q 2488 2216 2034 2216 
z
M 1403 2484 
Q 997 2584 770 2862 
Q 544 3141 544 3541 
Q 544 4100 942 4425 
Q 1341 4750 2034 4750 
Q 2731 4750 3128 4425 
Q 3525 4100 3525 3541 
Q 3525 3141 3298 2862 
Q 3072 2584 2669 2484 
Q 3125 2378 3379 2068 
Q 3634 1759 3634 1313 
Q 3634 634 3220 271 
Q 2806 -91 2034 -91 
Q 1263 -91 848 271 
Q 434 634 434 1313 
Q 434 1759 690 2068 
Q 947 2378 1403 2484 
z
M 1172 3481 
Q 1172 3119 1398 2916 
Q 1625 2713 2034 2713 
Q 2441 2713 2670 2916 
Q 2900 3119 2900 3481 
Q 2900 3844 2670 4047 
Q 2441 4250 2034 4250 
Q 1625 4250 1398 4047 
Q 1172 3844 1172 3481 
z
" transform="scale(0.015625)"/>
       </defs>
       <use xlink:href="#DejaVuSans-30"/>
       <use xlink:href="#DejaVuSans-2e" x="63.623047"/>
       <use xlink:href="#DejaVuSans-39" x="95.410156"/>
       <use xlink:href="#DejaVuSans-39" x="159.033203"/>
       <use xlink:href="#DejaVuSans-38" x="222.65625"/>
      </g>
     </g>
    </g>
    <g id="xtick_3">
     <g id="line2d_3">
      <g>
       <use xlink:href="#mfb8394492d" x="219.325076" y="302.2" style="stroke: #000000; stroke-width: 0.8"/>
      </g>
     </g>
     <g id="text_3">
      <!-- 1.000 -->
      <g transform="translate(205.011014 316.798437) scale(0.1 -0.1)">
       <defs>
        <path id="DejaVuSans-31" d="M 794 531 
L 1825 531 
L 1825 4091 
L 703 3866 
L 703 4441 
L 1819 4666 
L 2450 4666 
L 2450 531 
L 3481 531 
L 3481 0 
L 794 0 
L 794 531 
z
" transform="scale(0.015625)"/>
       </defs>
       <use xlink:href="#DejaVuSans-31"/>
       <use xlink:href="#DejaVuSans-2e" x="63.623047"/>
       <use xlink:href="#DejaVuSans-30" x="95.410156"/>
       <use xlink:href="#DejaVuSans-30" x="159.033203"/>
       <use xlink:href="#DejaVuSans-30" x="222.65625"/>
      </g>
     </g>
    </g>
    <g id="xtick_4">
     <g id="line2d_4">
      <g>
       <use xlink:href="#mfb8394492d" x="287.385876" y="302.2" style="stroke: #000000; stroke-width: 0.8"/>
      </g>
     </g>
     <g id="text_4">
      <!-- 1.002 -->
      <g transform="translate(273.071814 316.798437) scale(0.1 -0.1)">
       <defs>
        <path id="DejaVuSans-32" d="M 1228 531 
L 3431 531 
L 3431 0 
L 469 0 
L 469 531 
Q 828 903 1448 1529 
Q 2069 2156 2228 2338 
Q 2531 2678 2651 2914 
Q 2772 3150 2772 3378 
Q 2772 3750 2511 3984 
Q 2250 4219 1831 4219 
Q 1534 4219 1204 4116 
Q 875 4013 500 3803 
L 500 4441 
Q 881 4594 1212 4672 
Q 1544 4750 1819 4750 
Q 2544 4750 2975 4387 
Q 3406 4025 3406 3419 
Q 3406 3131 3298 2873 
Q 3191 2616 2906 2266 
Q 2828 2175 2409 1742 
Q 1991 1309 1228 531 
z
" transform="scale(0.015625)"/>
       </defs>
       <use xlink:href="#DejaVuSans-31"/>
       <use xlink:href="#DejaVuSans-2e" x="63.623047"/>
       <use xlink:href="#DejaVuSans-30" x="95.410156"/>
       <use xlink:href="#DejaVuSans-30" x="159.033203"/>
       <use xlink:href="#DejaVuSans-32" x="222.65625"/>
      </g>
     </g>
    </g>
    <g id="xtick_5">
     <g id="line2d_5">
      <g>
       <use xlink:href="#mfb8394492d" x="355.446676" y="302.2" style="stroke: #000000; stroke-width: 0.8"/>
      </g>
     </g>
     <g id="text_5">
      <!-- 1.004 -->
      <g transform="translate(341.132614 316.798437) scale(0.1 -0.1)">
       <defs>
        <path id="DejaVuSans-34" d="M 2419 4116 
L 825 1625 
L 2419 1625 
L 2419 4116 
z
M 2253 4666 
L 3047 4666 
L 3047 1625 
L 3713 1625 
L 3713 1100 
L 3047 1100 
L 3047 0 
L 2419 0 
L 2419 1100 
L 313 1100 
L 313 1709 
L 2253 4666 
z
" transform="scale(0.015625)"/>
       </defs>
       <use xlink:href="#DejaVuSans-31"/>
       <use xlink:href="#DejaVuSans-2e" x="63.623047"/>
       <use xlink:href="#DejaVuSans-30" x="95.410156"/>
       <use xlink:href="#DejaVuSans-30" x="159.033203"/>
       <use xlink:href="#DejaVuSans-34" x="222.65625"/>
      </g>
     </g>
    </g>
    <g id="text_6">
     <!-- $t$ (s) -->
     <g transform="translate(209.14 330.476562) scale(0.1 -0.1)">
      <defs>
       <path id="DejaVuSans-Oblique-74" d="M 2706 3500 
L 2619 3053 
L 1472 3053 
L 1100 1153 
Q 1081 1047 1072 975 
Q 1063 903 1063 863 
Q 1063 663 1183 572 
Q 1303 481 1569 481 
L 2150 481 
L 2053 0 
L 1503 0 
Q 991 0 739 200 
Q 488 400 488 806 
Q 488 878 497 964 
Q 506 1050 525 1153 
L 897 3053 
L 409 3053 
L 500 3500 
L 978 3500 
L 1172 4494 
L 1747 4494 
L 1556 3500 
L 2706 3500 
z
" transform="scale(0.015625)"/>
       <path id="DejaVuSans-20" transform="scale(0.015625)"/>
       <path id="DejaVuSans-28" d="M 1984 4856 
Q 1566 4138 1362 3434 
Q 1159 2731 1159 2009 
Q 1159 1288 1364 580 
Q 1569 -128 1984 -844 
L 1484 -844 
Q 1016 -109 783 600 
Q 550 1309 550 2009 
Q 550 2706 781 3412 
Q 1013 4119 1484 4856 
L 1984 4856 
z
" transform="scale(0.015625)"/>
       <path id="DejaVuSans-73" d="M 2834 3397 
L 2834 2853 
Q 2591 2978 2328 3040 
Q 2066 3103 1784 3103 
Q 1356 3103 1142 2972 
Q 928 2841 928 2578 
Q 928 2378 1081 2264 
Q 1234 2150 1697 2047 
L 1894 2003 
Q 2506 1872 2764 1633 
Q 3022 1394 3022 966 
Q 3022 478 2636 193 
Q 2250 -91 1575 -91 
Q 1294 -91 989 -36 
Q 684 19 347 128 
L 347 722 
Q 666 556 975 473 
Q 1284 391 1588 391 
Q 1994 391 2212 530 
Q 2431 669 2431 922 
Q 2431 1156 2273 1281 
Q 2116 1406 1581 1522 
L 1381 1569 
Q 847 1681 609 1914 
Q 372 2147 372 2553 
Q 372 3047 722 3315 
Q 1072 3584 1716 3584 
Q 2034 3584 2315 3537 
Q 2597 3491 2834 3397 
z
" transform="scale(0.015625)"/>
       <path id="DejaVuSans-29" d="M 513 4856 
L 1013 4856 
Q 1481 4119 1714 3412 
Q 1947 2706 1947 2009 
Q 1947 1309 1714 600 
Q 1481 -109 1013 -844 
L 513 -844 
Q 928 -128 1133 580 
Q 1338 1288 1338 2009 
Q 1338 2731 1133 3434 
Q 928 4138 513 4856 
z
" transform="scale(0.015625)"/>
      </defs>
      <use xlink:href="#DejaVuSans-Oblique-74" transform="translate(0 0.125)"/>
      <use xlink:href="#DejaVuSans-20" transform="translate(39.208984 0.125)"/>
      <use xlink:href="#DejaVuSans-28" transform="translate(70.996094 0.125)"/>
      <use xlink:href="#DejaVuSans-73" transform="translate(110.009766 0.125)"/>
      <use xlink:href="#DejaVuSans-29" transform="translate(162.109375 0.125)"/>
     </g>
    </g>
   </g>
   <g id="matplotlib.axis_2">
    <g id="ytick_1">
     <g id="line2d_6">
      <defs>
       <path id="m737e61269b" d="M 0 0 
L -3.5 0 
" style="stroke: #000000; stroke-width: 0.8"/>
      </defs>
      <g>
       <use xlink:href="#m737e61269b" x="49.088" y="266.346683" style="stroke: #000000; stroke-width: 0.8"/>
      </g>
     </g>
     <g id="text_7">
      <!-- −4 -->
      <g style="fill: #ff7f0e" transform="translate(27.345813 270.145901) scale(0.1 -0.1)">
       <defs>
        <path id="DejaVuSans-2212" d="M 678 2272 
L 4684 2272 
L 4684 1741 
L 678 1741 
L 678 2272 
z
" transform="scale(0.015625)"/>
       </defs>
       <use xlink:href="#DejaVuSans-2212"/>
       <use xlink:href="#DejaVuSans-34" x="83.789062"/>
      </g>
     </g>
    </g>
    <g id="ytick_2">
     <g id="line2d_7">
      <g>
       <use xlink:href="#m737e61269b" x="49.088" y="221.395281" style="stroke: #000000; stroke-width: 0.8"/>
      </g>
     </g>
     <g id="text_8">
      <!-- −2 -->
      <g style="fill: #ff7f0e" transform="translate(27.345813 225.194499) scale(0.1 -0.1)">
       <use xlink:href="#DejaVuSans-2212"/>
       <use xlink:href="#DejaVuSans-32" x="83.789062"/>
      </g>
     </g>
    </g>
    <g id="ytick_3">
     <g id="line2d_8">
      <g>
       <use xlink:href="#m737e61269b" x="49.088" y="176.443879" style="stroke: #000000; stroke-width: 0.8"/>
      </g>
     </g>
     <g id="text_9">
      <!-- 0 -->
      <g style="fill: #ff7f0e" transform="translate(35.7255 180.243097) scale(0.1 -0.1)">
       <use xlink:href="#DejaVuSans-30"/>
      </g>
     </g>
    </g>
    <g id="ytick_4">
     <g id="line2d_9">
      <g>
       <use xlink:href="#m737e61269b" x="49.088" y="131.492476" style="stroke: #000000; stroke-width: 0.8"/>
      </g>
     </g>
     <g id="text_10">
      <!-- 2 -->
      <g style="fill: #ff7f0e" transform="translate(35.7255 135.291695) scale(0.1 -0.1)">
       <use xlink:href="#DejaVuSans-32"/>
      </g>
     </g>
    </g>
    <g id="ytick_5">
     <g id="line2d_10">
      <g>
       <use xlink:href="#m737e61269b" x="49.088" y="86.541074" style="stroke: #000000; stroke-width: 0.8"/>
      </g>
     </g>
     <g id="text_11">
      <!-- 4 -->
      <g style="fill: #ff7f0e" transform="translate(35.7255 90.340293) scale(0.1 -0.1)">
       <use xlink:href="#DejaVuSans-34"/>
      </g>
     </g>
    </g>
    <g id="ytick_6">
     <g id="line2d_11">
      <g>
       <use xlink:href="#m737e61269b" x="49.088" y="41.589672" style="stroke: #000000; stroke-width: 0.8"/>
      </g>
     </g>
     <g id="text_12">
      <!-- 6 -->
      <g style="fill: #ff7f0e" transform="translate(35.7255 45.388891) scale(0.1 -0.1)">
       <use xlink:href="#DejaVuSans-36"/>
      </g>
     </g>
    </g>
    <g id="text_13">
     <!-- $V_{\mathrm{out}}$ (V) -->
     <g style="fill: #ff7f0e" transform="translate(21.266125 174.75) rotate(-90) scale(0.1 -0.1)">
      <defs>
       <path id="DejaVuSans-Oblique-56" d="M 1319 0 
L 500 4666 
L 1119 4666 
L 1797 653 
L 4063 4666 
L 4750 4666 
L 2053 0 
L 1319 0 
z
" transform="scale(0.015625)"/>
       <path id="DejaVuSans-6f" d="M 1959 3097 
Q 1497 3097 1228 2736 
Q 959 2375 959 1747 
Q 959 1119 1226 758 
Q 1494 397 1959 397 
Q 2419 397 2687 759 
Q 2956 1122 2956 1747 
Q 2956 2369 2687 2733 
Q 2419 3097 1959 3097 
z
M 1959 3584 
Q 2709 3584 3137 3096 
Q 3566 2609 3566 1747 
Q 3566 888 3137 398 
Q 2709 -91 1959 -91 
Q 1206 -91 779 398 
Q 353 888 353 1747 
Q 353 2609 779 3096 
Q 1206 3584 1959 3584 
z
" transform="scale(0.015625)"/>
       <path id="DejaVuSans-75" d="M 544 1381 
L 544 3500 
L 1119 3500 
L 1119 1403 
Q 1119 906 1312 657 
Q 1506 409 1894 409 
Q 2359 409 2629 706 
Q 2900 1003 2900 1516 
L 2900 3500 
L 3475 3500 
L 3475 0 
L 2900 0 
L 2900 538 
Q 2691 219 2414 64 
Q 2138 -91 1772 -91 
Q 1169 -91 856 284 
Q 544 659 544 1381 
z
M 1991 3584 
L 1991 3584 
z
" transform="scale(0.015625)"/>
       <path id="DejaVuSans-74" d="M 1172 4494 
L 1172 3500 
L 2356 3500 
L 2356 3053 
L 1172 3053 
L 1172 1153 
Q 1172 725 1289 603 
Q 1406 481 1766 481 
L 2356 481 
L 2356 0 
L 1766 0 
Q 1100 0 847 248 
Q 594 497 594 1153 
L 594 3053 
L 172 3053 
L 172 3500 
L 594 3500 
L 594 4494 
L 1172 4494 
z
" transform="scale(0.015625)"/>
       <path id="DejaVuSans-56" d="M 1831 0 
L 50 4666 
L 709 4666 
L 2188 738 
L 3669 4666 
L 4325 4666 
L 2547 0 
L 1831 0 
z
" transform="scale(0.015625)"/>
      </defs>
      <use xlink:href="#DejaVuSans-Oblique-56" transform="translate(0 0.125)"/>
      <use xlink:href="#DejaVuSans-6f" transform="translate(68.408203 -16.28125) scale(0.7)"/>
      <use xlink:href="#DejaVuSans-75" transform="translate(111.235352 -16.28125) scale(0.7)"/>
      <use xlink:href="#DejaVuSans-74" transform="translate(155.600586 -16.28125) scale(0.7)"/>
      <use xlink:href="#DejaVuSans-20" transform="translate(185.78125 0.125)"/>
      <use xlink:href="#DejaVuSans-28" transform="translate(217.568359 0.125)"/>
      <use xlink:href="#DejaVuSans-56" transform="translate(256.582031 0.125)"/>
      <use xlink:href="#DejaVuSans-29" transform="translate(324.990234 0.125)"/>
     </g>
    </g>
   </g>
   <g id="line2d_12">
    <path d="M 49.002924 155.331413 
L 49.173076 155.257917 
L 49.343228 152.964841 
L 50.36414 107.198863 
L 50.534292 107.882376 
L 50.704444 107.397302 
L 50.874596 106.383057 
L 51.044748 108.896621 
L 51.385052 106.838732 
L 51.725356 121.008767 
L 52.06566 133.554539 
L 52.235812 139.493019 
L 52.746268 129.09333 
L 53.086572 115.981639 
L 53.426876 112.666968 
L 53.597028 113.475424 
L 53.76718 116.525509 
L 53.937332 117.466258 
L 54.107484 117.745543 
L 54.277636 120.94997 
L 54.447788 120.450197 
L 54.61794 116.848892 
L 54.788092 118.039527 
L 55.128396 126.638563 
L 55.4687 129.872388 
L 55.638852 128.784647 
L 55.979156 139.875198 
L 56.149308 140.999687 
L 56.31946 143.057576 
L 56.489612 142.601901 
L 56.829916 136.803064 
L 57.000068 140.257377 
L 57.17022 136.891259 
L 57.340372 136.13425 
L 57.510524 134.561435 
L 57.680676 141.058484 
L 57.850828 141.102582 
L 58.191132 148.224347 
L 58.531436 151.377327 
L 58.701588 149.797162 
L 59.041892 143.549999 
L 59.212044 142.572502 
L 59.382196 140.058938 
L 59.552348 141.330419 
L 60.232956 161.512429 
L 60.743412 157.925823 
L 60.913564 154.596453 
L 61.083716 154.83164 
L 61.42402 149.165096 
L 61.594172 150.929001 
L 62.615084 190.315523 
L 62.785236 196.084962 
L 62.955388 196.717028 
L 63.12554 194.468049 
L 63.295692 195.430847 
L 63.806148 203.287573 
L 63.9763 201.67801 
L 64.316604 187.956301 
L 64.486756 189.727555 
L 64.82706 202.530564 
L 65.167364 205.029429 
L 65.337516 203.353719 
L 65.507668 196.731727 
L 65.67782 196.915467 
L 65.847972 196.202555 
L 66.018124 199.568674 
L 66.358428 214.128237 
L 66.52858 213.503521 
L 66.868884 223.124151 
L 67.039036 220.581189 
L 67.37934 206.999122 
L 67.549492 210.277045 
L 67.719644 209.872817 
L 68.059948 220.757579 
L 68.570404 208.182408 
L 68.740556 207.734083 
L 68.910708 208.469043 
L 69.251012 206.073072 
L 69.421164 213.871001 
L 69.591316 214.172335 
L 69.761468 209.916915 
L 69.93162 209.975712 
L 70.101772 207.491546 
L 70.271924 208.777726 
L 71.292836 241.446712 
L 71.462988 242.416859 
L 71.63314 238.573017 
L 72.313748 258.181758 
L 72.4839 260.379289 
L 72.824204 249.112348 
L 72.994356 252.066888 
L 73.164508 249.24464 
L 73.33466 243.974975 
L 73.845116 250.001649 
L 74.18542 263.13539 
L 74.355572 259.61493 
L 74.695876 220.478294 
L 75.03618 208.028067 
L 75.376484 196.3128 
L 75.546636 188.022447 
L 75.716788 190.866744 
L 75.88694 191.12398 
L 76.057092 193.108373 
L 76.397396 206.220064 
L 76.7377 201.060643 
L 76.907852 202.435019 
L 77.078004 202.067539 
L 77.58846 195.73953 
L 77.758612 196.224604 
L 77.928764 194.673838 
L 78.269068 185.545631 
L 78.43922 185.464785 
L 78.609372 185.729371 
L 78.779524 186.890608 
L 79.460132 196.2981 
L 79.630284 192.946681 
L 79.800436 187.258089 
L 80.310892 157.279058 
L 80.481044 156.764586 
L 80.9915 161.196396 
L 81.161652 156.066373 
L 81.331804 146.416345 
L 81.501956 145.402099 
L 81.84226 149.084251 
L 82.012412 149.613422 
L 82.352716 152.60471 
L 82.522868 153.030987 
L 82.69302 152.538564 
L 83.033324 153.310272 
L 83.203476 157.874376 
L 83.373628 156.389756 
L 83.884084 132.128716 
L 84.224388 118.855333 
L 84.39454 120.068018 
L 84.564692 118.384959 
L 84.904996 123.816315 
L 85.075148 123.463534 
L 85.2453 123.051957 
L 85.585604 119.604993 
L 85.755756 117.458909 
L 85.925908 118.032178 
L 86.09606 114.952694 
L 86.266212 116.628404 
L 86.436364 112.968301 
L 86.606516 114.210384 
L 86.776668 120.964669 
L 86.94682 123.206298 
L 87.116972 129.563705 
L 87.287124 127.167734 
L 87.457276 126.932547 
L 87.967732 117.223722 
L 88.137884 116.003687 
L 88.308036 109.940265 
L 88.478188 108.17636 
L 88.64834 111.211746 
L 88.988644 123.154851 
L 89.158796 120.141514 
L 89.328948 120.655986 
L 89.4991 120.3914 
L 89.669252 124.411633 
L 90.009556 138.17744 
L 90.179708 138.059846 
L 90.34986 137.751163 
L 90.690164 129.615152 
L 91.030468 136.50173 
L 91.20062 135.325794 
L 91.370772 136.479681 
L 91.540924 131.959676 
L 91.711076 133.091514 
L 91.881228 135.597729 
L 92.05138 132.577042 
L 92.391684 139.46362 
L 92.90214 144.527497 
L 93.072292 142.579852 
L 93.242444 142.476957 
L 93.412596 144.600993 
L 93.582748 136.714869 
L 93.7529 135.502184 
L 93.923052 135.832916 
L 94.263356 145.402099 
L 94.433508 147.129256 
L 94.60366 142.79299 
L 94.773812 141.668501 
L 94.943964 143.674943 
L 95.284268 153.920289 
L 95.45442 153.317622 
L 95.624572 144.637741 
L 95.794724 148.312542 
L 96.135028 168.296113 
L 96.30518 172.889615 
L 96.475332 170.868474 
L 96.645484 172.529484 
L 96.985788 195.276505 
L 97.15594 197.892964 
L 97.496244 193.835983 
L 97.666396 193.813934 
L 97.836548 197.069809 
L 98.176852 192.468957 
L 98.347004 197.518134 
L 98.687308 194.997221 
L 98.85746 195.37205 
L 99.367916 189.286579 
L 99.70822 196.459792 
L 99.878372 198.297192 
L 100.048524 201.508969 
L 100.218676 200.457976 
L 100.388828 196.643532 
L 101.069436 226.975343 
L 101.40974 226.66666 
L 101.579892 226.776904 
L 101.750044 225.035048 
L 101.920196 228.188028 
L 102.090348 228.614305 
L 102.2605 225.909651 
L 102.430652 225.586268 
L 102.600804 221.918816 
L 103.11126 205.56595 
L 103.281412 205.683543 
L 103.621716 206.940325 
L 103.791868 211.67347 
L 103.96202 209.490638 
L 104.132172 209.81402 
L 104.472476 217.384111 
L 104.642628 210.063907 
L 104.81278 215.274775 
L 105.323236 251.897847 
L 105.493388 260.291094 
L 105.66354 256.902927 
L 105.833692 256.351707 
L 106.684452 272.270947 
L 107.535212 243.269413 
L 107.705364 243.857381 
L 107.875516 247.598329 
L 108.21582 245.444896 
L 108.896428 205.205819 
L 109.06658 202.861296 
L 109.406884 194.592992 
L 109.577036 193.453804 
L 109.747188 194.26226 
L 110.257644 202.655507 
L 110.427796 201.582465 
L 110.7681 190.330223 
L 110.938252 190.771199 
L 111.108404 189.81575 
L 111.278556 186.905308 
L 111.448708 187.956301 
L 111.61886 194.681188 
L 111.789012 196.746426 
L 111.959164 197.393191 
L 112.299468 197.04041 
L 112.46962 197.400541 
L 112.639772 197.334394 
L 112.809924 199.061551 
L 112.980076 198.069355 
L 113.490532 184.546085 
L 113.660684 180.246567 
L 114.000988 163.739359 
L 114.511444 171.096312 
L 114.681596 170.75823 
L 114.851748 167.722844 
L 115.0219 168.105023 
L 115.192052 169.898326 
L 115.362204 168.443105 
L 115.532356 167.965381 
L 115.702508 166.010386 
L 115.87266 166.598355 
L 116.383116 170.067367 
L 116.553268 168.670943 
L 117.914484 128.218728 
L 118.084636 129.078631 
L 118.254788 127.24858 
L 118.42494 127.145686 
L 118.595092 125.22009 
L 119.105548 105.603999 
L 119.2757 106.103772 
L 119.616004 109.036264 
L 119.786156 114.313279 
L 120.12646 116.643103 
L 120.636916 112.468528 
L 120.807068 108.529141 
L 120.97722 109.080361 
L 121.147372 115.606809 
L 121.317524 128.248126 
L 121.487676 132.452099 
L 121.657828 129.085981 
L 121.82798 130.614698 
L 122.168284 128.711151 
L 122.338436 130.056128 
L 122.508588 125.256838 
L 122.67874 123.684023 
L 123.019044 129.83564 
L 123.189196 131.430504 
L 123.359348 142.675397 
L 123.5295 145.350652 
L 123.699652 141.756696 
L 123.869804 141.256923 
L 124.210108 145.718132 
L 124.550412 146.960215 
L 124.720564 145.674035 
L 124.890716 145.990068 
L 125.060868 147.268899 
L 125.23102 144.505448 
L 125.401172 144.09387 
L 126.08178 137.464528 
L 126.251932 139.816401 
L 126.422084 144.395204 
L 126.762388 140.588109 
L 127.102692 151.105391 
L 127.272844 150.906952 
L 127.613148 136.50173 
L 127.7833 137.714415 
L 128.123604 138.581668 
L 128.293756 137.501276 
L 128.463908 134.973013 
L 128.63406 140.352922 
L 128.804212 138.846254 
L 128.974364 141.631753 
L 129.314668 151.053944 
L 129.48482 153.699801 
L 129.654972 152.869296 
L 129.825124 154.787542 
L 130.505732 188.331131 
L 130.675884 189.27188 
L 130.846036 186.412884 
L 131.18634 193.277413 
L 131.356492 192.762941 
L 131.696796 190.418418 
L 131.866948 189.889246 
L 132.0371 190.425767 
L 132.207252 188.647164 
L 132.547556 193.608146 
L 132.717708 192.807039 
L 132.88786 187.015552 
L 133.228164 182.943872 
L 133.398316 183.818474 
L 133.568468 186.001306 
L 133.908772 200.0023 
L 134.419228 215.215978 
L 134.58938 217.288566 
L 135.099836 208.15301 
L 135.269988 207.146114 
L 135.44014 209.872817 
L 135.610292 215.00284 
L 135.780444 215.127783 
L 135.950596 213.966546 
L 136.120748 215.083686 
L 136.2909 217.200371 
L 136.461052 216.156728 
L 136.631204 208.182408 
L 136.801356 206.433203 
L 136.971508 205.911381 
L 137.14166 204.992681 
L 137.311812 210.74742 
L 137.481964 212.239389 
L 137.652116 198.017907 
L 137.822268 193.806585 
L 138.84318 220.287205 
L 139.353636 244.342455 
L 139.523788 242.255168 
L 139.864092 253.360418 
L 140.034244 255.153721 
L 140.204396 259.776622 
L 140.374548 259.659028 
L 140.5447 254.580452 
L 140.714852 263.098642 
L 141.735764 237.169243 
L 141.905916 237.691064 
L 142.076068 240.821995 
L 142.416372 229.665298 
L 142.926828 197.135955 
L 143.09698 198.194298 
L 143.267132 201.619213 
L 143.437284 199.07625 
L 143.607436 200.163991 
L 144.117892 196.915467 
L 144.7985 183.509791 
L 145.479108 195.019269 
L 145.64926 194.931074 
L 145.819412 197.113906 
L 146.329868 210.232948 
L 146.50002 201.994043 
L 146.670172 205.389559 
L 147.010476 214.26053 
L 147.35078 202.898044 
L 147.520932 201.266432 
L 147.691084 196.900768 
L 148.20154 177.145035 
L 148.371692 172.448639 
L 148.541844 172.529484 
L 149.0523 164.489018 
L 149.732908 145.916572 
L 149.90306 145.556441 
L 150.243364 150.414529 
L 150.413516 152.318076 
L 151.094124 142.6166 
L 151.264276 146.115011 
L 151.434428 143.763138 
L 151.774732 134.28215 
L 151.944884 133.223807 
L 152.115036 125.719863 
L 152.285188 123.588478 
L 152.45534 129.629851 
L 152.625492 128.72585 
L 152.795644 120.178262 
L 152.965796 119.876928 
L 153.135948 118.18652 
L 153.3061 119.28896 
L 153.476252 118.230617 
L 153.646404 112.80661 
L 153.816556 111.292592 
L 153.986708 111.439584 
L 154.497164 120.817677 
L 154.667316 121.405646 
L 154.837468 120.898523 
L 155.00762 124.389584 
L 155.177772 122.875566 
L 155.347924 126.579766 
L 155.518076 127.652808 
L 155.688228 131.063024 
L 156.028532 124.859959 
L 156.368836 115.562711 
L 156.538988 113.953148 
L 156.70914 113.526871 
L 156.879292 114.452921 
L 157.219596 120.104766 
L 157.389748 120.413449 
L 157.900204 132.79753 
L 158.070356 130.232519 
L 158.240508 132.341855 
L 158.41066 130.342763 
L 158.750964 133.613336 
L 158.921116 134.127808 
L 159.26142 124.242592 
L 159.431572 128.762598 
L 159.601724 129.578404 
L 159.771876 134.818671 
L 160.11218 149.561975 
L 160.282332 147.224801 
L 160.452484 146.849971 
L 160.622636 142.190323 
L 160.792788 142.24177 
L 160.96294 141.49946 
L 161.133092 139.147587 
L 161.303244 140.970289 
L 161.473396 141.058484 
L 162.154004 160.674575 
L 162.324156 160.953859 
L 162.66446 151.884449 
L 162.834612 153.420516 
L 163.345068 143.079625 
L 163.51522 144.571594 
L 163.685372 147.312996 
L 164.706284 190.109735 
L 164.876436 190.271426 
L 165.046588 192.557152 
L 165.21674 196.915467 
L 165.386892 196.709678 
L 165.557044 191.381216 
L 165.727196 189.580563 
L 165.897348 192.277867 
L 166.0675 192.954031 
L 166.237652 190.969638 
L 166.577956 195.254457 
L 166.748108 195.886523 
L 167.258564 182.833628 
L 167.428716 184.597532 
L 167.76902 191.388565 
L 167.939172 191.028435 
L 168.279476 193.093673 
L 168.449628 198.451534 
L 168.61978 199.495178 
L 168.789932 195.37205 
L 168.960084 195.291205 
L 169.130236 199.811211 
L 169.300388 208.226506 
L 169.47054 208.586637 
L 169.640692 204.125428 
L 169.810844 203.721199 
L 169.980996 204.426761 
L 170.491452 211.430933 
L 170.661604 210.835615 
L 170.831756 215.995036 
L 171.512364 211.173697 
L 171.682516 213.679911 
L 171.852668 220.17696 
L 172.02282 219.963822 
L 172.192972 216.707948 
L 172.703428 198.208997 
L 172.87358 199.237942 
L 173.213884 224.145746 
L 173.72434 246.246002 
L 173.894492 242.946031 
L 174.234796 252.338823 
L 174.404948 249.869357 
L 174.5751 254.286468 
L 174.745252 250.567569 
L 174.915404 239.668108 
L 175.085556 239.278579 
L 175.42586 230.789787 
L 175.596012 237.433828 
L 175.766164 238.940497 
L 175.936316 239.175684 
L 176.106468 243.122421 
L 176.27662 241.681899 
L 176.446772 236.588624 
L 176.787076 215.039588 
L 177.12738 203.640354 
L 177.297532 201.516318 
L 177.637836 205.632096 
L 178.148292 193.931528 
L 178.318444 196.908117 
L 178.488596 195.335302 
L 178.658748 192.704144 
L 178.8289 193.181869 
L 178.999052 196.320149 
L 179.169204 194.82818 
L 179.339356 188.882351 
L 179.67966 187.765211 
L 179.849812 181.084422 
L 180.019964 180.334763 
L 180.190116 181.238764 
L 180.360268 176.174887 
L 180.53042 167.656697 
L 180.870724 166.039785 
L 181.211028 176.358627 
L 181.38118 178.732549 
L 181.551332 183.230506 
L 181.721484 180.885983 
L 182.061788 167.950681 
L 182.23194 163.702611 
L 182.402092 163.224887 
L 182.742396 169.405903 
L 182.912548 169.244212 
L 183.252852 166.723298 
L 183.423004 171.074263 
L 183.593156 172.022362 
L 183.763308 170.596539 
L 184.103612 158.109563 
L 184.273764 158.837174 
L 184.443916 158.050766 
L 184.78422 146.056214 
L 184.954372 144.196765 
L 185.124524 145.313904 
L 185.294676 148.003859 
L 185.464828 145.835726 
L 185.975284 121.530589 
L 186.826044 105.545202 
L 186.996196 105.530503 
L 187.166348 107.125367 
L 187.506652 119.678489 
L 187.676804 122.324346 
L 187.846956 123.088705 
L 188.017108 126.263733 
L 188.18726 133.532491 
L 188.357412 135.57568 
L 188.527564 133.708881 
L 188.697716 138.103944 
L 188.867868 134.532037 
L 189.03802 133.36345 
L 189.208172 128.836094 
L 189.378324 133.062116 
L 189.548476 133.319352 
L 189.718628 132.687286 
L 189.88878 133.892621 
L 190.058932 131.504 
L 190.569388 152.479767 
L 190.73954 149.811861 
L 190.909692 152.082889 
L 191.079844 151.553717 
L 191.420148 153.560159 
L 191.5903 153.508712 
L 191.930604 148.562429 
L 192.100756 150.216089 
L 192.270908 148.319892 
L 192.44106 144.527497 
L 192.611212 145.446197 
L 192.951516 140.21328 
L 193.121668 144.005675 
L 193.29182 143.035527 
L 193.461972 141.051134 
L 193.632124 141.029086 
L 193.802276 141.345119 
L 193.972428 142.513705 
L 194.14258 140.896793 
L 194.482884 144.887627 
L 194.653036 147.173354 
L 194.823188 143.777837 
L 194.99334 143.968927 
L 195.163492 141.911038 
L 195.333644 144.226163 
L 195.503796 148.180249 
L 195.673948 146.783825 
L 195.8441 147.357094 
L 196.014252 149.356186 
L 196.184404 160.615778 
L 196.354556 160.615778 
L 196.524708 159.476589 
L 196.69486 161.233144 
L 197.035164 148.510982 
L 197.205316 148.253745 
L 197.375468 144.953774 
L 197.715772 131.849432 
L 197.885924 137.376333 
L 198.39638 166.297021 
L 198.906836 181.554797 
L 199.076988 190.00684 
L 199.24714 189.323327 
L 199.417292 191.903038 
L 199.757596 204.213623 
L 199.927748 203.735899 
L 200.438204 187.074349 
L 200.778508 185.023809 
L 201.118812 177.05684 
L 201.288964 178.460614 
L 201.629268 187.757862 
L 201.969572 195.651335 
L 202.139724 192.505705 
L 202.480028 198.304542 
L 202.65018 198.561778 
L 202.820332 201.773555 
L 202.990484 207.623839 
L 203.160636 209.189304 
L 203.50094 207.021171 
L 203.841244 215.509963 
L 204.181548 217.641347 
L 204.3517 217.883884 
L 204.692004 223.939957 
L 205.032308 211.48973 
L 205.542764 205.345462 
L 205.712916 206.918277 
L 206.05322 201.979343 
L 206.223372 202.310076 
L 206.393524 203.941687 
L 206.563676 207.59444 
L 206.733828 205.984877 
L 206.90398 210.137403 
L 207.074132 221.316149 
L 207.244284 224.946853 
L 207.414436 221.250003 
L 207.584588 224.101648 
L 207.75474 228.959736 
L 208.095044 245.297904 
L 208.265196 248.32594 
L 208.6055 245.217058 
L 208.775652 245.812376 
L 208.945804 244.945123 
L 209.45626 234.832069 
L 209.626412 237.301535 
L 209.796564 236.823811 
L 210.136868 224.226592 
L 210.477172 221.345547 
L 210.987628 194.556244 
L 211.15778 194.879627 
L 211.327932 199.377584 
L 211.498084 200.56087 
L 212.00854 190.036239 
L 212.178692 190.278775 
L 212.518996 196.768475 
L 212.689148 191.285671 
L 212.8593 190.153832 
L 213.029452 192.263168 
L 213.369756 174.896056 
L 213.539908 173.661323 
L 213.71006 178.210727 
L 214.050364 181.466601 
L 214.220516 181.224065 
L 214.390668 178.761948 
L 214.56082 179.599802 
L 214.730972 179.394013 
L 214.901124 181.040324 
L 215.071276 180.702243 
L 215.581732 190.175881 
L 215.751884 190.168531 
L 216.092188 179.45281 
L 216.942948 153.957037 
L 217.1131 155.735641 
L 217.623556 163.35718 
L 217.96386 158.16836 
L 218.134012 159.557435 
L 218.644468 152.531214 
L 218.81462 154.104029 
L 218.984772 154.633201 
L 219.154924 160.189501 
L 219.325076 161.652072 
L 219.66538 140.94824 
L 219.835532 125.690464 
L 220.005684 120.942621 
L 220.345988 105.163023 
L 220.51614 102.44367 
L 220.686292 102.311377 
L 220.856444 110.425339 
L 221.196748 114.394124 
L 221.877356 130.908682 
L 222.047508 133.473694 
L 222.21766 130.232519 
L 222.557964 119.333058 
L 222.728116 118.017479 
L 222.898268 119.450651 
L 223.06842 126.50627 
L 223.238572 128.336321 
L 223.408724 132.011123 
L 223.578876 130.864585 
L 223.91918 122.897615 
L 224.089332 125.881554 
L 224.259484 125.661066 
L 224.599788 133.686832 
L 224.76994 139.882548 
L 225.110244 142.42551 
L 225.280396 141.154029 
L 225.450548 141.381867 
L 225.790852 148.628575 
L 226.131156 141.771396 
L 226.47146 148.261095 
L 226.641612 148.319892 
L 226.981916 158.065465 
L 227.32222 151.715408 
L 227.662524 139.154937 
L 227.832676 139.867848 
L 228.17298 144.909676 
L 228.343132 141.50681 
L 228.513284 140.382321 
L 228.683436 137.574772 
L 228.853588 137.398382 
L 229.193892 146.085613 
L 229.364044 144.409903 
L 229.534196 140.286776 
L 229.8745 150.267537 
L 230.214804 133.988166 
L 230.384956 135.061208 
L 230.555108 137.515975 
L 230.72526 137.479227 
L 230.895412 136.582576 
L 231.065564 133.650084 
L 231.235716 125.609619 
L 231.405868 126.293132 
L 231.746172 131.812683 
L 231.916324 140.705703 
L 232.42678 183.936068 
L 232.596932 191.30037 
L 232.767084 191.153378 
L 232.937236 192.762941 
L 233.107388 195.960019 
L 233.27754 193.946227 
L 233.617844 185.898412 
L 233.787996 187.147845 
L 234.1283 185.538281 
L 234.298452 181.892878 
L 234.468604 180.643446 
L 234.97906 173.16155 
L 235.149212 173.139501 
L 235.489516 166.194126 
L 236.340276 207.072618 
L 236.510428 206.411154 
L 236.850732 215.840695 
L 237.020884 214.62801 
L 237.361188 216.516858 
L 237.53134 219.030422 
L 237.701492 218.288113 
L 237.871644 222.095207 
L 238.211948 215.93624 
L 238.3821 218.192568 
L 238.552252 218.185218 
L 238.722404 219.368504 
L 238.892556 221.367596 
L 239.062708 225.240837 
L 239.23286 221.10301 
L 239.403012 221.360247 
L 239.573164 224.80721 
L 239.913468 212.908203 
L 240.08362 215.642255 
L 240.253772 215.950939 
L 240.764228 209.020263 
L 241.274684 235.493533 
L 241.614988 257.94657 
L 241.78514 257.461497 
L 242.125444 266.920436 
L 242.295596 262.753211 
L 242.465748 250.214788 
L 242.6359 252.757751 
L 242.806052 257.498245 
L 242.976204 255.212518 
L 243.146356 260.077955 
L 243.316508 259.129856 
L 243.656812 245.805026 
L 243.826964 244.202813 
L 243.997116 240.844044 
L 244.167268 240.586808 
L 244.33742 244.07052 
L 244.507572 243.203267 
L 244.677724 238.161439 
L 245.358332 197.694525 
L 245.528484 195.416148 
L 245.698636 197.400541 
L 245.868788 202.626108 
L 246.03894 203.390467 
L 246.209092 205.235218 
L 246.719548 198.039956 
L 247.059852 199.473129 
L 247.230004 198.488282 
L 247.400156 196.636182 
L 247.570308 190.469865 
L 247.74046 189.521766 
L 248.080764 194.174065 
L 248.250916 186.765665 
L 248.421068 185.538281 
L 248.59122 188.360529 
L 248.761372 184.920915 
L 248.931524 186.383486 
L 249.271828 207.814928 
L 249.612132 211.012006 
L 249.782284 206.190666 
L 250.122588 188.323781 
L 250.973348 170.986068 
L 251.483804 157.492196 
L 251.653956 157.190863 
L 251.99426 158.212458 
L 252.334564 148.753518 
L 252.504716 146.930817 
L 252.84502 153.008939 
L 253.015172 151.450823 
L 253.185324 153.927639 
L 253.355476 154.508258 
L 253.525628 149.951504 
L 254.206236 116.804794 
L 254.376388 112.556724 
L 254.54654 111.380787 
L 254.716692 115.540662 
L 254.886844 116.084533 
L 255.3973 128.659704 
L 255.737604 123.279794 
L 255.907756 123.588478 
L 256.24806 115.364272 
L 256.418212 116.393216 
L 256.588364 116.459363 
L 257.09882 94.873579 
L 257.268972 96.203857 
L 257.439124 104.6706 
L 257.779428 129.6519 
L 258.119732 125.984448 
L 258.289884 128.18198 
L 258.460036 121.023466 
L 258.630188 120.663336 
L 258.970492 117.473608 
L 259.310796 121.192507 
L 259.821252 135.781469 
L 259.991404 130.644097 
L 260.161556 131.151219 
L 260.331708 132.672587 
L 260.672012 125.550822 
L 261.012316 126.381327 
L 261.182468 121.229255 
L 261.35262 120.751531 
L 261.522772 119.443302 
L 261.692924 120.597189 
L 262.20338 143.696992 
L 262.543684 142.98408 
L 262.713836 143.594097 
L 262.883988 139.309279 
L 263.394444 135.913762 
L 263.564596 135.641827 
L 263.9049 145.130164 
L 264.075052 146.019466 
L 264.245204 147.540834 
L 264.415356 151.899149 
L 264.75566 154.478859 
L 264.925812 153.302923 
L 265.095964 150.590919 
L 265.266116 152.854597 
L 265.436268 156.985074 
L 265.60642 157.933173 
L 265.776572 157.110017 
L 265.946724 164.128888 
L 266.116876 178.16663 
L 266.45718 182.78953 
L 266.627332 182.671936 
L 266.797484 179.445461 
L 266.967636 171.169808 
L 267.137788 174.499178 
L 267.818396 199.164445 
L 267.988548 198.966006 
L 268.1587 197.694525 
L 268.839308 188.184139 
L 269.00946 189.007294 
L 269.519916 177.637458 
L 269.690068 181.047674 
L 270.030372 199.737715 
L 270.540828 212.459877 
L 270.71098 214.973442 
L 270.881132 213.988595 
L 271.051284 209.740524 
L 271.221436 202.706954 
L 271.391588 208.138311 
L 271.56174 206.514048 
L 271.731892 201.30318 
L 271.902044 203.699151 
L 272.072196 203.133231 
L 272.242348 199.914105 
L 272.4125 201.214985 
L 272.582652 207.454798 
L 272.752804 206.756585 
L 273.093108 209.064361 
L 273.26326 214.914645 
L 273.433412 211.908657 
L 273.773716 202.523214 
L 274.11402 210.468135 
L 274.454324 214.701506 
L 274.624476 217.303266 
L 274.794628 214.400173 
L 274.96478 216.48011 
L 275.81554 270.948018 
L 275.985692 277.922791 
L 276.155844 271.028864 
L 276.496148 271.381645 
L 276.6663 267.493705 
L 277.006604 250.508772 
L 277.346908 235.486184 
L 277.687212 240.755849 
L 277.857364 238.470122 
L 278.197668 249.487177 
L 278.537972 239.366774 
L 278.878276 217.207721 
L 279.21858 208.130961 
L 279.388732 205.56595 
L 279.899188 194.592992 
L 280.239492 195.651335 
L 280.409644 196.86402 
L 280.749948 204.742794 
L 280.9201 204.948583 
L 281.090252 210.321143 
L 281.260404 208.410246 
L 281.600708 196.202555 
L 281.77086 197.121256 
L 282.281316 188.676562 
L 282.451468 187.111097 
L 282.62162 187.59617 
L 282.791772 187.537374 
L 282.961924 187.316885 
L 283.132076 183.642084 
L 283.302228 183.987515 
L 283.642532 190.124434 
L 283.812684 189.801051 
L 283.982836 184.097759 
L 284.152988 185.347192 
L 284.833596 158.410897 
L 285.1739 155.324064 
L 285.514204 159.204654 
L 285.854508 154.508258 
L 286.364964 136.560527 
L 286.705268 129.901787 
L 287.045572 131.768586 
L 287.215724 129.078631 
L 287.385876 130.342763 
L 287.556028 127.322076 
L 288.066484 105.552552 
L 288.406788 108.676133 
L 288.57694 108.73493 
L 288.747092 106.478602 
L 289.257548 114.180986 
L 289.4277 118.120373 
L 289.768004 130.20312 
L 290.108308 133.870572 
L 290.27846 132.349205 
L 290.788916 115.878744 
L 290.959068 117.61325 
L 291.299372 136.406185 
L 291.469524 147.482037 
L 291.639676 150.57622 
L 291.97998 146.908768 
L 292.320284 151.347928 
L 292.660588 143.785187 
L 292.83074 147.489387 
L 293.171044 139.617962 
L 293.341196 130.658796 
L 293.511348 130.482405 
L 293.6815 133.106214 
L 293.851652 133.481043 
L 294.021804 140.066288 
L 294.191956 141.6832 
L 294.362108 140.779199 
L 294.53226 145.438847 
L 294.702412 144.880278 
L 294.872564 141.352468 
L 295.212868 156.830732 
L 295.38302 156.455902 
L 295.553172 156.433854 
L 295.723324 155.037429 
L 296.063628 162.034251 
L 296.23378 162.379682 
L 296.403932 155.603348 
L 296.914388 151.862401 
L 297.08454 156.904228 
L 297.254692 155.529852 
L 297.594996 150.083797 
L 297.9353 155.816487 
L 298.105452 151.69336 
L 298.275604 150.39248 
L 298.445756 151.921197 
L 298.78606 147.504086 
L 298.956212 148.878462 
L 299.126364 154.045233 
L 299.296516 152.773751 
L 299.63682 154.750794 
L 299.806972 155.816487 
L 300.827884 194.313707 
L 300.998036 190.602158 
L 301.33834 188.683912 
L 301.508492 192.733543 
L 301.678644 191.726647 
L 301.848796 194.203463 
L 302.1891 205.132323 
L 302.359252 201.766205 
L 302.529404 187.993049 
L 302.869708 182.914473 
L 303.380164 177.747702 
L 303.550316 175.153292 
L 303.720468 177.527214 
L 303.89062 181.518049 
L 304.230924 197.062459 
L 304.571228 212.827357 
L 304.911532 219.978521 
L 305.081684 223.984055 
L 305.251836 220.00057 
L 305.421988 219.221512 
L 305.59214 217.913283 
L 305.762292 214.275229 
L 305.932444 213.819554 
L 306.102596 218.266064 
L 306.4429 212.004202 
L 306.953356 216.832891 
L 307.29366 222.609679 
L 307.633964 219.405252 
L 307.804116 210.534281 
L 307.974268 212.334934 
L 308.14442 212.474577 
L 308.314572 213.951847 
L 308.654876 222.146654 
L 308.825028 220.757579 
L 309.675788 257.998018 
L 309.84594 254.323216 
L 310.016092 257.711383 
L 310.186244 254.124777 
L 310.356396 246.040213 
L 310.6967 260.041207 
L 310.866852 257.814277 
L 311.037004 263.973245 
L 311.377308 257.689334 
L 311.54746 245.966717 
L 311.717612 248.33329 
L 311.887764 249.119697 
L 312.057916 248.524379 
L 312.228068 260.379289 
L 312.39822 263.774806 
L 312.568372 253.338369 
L 313.078828 209.82137 
L 313.419132 203.434565 
L 313.589284 201.744156 
L 313.759436 204.345916 
L 313.929588 200.274236 
L 314.09974 192.219071 
L 314.269892 193.71104 
L 314.610196 199.223242 
L 314.780348 201.457522 
L 315.120652 196.356897 
L 315.290804 188.992595 
L 315.460956 186.758316 
L 315.631108 188.206187 
L 315.80126 187.125796 
L 315.971412 188.514871 
L 316.311716 197.172703 
L 316.481868 196.026165 
L 316.65202 197.04041 
L 316.822172 194.45335 
L 317.162476 200.465325 
L 317.332628 198.392737 
L 317.50278 198.848413 
L 317.672932 193.409706 
L 318.013236 175.359081 
L 318.183388 175.498724 
L 318.693844 163.34983 
L 318.863996 165.848695 
L 319.2043 161.615324 
L 319.374452 162.24004 
L 319.544604 158.484393 
L 319.714756 158.932719 
L 319.884908 160.586379 
L 320.05506 158.3521 
L 320.395364 162.173894 
L 320.735668 151.583116 
L 321.246124 172.066459 
L 321.416276 168.832634 
L 321.75658 145.497644 
L 322.096884 132.856327 
L 322.267036 124.492479 
L 322.437188 122.655078 
L 322.777492 117.657348 
L 322.947644 124.022104 
L 323.4581 114.746905 
L 323.798404 118.803886 
L 324.138708 106.309561 
L 324.30886 103.524062 
L 324.649164 111.70417 
L 324.819316 111.020657 
L 324.989468 115.312825 
L 325.15962 116.077183 
L 325.329772 115.871395 
L 325.499924 117.936633 
L 325.670076 116.062484 
L 325.840228 116.003687 
L 326.180532 117.958682 
L 326.350684 115.39367 
L 326.520836 114.732206 
L 326.690988 111.851162 
L 327.201444 132.084619 
L 327.541748 137.038251 
L 327.882052 144.578944 
L 328.052204 139.779653 
L 328.222356 139.228433 
L 328.56266 132.385953 
L 329.073116 124.904057 
L 329.243268 125.367082 
L 329.583572 134.737825 
L 329.753724 144.020374 
L 329.923876 145.144863 
L 330.094028 148.047957 
L 330.26418 148.827014 
L 330.434332 148.444835 
L 330.944788 152.832548 
L 331.11494 151.289131 
L 331.285092 147.665777 
L 331.455244 148.584478 
L 331.795548 157.110017 
L 332.135852 163.092594 
L 332.306004 159.755874 
L 332.81646 139.110839 
L 332.986612 139.970743 
L 333.326916 152.112287 
L 333.497068 154.545006 
L 333.66722 154.192225 
L 333.837372 150.532122 
L 334.007524 155.162372 
L 334.688132 195.73953 
L 335.028436 208.226506 
L 335.198588 215.017539 
L 335.538892 208.241205 
L 335.709044 206.256812 
L 336.049348 200.428577 
L 336.2195 198.458884 
L 336.389652 199.576023 
L 336.559804 193.924179 
L 336.729956 195.00457 
L 336.900108 201.347278 
L 337.07026 200.825456 
L 337.410564 194.291659 
L 337.92102 200.413878 
L 338.091172 200.590268 
L 338.261324 197.319695 
L 338.431476 198.34864 
L 338.601628 204.683997 
L 338.77178 205.154372 
L 338.941932 200.061097 
L 339.282236 207.23431 
L 339.452388 206.712488 
L 339.62254 208.645433 
L 339.792692 205.948129 
L 339.962844 201.001846 
L 340.132996 200.55352 
L 340.303148 203.243475 
L 340.643452 211.225144 
L 340.813604 209.549435 
L 340.983756 210.394639 
L 341.153908 208.954117 
L 341.32406 204.140127 
L 341.494212 205.433657 
L 341.664364 204.867737 
L 341.834516 207.616489 
L 342.17482 204.294468 
L 342.344972 204.992681 
L 342.515124 206.161268 
L 342.855428 211.923356 
L 343.195732 229.481558 
L 343.536036 251.177586 
L 343.87634 259.975061 
L 344.046492 262.885504 
L 344.216644 259.504686 
L 344.386796 264.649408 
L 344.556948 263.252984 
L 344.7271 257.990668 
L 344.897252 261.430282 
L 345.067404 258.453693 
L 345.237556 253.213426 
L 345.57786 234.949663 
L 345.748012 233.237205 
L 346.088316 232.612489 
L 346.258468 236.199095 
L 346.42862 235.133403 
L 346.598772 227.129685 
L 346.939076 196.004116 
L 347.27938 188.140041 
L 347.449532 188.478123 
L 347.619684 187.022901 
L 347.959988 180.577299 
L 348.300292 183.972816 
L 348.640596 180.996227 
L 348.810748 179.717396 
L 348.9809 177.108287 
L 349.151052 178.071085 
L 349.321204 179.805591 
L 349.491356 184.171255 
L 349.661508 184.487288 
L 350.001812 173.543729 
L 350.342116 170.559791 
L 350.512268 170.060018 
L 350.68242 170.919921 
L 350.852572 173.551079 
L 351.192876 181.885529 
L 351.363028 184.45789 
L 351.53318 181.268162 
L 351.703332 184.377044 
L 351.873484 183.730279 
L 352.213788 167.965381 
L 352.554092 158.491742 
L 353.064548 143.042877 
L 353.2347 141.719948 
L 353.404852 142.60925 
L 353.575004 140.250028 
L 353.745156 144.240862 
L 353.915308 143.998325 
L 354.255612 157.580392 
L 354.425764 157.014472 
L 354.595916 158.550539 
L 354.93622 156.860131 
L 355.106372 158.256555 
L 355.276524 157.190863 
L 355.446676 160.726022 
L 355.616828 161.218445 
L 356.127284 130.122275 
L 356.297436 127.373523 
L 356.63774 111.711519 
L 356.807892 111.079453 
L 356.978044 109.822671 
L 357.318348 111.388137 
L 357.4885 109.719777 
L 357.658652 111.630674 
L 358.169108 124.1103 
L 358.33926 127.549914 
L 358.509412 128.615606 
L 358.679564 133.260555 
L 358.849716 134.708427 
L 359.19002 131.31291 
L 359.360172 130.95278 
L 359.530324 130.085527 
L 359.870628 134.576134 
L 360.04078 134.326248 
L 360.721388 119.48005 
L 361.061692 116.819493 
L 361.231844 111.785015 
L 361.401996 112.453829 
L 361.572148 114.320628 
L 361.7423 120.663336 
L 361.912452 121.868671 
L 362.082604 122.015663 
L 362.422908 131.51135 
L 362.59306 133.385499 
L 362.763212 137.736464 
L 363.103516 139.140238 
L 363.273668 136.964755 
L 363.613972 144.593643 
L 363.954276 141.595005 
L 364.124428 142.748893 
L 364.29458 146.982264 
L 364.464732 148.143501 
L 364.805036 146.291401 
L 364.975188 146.967565 
L 365.14534 150.671765 
L 365.315492 151.862401 
L 365.825948 143.704341 
L 365.9961 142.572502 
L 366.166252 142.998779 
L 366.336404 138.949148 
L 366.506556 138.133342 
L 366.84686 151.553717 
L 367.017012 153.405817 
L 367.357316 154.199574 
L 367.527468 158.859223 
L 367.69762 160.417338 
L 367.867772 160.549631 
L 368.037924 165.437117 
L 368.54838 187.184593 
L 368.888684 193.005478 
L 369.39914 188.235586 
L 369.739444 197.826818 
L 369.909596 207.998668 
L 370.079748 209.358345 
L 370.2499 205.088226 
L 370.590204 189.308628 
L 370.760356 187.096397 
L 370.930508 186.581925 
L 371.10066 185.134053 
L 371.270812 186.750966 
L 371.440964 192.314615 
L 371.611116 191.417964 
L 371.781268 191.770745 
L 371.95142 196.805223 
L 372.291724 212.761211 
L 372.461876 215.509963 
L 372.80218 204.610501 
L 373.142484 197.349094 
L 373.312636 201.420774 
L 373.823092 222.764021 
L 373.993244 225.711212 
L 374.163396 225.909651 
L 374.333548 226.512318 
L 374.5037 228.533459 
L 374.673852 223.484282 
L 374.844004 222.675826 
L 375.014156 228.636354 
L 375.184308 229.599152 
L 375.35446 227.394271 
L 375.694764 231.987773 
L 376.035068 213.025797 
L 376.20522 214.392823 
L 376.375372 218.030876 
L 376.545524 214.378124 
L 376.715676 216.678549 
L 376.885828 216.957834 
L 377.05598 220.566489 
L 377.736588 256.388455 
L 377.90674 255.278664 
L 378.076892 249.80321 
L 378.247044 252.787149 
L 378.587348 263.679261 
L 378.7575 263.863001 
L 379.267956 242.255168 
L 379.438108 243.497251 
L 379.60826 241.725997 
L 379.778412 246.304799 
L 379.948564 245.790327 
L 380.288868 238.8817 
L 380.45902 235.993306 
L 380.969476 212.496625 
L 381.30978 194.26226 
L 381.650084 197.275598 
L 381.820236 209.586183 
L 381.990388 213.466773 
L 382.670996 193.90213 
L 382.841148 194.416602 
L 383.181452 198.848413 
L 383.351604 197.496086 
L 383.86206 187.294837 
L 384.032212 188.176789 
L 384.202364 190.455166 
L 384.372516 188.404627 
L 384.542668 183.105563 
L 384.71282 181.900228 
L 385.053124 191.131329 
L 385.223276 192.057379 
L 385.393428 194.989871 
L 385.56358 195.790978 
L 385.903884 193.586097 
L 386.074036 184.950313 
L 386.244188 169.729285 
L 386.41434 166.649802 
L 386.754644 174.352186 
L 386.924796 174.27134 
L 387.094948 170.500994 
L 387.2651 173.543729 
L 387.435252 173.301192 
L 387.605404 172.485387 
L 387.775556 170.067367 
L 387.945708 164.327327 
L 388.11586 165.165182 
L 388.286012 168.222617 
L 388.456164 168.185869 
L 388.796468 175.645716 
L 389.136772 163.592367 
L 389.306924 160.681924 
L 389.477076 165.988337 
L 389.477076 165.988337 
" clip-path="url(#p012fabf941)" style="fill: none; stroke: #ff7f0e; stroke-width: 1.5; stroke-linecap: square"/>
   </g>
   <g id="patch_3">
    <path d="M 49.088 302.2 
L 49.088 10.8 
" style="fill: none; stroke: #000000; stroke-width: 0.8; stroke-linejoin: miter; stroke-linecap: square"/>
   </g>
   <g id="patch_4">
    <path d="M 389.392 302.2 
L 389.392 10.8 
" style="fill: none; stroke: #000000; stroke-width: 0.8; stroke-linejoin: miter; stroke-linecap: square"/>
   </g>
   <g id="patch_5">
    <path d="M 49.088 302.2 
L 389.392 302.2 
" style="fill: none; stroke: #000000; stroke-width: 0.8; stroke-linejoin: miter; stroke-linecap: square"/>
   </g>
   <g id="patch_6">
    <path d="M 49.088 10.8 
L 389.392 10.8 
" style="fill: none; stroke: #000000; stroke-width: 0.8; stroke-linejoin: miter; stroke-linecap: square"/>
   </g>
  </g>
  <g id="axes_2">
   <g id="matplotlib.axis_3">
    <g id="ytick_7">
     <g id="line2d_13">
      <defs>
       <path id="m64348e3ca9" d="M 0 0 
L 3.5 0 
" style="stroke: #000000; stroke-width: 0.8"/>
      </defs>
      <g>
       <use xlink:href="#m64348e3ca9" x="389.392" y="280.923478" style="stroke: #000000; stroke-width: 0.8"/>
      </g>
     </g>
     <g id="text_14">
      <!-- −0.008 -->
      <g style="fill: #1f77b4" transform="translate(396.392 284.722697) scale(0.1 -0.1)">
       <use xlink:href="#DejaVuSans-2212"/>
       <use xlink:href="#DejaVuSans-30" x="83.789062"/>
       <use xlink:href="#DejaVuSans-2e" x="147.412109"/>
       <use xlink:href="#DejaVuSans-30" x="179.199219"/>
       <use xlink:href="#DejaVuSans-30" x="242.822266"/>
       <use xlink:href="#DejaVuSans-38" x="306.445312"/>
      </g>
     </g>
    </g>
    <g id="ytick_8">
     <g id="line2d_14">
      <g>
       <use xlink:href="#m64348e3ca9" x="389.392" y="225.228129" style="stroke: #000000; stroke-width: 0.8"/>
      </g>
     </g>
     <g id="text_15">
      <!-- −0.006 -->
      <g style="fill: #1f77b4" transform="translate(396.392 229.027348) scale(0.1 -0.1)">
       <use xlink:href="#DejaVuSans-2212"/>
       <use xlink:href="#DejaVuSans-30" x="83.789062"/>
       <use xlink:href="#DejaVuSans-2e" x="147.412109"/>
       <use xlink:href="#DejaVuSans-30" x="179.199219"/>
       <use xlink:href="#DejaVuSans-30" x="242.822266"/>
       <use xlink:href="#DejaVuSans-36" x="306.445312"/>
      </g>
     </g>
    </g>
    <g id="ytick_9">
     <g id="line2d_15">
      <g>
       <use xlink:href="#m64348e3ca9" x="389.392" y="169.53278" style="stroke: #000000; stroke-width: 0.8"/>
      </g>
     </g>
     <g id="text_16">
      <!-- −0.004 -->
      <g style="fill: #1f77b4" transform="translate(396.392 173.331998) scale(0.1 -0.1)">
       <use xlink:href="#DejaVuSans-2212"/>
       <use xlink:href="#DejaVuSans-30" x="83.789062"/>
       <use xlink:href="#DejaVuSans-2e" x="147.412109"/>
       <use xlink:href="#DejaVuSans-30" x="179.199219"/>
       <use xlink:href="#DejaVuSans-30" x="242.822266"/>
       <use xlink:href="#DejaVuSans-34" x="306.445312"/>
      </g>
     </g>
    </g>
    <g id="ytick_10">
     <g id="line2d_16">
      <g>
       <use xlink:href="#m64348e3ca9" x="389.392" y="113.837431" style="stroke: #000000; stroke-width: 0.8"/>
      </g>
     </g>
     <g id="text_17">
      <!-- −0.002 -->
      <g style="fill: #1f77b4" transform="translate(396.392 117.636649) scale(0.1 -0.1)">
       <use xlink:href="#DejaVuSans-2212"/>
       <use xlink:href="#DejaVuSans-30" x="83.789062"/>
       <use xlink:href="#DejaVuSans-2e" x="147.412109"/>
       <use xlink:href="#DejaVuSans-30" x="179.199219"/>
       <use xlink:href="#DejaVuSans-30" x="242.822266"/>
       <use xlink:href="#DejaVuSans-32" x="306.445312"/>
      </g>
     </g>
    </g>
    <g id="ytick_11">
     <g id="line2d_17">
      <g>
       <use xlink:href="#m64348e3ca9" x="389.392" y="58.142082" style="stroke: #000000; stroke-width: 0.8"/>
      </g>
     </g>
     <g id="text_18">
      <!-- 0.000 -->
      <g style="fill: #1f77b4" transform="translate(396.392 61.9413) scale(0.1 -0.1)">
       <use xlink:href="#DejaVuSans-30"/>
       <use xlink:href="#DejaVuSans-2e" x="63.623047"/>
       <use xlink:href="#DejaVuSans-30" x="95.410156"/>
       <use xlink:href="#DejaVuSans-30" x="159.033203"/>
       <use xlink:href="#DejaVuSans-30" x="222.65625"/>
      </g>
     </g>
    </g>
    <g id="text_19">
     <!-- $V_{\mathrm{in}}$ (V) -->
     <g style="fill: #1f77b4" transform="translate(444.99825 172.2) rotate(-90) scale(0.1 -0.1)">
      <defs>
       <path id="DejaVuSans-69" d="M 603 3500 
L 1178 3500 
L 1178 0 
L 603 0 
L 603 3500 
z
M 603 4863 
L 1178 4863 
L 1178 4134 
L 603 4134 
L 603 4863 
z
" transform="scale(0.015625)"/>
       <path id="DejaVuSans-6e" d="M 3513 2113 
L 3513 0 
L 2938 0 
L 2938 2094 
Q 2938 2591 2744 2837 
Q 2550 3084 2163 3084 
Q 1697 3084 1428 2787 
Q 1159 2491 1159 1978 
L 1159 0 
L 581 0 
L 581 3500 
L 1159 3500 
L 1159 2956 
Q 1366 3272 1645 3428 
Q 1925 3584 2291 3584 
Q 2894 3584 3203 3211 
Q 3513 2838 3513 2113 
z
" transform="scale(0.015625)"/>
      </defs>
      <use xlink:href="#DejaVuSans-Oblique-56" transform="translate(0 0.125)"/>
      <use xlink:href="#DejaVuSans-69" transform="translate(68.408203 -16.28125) scale(0.7)"/>
      <use xlink:href="#DejaVuSans-6e" transform="translate(87.856445 -16.28125) scale(0.7)"/>
      <use xlink:href="#DejaVuSans-20" transform="translate(134.956055 0.125)"/>
      <use xlink:href="#DejaVuSans-28" transform="translate(166.743164 0.125)"/>
      <use xlink:href="#DejaVuSans-56" transform="translate(205.756836 0.125)"/>
      <use xlink:href="#DejaVuSans-29" transform="translate(274.165039 0.125)"/>
     </g>
    </g>
   </g>
   <g id="line2d_18">
    <path d="M 49.002924 107.321041 
L 49.51338 152.852291 
L 49.683532 125.533541 
L 49.853684 152.852291 
L 50.193988 152.852291 
L 50.36414 171.064791 
L 50.534292 152.852291 
L 50.704444 107.321041 
L 51.044748 152.852291 
L 51.2149 125.533541 
L 51.385052 143.746041 
L 51.555204 125.533541 
L 51.725356 143.746041 
L 51.895508 116.427291 
L 52.06566 134.639791 
L 52.235812 134.639791 
L 52.405964 125.533541 
L 52.576116 152.852291 
L 52.91642 107.321041 
L 53.086572 152.852291 
L 53.426876 152.852291 
L 53.597028 143.746041 
L 53.76718 143.746041 
L 54.107484 125.533541 
L 54.277636 134.639791 
L 54.447788 125.533541 
L 54.61794 143.746041 
L 54.788092 143.746041 
L 54.958244 134.639791 
L 55.128396 134.639791 
L 55.298548 143.746041 
L 55.4687 125.533541 
L 55.638852 134.639791 
L 55.809004 134.639791 
L 55.979156 143.746041 
L 56.149308 134.639791 
L 56.31946 134.639791 
L 56.489612 143.746041 
L 56.659764 116.427291 
L 57.000068 143.746041 
L 57.17022 125.533541 
L 57.340372 161.958541 
L 57.680676 98.214791 
L 57.850828 143.746041 
L 58.02098 143.746041 
L 58.531436 116.427291 
L 58.701588 134.639791 
L 59.041892 116.427291 
L 59.212044 134.639791 
L 59.382196 134.639791 
L 59.552348 125.533541 
L 59.7225 107.321041 
L 60.403108 107.321041 
L 60.57326 125.533541 
L 61.083716 125.533541 
L 61.253868 134.639791 
L 61.42402 125.533541 
L 61.594172 125.533541 
L 61.934476 107.321041 
L 62.27478 125.533541 
L 62.444932 107.321041 
L 62.615084 116.427291 
L 62.785236 107.321041 
L 62.955388 134.639791 
L 63.295692 116.427291 
L 63.465844 116.427291 
L 63.635996 80.002291 
L 63.9763 125.533541 
L 64.146452 107.321041 
L 64.316604 107.321041 
L 64.486756 125.533541 
L 64.82706 98.214791 
L 64.997212 125.533541 
L 65.167364 107.321041 
L 65.847972 107.321041 
L 66.018124 116.427291 
L 66.188276 98.214791 
L 66.358428 107.321041 
L 66.52858 89.108541 
L 66.868884 125.533541 
L 67.209188 89.108541 
L 67.37934 107.321041 
L 67.549492 98.214791 
L 67.719644 107.321041 
L 68.059948 107.321041 
L 68.2301 89.108541 
L 68.400252 98.214791 
L 68.570404 98.214791 
L 68.740556 107.321041 
L 68.910708 89.108541 
L 69.08086 98.214791 
L 69.251012 98.214791 
L 69.421164 116.427291 
L 69.591316 107.321041 
L 69.761468 89.108541 
L 69.93162 98.214791 
L 70.101772 89.108541 
L 70.271924 98.214791 
L 70.442076 98.214791 
L 70.612228 80.002291 
L 70.78238 80.002291 
L 70.952532 107.321041 
L 71.122684 61.789791 
L 71.292836 80.002291 
L 71.462988 70.896041 
L 71.63314 98.214791 
L 71.803292 61.789791 
L 71.973444 89.108541 
L 72.143596 80.002291 
L 72.313748 89.108541 
L 72.4839 89.108541 
L 72.654052 70.896041 
L 72.824204 98.214791 
L 72.994356 89.108541 
L 73.164508 107.321041 
L 73.33466 80.002291 
L 73.504812 107.321041 
L 73.674964 98.214791 
L 73.845116 80.002291 
L 74.015268 89.108541 
L 74.355572 89.108541 
L 74.525724 98.214791 
L 74.695876 116.427291 
L 75.03618 98.214791 
L 75.206332 107.321041 
L 75.376484 125.533541 
L 75.546636 116.427291 
L 75.716788 116.427291 
L 75.88694 98.214791 
L 76.057092 125.533541 
L 76.227244 80.002291 
L 76.397396 107.321041 
L 76.567548 98.214791 
L 76.907852 98.214791 
L 77.078004 116.427291 
L 77.248156 107.321041 
L 77.418308 80.002291 
L 77.58846 116.427291 
L 77.758612 89.108541 
L 77.928764 107.321041 
L 78.098916 98.214791 
L 78.609372 98.214791 
L 78.779524 116.427291 
L 78.949676 98.214791 
L 79.119828 98.214791 
L 79.28998 107.321041 
L 79.460132 107.321041 
L 79.630284 98.214791 
L 79.800436 125.533541 
L 79.970588 116.427291 
L 80.14074 125.533541 
L 80.310892 116.427291 
L 80.651196 134.639791 
L 80.821348 116.427291 
L 80.9915 143.746041 
L 81.161652 116.427291 
L 81.331804 107.321041 
L 81.501956 116.427291 
L 81.672108 98.214791 
L 81.84226 125.533541 
L 82.012412 125.533541 
L 82.182564 98.214791 
L 82.352716 134.639791 
L 82.69302 107.321041 
L 82.863172 134.639791 
L 83.033324 134.639791 
L 83.203476 152.852291 
L 83.373628 116.427291 
L 83.54378 134.639791 
L 83.884084 134.639791 
L 84.054236 143.746041 
L 84.39454 125.533541 
L 84.734844 143.746041 
L 84.904996 134.639791 
L 85.415452 134.639791 
L 85.585604 116.427291 
L 85.755756 143.746041 
L 85.925908 143.746041 
L 86.09606 134.639791 
L 86.266212 116.427291 
L 86.606516 143.746041 
L 86.776668 107.321041 
L 86.94682 134.639791 
L 87.116972 125.533541 
L 87.287124 134.639791 
L 87.627428 134.639791 
L 87.79758 125.533541 
L 87.967732 143.746041 
L 88.137884 143.746041 
L 88.308036 116.427291 
L 88.478188 107.321041 
L 88.818492 161.958541 
L 88.988644 125.533541 
L 89.158796 125.533541 
L 89.328948 161.958541 
L 89.4991 152.852291 
L 89.669252 125.533541 
L 90.009556 125.533541 
L 90.34986 143.746041 
L 90.520012 116.427291 
L 90.690164 125.533541 
L 90.860316 143.746041 
L 91.030468 107.321041 
L 91.20062 134.639791 
L 91.370772 143.746041 
L 91.540924 125.533541 
L 91.711076 152.852291 
L 91.881228 125.533541 
L 92.05138 143.746041 
L 92.221532 143.746041 
L 92.391684 134.639791 
L 92.561836 107.321041 
L 92.90214 143.746041 
L 93.072292 134.639791 
L 93.412596 134.639791 
L 93.582748 143.746041 
L 94.093204 116.427291 
L 94.433508 152.852291 
L 94.60366 143.746041 
L 94.773812 125.533541 
L 94.943964 134.639791 
L 95.114116 125.533541 
L 95.284268 125.533541 
L 95.45442 116.427291 
L 95.624572 116.427291 
L 95.794724 107.321041 
L 95.964876 116.427291 
L 96.135028 143.746041 
L 96.475332 107.321041 
L 96.645484 116.427291 
L 96.815636 98.214791 
L 96.985788 107.321041 
L 97.15594 98.214791 
L 97.666396 125.533541 
L 97.836548 107.321041 
L 98.0067 116.427291 
L 98.176852 107.321041 
L 98.347004 116.427291 
L 98.687308 116.427291 
L 98.85746 107.321041 
L 99.027612 125.533541 
L 99.197764 125.533541 
L 99.367916 107.321041 
L 99.538068 107.321041 
L 99.70822 125.533541 
L 99.878372 89.108541 
L 100.048524 89.108541 
L 100.218676 98.214791 
L 100.388828 70.896041 
L 100.729132 89.108541 
L 100.899284 134.639791 
L 101.069436 107.321041 
L 101.239588 107.321041 
L 101.40974 98.214791 
L 101.579892 107.321041 
L 101.750044 98.214791 
L 101.920196 116.427291 
L 102.090348 98.214791 
L 102.2605 107.321041 
L 102.430652 98.214791 
L 102.770956 116.427291 
L 102.941108 116.427291 
L 103.281412 98.214791 
L 103.451564 107.321041 
L 104.302324 107.321041 
L 104.472476 98.214791 
L 104.642628 70.896041 
L 104.81278 98.214791 
L 104.982932 52.683541 
L 105.153084 98.214791 
L 105.323236 70.896041 
L 105.493388 70.896041 
L 105.66354 80.002291 
L 105.833692 80.002291 
L 106.003844 107.321041 
L 106.173996 70.896041 
L 106.344148 98.214791 
L 106.5143 70.896041 
L 106.854604 89.108541 
L 107.194908 89.108541 
L 107.36506 98.214791 
L 107.535212 80.002291 
L 107.705364 107.321041 
L 107.875516 80.002291 
L 108.385972 107.321041 
L 108.556124 107.321041 
L 108.726276 89.108541 
L 108.896428 98.214791 
L 109.06658 125.533541 
L 109.236732 98.214791 
L 109.406884 116.427291 
L 109.577036 89.108541 
L 109.747188 89.108541 
L 109.91734 98.214791 
L 110.087492 80.002291 
L 110.427796 125.533541 
L 110.597948 98.214791 
L 110.7681 107.321041 
L 110.938252 98.214791 
L 111.108404 116.427291 
L 111.448708 89.108541 
L 111.61886 107.321041 
L 111.789012 107.321041 
L 111.959164 98.214791 
L 112.129316 107.321041 
L 112.299468 107.321041 
L 112.639772 89.108541 
L 112.809924 98.214791 
L 113.150228 125.533541 
L 113.490532 125.533541 
L 113.660684 107.321041 
L 113.830836 107.321041 
L 114.000988 125.533541 
L 114.17114 107.321041 
L 114.341292 116.427291 
L 114.511444 107.321041 
L 114.851748 107.321041 
L 115.0219 134.639791 
L 115.192052 107.321041 
L 115.362204 134.639791 
L 115.702508 107.321041 
L 115.87266 125.533541 
L 116.042812 107.321041 
L 116.553268 107.321041 
L 116.72342 125.533541 
L 116.893572 107.321041 
L 117.063724 143.746041 
L 117.233876 152.852291 
L 117.404028 107.321041 
L 117.744332 161.958541 
L 117.914484 116.427291 
L 118.084636 116.427291 
L 118.254788 125.533541 
L 118.42494 125.533541 
L 118.595092 161.958541 
L 118.935396 143.746041 
L 119.105548 143.746041 
L 119.2757 134.639791 
L 119.445852 116.427291 
L 119.786156 161.958541 
L 119.956308 116.427291 
L 120.12646 134.639791 
L 120.296612 134.639791 
L 120.466764 125.533541 
L 120.636916 143.746041 
L 120.807068 143.746041 
L 120.97722 125.533541 
L 121.147372 134.639791 
L 121.317524 107.321041 
L 121.487676 125.533541 
L 121.657828 125.533541 
L 121.82798 152.852291 
L 121.998132 125.533541 
L 122.338436 152.852291 
L 122.508588 143.746041 
L 122.67874 143.746041 
L 122.848892 125.533541 
L 123.019044 134.639791 
L 123.189196 134.639791 
L 123.359348 107.321041 
L 123.5295 143.746041 
L 123.699652 107.321041 
L 123.869804 134.639791 
L 124.039956 134.639791 
L 124.210108 125.533541 
L 124.38026 107.321041 
L 124.550412 134.639791 
L 124.890716 116.427291 
L 125.23102 152.852291 
L 125.401172 116.427291 
L 125.571324 134.639791 
L 125.741476 125.533541 
L 125.911628 98.214791 
L 126.08178 143.746041 
L 126.251932 125.533541 
L 126.422084 143.746041 
L 126.592236 143.746041 
L 126.762388 125.533541 
L 127.102692 143.746041 
L 127.442996 143.746041 
L 127.613148 116.427291 
L 127.7833 143.746041 
L 128.123604 116.427291 
L 128.293756 125.533541 
L 128.463908 152.852291 
L 128.63406 125.533541 
L 128.804212 125.533541 
L 129.144516 143.746041 
L 129.48482 143.746041 
L 129.654972 107.321041 
L 129.825124 107.321041 
L 129.995276 116.427291 
L 130.33558 89.108541 
L 130.846036 134.639791 
L 131.016188 98.214791 
L 131.18634 98.214791 
L 131.356492 125.533541 
L 131.526644 116.427291 
L 131.696796 125.533541 
L 131.866948 116.427291 
L 132.0371 98.214791 
L 132.207252 107.321041 
L 132.547556 107.321041 
L 132.88786 125.533541 
L 133.058012 116.427291 
L 133.228164 116.427291 
L 133.398316 107.321041 
L 133.568468 125.533541 
L 134.078924 80.002291 
L 134.249076 107.321041 
L 134.419228 89.108541 
L 134.58938 98.214791 
L 134.759532 125.533541 
L 134.929684 89.108541 
L 135.099836 107.321041 
L 135.269988 107.321041 
L 135.44014 98.214791 
L 135.610292 107.321041 
L 135.780444 107.321041 
L 135.950596 80.002291 
L 136.120748 107.321041 
L 136.2909 116.427291 
L 136.461052 107.321041 
L 136.801356 107.321041 
L 137.14166 89.108541 
L 137.311812 107.321041 
L 137.481964 107.321041 
L 137.652116 80.002291 
L 137.99242 107.321041 
L 138.332724 107.321041 
L 138.502876 89.108541 
L 138.673028 98.214791 
L 139.013332 52.683541 
L 139.183484 89.108541 
L 139.523788 70.896041 
L 139.69394 89.108541 
L 139.864092 89.108541 
L 140.034244 80.002291 
L 140.374548 107.321041 
L 140.5447 89.108541 
L 140.714852 107.321041 
L 140.885004 70.896041 
L 141.055156 70.896041 
L 141.225308 89.108541 
L 141.39546 80.002291 
L 141.565612 80.002291 
L 141.735764 107.321041 
L 142.076068 80.002291 
L 142.24622 107.321041 
L 142.416372 80.002291 
L 142.586524 107.321041 
L 142.926828 107.321041 
L 143.267132 89.108541 
L 143.437284 107.321041 
L 143.607436 107.321041 
L 143.777588 98.214791 
L 143.94774 116.427291 
L 144.117892 89.108541 
L 144.288044 125.533541 
L 144.458196 98.214791 
L 144.7985 116.427291 
L 144.968652 89.108541 
L 145.138804 107.321041 
L 145.308956 89.108541 
L 145.479108 116.427291 
L 145.64926 89.108541 
L 145.819412 107.321041 
L 146.159716 89.108541 
L 146.329868 107.321041 
L 146.50002 70.896041 
L 146.670172 98.214791 
L 146.840324 80.002291 
L 147.010476 107.321041 
L 147.35078 89.108541 
L 147.691084 107.321041 
L 147.861236 134.639791 
L 148.031388 107.321041 
L 148.371692 143.746041 
L 148.711996 125.533541 
L 148.882148 107.321041 
L 149.0523 125.533541 
L 149.222452 125.533541 
L 149.392604 134.639791 
L 149.562756 134.639791 
L 149.732908 125.533541 
L 149.90306 134.639791 
L 150.073212 125.533541 
L 150.243364 98.214791 
L 150.413516 143.746041 
L 150.583668 107.321041 
L 150.75382 134.639791 
L 150.923972 125.533541 
L 151.094124 107.321041 
L 151.264276 134.639791 
L 151.434428 143.746041 
L 151.60458 125.533541 
L 151.774732 125.533541 
L 152.115036 107.321041 
L 152.285188 107.321041 
L 152.45534 152.852291 
L 152.625492 125.533541 
L 152.795644 143.746041 
L 153.135948 143.746041 
L 153.3061 134.639791 
L 153.476252 152.852291 
L 153.816556 98.214791 
L 153.986708 134.639791 
L 154.15686 143.746041 
L 154.327012 125.533541 
L 154.497164 134.639791 
L 154.667316 134.639791 
L 154.837468 143.746041 
L 155.00762 143.746041 
L 155.177772 125.533541 
L 155.347924 134.639791 
L 155.518076 98.214791 
L 155.688228 143.746041 
L 156.028532 143.746041 
L 156.198684 116.427291 
L 156.368836 125.533541 
L 156.538988 125.533541 
L 156.70914 134.639791 
L 156.879292 125.533541 
L 157.049444 107.321041 
L 157.219596 116.427291 
L 157.389748 107.321041 
L 157.5599 125.533541 
L 157.730052 125.533541 
L 158.070356 143.746041 
L 158.240508 134.639791 
L 158.41066 107.321041 
L 158.580812 116.427291 
L 158.750964 116.427291 
L 158.921116 134.639791 
L 159.091268 125.533541 
L 159.26142 125.533541 
L 159.431572 152.852291 
L 159.771876 125.533541 
L 160.622636 125.533541 
L 160.792788 143.746041 
L 160.96294 125.533541 
L 161.133092 125.533541 
L 161.303244 134.639791 
L 161.473396 125.533541 
L 161.643548 107.321041 
L 161.8137 143.746041 
L 161.983852 143.746041 
L 162.154004 125.533541 
L 162.324156 125.533541 
L 162.494308 143.746041 
L 162.834612 143.746041 
L 163.004764 125.533541 
L 163.174916 143.746041 
L 163.345068 143.746041 
L 163.51522 125.533541 
L 163.685372 134.639791 
L 163.855524 134.639791 
L 164.025676 98.214791 
L 164.195828 143.746041 
L 164.536132 89.108541 
L 164.706284 107.321041 
L 164.876436 107.321041 
L 165.046588 134.639791 
L 165.21674 80.002291 
L 165.386892 134.639791 
L 165.557044 107.321041 
L 165.897348 107.321041 
L 166.0675 98.214791 
L 166.237652 107.321041 
L 166.407804 98.214791 
L 166.577956 116.427291 
L 166.748108 116.427291 
L 166.91826 80.002291 
L 167.088412 134.639791 
L 167.258564 125.533541 
L 167.428716 98.214791 
L 167.598868 98.214791 
L 167.76902 125.533541 
L 167.939172 98.214791 
L 168.109324 89.108541 
L 168.449628 116.427291 
L 168.61978 116.427291 
L 168.789932 107.321041 
L 168.960084 107.321041 
L 169.130236 134.639791 
L 169.300388 116.427291 
L 169.47054 116.427291 
L 169.640692 107.321041 
L 169.810844 107.321041 
L 169.980996 98.214791 
L 170.151148 107.321041 
L 170.3213 80.002291 
L 170.661604 125.533541 
L 170.831756 107.321041 
L 171.001908 107.321041 
L 171.342212 80.002291 
L 171.512364 125.533541 
L 171.852668 80.002291 
L 172.02282 116.427291 
L 172.192972 107.321041 
L 172.533276 107.321041 
L 172.703428 89.108541 
L 172.87358 98.214791 
L 173.043732 125.533541 
L 173.213884 70.896041 
L 173.384036 80.002291 
L 173.554188 80.002291 
L 173.72434 89.108541 
L 173.894492 89.108541 
L 174.064644 61.789791 
L 174.234796 107.321041 
L 174.404948 80.002291 
L 174.5751 116.427291 
L 174.745252 98.214791 
L 174.915404 107.321041 
L 175.085556 107.321041 
L 175.255708 89.108541 
L 175.42586 89.108541 
L 175.596012 107.321041 
L 175.766164 80.002291 
L 176.27662 107.321041 
L 176.446772 98.214791 
L 176.616924 116.427291 
L 176.787076 107.321041 
L 176.957228 107.321041 
L 177.297532 80.002291 
L 177.637836 107.321041 
L 177.807988 107.321041 
L 177.97814 98.214791 
L 178.148292 107.321041 
L 178.318444 134.639791 
L 178.488596 98.214791 
L 178.658748 107.321041 
L 178.8289 98.214791 
L 178.999052 134.639791 
L 179.339356 116.427291 
L 179.509508 125.533541 
L 179.67966 107.321041 
L 179.849812 116.427291 
L 180.019964 116.427291 
L 180.190116 125.533541 
L 180.360268 107.321041 
L 180.53042 116.427291 
L 180.700572 116.427291 
L 180.870724 107.321041 
L 181.040876 134.639791 
L 181.211028 89.108541 
L 181.38118 89.108541 
L 181.721484 116.427291 
L 181.891636 98.214791 
L 182.061788 98.214791 
L 182.23194 125.533541 
L 182.402092 107.321041 
L 182.572244 107.321041 
L 182.742396 134.639791 
L 182.912548 125.533541 
L 183.0827 107.321041 
L 183.423004 143.746041 
L 183.593156 98.214791 
L 183.763308 134.639791 
L 184.103612 98.214791 
L 184.273764 98.214791 
L 184.443916 152.852291 
L 184.78422 134.639791 
L 184.954372 107.321041 
L 185.124524 134.639791 
L 185.294676 134.639791 
L 185.464828 143.746041 
L 185.805132 107.321041 
L 185.975284 134.639791 
L 186.145436 134.639791 
L 186.315588 152.852291 
L 186.655892 125.533541 
L 186.996196 143.746041 
L 187.166348 134.639791 
L 187.3365 107.321041 
L 187.676804 134.639791 
L 187.846956 143.746041 
L 188.017108 143.746041 
L 188.18726 116.427291 
L 188.697716 116.427291 
L 189.03802 134.639791 
L 189.208172 134.639791 
L 189.378324 107.321041 
L 189.548476 125.533541 
L 189.88878 125.533541 
L 190.058932 116.427291 
L 190.229084 134.639791 
L 190.399236 125.533541 
L 190.569388 107.321041 
L 190.73954 143.746041 
L 190.909692 134.639791 
L 191.079844 107.321041 
L 191.249996 125.533541 
L 191.420148 98.214791 
L 191.760452 152.852291 
L 191.930604 134.639791 
L 192.100756 143.746041 
L 192.270908 125.533541 
L 192.44106 134.639791 
L 192.611212 107.321041 
L 192.781364 107.321041 
L 193.121668 134.639791 
L 193.29182 116.427291 
L 193.461972 134.639791 
L 193.802276 134.639791 
L 193.972428 143.746041 
L 194.14258 134.639791 
L 194.482884 134.639791 
L 194.653036 107.321041 
L 194.99334 152.852291 
L 195.333644 107.321041 
L 195.503796 125.533541 
L 195.673948 107.321041 
L 195.8441 107.321041 
L 196.014252 143.746041 
L 196.184404 134.639791 
L 196.354556 116.427291 
L 196.524708 134.639791 
L 196.69486 125.533541 
L 196.865012 134.639791 
L 197.035164 134.639791 
L 197.205316 143.746041 
L 197.375468 134.639791 
L 197.54562 143.746041 
L 197.715772 125.533541 
L 197.885924 143.746041 
L 198.056076 89.108541 
L 198.39638 125.533541 
L 198.566532 125.533541 
L 198.736684 98.214791 
L 199.076988 116.427291 
L 199.24714 116.427291 
L 199.417292 98.214791 
L 199.587444 107.321041 
L 199.757596 98.214791 
L 199.927748 125.533541 
L 200.268052 107.321041 
L 200.438204 134.639791 
L 200.608356 125.533541 
L 200.778508 134.639791 
L 200.94866 125.533541 
L 201.118812 107.321041 
L 201.288964 125.533541 
L 201.629268 107.321041 
L 201.79942 116.427291 
L 201.969572 107.321041 
L 202.139724 107.321041 
L 202.309876 80.002291 
L 202.480028 134.639791 
L 202.820332 89.108541 
L 203.160636 107.321041 
L 203.330788 125.533541 
L 203.671092 98.214791 
L 203.841244 98.214791 
L 204.011396 134.639791 
L 204.181548 89.108541 
L 204.521852 107.321041 
L 205.20246 107.321041 
L 205.372612 89.108541 
L 205.542764 116.427291 
L 205.712916 98.214791 
L 205.883068 125.533541 
L 206.05322 98.214791 
L 206.223372 89.108541 
L 206.393524 116.427291 
L 206.733828 116.427291 
L 207.074132 70.896041 
L 207.414436 107.321041 
L 207.584588 80.002291 
L 207.75474 107.321041 
L 208.095044 61.789791 
L 208.435348 89.108541 
L 208.6055 80.002291 
L 208.775652 80.002291 
L 208.945804 98.214791 
L 209.115956 98.214791 
L 209.45626 80.002291 
L 209.626412 107.321041 
L 209.796564 70.896041 
L 209.966716 80.002291 
L 210.136868 107.321041 
L 210.477172 107.321041 
L 210.647324 134.639791 
L 210.987628 107.321041 
L 211.15778 98.214791 
L 211.327932 107.321041 
L 211.498084 89.108541 
L 211.838388 107.321041 
L 212.00854 98.214791 
L 212.178692 98.214791 
L 212.348844 107.321041 
L 212.518996 125.533541 
L 212.689148 80.002291 
L 213.029452 125.533541 
L 213.199604 107.321041 
L 213.369756 107.321041 
L 213.539908 98.214791 
L 213.71006 107.321041 
L 213.880212 125.533541 
L 214.220516 107.321041 
L 214.390668 107.321041 
L 214.56082 98.214791 
L 214.730972 134.639791 
L 214.901124 89.108541 
L 215.071276 125.533541 
L 215.41158 80.002291 
L 215.581732 125.533541 
L 215.751884 125.533541 
L 215.922036 107.321041 
L 216.26234 125.533541 
L 216.432492 89.108541 
L 216.602644 134.639791 
L 216.942948 98.214791 
L 217.1131 125.533541 
L 217.453404 98.214791 
L 217.623556 107.321041 
L 217.793708 107.321041 
L 217.96386 125.533541 
L 218.134012 107.321041 
L 218.304164 125.533541 
L 218.644468 125.533541 
L 218.984772 89.108541 
L 219.495228 143.746041 
L 219.66538 107.321041 
L 219.835532 143.746041 
L 220.005684 125.533541 
L 220.175836 152.852291 
L 220.51614 116.427291 
L 220.686292 143.746041 
L 220.856444 143.746041 
L 221.196748 125.533541 
L 221.3669 125.533541 
L 221.537052 134.639791 
L 221.707204 134.639791 
L 221.877356 116.427291 
L 222.21766 143.746041 
L 222.387812 143.746041 
L 222.728116 116.427291 
L 222.898268 143.746041 
L 223.06842 134.639791 
L 223.408724 152.852291 
L 223.578876 134.639791 
L 223.749028 152.852291 
L 223.91918 125.533541 
L 224.089332 152.852291 
L 224.259484 125.533541 
L 224.429636 134.639791 
L 224.599788 125.533541 
L 224.76994 125.533541 
L 224.940092 107.321041 
L 225.110244 134.639791 
L 225.280396 107.321041 
L 225.450548 107.321041 
L 225.790852 125.533541 
L 226.131156 125.533541 
L 226.301308 134.639791 
L 226.47146 125.533541 
L 226.811764 98.214791 
L 227.152068 152.852291 
L 227.32222 125.533541 
L 227.662524 125.533541 
L 228.002828 107.321041 
L 228.17298 134.639791 
L 228.343132 125.533541 
L 228.513284 107.321041 
L 228.683436 134.639791 
L 229.02374 134.639791 
L 229.193892 143.746041 
L 229.364044 134.639791 
L 229.534196 107.321041 
L 229.8745 171.064791 
L 230.044652 107.321041 
L 230.214804 143.746041 
L 230.555108 143.746041 
L 230.72526 134.639791 
L 230.895412 134.639791 
L 231.065564 152.852291 
L 231.235716 134.639791 
L 231.57602 134.639791 
L 231.746172 107.321041 
L 231.916324 143.746041 
L 232.086476 98.214791 
L 232.42678 125.533541 
L 232.596932 116.427291 
L 232.767084 125.533541 
L 232.937236 116.427291 
L 233.107388 98.214791 
L 233.27754 116.427291 
L 233.447692 98.214791 
L 233.787996 116.427291 
L 233.958148 107.321041 
L 234.1283 143.746041 
L 234.298452 107.321041 
L 234.468604 107.321041 
L 234.638756 143.746041 
L 234.97906 125.533541 
L 235.149212 152.852291 
L 235.319364 107.321041 
L 235.489516 107.321041 
L 235.659668 98.214791 
L 235.999972 98.214791 
L 236.170124 116.427291 
L 236.510428 98.214791 
L 236.68058 107.321041 
L 236.850732 98.214791 
L 237.020884 125.533541 
L 237.191036 98.214791 
L 237.361188 107.321041 
L 237.53134 107.321041 
L 237.701492 80.002291 
L 237.871644 125.533541 
L 238.211948 98.214791 
L 238.3821 107.321041 
L 238.722404 107.321041 
L 238.892556 98.214791 
L 239.062708 107.321041 
L 239.23286 107.321041 
L 239.403012 125.533541 
L 239.743316 98.214791 
L 239.913468 89.108541 
L 240.08362 107.321041 
L 240.253772 98.214791 
L 240.423924 98.214791 
L 240.594076 107.321041 
L 240.764228 107.321041 
L 240.93438 70.896041 
L 241.104532 89.108541 
L 241.274684 80.002291 
L 241.444836 80.002291 
L 241.614988 70.896041 
L 241.78514 70.896041 
L 241.955292 98.214791 
L 242.125444 80.002291 
L 242.295596 89.108541 
L 242.465748 80.002291 
L 242.6359 107.321041 
L 242.806052 89.108541 
L 242.976204 89.108541 
L 243.146356 98.214791 
L 243.48666 80.002291 
L 243.656812 89.108541 
L 243.826964 80.002291 
L 244.167268 80.002291 
L 244.33742 98.214791 
L 244.507572 89.108541 
L 244.677724 107.321041 
L 244.847876 107.321041 
L 245.018028 89.108541 
L 245.18818 89.108541 
L 245.528484 107.321041 
L 245.698636 89.108541 
L 245.868788 107.321041 
L 246.03894 98.214791 
L 246.209092 107.321041 
L 246.379244 98.214791 
L 246.719548 116.427291 
L 246.8897 89.108541 
L 247.230004 107.321041 
L 247.570308 107.321041 
L 247.74046 98.214791 
L 247.910612 125.533541 
L 248.250916 107.321041 
L 248.421068 125.533541 
L 248.761372 89.108541 
L 248.931524 89.108541 
L 249.101676 107.321041 
L 249.44198 107.321041 
L 249.612132 116.427291 
L 249.782284 80.002291 
L 250.122588 143.746041 
L 250.29274 98.214791 
L 250.633044 116.427291 
L 250.803196 134.639791 
L 251.483804 98.214791 
L 251.653956 98.214791 
L 251.824108 107.321041 
L 251.99426 107.321041 
L 252.164412 116.427291 
L 252.334564 98.214791 
L 252.674868 152.852291 
L 252.84502 98.214791 
L 253.015172 134.639791 
L 253.185324 125.533541 
L 253.355476 134.639791 
L 253.525628 107.321041 
L 253.69578 107.321041 
L 254.036084 125.533541 
L 254.376388 125.533541 
L 254.54654 107.321041 
L 254.716692 125.533541 
L 254.886844 125.533541 
L 255.056996 107.321041 
L 255.227148 107.321041 
L 255.3973 125.533541 
L 255.567452 125.533541 
L 255.737604 134.639791 
L 255.907756 134.639791 
L 256.077908 125.533541 
L 256.418212 161.958541 
L 256.588364 125.533541 
L 256.758516 134.639791 
L 256.928668 180.171041 
L 257.09882 116.427291 
L 257.268972 134.639791 
L 257.439124 134.639791 
L 257.609276 152.852291 
L 257.779428 125.533541 
L 257.94958 134.639791 
L 258.289884 116.427291 
L 258.460036 125.533541 
L 258.630188 152.852291 
L 258.80034 143.746041 
L 258.970492 143.746041 
L 259.140644 125.533541 
L 259.310796 134.639791 
L 259.480948 152.852291 
L 259.6511 125.533541 
L 259.821252 134.639791 
L 259.991404 107.321041 
L 260.161556 134.639791 
L 260.672012 134.639791 
L 260.842164 125.533541 
L 261.012316 143.746041 
L 261.182468 134.639791 
L 261.35262 152.852291 
L 261.522772 125.533541 
L 261.692924 143.746041 
L 261.863076 107.321041 
L 262.033228 143.746041 
L 262.20338 125.533541 
L 262.373532 125.533541 
L 262.543684 116.427291 
L 262.713836 125.533541 
L 262.883988 125.533541 
L 263.05414 143.746041 
L 263.224292 116.427291 
L 263.394444 143.746041 
L 263.564596 107.321041 
L 263.734748 134.639791 
L 263.9049 125.533541 
L 264.075052 134.639791 
L 264.245204 125.533541 
L 264.415356 134.639791 
L 264.585508 134.639791 
L 264.75566 125.533541 
L 264.925812 134.639791 
L 265.095964 116.427291 
L 265.436268 134.639791 
L 265.60642 107.321041 
L 265.776572 107.321041 
L 265.946724 116.427291 
L 266.116876 134.639791 
L 266.287028 116.427291 
L 266.45718 116.427291 
L 266.627332 107.321041 
L 266.967636 107.321041 
L 267.137788 98.214791 
L 267.30794 116.427291 
L 267.478092 107.321041 
L 267.648244 89.108541 
L 267.988548 116.427291 
L 268.1587 116.427291 
L 268.328852 134.639791 
L 268.499004 134.639791 
L 268.669156 107.321041 
L 268.839308 116.427291 
L 269.00946 134.639791 
L 269.179612 107.321041 
L 269.349764 98.214791 
L 269.690068 98.214791 
L 269.86022 89.108541 
L 270.030372 107.321041 
L 270.200524 98.214791 
L 270.370676 107.321041 
L 270.881132 107.321041 
L 271.051284 98.214791 
L 271.221436 98.214791 
L 271.391588 134.639791 
L 271.56174 98.214791 
L 271.731892 125.533541 
L 271.902044 107.321041 
L 272.072196 116.427291 
L 272.242348 98.214791 
L 272.4125 107.321041 
L 272.582652 107.321041 
L 272.752804 134.639791 
L 272.922956 107.321041 
L 273.093108 98.214791 
L 273.26326 107.321041 
L 273.433412 107.321041 
L 273.603564 98.214791 
L 273.773716 107.321041 
L 273.943868 98.214791 
L 274.11402 107.321041 
L 274.284172 125.533541 
L 274.454324 98.214791 
L 274.624476 125.533541 
L 274.794628 80.002291 
L 274.96478 107.321041 
L 275.305084 80.002291 
L 275.475236 80.002291 
L 275.645388 89.108541 
L 275.81554 70.896041 
L 276.155844 70.896041 
L 276.325996 89.108541 
L 276.496148 80.002291 
L 276.6663 107.321041 
L 276.836452 80.002291 
L 277.006604 89.108541 
L 277.176756 80.002291 
L 277.346908 89.108541 
L 277.51706 107.321041 
L 277.687212 98.214791 
L 277.857364 80.002291 
L 278.027516 89.108541 
L 278.197668 80.002291 
L 278.537972 80.002291 
L 278.878276 116.427291 
L 279.048428 107.321041 
L 279.21858 107.321041 
L 279.388732 98.214791 
L 279.558884 107.321041 
L 279.729036 107.321041 
L 279.899188 98.214791 
L 280.06934 107.321041 
L 280.239492 125.533541 
L 280.579796 98.214791 
L 280.9201 98.214791 
L 281.090252 116.427291 
L 281.260404 98.214791 
L 281.430556 107.321041 
L 281.600708 98.214791 
L 281.77086 107.321041 
L 282.281316 107.321041 
L 282.451468 125.533541 
L 282.62162 107.321041 
L 282.791772 107.321041 
L 282.961924 116.427291 
L 283.132076 107.321041 
L 283.302228 134.639791 
L 283.47238 80.002291 
L 283.642532 116.427291 
L 283.812684 107.321041 
L 283.982836 125.533541 
L 284.152988 107.321041 
L 284.32314 107.321041 
L 284.833596 134.639791 
L 285.003748 134.639791 
L 285.1739 98.214791 
L 285.344052 125.533541 
L 285.514204 134.639791 
L 285.684356 116.427291 
L 285.854508 125.533541 
L 286.194812 125.533541 
L 286.364964 134.639791 
L 286.535116 125.533541 
L 286.87542 125.533541 
L 287.045572 134.639791 
L 287.215724 125.533541 
L 287.385876 134.639791 
L 287.72618 116.427291 
L 287.896332 143.746041 
L 288.066484 143.746041 
L 288.236636 125.533541 
L 288.406788 125.533541 
L 288.57694 143.746041 
L 288.747092 134.639791 
L 288.917244 143.746041 
L 289.087396 134.639791 
L 289.257548 143.746041 
L 289.4277 134.639791 
L 289.597852 134.639791 
L 289.768004 143.746041 
L 289.938156 125.533541 
L 290.108308 134.639791 
L 290.27846 107.321041 
L 290.618764 152.852291 
L 290.959068 125.533541 
L 291.12922 125.533541 
L 291.469524 143.746041 
L 291.639676 116.427291 
L 291.809828 116.427291 
L 291.97998 143.746041 
L 292.150132 107.321041 
L 292.320284 143.746041 
L 292.490436 134.639791 
L 292.660588 143.746041 
L 292.83074 134.639791 
L 293.000892 161.958541 
L 293.171044 125.533541 
L 293.341196 134.639791 
L 293.511348 134.639791 
L 293.6815 125.533541 
L 293.851652 125.533541 
L 294.021804 161.958541 
L 294.191956 125.533541 
L 294.362108 152.852291 
L 294.53226 116.427291 
L 294.702412 107.321041 
L 294.872564 107.321041 
L 295.042716 134.639791 
L 295.212868 134.639791 
L 295.553172 116.427291 
L 295.723324 143.746041 
L 295.893476 134.639791 
L 296.063628 107.321041 
L 296.23378 143.746041 
L 296.403932 125.533541 
L 296.574084 134.639791 
L 296.744236 134.639791 
L 296.914388 125.533541 
L 297.08454 143.746041 
L 297.254692 134.639791 
L 297.424844 134.639791 
L 297.594996 125.533541 
L 297.765148 107.321041 
L 298.275604 134.639791 
L 298.445756 125.533541 
L 298.615908 107.321041 
L 298.78606 134.639791 
L 298.956212 125.533541 
L 299.126364 143.746041 
L 299.296516 107.321041 
L 299.466668 134.639791 
L 299.63682 107.321041 
L 299.806972 107.321041 
L 299.977124 134.639791 
L 300.147276 107.321041 
L 300.317428 107.321041 
L 300.48758 125.533541 
L 300.657732 98.214791 
L 300.827884 125.533541 
L 300.998036 80.002291 
L 301.168188 125.533541 
L 301.33834 80.002291 
L 301.508492 116.427291 
L 301.678644 125.533541 
L 301.848796 107.321041 
L 302.018948 107.321041 
L 302.1891 116.427291 
L 302.359252 98.214791 
L 302.529404 125.533541 
L 302.699556 134.639791 
L 303.03986 134.639791 
L 303.380164 89.108541 
L 303.720468 125.533541 
L 303.89062 98.214791 
L 304.230924 125.533541 
L 304.571228 70.896041 
L 304.74138 70.896041 
L 304.911532 107.321041 
L 305.081684 107.321041 
L 305.251836 89.108541 
L 305.421988 107.321041 
L 306.102596 107.321041 
L 306.272748 98.214791 
L 306.4429 107.321041 
L 306.613052 107.321041 
L 307.29366 70.896041 
L 307.463812 107.321041 
L 307.633964 107.321041 
L 307.804116 89.108541 
L 307.974268 98.214791 
L 308.14442 98.214791 
L 308.314572 125.533541 
L 308.654876 80.002291 
L 308.825028 80.002291 
L 308.99518 89.108541 
L 309.165332 80.002291 
L 309.335484 89.108541 
L 309.505636 107.321041 
L 309.675788 89.108541 
L 309.84594 98.214791 
L 310.186244 98.214791 
L 310.356396 70.896041 
L 310.526548 80.002291 
L 310.6967 80.002291 
L 310.866852 70.896041 
L 311.037004 98.214791 
L 311.207156 70.896041 
L 311.377308 89.108541 
L 311.54746 70.896041 
L 311.717612 80.002291 
L 311.887764 98.214791 
L 312.057916 70.896041 
L 312.228068 80.002291 
L 312.568372 80.002291 
L 312.738524 125.533541 
L 313.078828 80.002291 
L 313.24898 125.533541 
L 313.759436 98.214791 
L 313.929588 107.321041 
L 314.09974 89.108541 
L 314.269892 89.108541 
L 314.440044 107.321041 
L 314.610196 143.746041 
L 314.780348 107.321041 
L 314.9505 125.533541 
L 315.120652 98.214791 
L 315.290804 107.321041 
L 315.460956 107.321041 
L 315.631108 89.108541 
L 315.80126 98.214791 
L 315.971412 98.214791 
L 316.141564 116.427291 
L 316.311716 80.002291 
L 316.65202 125.533541 
L 316.992324 98.214791 
L 317.162476 116.427291 
L 317.332628 107.321041 
L 317.50278 116.427291 
L 317.672932 98.214791 
L 317.843084 107.321041 
L 318.013236 107.321041 
L 318.183388 116.427291 
L 318.35354 134.639791 
L 318.523692 107.321041 
L 318.693844 107.321041 
L 318.863996 116.427291 
L 319.034148 107.321041 
L 319.2043 134.639791 
L 319.374452 125.533541 
L 319.544604 98.214791 
L 319.884908 143.746041 
L 320.395364 98.214791 
L 320.565516 107.321041 
L 320.735668 89.108541 
L 320.90582 107.321041 
L 321.246124 107.321041 
L 321.416276 116.427291 
L 321.75658 116.427291 
L 322.096884 152.852291 
L 322.267036 125.533541 
L 322.437188 143.746041 
L 322.60734 134.639791 
L 322.777492 116.427291 
L 322.947644 143.746041 
L 323.117796 152.852291 
L 323.287948 134.639791 
L 323.4581 134.639791 
L 323.628252 125.533541 
L 323.798404 134.639791 
L 323.968556 134.639791 
L 324.138708 152.852291 
L 324.30886 152.852291 
L 324.649164 134.639791 
L 325.15962 134.639791 
L 325.499924 116.427291 
L 325.670076 143.746041 
L 325.840228 143.746041 
L 326.01038 134.639791 
L 326.180532 107.321041 
L 326.350684 143.746041 
L 326.520836 143.746041 
L 326.690988 134.639791 
L 326.86114 134.639791 
L 327.031292 125.533541 
L 327.201444 107.321041 
L 327.371596 134.639791 
L 327.541748 116.427291 
L 327.7119 143.746041 
L 327.882052 152.852291 
L 328.052204 171.064791 
L 328.392508 98.214791 
L 328.56266 143.746041 
L 328.902964 125.533541 
L 329.073116 143.746041 
L 329.243268 134.639791 
L 329.41342 134.639791 
L 329.583572 116.427291 
L 329.923876 116.427291 
L 330.094028 125.533541 
L 330.26418 107.321041 
L 330.434332 116.427291 
L 330.604484 116.427291 
L 330.774636 107.321041 
L 330.944788 143.746041 
L 331.455244 98.214791 
L 331.625396 107.321041 
L 331.9657 134.639791 
L 332.135852 143.746041 
L 332.476156 116.427291 
L 332.646308 134.639791 
L 332.81646 134.639791 
L 332.986612 125.533541 
L 333.326916 125.533541 
L 333.497068 134.639791 
L 333.66722 116.427291 
L 333.837372 143.746041 
L 334.177676 107.321041 
L 334.347828 107.321041 
L 334.51798 116.427291 
L 334.688132 116.427291 
L 334.858284 107.321041 
L 335.028436 143.746041 
L 335.198588 125.533541 
L 335.36874 89.108541 
L 335.538892 107.321041 
L 335.709044 98.214791 
L 335.879196 98.214791 
L 336.049348 116.427291 
L 336.2195 107.321041 
L 336.389652 116.427291 
L 336.559804 107.321041 
L 337.07026 107.321041 
L 337.410564 143.746041 
L 337.580716 98.214791 
L 337.92102 116.427291 
L 338.091172 116.427291 
L 338.261324 107.321041 
L 338.431476 89.108541 
L 338.601628 107.321041 
L 338.77178 89.108541 
L 338.941932 107.321041 
L 339.282236 107.321041 
L 339.452388 80.002291 
L 339.62254 116.427291 
L 339.792692 98.214791 
L 339.962844 107.321041 
L 340.132996 125.533541 
L 340.4733 89.108541 
L 340.643452 107.321041 
L 340.983756 107.321041 
L 341.153908 98.214791 
L 341.32406 107.321041 
L 341.494212 89.108541 
L 341.664364 125.533541 
L 341.834516 80.002291 
L 342.004668 107.321041 
L 342.17482 98.214791 
L 342.344972 52.683541 
L 342.515124 89.108541 
L 342.685276 89.108541 
L 342.855428 70.896041 
L 343.02558 107.321041 
L 343.195732 98.214791 
L 343.365884 107.321041 
L 343.87634 80.002291 
L 344.046492 89.108541 
L 344.216644 80.002291 
L 344.556948 116.427291 
L 344.7271 107.321041 
L 344.897252 70.896041 
L 345.067404 89.108541 
L 345.237556 80.002291 
L 345.407708 80.002291 
L 345.748012 98.214791 
L 345.918164 52.683541 
L 346.088316 98.214791 
L 346.258468 89.108541 
L 346.42862 116.427291 
L 346.598772 107.321041 
L 346.768924 107.321041 
L 346.939076 98.214791 
L 347.109228 107.321041 
L 347.27938 98.214791 
L 347.449532 98.214791 
L 347.619684 107.321041 
L 347.959988 107.321041 
L 348.13014 98.214791 
L 348.300292 107.321041 
L 348.470444 98.214791 
L 348.640596 98.214791 
L 348.9809 116.427291 
L 349.151052 89.108541 
L 349.321204 107.321041 
L 349.661508 107.321041 
L 349.83166 116.427291 
L 350.001812 116.427291 
L 350.171964 107.321041 
L 350.342116 107.321041 
L 350.68242 89.108541 
L 350.852572 89.108541 
L 351.022724 107.321041 
L 351.363028 107.321041 
L 351.53318 98.214791 
L 351.703332 107.321041 
L 351.873484 98.214791 
L 352.043636 125.533541 
L 352.213788 98.214791 
L 352.38394 116.427291 
L 352.894396 116.427291 
L 353.064548 134.639791 
L 353.404852 89.108541 
L 353.575004 134.639791 
L 353.745156 125.533541 
L 353.915308 107.321041 
L 354.08546 107.321041 
L 354.255612 152.852291 
L 354.425764 134.639791 
L 354.595916 89.108541 
L 354.766068 125.533541 
L 354.93622 125.533541 
L 355.106372 107.321041 
L 355.446676 125.533541 
L 355.957132 125.533541 
L 356.127284 143.746041 
L 356.297436 116.427291 
L 356.467588 134.639791 
L 356.63774 134.639791 
L 356.807892 125.533541 
L 356.978044 134.639791 
L 357.148196 134.639791 
L 357.318348 143.746041 
L 357.4885 125.533541 
L 357.658652 134.639791 
L 357.998956 134.639791 
L 358.169108 143.746041 
L 358.33926 134.639791 
L 358.679564 134.639791 
L 358.849716 116.427291 
L 359.019868 152.852291 
L 359.19002 143.746041 
L 359.360172 125.533541 
L 359.700476 143.746041 
L 359.870628 143.746041 
L 360.04078 134.639791 
L 360.210932 143.746041 
L 360.381084 107.321041 
L 360.551236 143.746041 
L 361.231844 143.746041 
L 361.401996 134.639791 
L 361.7423 134.639791 
L 361.912452 143.746041 
L 362.082604 125.533541 
L 362.252756 152.852291 
L 362.59306 134.639791 
L 362.763212 134.639791 
L 362.933364 125.533541 
L 363.103516 143.746041 
L 363.273668 116.427291 
L 363.44382 152.852291 
L 363.613972 152.852291 
L 363.784124 116.427291 
L 363.954276 125.533541 
L 364.124428 161.958541 
L 364.29458 116.427291 
L 364.464732 116.427291 
L 364.634884 125.533541 
L 364.805036 125.533541 
L 364.975188 152.852291 
L 365.14534 143.746041 
L 365.315492 152.852291 
L 365.485644 125.533541 
L 365.655796 143.746041 
L 365.825948 125.533541 
L 365.9961 134.639791 
L 366.336404 116.427291 
L 366.506556 134.639791 
L 366.676708 116.427291 
L 366.84686 125.533541 
L 367.017012 98.214791 
L 367.187164 143.746041 
L 367.357316 107.321041 
L 367.527468 143.746041 
L 367.69762 107.321041 
L 367.867772 134.639791 
L 368.208076 107.321041 
L 368.378228 143.746041 
L 368.54838 89.108541 
L 368.718532 125.533541 
L 368.888684 98.214791 
L 369.058836 107.321041 
L 369.228988 107.321041 
L 369.39914 116.427291 
L 369.569292 98.214791 
L 369.739444 116.427291 
L 369.909596 107.321041 
L 370.079748 116.427291 
L 370.420052 116.427291 
L 370.590204 125.533541 
L 370.760356 125.533541 
L 370.930508 98.214791 
L 371.10066 107.321041 
L 371.270812 107.321041 
L 371.611116 125.533541 
L 371.95142 98.214791 
L 372.121572 98.214791 
L 372.291724 125.533541 
L 372.461876 116.427291 
L 372.632028 98.214791 
L 372.80218 125.533541 
L 373.142484 98.214791 
L 373.312636 107.321041 
L 373.823092 107.321041 
L 373.993244 98.214791 
L 374.163396 80.002291 
L 374.333548 89.108541 
L 374.5037 107.321041 
L 374.673852 80.002291 
L 374.844004 107.321041 
L 375.184308 107.321041 
L 375.35446 98.214791 
L 375.524612 98.214791 
L 375.694764 107.321041 
L 375.864916 125.533541 
L 376.035068 80.002291 
L 376.20522 80.002291 
L 376.545524 125.533541 
L 376.715676 116.427291 
L 376.885828 70.896041 
L 377.05598 80.002291 
L 377.226132 80.002291 
L 377.396284 107.321041 
L 377.566436 80.002291 
L 377.736588 70.896041 
L 378.076892 89.108541 
L 378.247044 70.896041 
L 378.417196 70.896041 
L 378.587348 89.108541 
L 378.7575 80.002291 
L 378.927652 98.214791 
L 379.097804 89.108541 
L 379.267956 70.896041 
L 379.438108 98.214791 
L 379.60826 89.108541 
L 379.778412 107.321041 
L 379.948564 80.002291 
L 380.288868 107.321041 
L 380.629172 89.108541 
L 380.799324 116.427291 
L 380.969476 107.321041 
L 381.139628 125.533541 
L 381.30978 107.321041 
L 381.479932 107.321041 
L 381.650084 89.108541 
L 381.820236 125.533541 
L 381.990388 98.214791 
L 382.16054 107.321041 
L 382.330692 61.789791 
L 382.500844 107.321041 
L 383.0113 134.639791 
L 383.181452 98.214791 
L 383.351604 116.427291 
L 383.521756 98.214791 
L 383.691908 98.214791 
L 383.86206 107.321041 
L 384.032212 89.108541 
L 384.202364 98.214791 
L 384.372516 89.108541 
L 384.542668 143.746041 
L 384.71282 89.108541 
L 384.882972 98.214791 
L 385.053124 98.214791 
L 385.223276 107.321041 
L 385.393428 98.214791 
L 385.56358 107.321041 
L 385.733732 98.214791 
L 385.903884 134.639791 
L 386.074036 107.321041 
L 386.244188 98.214791 
L 386.41434 107.321041 
L 386.584492 89.108541 
L 386.754644 107.321041 
L 386.924796 107.321041 
L 387.094948 116.427291 
L 387.2651 116.427291 
L 387.435252 125.533541 
L 387.605404 107.321041 
L 387.775556 107.321041 
L 387.945708 116.427291 
L 388.11586 107.321041 
L 388.286012 116.427291 
L 388.456164 107.321041 
L 388.626316 89.108541 
L 388.96662 116.427291 
L 389.136772 125.533541 
L 389.306924 116.427291 
L 389.477076 125.533541 
L 389.477076 125.533541 
" clip-path="url(#p012fabf941)" style="fill: none; stroke: #1f77b4; stroke-opacity: 0.5; stroke-width: 1.5; stroke-linecap: square"/>
   </g>
   <g id="patch_7">
    <path d="M 49.088 302.2 
L 49.088 10.8 
" style="fill: none; stroke: #000000; stroke-width: 0.8; stroke-linejoin: miter; stroke-linecap: square"/>
   </g>
   <g id="patch_8">
    <path d="M 389.392 302.2 
L 389.392 10.8 
" style="fill: none; stroke: #000000; stroke-width: 0.8; stroke-linejoin: miter; stroke-linecap: square"/>
   </g>
   <g id="patch_9">
    <path d="M 49.088 302.2 
L 389.392 302.2 
" style="fill: none; stroke: #000000; stroke-width: 0.8; stroke-linejoin: miter; stroke-linecap: square"/>
   </g>
   <g id="patch_10">
    <path d="M 49.088 10.8 
L 389.392 10.8 
" style="fill: none; stroke: #000000; stroke-width: 0.8; stroke-linejoin: miter; stroke-linecap: square"/>
   </g>
  </g>
  <g id="legend_1">
   <g id="patch_11">
    <path d="M 387.064062 37.35625 
L 453.8 37.35625 
Q 455.8 37.35625 455.8 35.35625 
L 455.8 7 
Q 455.8 5 453.8 5 
L 387.064062 5 
Q 385.064062 5 385.064062 7 
L 385.064062 35.35625 
Q 385.064062 37.35625 387.064062 37.35625 
z
" style="fill: #ffffff; opacity: 0.8; stroke: #cccccc; stroke-linejoin: miter"/>
   </g>
   <g id="line2d_19">
    <path d="M 389.064062 13.098437 
L 399.064062 13.098437 
L 409.064062 13.098437 
" style="fill: none; stroke: #ff7f0e; stroke-width: 1.5; stroke-linecap: square"/>
   </g>
   <g id="text_20">
    <!-- Output -->
    <g transform="translate(417.064062 16.598437) scale(0.1 -0.1)">
     <defs>
      <path id="DejaVuSans-4f" d="M 2522 4238 
Q 1834 4238 1429 3725 
Q 1025 3213 1025 2328 
Q 1025 1447 1429 934 
Q 1834 422 2522 422 
Q 3209 422 3611 934 
Q 4013 1447 4013 2328 
Q 4013 3213 3611 3725 
Q 3209 4238 2522 4238 
z
M 2522 4750 
Q 3503 4750 4090 4092 
Q 4678 3434 4678 2328 
Q 4678 1225 4090 567 
Q 3503 -91 2522 -91 
Q 1538 -91 948 565 
Q 359 1222 359 2328 
Q 359 3434 948 4092 
Q 1538 4750 2522 4750 
z
" transform="scale(0.015625)"/>
      <path id="DejaVuSans-70" d="M 1159 525 
L 1159 -1331 
L 581 -1331 
L 581 3500 
L 1159 3500 
L 1159 2969 
Q 1341 3281 1617 3432 
Q 1894 3584 2278 3584 
Q 2916 3584 3314 3078 
Q 3713 2572 3713 1747 
Q 3713 922 3314 415 
Q 2916 -91 2278 -91 
Q 1894 -91 1617 61 
Q 1341 213 1159 525 
z
M 3116 1747 
Q 3116 2381 2855 2742 
Q 2594 3103 2138 3103 
Q 1681 3103 1420 2742 
Q 1159 2381 1159 1747 
Q 1159 1113 1420 752 
Q 1681 391 2138 391 
Q 2594 391 2855 752 
Q 3116 1113 3116 1747 
z
" transform="scale(0.015625)"/>
     </defs>
     <use xlink:href="#DejaVuSans-4f"/>
     <use xlink:href="#DejaVuSans-75" x="78.710938"/>
     <use xlink:href="#DejaVuSans-74" x="142.089844"/>
     <use xlink:href="#DejaVuSans-70" x="181.298828"/>
     <use xlink:href="#DejaVuSans-75" x="244.775391"/>
     <use xlink:href="#DejaVuSans-74" x="308.154297"/>
    </g>
   </g>
   <g id="line2d_20">
    <path d="M 389.064062 27.776563 
L 399.064062 27.776563 
L 409.064062 27.776563 
" style="fill: none; stroke: #1f77b4; stroke-opacity: 0.5; stroke-width: 1.5; stroke-linecap: square"/>
   </g>
   <g id="text_21">
    <!-- Input -->
    <g transform="translate(417.064062 31.276563) scale(0.1 -0.1)">
     <defs>
      <path id="DejaVuSans-49" d="M 628 4666 
L 1259 4666 
L 1259 0 
L 628 0 
L 628 4666 
z
" transform="scale(0.015625)"/>
     </defs>
     <use xlink:href="#DejaVuSans-49"/>
     <use xlink:href="#DejaVuSans-6e" x="29.492188"/>
     <use xlink:href="#DejaVuSans-70" x="92.871094"/>
     <use xlink:href="#DejaVuSans-75" x="156.347656"/>
     <use xlink:href="#DejaVuSans-74" x="219.726562"/>
    </g>
   </g>
  </g>
 </g>
 <defs>
  <clipPath id="p012fabf941">
   <rect x="49.088" y="10.8" width="340.304" height="291.4"/>
  </clipPath>
 </defs>
</svg>
