<?xml version="1.0" encoding="utf-8" standalone="no"?>
<!DOCTYPE svg PUBLIC "-//W3C//DTD SVG 1.1//EN"
  "http://www.w3.org/Graphics/SVG/1.1/DTD/svg11.dtd">
<svg xmlns:xlink="http://www.w3.org/1999/xlink" width="460.8pt" height="345.6pt" viewBox="0 0 460.8 345.6" xmlns="http://www.w3.org/2000/svg" version="1.1">
 <metadata>
  <rdf:RDF xmlns:dc="http://purl.org/dc/elements/1.1/" xmlns:cc="http://creativecommons.org/ns#" xmlns:rdf="http://www.w3.org/1999/02/22-rdf-syntax-ns#">
   <cc:Work>
    <dc:type rdf:resource="http://purl.org/dc/dcmitype/StillImage"/>
    <dc:date>2024-05-07T09:10:38.896985</dc:date>
    <dc:format>image/svg+xml</dc:format>
    <dc:creator>
     <cc:Agent>
      <dc:title>Matplotlib v3.7.1, https://matplotlib.org/</dc:title>
     </cc:Agent>
    </dc:creator>
   </cc:Work>
  </rdf:RDF>
 </metadata>
 <defs>
  <style type="text/css">*{stroke-linejoin: round; stroke-linecap: butt}</style>
 </defs>
 <g id="figure_1">
  <g id="patch_1">
   <path d="M 0 345.6 
L 460.8 345.6 
L 460.8 0 
L 0 0 
z
" style="fill: #ffffff"/>
  </g>
  <g id="axes_1">
   <g id="patch_2">
    <path d="M 49.088 302.2 
L 389.392 302.2 
L 389.392 10.8 
L 49.088 10.8 
z
" style="fill: #ffffff"/>
   </g>
   <g id="matplotlib.axis_1">
    <g id="xtick_1">
     <g id="line2d_1">
      <defs>
       <path id="m2b6045d7d5" d="M 0 0 
L 0 3.5 
" style="stroke: #000000; stroke-width: 0.8"/>
      </defs>
      <g>
       <use xlink:href="#m2b6045d7d5" x="83.203476" y="302.2" style="stroke: #000000; stroke-width: 0.8"/>
      </g>
     </g>
     <g id="text_1">
      <!-- 0.996 -->
      <g transform="translate(68.889414 316.798437) scale(0.1 -0.1)">
       <defs>
        <path id="DejaVuSans-30" d="M 2034 4250 
Q 1547 4250 1301 3770 
Q 1056 3291 1056 2328 
Q 1056 1369 1301 889 
Q 1547 409 2034 409 
Q 2525 409 2770 889 
Q 3016 1369 3016 2328 
Q 3016 3291 2770 3770 
Q 2525 4250 2034 4250 
z
M 2034 4750 
Q 2819 4750 3233 4129 
Q 3647 3509 3647 2328 
Q 3647 1150 3233 529 
Q 2819 -91 2034 -91 
Q 1250 -91 836 529 
Q 422 1150 422 2328 
Q 422 3509 836 4129 
Q 1250 4750 2034 4750 
z
" transform="scale(0.015625)"/>
        <path id="DejaVuSans-2e" d="M 684 794 
L 1344 794 
L 1344 0 
L 684 0 
L 684 794 
z
" transform="scale(0.015625)"/>
        <path id="DejaVuSans-39" d="M 703 97 
L 703 672 
Q 941 559 1184 500 
Q 1428 441 1663 441 
Q 2288 441 2617 861 
Q 2947 1281 2994 2138 
Q 2813 1869 2534 1725 
Q 2256 1581 1919 1581 
Q 1219 1581 811 2004 
Q 403 2428 403 3163 
Q 403 3881 828 4315 
Q 1253 4750 1959 4750 
Q 2769 4750 3195 4129 
Q 3622 3509 3622 2328 
Q 3622 1225 3098 567 
Q 2575 -91 1691 -91 
Q 1453 -91 1209 -44 
Q 966 3 703 97 
z
M 1959 2075 
Q 2384 2075 2632 2365 
Q 2881 2656 2881 3163 
Q 2881 3666 2632 3958 
Q 2384 4250 1959 4250 
Q 1534 4250 1286 3958 
Q 1038 3666 1038 3163 
Q 1038 2656 1286 2365 
Q 1534 2075 1959 2075 
z
" transform="scale(0.015625)"/>
        <path id="DejaVuSans-36" d="M 2113 2584 
Q 1688 2584 1439 2293 
Q 1191 2003 1191 1497 
Q 1191 994 1439 701 
Q 1688 409 2113 409 
Q 2538 409 2786 701 
Q 3034 994 3034 1497 
Q 3034 2003 2786 2293 
Q 2538 2584 2113 2584 
z
M 3366 4563 
L 3366 3988 
Q 3128 4100 2886 4159 
Q 2644 4219 2406 4219 
Q 1781 4219 1451 3797 
Q 1122 3375 1075 2522 
Q 1259 2794 1537 2939 
Q 1816 3084 2150 3084 
Q 2853 3084 3261 2657 
Q 3669 2231 3669 1497 
Q 3669 778 3244 343 
Q 2819 -91 2113 -91 
Q 1303 -91 875 529 
Q 447 1150 447 2328 
Q 447 3434 972 4092 
Q 1497 4750 2381 4750 
Q 2619 4750 2861 4703 
Q 3103 4656 3366 4563 
z
" transform="scale(0.015625)"/>
       </defs>
       <use xlink:href="#DejaVuSans-30"/>
       <use xlink:href="#DejaVuSans-2e" x="63.623047"/>
       <use xlink:href="#DejaVuSans-39" x="95.410156"/>
       <use xlink:href="#DejaVuSans-39" x="159.033203"/>
       <use xlink:href="#DejaVuSans-36" x="222.65625"/>
      </g>
     </g>
    </g>
    <g id="xtick_2">
     <g id="line2d_2">
      <g>
       <use xlink:href="#m2b6045d7d5" x="151.264276" y="302.2" style="stroke: #000000; stroke-width: 0.8"/>
      </g>
     </g>
     <g id="text_2">
      <!-- 0.998 -->
      <g transform="translate(136.950214 316.798437) scale(0.1 -0.1)">
       <defs>
        <path id="DejaVuSans-38" d="M 2034 2216 
Q 1584 2216 1326 1975 
Q 1069 1734 1069 1313 
Q 1069 891 1326 650 
Q 1584 409 2034 409 
Q 2484 409 2743 651 
Q 3003 894 3003 1313 
Q 3003 1734 2745 1975 
Q 2488 2216 2034 2216 
z
M 1403 2484 
Q 997 2584 770 2862 
Q 544 3141 544 3541 
Q 544 4100 942 4425 
Q 1341 4750 2034 4750 
Q 2731 4750 3128 4425 
Q 3525 4100 3525 3541 
Q 3525 3141 3298 2862 
Q 3072 2584 2669 2484 
Q 3125 2378 3379 2068 
Q 3634 1759 3634 1313 
Q 3634 634 3220 271 
Q 2806 -91 2034 -91 
Q 1263 -91 848 271 
Q 434 634 434 1313 
Q 434 1759 690 2068 
Q 947 2378 1403 2484 
z
M 1172 3481 
Q 1172 3119 1398 2916 
Q 1625 2713 2034 2713 
Q 2441 2713 2670 2916 
Q 2900 3119 2900 3481 
Q 2900 3844 2670 4047 
Q 2441 4250 2034 4250 
Q 1625 4250 1398 4047 
Q 1172 3844 1172 3481 
z
" transform="scale(0.015625)"/>
       </defs>
       <use xlink:href="#DejaVuSans-30"/>
       <use xlink:href="#DejaVuSans-2e" x="63.623047"/>
       <use xlink:href="#DejaVuSans-39" x="95.410156"/>
       <use xlink:href="#DejaVuSans-39" x="159.033203"/>
       <use xlink:href="#DejaVuSans-38" x="222.65625"/>
      </g>
     </g>
    </g>
    <g id="xtick_3">
     <g id="line2d_3">
      <g>
       <use xlink:href="#m2b6045d7d5" x="219.325076" y="302.2" style="stroke: #000000; stroke-width: 0.8"/>
      </g>
     </g>
     <g id="text_3">
      <!-- 1.000 -->
      <g transform="translate(205.011014 316.798437) scale(0.1 -0.1)">
       <defs>
        <path id="DejaVuSans-31" d="M 794 531 
L 1825 531 
L 1825 4091 
L 703 3866 
L 703 4441 
L 1819 4666 
L 2450 4666 
L 2450 531 
L 3481 531 
L 3481 0 
L 794 0 
L 794 531 
z
" transform="scale(0.015625)"/>
       </defs>
       <use xlink:href="#DejaVuSans-31"/>
       <use xlink:href="#DejaVuSans-2e" x="63.623047"/>
       <use xlink:href="#DejaVuSans-30" x="95.410156"/>
       <use xlink:href="#DejaVuSans-30" x="159.033203"/>
       <use xlink:href="#DejaVuSans-30" x="222.65625"/>
      </g>
     </g>
    </g>
    <g id="xtick_4">
     <g id="line2d_4">
      <g>
       <use xlink:href="#m2b6045d7d5" x="287.385876" y="302.2" style="stroke: #000000; stroke-width: 0.8"/>
      </g>
     </g>
     <g id="text_4">
      <!-- 1.002 -->
      <g transform="translate(273.071814 316.798437) scale(0.1 -0.1)">
       <defs>
        <path id="DejaVuSans-32" d="M 1228 531 
L 3431 531 
L 3431 0 
L 469 0 
L 469 531 
Q 828 903 1448 1529 
Q 2069 2156 2228 2338 
Q 2531 2678 2651 2914 
Q 2772 3150 2772 3378 
Q 2772 3750 2511 3984 
Q 2250 4219 1831 4219 
Q 1534 4219 1204 4116 
Q 875 4013 500 3803 
L 500 4441 
Q 881 4594 1212 4672 
Q 1544 4750 1819 4750 
Q 2544 4750 2975 4387 
Q 3406 4025 3406 3419 
Q 3406 3131 3298 2873 
Q 3191 2616 2906 2266 
Q 2828 2175 2409 1742 
Q 1991 1309 1228 531 
z
" transform="scale(0.015625)"/>
       </defs>
       <use xlink:href="#DejaVuSans-31"/>
       <use xlink:href="#DejaVuSans-2e" x="63.623047"/>
       <use xlink:href="#DejaVuSans-30" x="95.410156"/>
       <use xlink:href="#DejaVuSans-30" x="159.033203"/>
       <use xlink:href="#DejaVuSans-32" x="222.65625"/>
      </g>
     </g>
    </g>
    <g id="xtick_5">
     <g id="line2d_5">
      <g>
       <use xlink:href="#m2b6045d7d5" x="355.446676" y="302.2" style="stroke: #000000; stroke-width: 0.8"/>
      </g>
     </g>
     <g id="text_5">
      <!-- 1.004 -->
      <g transform="translate(341.132614 316.798437) scale(0.1 -0.1)">
       <defs>
        <path id="DejaVuSans-34" d="M 2419 4116 
L 825 1625 
L 2419 1625 
L 2419 4116 
z
M 2253 4666 
L 3047 4666 
L 3047 1625 
L 3713 1625 
L 3713 1100 
L 3047 1100 
L 3047 0 
L 2419 0 
L 2419 1100 
L 313 1100 
L 313 1709 
L 2253 4666 
z
" transform="scale(0.015625)"/>
       </defs>
       <use xlink:href="#DejaVuSans-31"/>
       <use xlink:href="#DejaVuSans-2e" x="63.623047"/>
       <use xlink:href="#DejaVuSans-30" x="95.410156"/>
       <use xlink:href="#DejaVuSans-30" x="159.033203"/>
       <use xlink:href="#DejaVuSans-34" x="222.65625"/>
      </g>
     </g>
    </g>
    <g id="text_6">
     <!-- $t$ (s) -->
     <g transform="translate(209.14 330.476562) scale(0.1 -0.1)">
      <defs>
       <path id="DejaVuSans-Oblique-74" d="M 2706 3500 
L 2619 3053 
L 1472 3053 
L 1100 1153 
Q 1081 1047 1072 975 
Q 1063 903 1063 863 
Q 1063 663 1183 572 
Q 1303 481 1569 481 
L 2150 481 
L 2053 0 
L 1503 0 
Q 991 0 739 200 
Q 488 400 488 806 
Q 488 878 497 964 
Q 506 1050 525 1153 
L 897 3053 
L 409 3053 
L 500 3500 
L 978 3500 
L 1172 4494 
L 1747 4494 
L 1556 3500 
L 2706 3500 
z
" transform="scale(0.015625)"/>
       <path id="DejaVuSans-20" transform="scale(0.015625)"/>
       <path id="DejaVuSans-28" d="M 1984 4856 
Q 1566 4138 1362 3434 
Q 1159 2731 1159 2009 
Q 1159 1288 1364 580 
Q 1569 -128 1984 -844 
L 1484 -844 
Q 1016 -109 783 600 
Q 550 1309 550 2009 
Q 550 2706 781 3412 
Q 1013 4119 1484 4856 
L 1984 4856 
z
" transform="scale(0.015625)"/>
       <path id="DejaVuSans-73" d="M 2834 3397 
L 2834 2853 
Q 2591 2978 2328 3040 
Q 2066 3103 1784 3103 
Q 1356 3103 1142 2972 
Q 928 2841 928 2578 
Q 928 2378 1081 2264 
Q 1234 2150 1697 2047 
L 1894 2003 
Q 2506 1872 2764 1633 
Q 3022 1394 3022 966 
Q 3022 478 2636 193 
Q 2250 -91 1575 -91 
Q 1294 -91 989 -36 
Q 684 19 347 128 
L 347 722 
Q 666 556 975 473 
Q 1284 391 1588 391 
Q 1994 391 2212 530 
Q 2431 669 2431 922 
Q 2431 1156 2273 1281 
Q 2116 1406 1581 1522 
L 1381 1569 
Q 847 1681 609 1914 
Q 372 2147 372 2553 
Q 372 3047 722 3315 
Q 1072 3584 1716 3584 
Q 2034 3584 2315 3537 
Q 2597 3491 2834 3397 
z
" transform="scale(0.015625)"/>
       <path id="DejaVuSans-29" d="M 513 4856 
L 1013 4856 
Q 1481 4119 1714 3412 
Q 1947 2706 1947 2009 
Q 1947 1309 1714 600 
Q 1481 -109 1013 -844 
L 513 -844 
Q 928 -128 1133 580 
Q 1338 1288 1338 2009 
Q 1338 2731 1133 3434 
Q 928 4138 513 4856 
z
" transform="scale(0.015625)"/>
      </defs>
      <use xlink:href="#DejaVuSans-Oblique-74" transform="translate(0 0.125)"/>
      <use xlink:href="#DejaVuSans-20" transform="translate(39.208984 0.125)"/>
      <use xlink:href="#DejaVuSans-28" transform="translate(70.996094 0.125)"/>
      <use xlink:href="#DejaVuSans-73" transform="translate(110.009766 0.125)"/>
      <use xlink:href="#DejaVuSans-29" transform="translate(162.109375 0.125)"/>
     </g>
    </g>
   </g>
   <g id="matplotlib.axis_2">
    <g id="ytick_1">
     <g id="line2d_6">
      <defs>
       <path id="m7a207bca05" d="M 0 0 
L -3.5 0 
" style="stroke: #000000; stroke-width: 0.8"/>
      </defs>
      <g>
       <use xlink:href="#m7a207bca05" x="49.088" y="293.229151" style="stroke: #000000; stroke-width: 0.8"/>
      </g>
     </g>
     <g id="text_7">
      <!-- −8 -->
      <g style="fill: #ff7f0e" transform="translate(27.345813 297.028369) scale(0.1 -0.1)">
       <defs>
        <path id="DejaVuSans-2212" d="M 678 2272 
L 4684 2272 
L 4684 1741 
L 678 1741 
L 678 2272 
z
" transform="scale(0.015625)"/>
       </defs>
       <use xlink:href="#DejaVuSans-2212"/>
       <use xlink:href="#DejaVuSans-38" x="83.789062"/>
      </g>
     </g>
    </g>
    <g id="ytick_2">
     <g id="line2d_7">
      <g>
       <use xlink:href="#m7a207bca05" x="49.088" y="257.031828" style="stroke: #000000; stroke-width: 0.8"/>
      </g>
     </g>
     <g id="text_8">
      <!-- −6 -->
      <g style="fill: #ff7f0e" transform="translate(27.345813 260.831047) scale(0.1 -0.1)">
       <use xlink:href="#DejaVuSans-2212"/>
       <use xlink:href="#DejaVuSans-36" x="83.789062"/>
      </g>
     </g>
    </g>
    <g id="ytick_3">
     <g id="line2d_8">
      <g>
       <use xlink:href="#m7a207bca05" x="49.088" y="220.834506" style="stroke: #000000; stroke-width: 0.8"/>
      </g>
     </g>
     <g id="text_9">
      <!-- −4 -->
      <g style="fill: #ff7f0e" transform="translate(27.345813 224.633725) scale(0.1 -0.1)">
       <use xlink:href="#DejaVuSans-2212"/>
       <use xlink:href="#DejaVuSans-34" x="83.789062"/>
      </g>
     </g>
    </g>
    <g id="ytick_4">
     <g id="line2d_9">
      <g>
       <use xlink:href="#m7a207bca05" x="49.088" y="184.637184" style="stroke: #000000; stroke-width: 0.8"/>
      </g>
     </g>
     <g id="text_10">
      <!-- −2 -->
      <g style="fill: #ff7f0e" transform="translate(27.345813 188.436403) scale(0.1 -0.1)">
       <use xlink:href="#DejaVuSans-2212"/>
       <use xlink:href="#DejaVuSans-32" x="83.789062"/>
      </g>
     </g>
    </g>
    <g id="ytick_5">
     <g id="line2d_10">
      <g>
       <use xlink:href="#m7a207bca05" x="49.088" y="148.439862" style="stroke: #000000; stroke-width: 0.8"/>
      </g>
     </g>
     <g id="text_11">
      <!-- 0 -->
      <g style="fill: #ff7f0e" transform="translate(35.7255 152.239081) scale(0.1 -0.1)">
       <use xlink:href="#DejaVuSans-30"/>
      </g>
     </g>
    </g>
    <g id="ytick_6">
     <g id="line2d_11">
      <g>
       <use xlink:href="#m7a207bca05" x="49.088" y="112.24254" style="stroke: #000000; stroke-width: 0.8"/>
      </g>
     </g>
     <g id="text_12">
      <!-- 2 -->
      <g style="fill: #ff7f0e" transform="translate(35.7255 116.041758) scale(0.1 -0.1)">
       <use xlink:href="#DejaVuSans-32"/>
      </g>
     </g>
    </g>
    <g id="ytick_7">
     <g id="line2d_12">
      <g>
       <use xlink:href="#m7a207bca05" x="49.088" y="76.045218" style="stroke: #000000; stroke-width: 0.8"/>
      </g>
     </g>
     <g id="text_13">
      <!-- 4 -->
      <g style="fill: #ff7f0e" transform="translate(35.7255 79.844436) scale(0.1 -0.1)">
       <use xlink:href="#DejaVuSans-34"/>
      </g>
     </g>
    </g>
    <g id="ytick_8">
     <g id="line2d_13">
      <g>
       <use xlink:href="#m7a207bca05" x="49.088" y="39.847895" style="stroke: #000000; stroke-width: 0.8"/>
      </g>
     </g>
     <g id="text_14">
      <!-- 6 -->
      <g style="fill: #ff7f0e" transform="translate(35.7255 43.647114) scale(0.1 -0.1)">
       <use xlink:href="#DejaVuSans-36"/>
      </g>
     </g>
    </g>
    <g id="text_15">
     <!-- $V_{\mathrm{out}}$ (V) -->
     <g style="fill: #ff7f0e" transform="translate(21.266125 174.75) rotate(-90) scale(0.1 -0.1)">
      <defs>
       <path id="DejaVuSans-Oblique-56" d="M 1319 0 
L 500 4666 
L 1119 4666 
L 1797 653 
L 4063 4666 
L 4750 4666 
L 2053 0 
L 1319 0 
z
" transform="scale(0.015625)"/>
       <path id="DejaVuSans-6f" d="M 1959 3097 
Q 1497 3097 1228 2736 
Q 959 2375 959 1747 
Q 959 1119 1226 758 
Q 1494 397 1959 397 
Q 2419 397 2687 759 
Q 2956 1122 2956 1747 
Q 2956 2369 2687 2733 
Q 2419 3097 1959 3097 
z
M 1959 3584 
Q 2709 3584 3137 3096 
Q 3566 2609 3566 1747 
Q 3566 888 3137 398 
Q 2709 -91 1959 -91 
Q 1206 -91 779 398 
Q 353 888 353 1747 
Q 353 2609 779 3096 
Q 1206 3584 1959 3584 
z
" transform="scale(0.015625)"/>
       <path id="DejaVuSans-75" d="M 544 1381 
L 544 3500 
L 1119 3500 
L 1119 1403 
Q 1119 906 1312 657 
Q 1506 409 1894 409 
Q 2359 409 2629 706 
Q 2900 1003 2900 1516 
L 2900 3500 
L 3475 3500 
L 3475 0 
L 2900 0 
L 2900 538 
Q 2691 219 2414 64 
Q 2138 -91 1772 -91 
Q 1169 -91 856 284 
Q 544 659 544 1381 
z
M 1991 3584 
L 1991 3584 
z
" transform="scale(0.015625)"/>
       <path id="DejaVuSans-74" d="M 1172 4494 
L 1172 3500 
L 2356 3500 
L 2356 3053 
L 1172 3053 
L 1172 1153 
Q 1172 725 1289 603 
Q 1406 481 1766 481 
L 2356 481 
L 2356 0 
L 1766 0 
Q 1100 0 847 248 
Q 594 497 594 1153 
L 594 3053 
L 172 3053 
L 172 3500 
L 594 3500 
L 594 4494 
L 1172 4494 
z
" transform="scale(0.015625)"/>
       <path id="DejaVuSans-56" d="M 1831 0 
L 50 4666 
L 709 4666 
L 2188 738 
L 3669 4666 
L 4325 4666 
L 2547 0 
L 1831 0 
z
" transform="scale(0.015625)"/>
      </defs>
      <use xlink:href="#DejaVuSans-Oblique-56" transform="translate(0 0.125)"/>
      <use xlink:href="#DejaVuSans-6f" transform="translate(68.408203 -16.28125) scale(0.7)"/>
      <use xlink:href="#DejaVuSans-75" transform="translate(111.235352 -16.28125) scale(0.7)"/>
      <use xlink:href="#DejaVuSans-74" transform="translate(155.600586 -16.28125) scale(0.7)"/>
      <use xlink:href="#DejaVuSans-20" transform="translate(185.78125 0.125)"/>
      <use xlink:href="#DejaVuSans-28" transform="translate(217.568359 0.125)"/>
      <use xlink:href="#DejaVuSans-56" transform="translate(256.582031 0.125)"/>
      <use xlink:href="#DejaVuSans-29" transform="translate(324.990234 0.125)"/>
     </g>
    </g>
   </g>
   <g id="line2d_14">
    <path d="M 49.002924 264.61849 
L 49.173076 272.992886 
L 49.51338 261.984846 
L 49.683532 263.997068 
L 50.023836 281.302182 
L 50.193988 277.65059 
L 50.36414 258.126113 
L 50.534292 255.433286 
L 50.704444 258.3806 
L 51.2149 280.911574 
L 51.385052 279.130165 
L 51.555204 282.243192 
L 51.895508 250.195589 
L 52.06566 253.000864 
L 52.235812 257.830198 
L 52.405964 254.776355 
L 52.746268 240.661206 
L 52.91642 234.677803 
L 53.256724 216.573719 
L 53.426876 215.319039 
L 53.597028 215.632709 
L 53.937332 212.158666 
L 54.107484 215.07047 
L 54.447788 204.127531 
L 54.788092 208.140139 
L 54.958244 208.234832 
L 55.4687 171.109327 
L 55.809004 159.817208 
L 56.149308 154.603184 
L 56.489612 155.727662 
L 57.17022 148.306112 
L 57.340372 149.963236 
L 57.510524 148.187746 
L 57.850828 134.415858 
L 58.191132 131.462626 
L 58.701588 138.002349 
L 59.212044 123.668223 
L 59.382196 123.626795 
L 59.7225 115.418111 
L 59.892652 106.315763 
L 60.062804 105.865972 
L 60.232956 103.019269 
L 60.743412 90.75063 
L 60.913564 94.923033 
L 61.253868 86.276394 
L 61.42402 87.785561 
L 61.594172 86.773532 
L 61.934476 80.85523 
L 62.104628 77.138537 
L 62.27478 76.789357 
L 62.444932 77.168128 
L 62.955388 62.449313 
L 63.12554 60.312806 
L 63.295692 54.986334 
L 63.465844 45.70052 
L 63.635996 43.640951 
L 63.806148 30.028857 
L 63.9763 25.915638 
L 69.08086 25.809108 
L 70.101772 25.797272 
L 71.803292 25.761762 
L 71.973444 25.649314 
L 72.143596 24.27035 
L 72.313748 25.607886 
L 72.4839 44.658898 
L 72.994356 130.308557 
L 73.845116 192.52766 
L 74.18542 200.878383 
L 74.355572 200.499612 
L 74.695876 213.803954 
L 74.866028 211.37745 
L 75.03618 212.140911 
L 75.206332 208.986456 
L 75.376484 209.039721 
L 75.546636 209.45992 
L 75.716788 210.205626 
L 75.88694 219.710419 
L 76.227244 226.581567 
L 76.567548 236.092277 
L 76.7377 227.623188 
L 76.907852 227.540331 
L 77.078004 230.718459 
L 77.248156 224.68771 
L 77.758612 257.273878 
L 78.098916 266.109902 
L 78.269068 266.157248 
L 78.609372 281.420548 
L 78.779524 280.947084 
L 78.949676 283.693175 
L 79.119828 278.881596 
L 79.28998 281.426466 
L 79.460132 267.991922 
L 79.630284 272.862684 
L 79.800436 270.903726 
L 79.970588 271.773716 
L 80.14074 264.292983 
L 80.481044 266.346634 
L 80.651196 275.099802 
L 80.821348 272.673298 
L 80.9915 257.392244 
L 81.331804 252.687194 
L 81.672108 281.337691 
L 81.84226 269.684556 
L 82.012412 273.951651 
L 82.182564 263.914212 
L 82.352716 264.654 
L 82.863172 279.77526 
L 83.033324 248.183367 
L 83.203476 247.271948 
L 83.54378 256.238175 
L 83.884084 258.404273 
L 84.054236 256.859597 
L 84.39454 256.131646 
L 84.564692 257.297551 
L 84.734844 255.427368 
L 84.904996 251.142518 
L 85.075148 250.858439 
L 85.415452 256.575518 
L 85.585604 254.415338 
L 85.925908 241.714663 
L 86.09606 239.60183 
L 86.266212 233.636182 
L 86.606516 239.501219 
L 86.776668 234.950045 
L 87.116972 221.367543 
L 87.287124 215.49067 
L 87.457276 214.958023 
L 87.79758 204.281407 
L 87.967732 206.494851 
L 88.137884 203.855289 
L 88.478188 202.067962 
L 88.818492 190.728496 
L 88.988644 186.112221 
L 89.328948 162.681666 
L 89.669252 149.087327 
L 89.839404 147.607752 
L 90.009556 152.330557 
L 90.179708 150.383435 
L 90.34986 149.939563 
L 90.690164 157.733966 
L 90.860316 157.390704 
L 91.881228 133.255871 
L 92.05138 132.954038 
L 92.221532 132.255678 
L 92.391684 134.333002 
L 92.561836 133.078322 
L 92.731988 129.503668 
L 93.072292 120.081732 
L 93.242444 118.945418 
L 93.582748 110.884692 
L 93.7529 109.973273 
L 93.923052 108.428597 
L 94.093204 103.966197 
L 94.433508 91.697558 
L 95.114116 79.991158 
L 95.284268 80.251563 
L 95.45442 77.783632 
L 96.135028 54.998171 
L 96.645484 26.324001 
L 96.815636 25.720334 
L 97.15594 25.826863 
L 106.003844 25.785435 
L 106.173996 24.471572 
L 106.344148 25.59605 
L 106.684452 66.888039 
L 107.36506 154.928691 
L 108.045668 204.133449 
L 108.21582 207.122191 
L 108.385972 214.739045 
L 108.556124 214.490477 
L 108.726276 221.095301 
L 108.896428 222.385491 
L 109.06658 219.408585 
L 109.406884 231.48192 
L 109.577036 230.706623 
L 109.747188 232.121097 
L 109.91734 231.547021 
L 110.087492 225.764841 
L 110.257644 233.144963 
L 110.427796 233.701283 
L 110.597948 233.156799 
L 110.7681 233.665773 
L 111.108404 247.041135 
L 111.789012 278.177319 
L 111.959164 281.041776 
L 112.129316 245.07034 
L 112.299468 249.343354 
L 112.639772 277.85773 
L 112.809924 282.036051 
L 112.980076 280.627495 
L 113.150228 258.984267 
L 113.32038 260.079153 
L 113.490532 262.730552 
L 113.830836 281.917685 
L 114.000988 242.176291 
L 114.511444 269.193337 
L 114.681596 281.396875 
L 114.851748 249.763553 
L 115.362204 284.438881 
L 115.702508 240.164068 
L 115.87266 239.897745 
L 116.72342 281.171979 
L 116.893572 288.226594 
L 117.063724 281.124633 
L 117.233876 247.65072 
L 117.404028 243.987291 
L 117.914484 257.374489 
L 118.084636 260.209355 
L 118.254788 259.712218 
L 118.42494 254.462685 
L 118.595092 253.101475 
L 118.765244 256.753067 
L 118.935396 252.497809 
L 119.105548 251.077416 
L 119.2757 256.29144 
L 119.445852 257.031227 
L 119.786156 254.462685 
L 119.956308 252.243322 
L 120.296612 251.391086 
L 120.466764 251.539044 
L 120.636916 249.118458 
L 120.97722 240.335699 
L 121.147372 229.434188 
L 121.317524 229.363168 
L 121.487676 226.214632 
L 121.657828 220.657347 
L 121.82798 221.781824 
L 121.998132 218.473494 
L 122.168284 206.784848 
L 122.338436 206.204855 
L 123.019044 195.463138 
L 123.359348 183.543678 
L 124.039956 158.775587 
L 124.210108 156.775201 
L 124.550412 159.882309 
L 124.720564 157.917433 
L 125.911628 129.450403 
L 126.08178 129.941622 
L 126.251932 126.71023 
L 126.422084 125.822484 
L 126.592236 130.36774 
L 126.762388 131.942008 
L 127.272844 113.595274 
L 127.442996 109.032263 
L 127.613148 110.369799 
L 127.953452 99.349922 
L 128.123604 94.029369 
L 128.293756 92.987748 
L 128.63406 94.72181 
L 128.804212 100.711131 
L 129.654972 84.607433 
L 129.825124 83.897237 
L 129.995276 84.613352 
L 130.165428 81.48257 
L 131.016188 27.572762 
L 131.18634 25.868291 
L 131.696796 25.844618 
L 132.207252 25.832782 
L 135.44014 25.8387 
L 139.353636 25.797272 
L 140.714852 25.791353 
L 140.885004 25.536867 
L 141.225308 25.73217 
L 141.565612 25.76768 
L 141.735764 52.630851 
L 142.24622 165.771019 
L 142.586524 204.34059 
L 143.09698 231.612123 
L 143.267132 228.368894 
L 143.437284 229.203374 
L 143.607436 233.239656 
L 144.117892 250.793338 
L 144.458196 258.641005 
L 145.138804 244.602794 
L 145.308956 245.336664 
L 145.479108 249.84641 
L 145.64926 260.256702 
L 145.819412 283.562973 
L 145.989564 246.212572 
L 146.159716 243.283013 
L 146.670172 274.472462 
L 146.840324 270.78536 
L 147.010476 276.822027 
L 147.180628 268.761301 
L 147.35078 268.743546 
L 147.520932 281.532995 
L 147.691084 240.128559 
L 147.861236 231.937629 
L 148.031388 241.276709 
L 148.371692 267.204788 
L 148.711996 283.231548 
L 149.0523 261.5173 
L 149.392604 267.68417 
L 149.562756 262.706879 
L 149.732908 262.748307 
L 149.90306 273.288802 
L 150.073212 276.928557 
L 150.243364 267.873556 
L 150.413516 270.601893 
L 150.583668 282.189927 
L 150.75382 252.829233 
L 151.264276 268.015595 
L 151.434428 278.283848 
L 151.60458 279.716077 
L 151.774732 283.78195 
L 151.944884 278.52058 
L 152.115036 267.16336 
L 152.285188 267.044994 
L 152.45534 282.296456 
L 152.625492 268.400285 
L 152.795644 277.437531 
L 152.965796 279.562201 
L 153.3061 255.024923 
L 153.476252 262.517493 
L 153.646404 279.751587 
L 153.986708 235.944319 
L 154.15686 236.015339 
L 154.327012 235.719424 
L 154.497164 233.594754 
L 154.667316 223.788128 
L 154.837468 225.758923 
L 155.00762 225.096073 
L 155.177772 219.18369 
L 155.347924 218.799 
L 155.518076 221.071628 
L 155.688228 215.73332 
L 155.85838 214.324764 
L 156.198684 210.010323 
L 156.368836 209.300126 
L 156.538988 204.760789 
L 156.70914 203.843452 
L 157.219596 185.703858 
L 157.730052 161.20209 
L 157.900204 158.189675 
L 158.070356 160.7523 
L 158.240508 160.426793 
L 158.41066 159.645577 
L 158.580812 159.752107 
L 158.750964 159.722515 
L 158.921116 164.161241 
L 159.26142 154.117884 
L 159.431572 148.359376 
L 159.601724 146.43001 
L 159.771876 146.009811 
L 159.942028 143.701673 
L 160.282332 136.795015 
L 160.452484 138.179898 
L 160.622636 136.996238 
L 160.792788 137.842555 
L 161.473396 111.13326 
L 161.643548 110.92612 
L 162.154004 94.934869 
L 162.324156 94.372631 
L 162.494308 100.705213 
L 162.66446 100.474399 
L 162.834612 99.681347 
L 163.004764 98.2432 
L 163.174916 93.135706 
L 163.345068 93.478967 
L 163.51522 95.952817 
L 163.685372 96.088938 
L 164.025676 85.868031 
L 164.195828 88.472084 
L 164.706284 79.701161 
L 164.876436 72.883278 
L 165.21674 86.163946 
L 165.557044 77.44037 
L 165.727196 76.949151 
L 166.0675 63.650728 
L 166.237652 58.738538 
L 166.577956 56.963047 
L 167.088412 68.829242 
L 167.258564 58.655681 
L 167.598868 24.264432 
L 167.76902 25.495438 
L 167.939172 25.820945 
L 168.789932 25.832782 
L 173.72434 25.797272 
L 173.894492 24.992383 
L 174.064644 25.649314 
L 174.234796 25.797272 
L 175.596012 25.785435 
L 175.766164 36.799394 
L 176.27662 149.957318 
L 176.787076 200.913893 
L 176.957228 213.963748 
L 177.297532 219.284301 
L 177.467684 211.65561 
L 178.148292 236.926757 
L 178.318444 238.199192 
L 178.488596 243.099546 
L 178.658748 240.992631 
L 178.999052 254.344319 
L 179.169204 253.15474 
L 179.339356 248.526628 
L 180.190116 276.01122 
L 180.360268 265.642356 
L 180.53042 247.052971 
L 181.040876 284.314597 
L 181.211028 282.420741 
L 181.38118 257.226531 
L 181.551332 253.947792 
L 181.721484 255.03676 
L 182.23194 263.073813 
L 182.402092 264.796039 
L 182.572244 270.773523 
L 182.742396 281.793401 
L 182.912548 281.55075 
L 183.0827 260.049561 
L 183.252852 261.434444 
L 183.423004 274.525727 
L 183.593156 277.289573 
L 183.763308 262.842999 
L 184.103612 266.056637 
L 184.443916 283.515626 
L 184.78422 280.219133 
L 184.954372 252.829233 
L 185.124524 252.539237 
L 185.63498 267.968249 
L 185.805132 279.230776 
L 185.975284 253.012701 
L 186.145436 244.573203 
L 186.48574 262.588513 
L 186.655892 263.470339 
L 186.996196 279.793015 
L 187.166348 255.380021 
L 187.3365 257.114084 
L 187.506652 261.458117 
L 187.676804 260.878123 
L 187.846956 258.433865 
L 188.017108 252.343933 
L 188.18726 252.87658 
L 188.357412 251.349658 
L 188.527564 251.497616 
L 188.697716 251.959243 
L 189.03802 240.678961 
L 189.208172 231.505593 
L 189.378324 234.565355 
L 189.548476 233.878832 
L 189.718628 231.186005 
L 190.058932 212.490091 
L 190.73954 192.545415 
L 190.909692 191.059921 
L 191.079844 191.793791 
L 191.420148 178.353328 
L 191.5903 176.317432 
L 191.930604 165.256127 
L 192.100756 166.587745 
L 192.44106 164.031039 
L 192.611212 161.675555 
L 193.632124 128.473884 
L 193.802276 128.817145 
L 193.972428 127.740014 
L 194.312732 128.314089 
L 194.482884 127.319815 
L 194.823188 132.800162 
L 195.163492 118.022163 
L 195.503796 101.220105 
L 195.673948 100.569092 
L 196.014252 88.401064 
L 196.184404 88.401064 
L 196.354556 93.810392 
L 196.524708 92.295307 
L 196.69486 92.751016 
L 197.035164 102.747027 
L 197.205316 102.859475 
L 197.715772 87.815153 
L 197.885924 87.323934 
L 198.226228 94.088552 
L 198.566532 88.324127 
L 198.736684 88.584532 
L 198.906836 89.229627 
L 199.076988 91.946127 
L 199.24714 88.90412 
L 199.417292 91.815924 
L 199.587444 92.762853 
L 199.757596 90.075944 
L 200.268052 65.260506 
L 200.608356 24.359125 
L 200.778508 25.501357 
L 200.94866 25.8387 
L 201.969572 25.844618 
L 205.542764 25.761762 
L 205.712916 24.524837 
L 205.883068 25.625641 
L 206.223372 25.832782 
L 207.414436 25.809108 
L 207.584588 25.809108 
L 207.924892 55.116537 
L 208.775652 149.122837 
L 209.286108 174.459086 
L 209.45626 174.246027 
L 209.626412 171.494017 
L 210.136868 198.434125 
L 210.477172 212.679476 
L 210.647324 213.318653 
L 210.817476 213.33049 
L 210.987628 214.378029 
L 211.327932 211.34194 
L 211.498084 210.809293 
L 211.668236 214.307009 
L 212.00854 230.860498 
L 212.178692 227.137887 
L 212.348844 228.6944 
L 212.689148 220.651428 
L 213.029452 233.304757 
L 213.199604 228.090733 
L 213.369756 227.930939 
L 213.71006 242.442614 
L 213.880212 243.300768 
L 214.050364 256.581437 
L 214.390668 262.4228 
L 214.730972 266.169085 
L 214.901124 273.868795 
L 215.071276 268.55416 
L 215.241428 272.010448 
L 215.581732 265.618683 
L 215.751884 266.678059 
L 215.922036 273.448596 
L 216.092188 267.506621 
L 216.26234 269.240683 
L 216.432492 281.592178 
L 216.602644 263.967477 
L 216.772796 262.049947 
L 216.942948 262.618104 
L 217.1131 268.909258 
L 217.283252 281.817074 
L 217.453404 248.195203 
L 217.623556 241.696908 
L 217.793708 243.359951 
L 217.96386 237.903277 
L 218.474316 262.624022 
L 218.644468 266.204595 
L 218.81462 275.218168 
L 218.984772 276.218361 
L 219.154924 260.386904 
L 219.495228 262.813408 
L 219.66538 260.866287 
L 219.835532 263.547277 
L 220.005684 274.306749 
L 220.345988 263.446666 
L 220.51614 266.269696 
L 220.686292 279.550364 
L 220.856444 250.130488 
L 221.026596 245.170951 
L 221.196748 246.774811 
L 221.537052 243.283013 
L 221.707204 242.069761 
L 221.877356 237.435731 
L 222.047508 241.152425 
L 222.728116 229.665002 
L 223.06842 211.44847 
L 223.238572 211.916016 
L 223.91918 189.74014 
L 224.089332 189.66912 
L 224.259484 190.527274 
L 224.599788 198.570246 
L 224.76994 195.658442 
L 225.280396 179.039851 
L 225.6207 163.232068 
L 225.790852 163.823898 
L 225.961004 161.983306 
L 226.47146 151.79791 
L 226.641612 150.478128 
L 227.32222 132.752815 
L 227.492372 124.413929 
L 227.662524 125.124125 
L 227.832676 130.711001 
L 228.002828 130.622227 
L 228.343132 125.195145 
L 228.683436 122.088036 
L 228.853588 122.443134 
L 229.534196 98.326056 
L 229.704348 95.76935 
L 229.8745 95.869961 
L 230.044652 87.252914 
L 230.214804 84.423966 
L 230.384956 78.635867 
L 230.72526 83.542139 
L 231.405868 64.455617 
L 231.746172 56.945292 
L 232.256628 25.785435 
L 232.42678 25.903801 
L 232.937236 25.826863 
L 235.659668 25.832782 
L 238.722404 25.832782 
L 240.764228 25.73217 
L 240.93438 30.052531 
L 241.274684 32.07659 
L 241.78514 75.250599 
L 242.295596 137.357254 
L 242.6359 155.449501 
L 242.806052 158.793342 
L 243.48666 185.064682 
L 243.826964 196.155579 
L 243.997116 193.758667 
L 244.167268 194.344579 
L 244.33742 197.185363 
L 244.677724 211.460306 
L 244.847876 211.661529 
L 245.018028 214.058441 
L 245.18818 211.815404 
L 245.358332 212.460499 
L 245.528484 210.892149 
L 245.698636 211.697038 
L 245.868788 218.201252 
L 246.03894 216.934735 
L 246.379244 220.006334 
L 246.549396 221.929782 
L 246.8897 235.932483 
L 247.059852 238.341232 
L 247.230004 232.032322 
L 247.400156 234.849434 
L 247.910612 258.540394 
L 248.080764 261.23914 
L 248.421068 280.810963 
L 248.59122 265.24583 
L 248.761372 264.476451 
L 248.931524 266.411735 
L 249.101676 272.00453 
L 249.44198 259.605689 
L 249.612132 258.907329 
L 250.122588 278.822413 
L 250.29274 274.715112 
L 250.462892 267.761108 
L 250.633044 278.999962 
L 250.803196 255.415531 
L 250.973348 248.189285 
L 251.1435 251.053743 
L 251.653956 275.052455 
L 251.824108 276.928557 
L 251.99426 281.793401 
L 252.164412 226.143612 
L 252.334564 214.141297 
L 252.504716 219.225118 
L 252.674868 220.746121 
L 252.84502 224.93036 
L 253.185324 238.998163 
L 253.355476 233.855159 
L 253.69578 242.957507 
L 253.865932 237.737565 
L 254.036084 228.723992 
L 254.206236 229.07909 
L 254.54654 226.688096 
L 254.716692 228.617462 
L 254.886844 233.387613 
L 255.056996 229.534799 
L 255.3973 238.97449 
L 255.567452 234.950045 
L 255.737604 242.300575 
L 256.077908 238.998163 
L 256.24806 233.843322 
L 256.588364 237.062878 
L 256.758516 238.613473 
L 257.09882 217.8935 
L 257.439124 203.08591 
L 257.609276 208.495237 
L 257.779428 205.447312 
L 257.94958 198.741877 
L 258.289884 196.540268 
L 258.630188 206.370567 
L 258.80034 205.417721 
L 259.140644 197.599644 
L 259.310796 195.8715 
L 259.821252 168.960984 
L 259.991404 165.611225 
L 260.161556 166.037343 
L 260.50186 158.118655 
L 260.672012 155.846028 
L 260.842164 157.6156 
L 261.012316 161.474332 
L 261.35262 157.491315 
L 261.522772 152.366066 
L 261.863076 138.629689 
L 262.373532 124.703925 
L 262.543684 125.929014 
L 262.713836 126.147991 
L 262.883988 121.732938 
L 263.394444 101.734998 
L 263.564596 98.562788 
L 263.734748 97.85851 
L 263.9049 99.35584 
L 264.415356 92.63265 
L 264.585508 88.844937 
L 265.266116 83.536221 
L 265.436268 74.226732 
L 266.116876 60.851371 
L 266.287028 62.206662 
L 266.797484 42.735451 
L 266.967636 38.918146 
L 267.137788 28.632138 
L 267.30794 25.880128 
L 267.648244 25.844618 
L 269.179612 25.826863 
L 270.71098 25.832782 
L 274.454324 25.773599 
L 274.624476 39.249571 
L 274.96478 98.237281 
L 275.475236 141.186395 
L 275.81554 155.413992 
L 276.155844 161.805757 
L 276.836452 184.656319 
L 277.006604 187.106496 
L 277.346908 176.589674 
L 277.51706 175.056834 
L 277.687212 178.55455 
L 277.857364 185.668349 
L 278.027516 198.043517 
L 278.36782 203.9559 
L 278.537972 204.962011 
L 278.708124 205.068541 
L 278.878276 209.957058 
L 279.048428 211.424797 
L 279.388732 205.52425 
L 279.558884 201.2394 
L 279.899188 212.898454 
L 280.06934 213.780281 
L 280.239492 214.005176 
L 280.579796 208.962783 
L 280.749948 208.986456 
L 280.9201 210.033996 
L 281.090252 214.188643 
L 281.260404 214.194562 
L 281.430556 218.396556 
L 281.600708 227.16156 
L 281.77086 229.232966 
L 282.111164 248.4852 
L 282.62162 272.259017 
L 282.791772 272.472076 
L 282.961924 275.082047 
L 283.132076 269.477415 
L 283.302228 247.940716 
L 283.47238 247.473171 
L 283.642532 250.976805 
L 283.812684 257.913054 
L 283.982836 258.072849 
L 284.493292 262.103212 
L 284.663444 266.826016 
L 284.833596 279.42608 
L 285.1739 251.450269 
L 285.684356 279.195266 
L 286.194812 254.237789 
L 286.535116 271.548821 
L 286.705268 270.791278 
L 286.87542 266.447245 
L 287.045572 274.16471 
L 287.215724 272.069631 
L 287.385876 256.202665 
L 287.556028 254.498194 
L 287.72618 255.119616 
L 288.236636 249.864164 
L 288.406788 251.225374 
L 288.57694 249.000092 
L 288.747092 249.467638 
L 289.087396 239.980601 
L 289.597852 246.786648 
L 289.768004 245.129523 
L 290.108308 233.494143 
L 290.27846 233.287002 
L 290.448612 231.357636 
L 290.618764 222.225697 
L 290.788916 221.805497 
L 290.959068 218.142069 
L 291.299372 201.008586 
L 291.469524 195.528239 
L 291.639676 195.409873 
L 291.809828 196.368638 
L 291.97998 199.173913 
L 292.150132 197.617399 
L 292.320284 193.995399 
L 292.490436 196.244353 
L 292.660588 190.172176 
L 293.000892 193.776422 
L 293.171044 198.499226 
L 293.511348 181.442681 
L 293.851652 167.895689 
L 294.191956 154.579511 
L 294.53226 150.774043 
L 294.702412 149.205693 
L 295.38302 136.019718 
L 295.553172 135.913188 
L 295.723324 132.977711 
L 295.893476 132.054456 
L 296.23378 122.928435 
L 296.403932 123.863527 
L 296.744236 126.875942 
L 296.914388 123.579448 
L 297.594996 94.780993 
L 297.765148 98.539115 
L 298.105452 92.964075 
L 298.445756 102.303155 
L 298.615908 101.054393 
L 298.78606 101.977648 
L 298.956212 98.598298 
L 299.466668 81.695629 
L 299.63682 77.984854 
L 299.977124 66.982732 
L 300.317428 57.501613 
L 300.998036 25.631559 
L 301.168188 25.862373 
L 301.848796 25.826863 
L 305.081684 25.832782 
L 308.314572 25.809108 
L 308.484724 25.317889 
L 308.654876 25.684824 
L 308.825028 24.726059 
L 308.99518 25.613804 
L 309.335484 25.809108 
L 310.526548 25.779517 
L 311.037004 25.785435 
L 311.207156 24.714223 
L 311.377308 25.607886 
L 311.717612 73.285723 
L 312.568372 195.327017 
L 313.078828 224.243837 
L 313.24898 223.823638 
L 313.419132 224.93036 
L 313.589284 224.563426 
L 313.759436 225.764841 
L 313.929588 231.251106 
L 314.09974 231.032129 
L 314.269892 234.61862 
L 314.440044 234.65413 
L 314.610196 239.406526 
L 314.780348 240.667124 
L 314.9505 235.293306 
L 315.120652 237.358793 
L 315.290804 238.057153 
L 315.460956 244.377899 
L 315.631108 256.386133 
L 315.80126 260.114663 
L 315.971412 258.17346 
L 316.141564 275.76857 
L 316.311716 270.874135 
L 316.481868 252.900253 
L 316.65202 257.989992 
L 316.992324 279.828525 
L 317.162476 278.680374 
L 317.332628 274.075936 
L 317.50278 284.320515 
L 317.672932 244.354226 
L 317.843084 247.076644 
L 318.183388 259.002022 
L 318.523692 263.831356 
L 318.863996 279.159757 
L 319.034148 258.569986 
L 319.2043 274.51389 
L 319.374452 275.679795 
L 319.544604 281.840747 
L 319.714756 258.469375 
L 319.884908 265.600928 
L 320.05506 281.385038 
L 320.225212 281.018103 
L 320.395364 259.718136 
L 320.565516 255.877159 
L 321.075972 270.087 
L 321.246124 281.456058 
L 321.416276 244.377899 
L 321.586428 244.206268 
L 322.096884 264.961751 
L 322.267036 273.040233 
L 322.437188 273.105334 
L 322.777492 278.52058 
L 322.947644 279.698322 
L 323.117796 262.671369 
L 323.287948 259.59977 
L 323.4581 262.902183 
L 323.628252 263.002794 
L 323.798404 262.618104 
L 323.968556 267.802536 
L 324.138708 280.094848 
L 324.479012 243.679539 
L 324.649164 247.780922 
L 324.819316 255.474714 
L 324.989468 255.504306 
L 325.499924 240.152232 
L 325.840228 221.870599 
L 326.180532 212.815597 
L 326.350684 214.750882 
L 326.520836 211.578672 
L 326.86114 201.801638 
L 327.031292 200.973076 
L 327.201444 204.429364 
L 327.7119 176.145802 
L 328.052204 169.754036 
L 328.392508 158.947218 
L 328.732812 155.260116 
L 329.073116 152.579125 
L 329.583572 145.187167 
L 329.753724 144.157382 
L 330.094028 135.120136 
L 330.26418 129.556933 
L 330.434332 128.497557 
L 330.774636 131.995273 
L 330.944788 134.569734 
L 331.9657 100.977455 
L 332.135852 101.356226 
L 332.306004 101.226024 
L 332.476156 103.463142 
L 332.646308 103.113962 
L 333.326916 84.915185 
L 333.66722 75.226925 
L 333.837372 72.356549 
L 334.177676 54.89756 
L 334.347828 54.252465 
L 334.51798 55.039599 
L 334.858284 37.775914 
L 335.028436 26.318082 
L 335.198588 25.601968 
L 335.36874 25.868291 
L 336.389652 25.832782 
L 339.282236 25.832782 
L 343.02558 25.797272 
L 344.046492 25.797272 
L 344.556948 25.779517 
L 344.7271 25.45401 
L 345.067404 25.76768 
L 345.237556 24.436062 
L 345.407708 25.584213 
L 345.57786 25.820945 
L 345.748012 25.76768 
L 346.768924 203.523864 
L 347.27938 231.51743 
L 347.449532 228.06706 
L 347.789836 242.087516 
L 348.13014 258.747535 
L 348.300292 260.221192 
L 348.470444 260.623636 
L 348.9809 282.243192 
L 349.151052 261.422607 
L 349.321204 257.522446 
L 349.491356 263.541359 
L 349.661508 274.229811 
L 349.83166 277.774874 
L 350.001812 273.129007 
L 350.171964 280.799126 
L 350.342116 268.341102 
L 350.512268 281.645443 
L 350.68242 266.914791 
L 350.852572 267.761108 
L 351.022724 280.639332 
L 351.192876 278.567926 
L 351.363028 282.112989 
L 351.53318 257.40408 
L 351.703332 250.136406 
L 352.043636 260.901797 
L 352.38394 276.810191 
L 352.554092 267.228461 
L 352.894396 283.776032 
L 353.064548 244.206268 
L 353.2347 249.70437 
L 353.575004 274.312668 
L 353.915308 263.559114 
L 354.255612 282.355639 
L 354.425764 265.991536 
L 354.766068 283.278894 
L 355.106372 245.881148 
L 355.616828 265.328686 
L 355.78698 265.358278 
L 355.957132 269.666801 
L 356.127284 281.976868 
L 356.297436 253.876773 
L 356.467588 250.000285 
L 356.63774 251.497616 
L 357.658652 271.714533 
L 357.998956 264.701346 
L 358.169108 264.867059 
L 358.33926 268.122124 
L 358.509412 280.047502 
L 358.849716 231.328044 
L 359.019868 223.509968 
L 359.19002 224.782403 
L 359.530324 230.641521 
L 359.700476 232.121097 
L 359.870628 231.180087 
L 360.210932 215.893114 
L 360.381084 214.697617 
L 360.551236 211.685202 
L 360.89154 213.336408 
L 361.061692 219.929396 
L 361.231844 214.170888 
L 361.572148 192.646026 
L 361.7423 186.005692 
L 361.912452 185.094273 
L 362.252756 174.867449 
L 362.422908 173.583177 
L 362.59306 165.883467 
L 362.763212 163.634512 
L 362.933364 163.587166 
L 363.103516 163.036764 
L 363.44382 149.874462 
L 363.613972 140.884562 
L 363.784124 137.990512 
L 364.124428 141.056192 
L 364.634884 136.889708 
L 364.805036 136.800934 
L 364.975188 135.143809 
L 365.315492 123.95822 
L 365.485644 118.927663 
L 365.655796 118.270732 
L 365.825948 112.707528 
L 365.9961 113.133646 
L 366.336404 110.565103 
L 366.506556 106.753717 
L 366.84686 105.469446 
L 367.187164 97.106886 
L 367.357316 96.367098 
L 367.867772 84.850084 
L 368.208076 89.88064 
L 368.54838 84.648861 
L 368.888684 92.419591 
L 369.058836 87.856581 
L 369.228988 87.874336 
L 369.39914 87.619849 
L 369.739444 92.478774 
L 369.909596 91.34246 
L 370.079748 86.371087 
L 370.2499 76.872213 
L 370.760356 24.418308 
L 370.930508 25.501357 
L 371.10066 25.820945 
L 371.95142 25.8387 
L 373.65294 25.820945 
L 375.184308 25.815027 
L 375.694764 25.76768 
L 376.035068 25.809108 
L 376.20522 25.347481 
L 376.375372 25.678906 
L 376.545524 24.465654 
L 376.715676 25.607886 
L 376.885828 25.797272 
L 378.7575 25.826863 
L 379.438108 141.23966 
L 379.948564 182.194306 
L 380.288868 202.239593 
L 380.629172 213.845382 
L 380.799324 221.687131 
L 380.969476 220.077353 
L 381.139628 220.935507 
L 381.30978 223.515886 
L 381.650084 219.473687 
L 381.820236 222.042229 
L 382.500844 255.249819 
L 383.181452 236.926757 
L 383.351604 241.975069 
L 383.521756 240.838755 
L 383.691908 248.420099 
L 384.032212 274.596746 
L 384.372516 284.450718 
L 384.542668 267.435601 
L 384.882972 286.965996 
L 385.053124 257.427754 
L 385.223276 258.706107 
L 385.56358 280.970757 
L 385.733732 255.954097 
L 386.074036 279.295877 
L 386.41434 256.036953 
L 386.584492 256.806332 
L 386.754644 259.653035 
L 386.924796 260.422414 
L 387.094948 262.405045 
L 387.2651 268.796811 
L 387.435252 281.095041 
L 387.605404 259.102633 
L 387.775556 259.002022 
L 387.945708 260.866287 
L 388.11586 266.885199 
L 388.286012 279.639139 
L 388.456164 251.633737 
L 388.626316 249.491311 
L 388.796468 250.532932 
L 389.306924 277.703854 
L 389.477076 278.999962 
L 389.477076 278.999962 
" clip-path="url(#p1c535492a2)" style="fill: none; stroke: #ff7f0e; stroke-width: 1.5; stroke-linecap: square"/>
   </g>
   <g id="patch_3">
    <path d="M 49.088 302.2 
L 49.088 10.8 
" style="fill: none; stroke: #000000; stroke-width: 0.8; stroke-linejoin: miter; stroke-linecap: square"/>
   </g>
   <g id="patch_4">
    <path d="M 389.392 302.2 
L 389.392 10.8 
" style="fill: none; stroke: #000000; stroke-width: 0.8; stroke-linejoin: miter; stroke-linecap: square"/>
   </g>
   <g id="patch_5">
    <path d="M 49.088 302.2 
L 389.392 302.2 
" style="fill: none; stroke: #000000; stroke-width: 0.8; stroke-linejoin: miter; stroke-linecap: square"/>
   </g>
   <g id="patch_6">
    <path d="M 49.088 10.8 
L 389.392 10.8 
" style="fill: none; stroke: #000000; stroke-width: 0.8; stroke-linejoin: miter; stroke-linecap: square"/>
   </g>
  </g>
  <g id="axes_2">
   <g id="matplotlib.axis_3">
    <g id="ytick_9">
     <g id="line2d_15">
      <defs>
       <path id="mf4885f9394" d="M 0 0 
L 3.5 0 
" style="stroke: #000000; stroke-width: 0.8"/>
      </defs>
      <g>
       <use xlink:href="#mf4885f9394" x="389.392" y="300.804401" style="stroke: #000000; stroke-width: 0.8"/>
      </g>
     </g>
     <g id="text_16">
      <!-- −0.010 -->
      <g style="fill: #1f77b4" transform="translate(396.392 304.60362) scale(0.1 -0.1)">
       <use xlink:href="#DejaVuSans-2212"/>
       <use xlink:href="#DejaVuSans-30" x="83.789062"/>
       <use xlink:href="#DejaVuSans-2e" x="147.412109"/>
       <use xlink:href="#DejaVuSans-30" x="179.199219"/>
       <use xlink:href="#DejaVuSans-31" x="242.822266"/>
       <use xlink:href="#DejaVuSans-30" x="306.445312"/>
      </g>
     </g>
    </g>
    <g id="ytick_10">
     <g id="line2d_16">
      <g>
       <use xlink:href="#mf4885f9394" x="389.392" y="262.059811" style="stroke: #000000; stroke-width: 0.8"/>
      </g>
     </g>
     <g id="text_17">
      <!-- −0.008 -->
      <g style="fill: #1f77b4" transform="translate(396.392 265.859029) scale(0.1 -0.1)">
       <use xlink:href="#DejaVuSans-2212"/>
       <use xlink:href="#DejaVuSans-30" x="83.789062"/>
       <use xlink:href="#DejaVuSans-2e" x="147.412109"/>
       <use xlink:href="#DejaVuSans-30" x="179.199219"/>
       <use xlink:href="#DejaVuSans-30" x="242.822266"/>
       <use xlink:href="#DejaVuSans-38" x="306.445312"/>
      </g>
     </g>
    </g>
    <g id="ytick_11">
     <g id="line2d_17">
      <g>
       <use xlink:href="#mf4885f9394" x="389.392" y="223.31522" style="stroke: #000000; stroke-width: 0.8"/>
      </g>
     </g>
     <g id="text_18">
      <!-- −0.006 -->
      <g style="fill: #1f77b4" transform="translate(396.392 227.114439) scale(0.1 -0.1)">
       <use xlink:href="#DejaVuSans-2212"/>
       <use xlink:href="#DejaVuSans-30" x="83.789062"/>
       <use xlink:href="#DejaVuSans-2e" x="147.412109"/>
       <use xlink:href="#DejaVuSans-30" x="179.199219"/>
       <use xlink:href="#DejaVuSans-30" x="242.822266"/>
       <use xlink:href="#DejaVuSans-36" x="306.445312"/>
      </g>
     </g>
    </g>
    <g id="ytick_12">
     <g id="line2d_18">
      <g>
       <use xlink:href="#mf4885f9394" x="389.392" y="184.570629" style="stroke: #000000; stroke-width: 0.8"/>
      </g>
     </g>
     <g id="text_19">
      <!-- −0.004 -->
      <g style="fill: #1f77b4" transform="translate(396.392 188.369848) scale(0.1 -0.1)">
       <use xlink:href="#DejaVuSans-2212"/>
       <use xlink:href="#DejaVuSans-30" x="83.789062"/>
       <use xlink:href="#DejaVuSans-2e" x="147.412109"/>
       <use xlink:href="#DejaVuSans-30" x="179.199219"/>
       <use xlink:href="#DejaVuSans-30" x="242.822266"/>
       <use xlink:href="#DejaVuSans-34" x="306.445312"/>
      </g>
     </g>
    </g>
    <g id="ytick_13">
     <g id="line2d_19">
      <g>
       <use xlink:href="#mf4885f9394" x="389.392" y="145.826039" style="stroke: #000000; stroke-width: 0.8"/>
      </g>
     </g>
     <g id="text_20">
      <!-- −0.002 -->
      <g style="fill: #1f77b4" transform="translate(396.392 149.625257) scale(0.1 -0.1)">
       <use xlink:href="#DejaVuSans-2212"/>
       <use xlink:href="#DejaVuSans-30" x="83.789062"/>
       <use xlink:href="#DejaVuSans-2e" x="147.412109"/>
       <use xlink:href="#DejaVuSans-30" x="179.199219"/>
       <use xlink:href="#DejaVuSans-30" x="242.822266"/>
       <use xlink:href="#DejaVuSans-32" x="306.445312"/>
      </g>
     </g>
    </g>
    <g id="ytick_14">
     <g id="line2d_20">
      <g>
       <use xlink:href="#mf4885f9394" x="389.392" y="107.081448" style="stroke: #000000; stroke-width: 0.8"/>
      </g>
     </g>
     <g id="text_21">
      <!-- 0.000 -->
      <g style="fill: #1f77b4" transform="translate(396.392 110.880667) scale(0.1 -0.1)">
       <use xlink:href="#DejaVuSans-30"/>
       <use xlink:href="#DejaVuSans-2e" x="63.623047"/>
       <use xlink:href="#DejaVuSans-30" x="95.410156"/>
       <use xlink:href="#DejaVuSans-30" x="159.033203"/>
       <use xlink:href="#DejaVuSans-30" x="222.65625"/>
      </g>
     </g>
    </g>
    <g id="ytick_15">
     <g id="line2d_21">
      <g>
       <use xlink:href="#mf4885f9394" x="389.392" y="68.336857" style="stroke: #000000; stroke-width: 0.8"/>
      </g>
     </g>
     <g id="text_22">
      <!-- 0.002 -->
      <g style="fill: #1f77b4" transform="translate(396.392 72.136076) scale(0.1 -0.1)">
       <use xlink:href="#DejaVuSans-30"/>
       <use xlink:href="#DejaVuSans-2e" x="63.623047"/>
       <use xlink:href="#DejaVuSans-30" x="95.410156"/>
       <use xlink:href="#DejaVuSans-30" x="159.033203"/>
       <use xlink:href="#DejaVuSans-32" x="222.65625"/>
      </g>
     </g>
    </g>
    <g id="ytick_16">
     <g id="line2d_22">
      <g>
       <use xlink:href="#mf4885f9394" x="389.392" y="29.592267" style="stroke: #000000; stroke-width: 0.8"/>
      </g>
     </g>
     <g id="text_23">
      <!-- 0.004 -->
      <g style="fill: #1f77b4" transform="translate(396.392 33.391485) scale(0.1 -0.1)">
       <use xlink:href="#DejaVuSans-30"/>
       <use xlink:href="#DejaVuSans-2e" x="63.623047"/>
       <use xlink:href="#DejaVuSans-30" x="95.410156"/>
       <use xlink:href="#DejaVuSans-30" x="159.033203"/>
       <use xlink:href="#DejaVuSans-34" x="222.65625"/>
      </g>
     </g>
    </g>
    <g id="text_24">
     <!-- $V_{\mathrm{in}}$ (V) -->
     <g style="fill: #1f77b4" transform="translate(444.99825 172.2) rotate(-90) scale(0.1 -0.1)">
      <defs>
       <path id="DejaVuSans-69" d="M 603 3500 
L 1178 3500 
L 1178 0 
L 603 0 
L 603 3500 
z
M 603 4863 
L 1178 4863 
L 1178 4134 
L 603 4134 
L 603 4863 
z
" transform="scale(0.015625)"/>
       <path id="DejaVuSans-6e" d="M 3513 2113 
L 3513 0 
L 2938 0 
L 2938 2094 
Q 2938 2591 2744 2837 
Q 2550 3084 2163 3084 
Q 1697 3084 1428 2787 
Q 1159 2491 1159 1978 
L 1159 0 
L 581 0 
L 581 3500 
L 1159 3500 
L 1159 2956 
Q 1366 3272 1645 3428 
Q 1925 3584 2291 3584 
Q 2894 3584 3203 3211 
Q 3513 2838 3513 2113 
z
" transform="scale(0.015625)"/>
      </defs>
      <use xlink:href="#DejaVuSans-Oblique-56" transform="translate(0 0.125)"/>
      <use xlink:href="#DejaVuSans-69" transform="translate(68.408203 -16.28125) scale(0.7)"/>
      <use xlink:href="#DejaVuSans-6e" transform="translate(87.856445 -16.28125) scale(0.7)"/>
      <use xlink:href="#DejaVuSans-20" transform="translate(134.956055 0.125)"/>
      <use xlink:href="#DejaVuSans-28" transform="translate(166.743164 0.125)"/>
      <use xlink:href="#DejaVuSans-56" transform="translate(205.756836 0.125)"/>
      <use xlink:href="#DejaVuSans-29" transform="translate(274.165039 0.125)"/>
     </g>
    </g>
   </g>
   <g id="line2d_23">
    <path d="M 49.002924 122.28855 
L 49.173076 109.618985 
L 49.343228 115.953767 
L 49.51338 103.284202 
L 49.853684 103.284202 
L 50.023836 84.279854 
L 50.193988 109.618985 
L 50.36414 115.953767 
L 50.534292 109.618985 
L 50.704444 90.614637 
L 50.874596 122.28855 
L 51.044748 115.953767 
L 51.2149 103.284202 
L 51.555204 103.284202 
L 51.725356 128.623333 
L 51.895508 109.618985 
L 52.06566 109.618985 
L 52.235812 115.953767 
L 52.405964 90.614637 
L 52.576116 122.28855 
L 52.746268 122.28855 
L 52.91642 134.958115 
L 53.256724 115.953767 
L 53.426876 128.623333 
L 53.937332 128.623333 
L 54.107484 122.28855 
L 54.277636 122.28855 
L 54.447788 115.953767 
L 54.788092 134.958115 
L 54.958244 122.28855 
L 55.128396 122.28855 
L 55.4687 141.292898 
L 55.638852 122.28855 
L 55.809004 141.292898 
L 56.31946 122.28855 
L 56.489612 128.623333 
L 56.829916 147.627681 
L 57.17022 147.627681 
L 57.340372 153.962463 
L 57.510524 141.292898 
L 57.680676 147.627681 
L 57.850828 134.958115 
L 58.02098 147.627681 
L 58.191132 141.292898 
L 58.361284 153.962463 
L 58.531436 134.958115 
L 58.701588 128.623333 
L 59.041892 160.297246 
L 59.212044 141.292898 
L 59.382196 141.292898 
L 59.552348 166.632028 
L 59.7225 153.962463 
L 59.892652 153.962463 
L 60.062804 141.292898 
L 60.403108 153.962463 
L 60.57326 153.962463 
L 60.743412 160.297246 
L 60.913564 153.962463 
L 61.42402 172.966811 
L 61.934476 153.962463 
L 62.104628 153.962463 
L 62.27478 160.297246 
L 62.444932 141.292898 
L 62.615084 166.632028 
L 62.785236 153.962463 
L 62.955388 160.297246 
L 63.12554 141.292898 
L 63.295692 147.627681 
L 63.806148 179.301594 
L 63.9763 166.632028 
L 64.316604 179.301594 
L 64.486756 166.632028 
L 64.656908 172.966811 
L 64.82706 160.297246 
L 64.997212 179.301594 
L 65.167364 147.627681 
L 65.337516 166.632028 
L 65.507668 166.632028 
L 65.67782 172.966811 
L 65.847972 166.632028 
L 66.018124 179.301594 
L 66.188276 160.297246 
L 66.358428 172.966811 
L 66.52858 166.632028 
L 67.039036 185.636376 
L 67.209188 153.962463 
L 67.37934 179.301594 
L 67.549492 160.297246 
L 67.719644 179.301594 
L 67.889796 166.632028 
L 68.059948 179.301594 
L 68.2301 179.301594 
L 68.400252 160.297246 
L 68.570404 166.632028 
L 68.740556 160.297246 
L 68.910708 160.297246 
L 69.08086 147.627681 
L 69.421164 166.632028 
L 69.591316 160.297246 
L 69.761468 172.966811 
L 69.93162 153.962463 
L 70.101772 153.962463 
L 70.271924 166.632028 
L 70.612228 166.632028 
L 70.78238 172.966811 
L 70.952532 153.962463 
L 71.462988 153.962463 
L 71.63314 147.627681 
L 71.803292 160.297246 
L 71.973444 134.958115 
L 72.313748 160.297246 
L 72.654052 134.958115 
L 72.994356 147.627681 
L 73.164508 134.958115 
L 73.33466 147.627681 
L 73.504812 134.958115 
L 73.674964 134.958115 
L 73.845116 141.292898 
L 74.015268 128.623333 
L 74.18542 141.292898 
L 74.355572 141.292898 
L 74.525724 134.958115 
L 74.866028 147.627681 
L 75.03618 141.292898 
L 75.206332 122.28855 
L 75.376484 134.958115 
L 75.716788 115.953767 
L 75.88694 115.953767 
L 76.057092 134.958115 
L 76.227244 122.28855 
L 76.397396 141.292898 
L 76.567548 134.958115 
L 76.7377 115.953767 
L 76.907852 134.958115 
L 77.078004 103.284202 
L 77.248156 115.953767 
L 77.418308 103.284202 
L 77.58846 103.284202 
L 77.758612 122.28855 
L 77.928764 103.284202 
L 78.098916 134.958115 
L 78.269068 103.284202 
L 78.43922 115.953767 
L 78.609372 109.618985 
L 78.779524 115.953767 
L 78.949676 103.284202 
L 79.119828 103.284202 
L 79.28998 109.618985 
L 79.460132 134.958115 
L 79.630284 103.284202 
L 79.970588 115.953767 
L 80.14074 109.618985 
L 80.310892 122.28855 
L 80.481044 90.614637 
L 80.651196 109.618985 
L 80.821348 115.953767 
L 80.9915 103.284202 
L 81.161652 109.618985 
L 81.331804 122.28855 
L 81.501956 109.618985 
L 81.672108 115.953767 
L 81.84226 128.623333 
L 82.012412 90.614637 
L 82.182564 128.623333 
L 82.352716 103.284202 
L 82.522868 96.94942 
L 82.69302 96.94942 
L 82.863172 90.614637 
L 83.033324 109.618985 
L 83.203476 115.953767 
L 83.373628 115.953767 
L 83.54378 109.618985 
L 83.713932 109.618985 
L 83.884084 128.623333 
L 84.054236 122.28855 
L 84.224388 103.284202 
L 84.39454 122.28855 
L 84.564692 109.618985 
L 84.734844 115.953767 
L 84.904996 109.618985 
L 85.415452 109.618985 
L 85.755756 122.28855 
L 85.925908 115.953767 
L 86.09606 84.279854 
L 86.266212 115.953767 
L 86.436364 103.284202 
L 86.606516 115.953767 
L 87.116972 115.953767 
L 87.287124 122.28855 
L 87.457276 103.284202 
L 87.79758 115.953767 
L 87.967732 115.953767 
L 88.137884 128.623333 
L 88.308036 128.623333 
L 88.478188 134.958115 
L 88.64834 153.962463 
L 88.818492 122.28855 
L 88.988644 147.627681 
L 89.158796 141.292898 
L 89.328948 128.623333 
L 89.4991 134.958115 
L 89.669252 134.958115 
L 89.839404 115.953767 
L 90.009556 128.623333 
L 90.179708 128.623333 
L 90.34986 122.28855 
L 90.520012 128.623333 
L 90.690164 122.28855 
L 90.860316 141.292898 
L 91.030468 141.292898 
L 91.20062 153.962463 
L 91.370772 141.292898 
L 91.540924 160.297246 
L 91.711076 141.292898 
L 91.881228 160.297246 
L 92.221532 128.623333 
L 92.391684 128.623333 
L 92.561836 147.627681 
L 92.90214 134.958115 
L 93.072292 153.962463 
L 93.242444 153.962463 
L 93.412596 134.958115 
L 93.582748 141.292898 
L 93.7529 141.292898 
L 93.923052 160.297246 
L 94.093204 141.292898 
L 94.263356 153.962463 
L 94.60366 153.962463 
L 94.773812 160.297246 
L 94.943964 141.292898 
L 95.114116 166.632028 
L 95.284268 160.297246 
L 95.45442 147.627681 
L 95.624572 172.966811 
L 95.794724 166.632028 
L 95.964876 172.966811 
L 96.135028 153.962463 
L 96.30518 147.627681 
L 96.475332 172.966811 
L 96.815636 160.297246 
L 96.985788 166.632028 
L 97.326092 153.962463 
L 97.666396 166.632028 
L 97.836548 160.297246 
L 98.0067 179.301594 
L 98.176852 166.632028 
L 98.347004 172.966811 
L 98.517156 160.297246 
L 98.687308 185.636376 
L 98.85746 166.632028 
L 99.027612 160.297246 
L 99.197764 179.301594 
L 99.367916 172.966811 
L 99.878372 172.966811 
L 100.048524 179.301594 
L 100.218676 172.966811 
L 100.388828 179.301594 
L 100.55898 179.301594 
L 100.899284 166.632028 
L 101.069436 172.966811 
L 101.579892 172.966811 
L 101.750044 166.632028 
L 101.920196 179.301594 
L 102.090348 147.627681 
L 102.2605 172.966811 
L 102.600804 153.962463 
L 102.770956 160.297246 
L 102.941108 147.627681 
L 103.11126 160.297246 
L 103.281412 147.627681 
L 103.451564 153.962463 
L 103.621716 166.632028 
L 103.791868 166.632028 
L 103.96202 141.292898 
L 104.132172 179.301594 
L 104.302324 166.632028 
L 104.472476 179.301594 
L 104.642628 166.632028 
L 104.982932 166.632028 
L 105.153084 160.297246 
L 105.833692 160.297246 
L 106.173996 134.958115 
L 106.5143 147.627681 
L 106.684452 134.958115 
L 106.854604 147.627681 
L 107.024756 141.292898 
L 107.194908 153.962463 
L 107.535212 134.958115 
L 107.705364 141.292898 
L 107.875516 134.958115 
L 108.045668 141.292898 
L 108.21582 122.28855 
L 108.385972 122.28855 
L 108.556124 134.958115 
L 108.726276 134.958115 
L 108.896428 141.292898 
L 109.06658 128.623333 
L 109.236732 128.623333 
L 109.406884 141.292898 
L 109.577036 109.618985 
L 109.747188 122.28855 
L 110.257644 122.28855 
L 110.427796 134.958115 
L 110.597948 115.953767 
L 110.7681 122.28855 
L 110.938252 122.28855 
L 111.278556 109.618985 
L 111.448708 90.614637 
L 111.789012 115.953767 
L 111.959164 96.94942 
L 112.129316 128.623333 
L 112.299468 134.958115 
L 112.46962 128.623333 
L 112.639772 115.953767 
L 112.809924 115.953767 
L 112.980076 96.94942 
L 113.150228 122.28855 
L 113.32038 122.28855 
L 113.490532 128.623333 
L 113.660684 109.618985 
L 113.830836 103.284202 
L 114.000988 109.618985 
L 114.341292 109.618985 
L 114.511444 115.953767 
L 114.681596 84.279854 
L 114.851748 128.623333 
L 115.0219 109.618985 
L 115.192052 109.618985 
L 115.362204 90.614637 
L 115.532356 115.953767 
L 115.702508 96.94942 
L 115.87266 122.28855 
L 116.042812 96.94942 
L 116.212964 109.618985 
L 116.383116 103.284202 
L 116.553268 77.945072 
L 116.72342 103.284202 
L 116.893572 77.945072 
L 117.233876 115.953767 
L 117.404028 103.284202 
L 117.57418 109.618985 
L 117.744332 122.28855 
L 117.914484 109.618985 
L 118.084636 109.618985 
L 118.254788 128.623333 
L 118.42494 103.284202 
L 118.765244 115.953767 
L 118.935396 96.94942 
L 119.2757 115.953767 
L 119.445852 109.618985 
L 119.616004 109.618985 
L 119.786156 90.614637 
L 119.956308 103.284202 
L 120.12646 96.94942 
L 120.296612 128.623333 
L 120.466764 128.623333 
L 120.636916 109.618985 
L 120.97722 128.623333 
L 121.147372 115.953767 
L 121.317524 128.623333 
L 121.487676 109.618985 
L 121.657828 134.958115 
L 121.82798 122.28855 
L 122.168284 122.28855 
L 122.338436 134.958115 
L 122.508588 134.958115 
L 122.67874 109.618985 
L 123.019044 128.623333 
L 123.189196 134.958115 
L 123.359348 134.958115 
L 123.699652 115.953767 
L 124.039956 134.958115 
L 124.210108 122.28855 
L 124.38026 141.292898 
L 124.550412 122.28855 
L 124.720564 141.292898 
L 125.060868 128.623333 
L 125.23102 141.292898 
L 125.401172 134.958115 
L 125.571324 160.297246 
L 125.741476 141.292898 
L 125.911628 147.627681 
L 126.08178 134.958115 
L 126.251932 141.292898 
L 126.422084 134.958115 
L 126.592236 141.292898 
L 126.762388 141.292898 
L 126.93254 134.958115 
L 127.102692 153.962463 
L 127.272844 141.292898 
L 127.442996 147.627681 
L 127.7833 172.966811 
L 127.953452 166.632028 
L 128.123604 122.28855 
L 128.293756 160.297246 
L 128.463908 141.292898 
L 128.63406 147.627681 
L 128.974364 166.632028 
L 129.144516 147.627681 
L 129.314668 179.301594 
L 129.654972 153.962463 
L 129.825124 160.297246 
L 129.995276 172.966811 
L 130.165428 160.297246 
L 130.505732 160.297246 
L 130.675884 147.627681 
L 130.846036 172.966811 
L 131.016188 166.632028 
L 131.18634 179.301594 
L 131.356492 160.297246 
L 131.526644 153.962463 
L 131.866948 172.966811 
L 132.0371 172.966811 
L 132.207252 153.962463 
L 132.377404 172.966811 
L 132.547556 160.297246 
L 132.717708 160.297246 
L 132.88786 185.636376 
L 133.058012 185.636376 
L 133.228164 191.971159 
L 133.568468 166.632028 
L 133.73862 172.966811 
L 133.908772 147.627681 
L 134.078924 172.966811 
L 134.249076 179.301594 
L 134.58938 166.632028 
L 134.929684 166.632028 
L 135.099836 179.301594 
L 135.269988 141.292898 
L 135.44014 166.632028 
L 135.780444 179.301594 
L 135.950596 166.632028 
L 136.120748 179.301594 
L 136.2909 166.632028 
L 136.461052 166.632028 
L 136.631204 160.297246 
L 136.971508 160.297246 
L 137.14166 172.966811 
L 137.481964 160.297246 
L 137.652116 141.292898 
L 137.99242 166.632028 
L 138.162572 141.292898 
L 138.332724 166.632028 
L 138.673028 166.632028 
L 138.84318 172.966811 
L 139.013332 147.627681 
L 139.183484 153.962463 
L 139.353636 141.292898 
L 139.69394 153.962463 
L 139.864092 147.627681 
L 140.034244 147.627681 
L 140.204396 128.623333 
L 140.374548 153.962463 
L 140.5447 160.297246 
L 140.885004 141.292898 
L 141.055156 153.962463 
L 141.225308 147.627681 
L 141.39546 153.962463 
L 141.565612 141.292898 
L 141.905916 141.292898 
L 142.076068 134.958115 
L 142.24622 141.292898 
L 142.586524 128.623333 
L 142.756676 128.623333 
L 142.926828 134.958115 
L 143.09698 115.953767 
L 143.267132 134.958115 
L 143.607436 122.28855 
L 144.117892 122.28855 
L 144.288044 128.623333 
L 144.458196 122.28855 
L 144.628348 122.28855 
L 144.7985 141.292898 
L 144.968652 141.292898 
L 145.138804 134.958115 
L 145.308956 122.28855 
L 145.64926 122.28855 
L 145.819412 103.284202 
L 145.989564 134.958115 
L 146.159716 115.953767 
L 146.329868 128.623333 
L 146.50002 115.953767 
L 146.670172 128.623333 
L 146.840324 128.623333 
L 147.010476 96.94942 
L 147.180628 115.953767 
L 147.35078 122.28855 
L 147.520932 122.28855 
L 147.691084 115.953767 
L 147.861236 128.623333 
L 148.031388 109.618985 
L 148.20154 122.28855 
L 148.371692 90.614637 
L 148.541844 115.953767 
L 148.711996 90.614637 
L 148.882148 90.614637 
L 149.222452 109.618985 
L 149.392604 103.284202 
L 149.562756 115.953767 
L 149.732908 109.618985 
L 149.90306 109.618985 
L 150.073212 96.94942 
L 150.243364 109.618985 
L 150.583668 90.614637 
L 150.75382 109.618985 
L 150.923972 115.953767 
L 151.094124 103.284202 
L 151.264276 103.284202 
L 151.434428 96.94942 
L 151.60458 96.94942 
L 151.774732 103.284202 
L 151.944884 103.284202 
L 152.115036 109.618985 
L 152.45534 90.614637 
L 152.625492 103.284202 
L 152.795644 90.614637 
L 152.965796 90.614637 
L 153.3061 109.618985 
L 153.476252 103.284202 
L 153.646404 115.953767 
L 153.816556 109.618985 
L 153.986708 122.28855 
L 154.15686 115.953767 
L 154.327012 115.953767 
L 154.497164 109.618985 
L 154.667316 128.623333 
L 154.837468 109.618985 
L 155.00762 103.284202 
L 155.177772 134.958115 
L 155.347924 134.958115 
L 155.518076 128.623333 
L 155.688228 134.958115 
L 155.85838 122.28855 
L 156.028532 134.958115 
L 156.198684 115.953767 
L 156.368836 141.292898 
L 156.538988 141.292898 
L 156.70914 134.958115 
L 156.879292 134.958115 
L 157.049444 122.28855 
L 157.219596 134.958115 
L 157.389748 134.958115 
L 157.5599 122.28855 
L 157.900204 141.292898 
L 158.070356 128.623333 
L 158.41066 128.623333 
L 158.580812 122.28855 
L 158.750964 141.292898 
L 158.921116 128.623333 
L 159.091268 128.623333 
L 159.26142 147.627681 
L 159.431572 141.292898 
L 159.771876 153.962463 
L 159.942028 134.958115 
L 160.11218 141.292898 
L 160.282332 153.962463 
L 160.452484 134.958115 
L 160.622636 134.958115 
L 160.96294 147.627681 
L 161.133092 147.627681 
L 161.303244 153.962463 
L 161.473396 153.962463 
L 161.643548 166.632028 
L 161.8137 141.292898 
L 161.983852 166.632028 
L 162.154004 141.292898 
L 162.324156 160.297246 
L 162.494308 147.627681 
L 162.66446 153.962463 
L 162.834612 172.966811 
L 163.004764 160.297246 
L 163.51522 160.297246 
L 163.685372 166.632028 
L 163.855524 160.297246 
L 164.025676 166.632028 
L 164.195828 160.297246 
L 164.36598 160.297246 
L 164.536132 185.636376 
L 164.876436 147.627681 
L 165.046588 160.297246 
L 165.21674 153.962463 
L 165.386892 166.632028 
L 165.557044 166.632028 
L 165.727196 160.297246 
L 165.897348 179.301594 
L 166.0675 160.297246 
L 166.237652 153.962463 
L 166.407804 153.962463 
L 166.577956 172.966811 
L 166.748108 141.292898 
L 166.91826 160.297246 
L 167.088412 166.632028 
L 167.258564 160.297246 
L 167.428716 160.297246 
L 167.598868 172.966811 
L 167.76902 160.297246 
L 167.939172 160.297246 
L 168.109324 179.301594 
L 168.279476 160.297246 
L 168.449628 172.966811 
L 168.61978 166.632028 
L 168.789932 166.632028 
L 169.130236 179.301594 
L 169.300388 179.301594 
L 169.47054 160.297246 
L 169.640692 160.297246 
L 169.810844 147.627681 
L 169.980996 153.962463 
L 170.151148 172.966811 
L 170.3213 179.301594 
L 170.661604 141.292898 
L 170.831756 160.297246 
L 171.001908 141.292898 
L 171.17206 160.297246 
L 171.342212 153.962463 
L 171.512364 153.962463 
L 171.682516 166.632028 
L 171.852668 147.627681 
L 172.02282 153.962463 
L 172.192972 141.292898 
L 172.363124 160.297246 
L 172.533276 128.623333 
L 172.703428 160.297246 
L 173.043732 147.627681 
L 173.213884 172.966811 
L 173.384036 153.962463 
L 173.554188 153.962463 
L 173.72434 160.297246 
L 173.894492 147.627681 
L 174.064644 160.297246 
L 174.234796 134.958115 
L 174.404948 141.292898 
L 174.5751 141.292898 
L 174.745252 147.627681 
L 174.915404 147.627681 
L 175.085556 141.292898 
L 175.255708 166.632028 
L 175.42586 172.966811 
L 175.596012 147.627681 
L 175.766164 147.627681 
L 175.936316 134.958115 
L 176.106468 153.962463 
L 176.27662 134.958115 
L 176.446772 134.958115 
L 176.616924 122.28855 
L 176.787076 122.28855 
L 176.957228 141.292898 
L 177.467684 122.28855 
L 177.637836 128.623333 
L 177.807988 115.953767 
L 177.97814 115.953767 
L 178.148292 134.958115 
L 178.318444 134.958115 
L 178.488596 109.618985 
L 178.658748 128.623333 
L 178.8289 103.284202 
L 178.999052 122.28855 
L 179.169204 115.953767 
L 179.339356 115.953767 
L 179.509508 134.958115 
L 179.67966 128.623333 
L 180.190116 96.94942 
L 180.360268 103.284202 
L 180.53042 128.623333 
L 180.700572 115.953767 
L 180.870724 115.953767 
L 181.040876 96.94942 
L 181.38118 128.623333 
L 181.551332 115.953767 
L 181.721484 122.28855 
L 181.891636 103.284202 
L 182.061788 96.94942 
L 182.402092 115.953767 
L 182.742396 90.614637 
L 182.912548 90.614637 
L 183.0827 96.94942 
L 183.252852 109.618985 
L 183.423004 90.614637 
L 183.763308 122.28855 
L 184.273764 84.279854 
L 184.443916 90.614637 
L 184.954372 122.28855 
L 185.124524 96.94942 
L 185.294676 103.284202 
L 185.63498 122.28855 
L 185.805132 103.284202 
L 186.145436 103.284202 
L 186.315588 115.953767 
L 186.48574 109.618985 
L 186.655892 96.94942 
L 186.826044 109.618985 
L 186.996196 90.614637 
L 187.166348 115.953767 
L 187.3365 109.618985 
L 187.506652 109.618985 
L 187.676804 115.953767 
L 187.846956 115.953767 
L 188.017108 109.618985 
L 188.18726 109.618985 
L 188.357412 103.284202 
L 188.527564 109.618985 
L 188.697716 103.284202 
L 188.867868 128.623333 
L 189.03802 115.953767 
L 189.208172 134.958115 
L 189.378324 103.284202 
L 189.718628 141.292898 
L 189.88878 115.953767 
L 190.058932 128.623333 
L 190.229084 122.28855 
L 190.399236 134.958115 
L 190.569388 109.618985 
L 190.73954 128.623333 
L 190.909692 122.28855 
L 191.079844 122.28855 
L 191.249996 128.623333 
L 191.420148 115.953767 
L 191.5903 122.28855 
L 191.760452 134.958115 
L 191.930604 122.28855 
L 192.100756 134.958115 
L 192.270908 128.623333 
L 192.44106 134.958115 
L 192.611212 122.28855 
L 192.951516 153.962463 
L 193.121668 141.292898 
L 193.29182 141.292898 
L 193.461972 147.627681 
L 193.632124 141.292898 
L 193.802276 153.962463 
L 193.972428 147.627681 
L 194.14258 134.958115 
L 194.312732 134.958115 
L 194.482884 147.627681 
L 194.653036 134.958115 
L 194.823188 166.632028 
L 194.99334 134.958115 
L 195.163492 153.962463 
L 195.333644 134.958115 
L 195.503796 166.632028 
L 195.673948 153.962463 
L 195.8441 153.962463 
L 196.014252 141.292898 
L 196.184404 160.297246 
L 196.354556 141.292898 
L 196.524708 141.292898 
L 196.69486 147.627681 
L 197.035164 166.632028 
L 197.54562 134.958115 
L 197.885924 172.966811 
L 198.056076 153.962463 
L 198.226228 166.632028 
L 198.39638 160.297246 
L 198.566532 160.297246 
L 198.736684 141.292898 
L 198.906836 153.962463 
L 199.076988 153.962463 
L 199.24714 166.632028 
L 199.417292 166.632028 
L 199.587444 134.958115 
L 199.927748 172.966811 
L 200.0979 160.297246 
L 200.268052 179.301594 
L 200.438204 166.632028 
L 200.608356 179.301594 
L 200.778508 179.301594 
L 200.94866 166.632028 
L 201.118812 179.301594 
L 201.288964 166.632028 
L 201.459116 172.966811 
L 201.629268 185.636376 
L 201.79942 179.301594 
L 201.969572 179.301594 
L 202.139724 172.966811 
L 202.309876 172.966811 
L 202.480028 160.297246 
L 202.990484 160.297246 
L 203.160636 166.632028 
L 203.330788 160.297246 
L 203.50094 172.966811 
L 203.671092 172.966811 
L 203.841244 166.632028 
L 204.011396 153.962463 
L 204.3517 179.301594 
L 204.521852 147.627681 
L 204.692004 153.962463 
L 204.862156 147.627681 
L 205.032308 166.632028 
L 205.372612 147.627681 
L 205.712916 160.297246 
L 205.883068 160.297246 
L 206.05322 153.962463 
L 206.223372 160.297246 
L 206.393524 160.297246 
L 206.733828 147.627681 
L 206.90398 160.297246 
L 207.074132 160.297246 
L 207.244284 172.966811 
L 207.414436 153.962463 
L 207.75474 166.632028 
L 208.095044 128.623333 
L 208.265196 141.292898 
L 208.435348 141.292898 
L 208.6055 153.962463 
L 208.775652 128.623333 
L 208.945804 134.958115 
L 209.286108 134.958115 
L 209.45626 147.627681 
L 209.796564 128.623333 
L 209.966716 141.292898 
L 210.136868 134.958115 
L 210.30702 134.958115 
L 210.477172 128.623333 
L 210.817476 128.623333 
L 210.987628 141.292898 
L 211.327932 128.623333 
L 211.838388 128.623333 
L 212.00854 141.292898 
L 212.178692 122.28855 
L 212.518996 109.618985 
L 213.029452 128.623333 
L 213.199604 141.292898 
L 213.369756 122.28855 
L 213.539908 134.958115 
L 213.71006 109.618985 
L 213.880212 115.953767 
L 214.050364 115.953767 
L 214.220516 109.618985 
L 214.390668 122.28855 
L 214.56082 115.953767 
L 215.071276 115.953767 
L 215.241428 109.618985 
L 215.41158 109.618985 
L 215.581732 134.958115 
L 215.751884 115.953767 
L 215.922036 109.618985 
L 216.432492 109.618985 
L 216.602644 90.614637 
L 216.772796 115.953767 
L 216.942948 96.94942 
L 217.1131 109.618985 
L 217.283252 96.94942 
L 217.453404 103.284202 
L 217.793708 122.28855 
L 217.96386 115.953767 
L 218.134012 115.953767 
L 218.304164 96.94942 
L 218.474316 103.284202 
L 218.644468 103.284202 
L 218.81462 90.614637 
L 219.154924 122.28855 
L 219.325076 90.614637 
L 219.495228 109.618985 
L 219.66538 103.284202 
L 220.005684 103.284202 
L 220.175836 109.618985 
L 220.345988 122.28855 
L 220.686292 84.279854 
L 220.856444 122.28855 
L 221.196748 103.284202 
L 221.537052 103.284202 
L 221.707204 109.618985 
L 221.877356 96.94942 
L 222.047508 109.618985 
L 222.21766 96.94942 
L 222.387812 115.953767 
L 222.557964 115.953767 
L 222.728116 134.958115 
L 223.06842 109.618985 
L 223.238572 128.623333 
L 223.408724 128.623333 
L 223.578876 109.618985 
L 223.749028 141.292898 
L 223.91918 103.284202 
L 224.089332 122.28855 
L 224.259484 128.623333 
L 224.429636 128.623333 
L 224.599788 134.958115 
L 224.76994 128.623333 
L 224.940092 128.623333 
L 225.110244 134.958115 
L 225.280396 128.623333 
L 225.450548 115.953767 
L 225.790852 128.623333 
L 225.961004 128.623333 
L 226.131156 134.958115 
L 226.301308 128.623333 
L 226.641612 141.292898 
L 226.811764 122.28855 
L 226.981916 141.292898 
L 227.152068 147.627681 
L 227.32222 134.958115 
L 227.492372 141.292898 
L 227.662524 134.958115 
L 228.002828 134.958115 
L 228.17298 153.962463 
L 228.343132 134.958115 
L 228.513284 141.292898 
L 228.683436 141.292898 
L 228.853588 160.297246 
L 229.02374 141.292898 
L 229.193892 153.962463 
L 229.534196 153.962463 
L 229.8745 141.292898 
L 230.044652 147.627681 
L 230.214804 166.632028 
L 230.384956 141.292898 
L 230.555108 153.962463 
L 230.72526 141.292898 
L 230.895412 160.297246 
L 231.065564 160.297246 
L 231.405868 147.627681 
L 231.57602 160.297246 
L 231.746172 141.292898 
L 231.916324 166.632028 
L 232.256628 166.632028 
L 232.42678 147.627681 
L 232.767084 179.301594 
L 232.937236 153.962463 
L 233.107388 153.962463 
L 233.27754 160.297246 
L 233.447692 153.962463 
L 233.617844 166.632028 
L 233.787996 160.297246 
L 233.958148 160.297246 
L 234.1283 179.301594 
L 234.298452 166.632028 
L 234.468604 166.632028 
L 234.808908 179.301594 
L 234.97906 166.632028 
L 235.319364 166.632028 
L 235.659668 179.301594 
L 235.82982 166.632028 
L 235.999972 166.632028 
L 236.170124 172.966811 
L 236.340276 172.966811 
L 236.510428 153.962463 
L 236.850732 179.301594 
L 237.020884 166.632028 
L 237.191036 172.966811 
L 237.361188 160.297246 
L 237.53134 160.297246 
L 237.701492 172.966811 
L 237.871644 160.297246 
L 238.041796 166.632028 
L 238.211948 166.632028 
L 238.3821 172.966811 
L 238.722404 141.292898 
L 238.892556 160.297246 
L 239.062708 153.962463 
L 239.23286 153.962463 
L 239.403012 160.297246 
L 239.573164 141.292898 
L 239.743316 166.632028 
L 240.08362 147.627681 
L 240.423924 172.966811 
L 240.764228 147.627681 
L 240.93438 166.632028 
L 241.104532 153.962463 
L 241.274684 166.632028 
L 241.614988 134.958115 
L 241.78514 141.292898 
L 241.955292 141.292898 
L 242.125444 153.962463 
L 242.295596 153.962463 
L 242.465748 134.958115 
L 242.6359 153.962463 
L 242.806052 147.627681 
L 242.976204 134.958115 
L 243.146356 134.958115 
L 243.316508 141.292898 
L 243.656812 128.623333 
L 243.826964 141.292898 
L 244.33742 141.292898 
L 244.507572 128.623333 
L 244.677724 128.623333 
L 245.018028 141.292898 
L 245.18818 128.623333 
L 245.358332 134.958115 
L 245.528484 122.28855 
L 245.698636 128.623333 
L 245.868788 141.292898 
L 246.03894 115.953767 
L 246.379244 134.958115 
L 246.549396 122.28855 
L 246.8897 122.28855 
L 247.059852 141.292898 
L 247.230004 109.618985 
L 247.570308 134.958115 
L 247.910612 103.284202 
L 248.080764 115.953767 
L 248.421068 103.284202 
L 248.59122 90.614637 
L 248.761372 122.28855 
L 248.931524 109.618985 
L 249.101676 115.953767 
L 249.271828 96.94942 
L 249.44198 109.618985 
L 249.612132 103.284202 
L 249.782284 128.623333 
L 249.952436 90.614637 
L 250.122588 115.953767 
L 250.462892 115.953767 
L 250.633044 103.284202 
L 250.803196 115.953767 
L 250.973348 103.284202 
L 251.1435 103.284202 
L 251.313652 115.953767 
L 251.653956 103.284202 
L 251.824108 90.614637 
L 251.99426 90.614637 
L 252.164412 115.953767 
L 252.334564 109.618985 
L 252.504716 115.953767 
L 252.674868 103.284202 
L 252.84502 115.953767 
L 253.015172 109.618985 
L 253.185324 122.28855 
L 253.355476 109.618985 
L 253.69578 122.28855 
L 253.865932 109.618985 
L 254.036084 134.958115 
L 254.206236 103.284202 
L 254.376388 115.953767 
L 254.54654 109.618985 
L 254.716692 109.618985 
L 254.886844 115.953767 
L 255.056996 109.618985 
L 255.227148 90.614637 
L 255.3973 122.28855 
L 255.567452 115.953767 
L 255.737604 115.953767 
L 255.907756 122.28855 
L 256.077908 115.953767 
L 256.24806 103.284202 
L 256.418212 109.618985 
L 256.588364 122.28855 
L 256.758516 122.28855 
L 256.928668 128.623333 
L 257.09882 122.28855 
L 257.268972 122.28855 
L 257.439124 115.953767 
L 257.609276 134.958115 
L 257.779428 122.28855 
L 257.94958 128.623333 
L 258.460036 109.618985 
L 258.630188 109.618985 
L 258.80034 122.28855 
L 258.970492 122.28855 
L 259.140644 134.958115 
L 259.480948 109.618985 
L 259.6511 141.292898 
L 259.991404 128.623333 
L 260.161556 134.958115 
L 260.50186 134.958115 
L 260.672012 128.623333 
L 260.842164 128.623333 
L 261.012316 153.962463 
L 261.182468 122.28855 
L 261.522772 141.292898 
L 262.20338 141.292898 
L 262.373532 134.958115 
L 262.543684 141.292898 
L 262.883988 141.292898 
L 263.224292 166.632028 
L 263.394444 147.627681 
L 263.564596 153.962463 
L 263.734748 141.292898 
L 264.075052 160.297246 
L 264.245204 153.962463 
L 264.415356 141.292898 
L 264.585508 153.962463 
L 264.75566 141.292898 
L 264.925812 160.297246 
L 265.095964 153.962463 
L 265.266116 160.297246 
L 265.436268 153.962463 
L 265.60642 153.962463 
L 265.776572 147.627681 
L 266.287028 166.632028 
L 266.45718 147.627681 
L 266.627332 160.297246 
L 266.797484 153.962463 
L 266.967636 160.297246 
L 267.137788 153.962463 
L 267.478092 166.632028 
L 267.648244 166.632028 
L 267.818396 172.966811 
L 267.988548 160.297246 
L 268.1587 179.301594 
L 268.328852 160.297246 
L 269.00946 160.297246 
L 269.179612 172.966811 
L 269.349764 153.962463 
L 269.690068 166.632028 
L 269.86022 166.632028 
L 270.030372 185.636376 
L 270.370676 166.632028 
L 270.540828 172.966811 
L 270.71098 166.632028 
L 270.881132 166.632028 
L 271.051284 160.297246 
L 271.56174 160.297246 
L 271.731892 179.301594 
L 271.902044 166.632028 
L 272.072196 179.301594 
L 272.242348 179.301594 
L 272.4125 147.627681 
L 272.582652 172.966811 
L 272.752804 179.301594 
L 272.922956 153.962463 
L 273.093108 160.297246 
L 273.26326 160.297246 
L 273.433412 166.632028 
L 273.773716 153.962463 
L 273.943868 141.292898 
L 274.11402 160.297246 
L 274.284172 147.627681 
L 274.454324 153.962463 
L 274.624476 166.632028 
L 274.794628 160.297246 
L 274.96478 141.292898 
L 275.134932 153.962463 
L 275.305084 153.962463 
L 275.475236 141.292898 
L 275.985692 141.292898 
L 276.155844 134.958115 
L 276.325996 141.292898 
L 276.496148 141.292898 
L 276.6663 153.962463 
L 276.836452 147.627681 
L 277.006604 153.962463 
L 277.176756 141.292898 
L 277.346908 141.292898 
L 277.51706 153.962463 
L 277.687212 153.962463 
L 277.857364 147.627681 
L 278.027516 128.623333 
L 278.537972 147.627681 
L 278.708124 141.292898 
L 278.878276 141.292898 
L 279.048428 122.28855 
L 279.21858 141.292898 
L 279.558884 122.28855 
L 279.899188 134.958115 
L 280.06934 122.28855 
L 280.239492 122.28855 
L 280.409644 141.292898 
L 280.579796 122.28855 
L 280.749948 122.28855 
L 280.9201 128.623333 
L 281.090252 115.953767 
L 281.260404 122.28855 
L 281.430556 122.28855 
L 281.600708 134.958115 
L 282.111164 115.953767 
L 282.281316 115.953767 
L 282.451468 122.28855 
L 282.791772 109.618985 
L 282.961924 109.618985 
L 283.132076 128.623333 
L 283.302228 128.623333 
L 283.47238 115.953767 
L 283.642532 115.953767 
L 283.812684 96.94942 
L 283.982836 115.953767 
L 284.152988 115.953767 
L 284.32314 90.614637 
L 284.493292 122.28855 
L 284.663444 96.94942 
L 284.833596 96.94942 
L 285.003748 122.28855 
L 285.1739 103.284202 
L 285.344052 103.284202 
L 285.514204 109.618985 
L 285.684356 103.284202 
L 285.854508 122.28855 
L 286.02466 90.614637 
L 286.194812 128.623333 
L 286.535116 84.279854 
L 286.705268 103.284202 
L 286.87542 103.284202 
L 287.045572 84.279854 
L 287.215724 103.284202 
L 287.556028 103.284202 
L 287.896332 115.953767 
L 288.066484 109.618985 
L 288.236636 115.953767 
L 288.57694 115.953767 
L 288.747092 96.94942 
L 288.917244 109.618985 
L 289.087396 103.284202 
L 289.257548 103.284202 
L 289.4277 141.292898 
L 289.597852 103.284202 
L 289.768004 115.953767 
L 289.938156 115.953767 
L 290.108308 109.618985 
L 290.27846 122.28855 
L 290.959068 122.28855 
L 291.12922 128.623333 
L 291.299372 103.284202 
L 291.469524 128.623333 
L 291.809828 115.953767 
L 292.150132 115.953767 
L 292.320284 122.28855 
L 292.490436 115.953767 
L 292.660588 134.958115 
L 292.83074 96.94942 
L 293.000892 128.623333 
L 293.171044 134.958115 
L 293.341196 122.28855 
L 293.511348 122.28855 
L 293.6815 141.292898 
L 293.851652 128.623333 
L 294.021804 134.958115 
L 294.191956 134.958115 
L 294.362108 122.28855 
L 294.53226 122.28855 
L 294.702412 128.623333 
L 294.872564 128.623333 
L 295.042716 160.297246 
L 295.38302 134.958115 
L 295.553172 141.292898 
L 295.723324 172.966811 
L 295.893476 147.627681 
L 296.23378 134.958115 
L 296.403932 153.962463 
L 296.744236 141.292898 
L 296.914388 128.623333 
L 297.08454 141.292898 
L 297.254692 141.292898 
L 297.594996 153.962463 
L 297.765148 141.292898 
L 297.9353 153.962463 
L 298.105452 141.292898 
L 298.275604 147.627681 
L 298.445756 166.632028 
L 298.615908 153.962463 
L 298.78606 153.962463 
L 298.956212 166.632028 
L 299.296516 166.632028 
L 299.63682 153.962463 
L 299.806972 141.292898 
L 299.977124 166.632028 
L 300.147276 160.297246 
L 300.317428 160.297246 
L 300.48758 166.632028 
L 300.657732 153.962463 
L 300.827884 166.632028 
L 301.168188 153.962463 
L 301.33834 166.632028 
L 301.508492 141.292898 
L 301.848796 185.636376 
L 302.018948 179.301594 
L 302.1891 160.297246 
L 302.359252 172.966811 
L 302.529404 166.632028 
L 302.699556 172.966811 
L 302.869708 172.966811 
L 303.03986 185.636376 
L 303.210012 160.297246 
L 303.380164 153.962463 
L 303.720468 185.636376 
L 303.89062 166.632028 
L 304.401076 147.627681 
L 304.571228 179.301594 
L 304.74138 179.301594 
L 304.911532 160.297246 
L 305.081684 172.966811 
L 305.251836 166.632028 
L 305.421988 179.301594 
L 305.59214 153.962463 
L 305.762292 172.966811 
L 305.932444 166.632028 
L 306.102596 166.632028 
L 306.272748 179.301594 
L 306.613052 160.297246 
L 306.783204 153.962463 
L 306.953356 160.297246 
L 307.123508 172.966811 
L 307.29366 153.962463 
L 307.463812 160.297246 
L 307.633964 160.297246 
L 307.804116 153.962463 
L 307.974268 179.301594 
L 308.14442 166.632028 
L 308.314572 166.632028 
L 308.484724 141.292898 
L 308.825028 141.292898 
L 308.99518 166.632028 
L 309.165332 166.632028 
L 309.335484 160.297246 
L 309.505636 166.632028 
L 309.675788 153.962463 
L 309.84594 153.962463 
L 310.016092 160.297246 
L 310.186244 160.297246 
L 310.356396 153.962463 
L 310.526548 160.297246 
L 310.6967 141.292898 
L 311.037004 141.292898 
L 311.207156 147.627681 
L 311.377308 147.627681 
L 311.54746 141.292898 
L 311.717612 160.297246 
L 312.057916 147.627681 
L 312.39822 128.623333 
L 312.568372 134.958115 
L 312.738524 122.28855 
L 312.908676 128.623333 
L 313.078828 128.623333 
L 313.24898 122.28855 
L 313.419132 141.292898 
L 313.589284 128.623333 
L 313.759436 141.292898 
L 313.929588 134.958115 
L 314.269892 115.953767 
L 314.440044 128.623333 
L 314.610196 115.953767 
L 314.780348 128.623333 
L 314.9505 122.28855 
L 315.120652 134.958115 
L 315.290804 103.284202 
L 315.460956 122.28855 
L 315.631108 115.953767 
L 315.971412 115.953767 
L 316.141564 90.614637 
L 316.481868 128.623333 
L 316.65202 122.28855 
L 316.992324 103.284202 
L 317.162476 109.618985 
L 317.332628 128.623333 
L 317.50278 96.94942 
L 317.672932 109.618985 
L 317.843084 109.618985 
L 318.013236 115.953767 
L 318.183388 115.953767 
L 318.523692 103.284202 
L 318.693844 103.284202 
L 318.863996 109.618985 
L 319.034148 109.618985 
L 319.2043 90.614637 
L 319.374452 109.618985 
L 319.544604 90.614637 
L 319.714756 109.618985 
L 319.884908 109.618985 
L 320.05506 90.614637 
L 320.225212 96.94942 
L 320.395364 96.94942 
L 320.565516 109.618985 
L 320.735668 90.614637 
L 321.075972 122.28855 
L 321.246124 84.279854 
L 321.416276 90.614637 
L 321.586428 115.953767 
L 321.75658 90.614637 
L 321.926732 84.279854 
L 322.267036 115.953767 
L 322.60734 90.614637 
L 322.777492 103.284202 
L 322.947644 96.94942 
L 323.117796 103.284202 
L 323.287948 122.28855 
L 323.4581 109.618985 
L 323.628252 115.953767 
L 323.798404 96.94942 
L 323.968556 103.284202 
L 324.138708 90.614637 
L 324.479012 109.618985 
L 324.819316 122.28855 
L 324.989468 115.953767 
L 325.15962 115.953767 
L 325.499924 134.958115 
L 325.840228 109.618985 
L 326.01038 134.958115 
L 326.180532 109.618985 
L 326.350684 122.28855 
L 326.520836 115.953767 
L 326.690988 141.292898 
L 327.031292 122.28855 
L 327.201444 128.623333 
L 327.371596 122.28855 
L 327.541748 128.623333 
L 327.882052 115.953767 
L 328.052204 147.627681 
L 328.392508 122.28855 
L 328.56266 134.958115 
L 328.732812 128.623333 
L 328.902964 141.292898 
L 329.073116 134.958115 
L 329.41342 147.627681 
L 329.583572 141.292898 
L 329.753724 153.962463 
L 329.923876 153.962463 
L 330.094028 134.958115 
L 330.26418 141.292898 
L 330.434332 134.958115 
L 330.604484 153.962463 
L 330.774636 141.292898 
L 330.944788 141.292898 
L 331.11494 153.962463 
L 331.455244 153.962463 
L 331.625396 147.627681 
L 331.795548 134.958115 
L 331.9657 153.962463 
L 332.135852 128.623333 
L 332.476156 160.297246 
L 332.646308 141.292898 
L 332.986612 160.297246 
L 333.326916 160.297246 
L 333.66722 147.627681 
L 333.837372 147.627681 
L 334.007524 166.632028 
L 334.177676 153.962463 
L 334.347828 160.297246 
L 334.51798 153.962463 
L 334.688132 153.962463 
L 335.028436 166.632028 
L 335.198588 141.292898 
L 335.36874 172.966811 
L 335.538892 160.297246 
L 335.709044 172.966811 
L 335.879196 172.966811 
L 336.049348 179.301594 
L 336.2195 153.962463 
L 336.559804 172.966811 
L 336.729956 172.966811 
L 336.900108 179.301594 
L 337.07026 160.297246 
L 337.240412 160.297246 
L 337.410564 185.636376 
L 337.580716 153.962463 
L 337.750868 172.966811 
L 337.92102 179.301594 
L 338.091172 153.962463 
L 338.261324 160.297246 
L 338.431476 160.297246 
L 338.601628 185.636376 
L 338.77178 166.632028 
L 338.941932 172.966811 
L 339.112084 160.297246 
L 339.282236 179.301594 
L 339.452388 166.632028 
L 339.62254 185.636376 
L 339.792692 179.301594 
L 339.962844 179.301594 
L 340.303148 166.632028 
L 340.4733 166.632028 
L 340.643452 179.301594 
L 340.813604 172.966811 
L 340.983756 153.962463 
L 341.153908 160.297246 
L 341.32406 141.292898 
L 341.494212 160.297246 
L 341.664364 160.297246 
L 341.834516 166.632028 
L 342.004668 153.962463 
L 342.17482 160.297246 
L 342.344972 147.627681 
L 342.685276 166.632028 
L 342.855428 147.627681 
L 343.02558 172.966811 
L 343.195732 160.297246 
L 343.365884 160.297246 
L 343.536036 153.962463 
L 343.706188 141.292898 
L 344.046492 160.297246 
L 344.216644 160.297246 
L 344.386796 153.962463 
L 344.556948 160.297246 
L 344.7271 147.627681 
L 344.897252 160.297246 
L 345.067404 147.627681 
L 345.407708 147.627681 
L 345.57786 134.958115 
L 345.748012 160.297246 
L 345.918164 141.292898 
L 346.088316 141.292898 
L 346.258468 128.623333 
L 346.598772 141.292898 
L 346.768924 134.958115 
L 346.939076 153.962463 
L 347.109228 122.28855 
L 347.27938 141.292898 
L 347.449532 141.292898 
L 347.619684 109.618985 
L 347.789836 141.292898 
L 347.959988 103.284202 
L 348.300292 122.28855 
L 348.470444 122.28855 
L 348.640596 115.953767 
L 348.9809 115.953767 
L 349.151052 109.618985 
L 349.321204 109.618985 
L 349.491356 122.28855 
L 349.661508 115.953767 
L 349.83166 122.28855 
L 350.001812 115.953767 
L 350.171964 122.28855 
L 350.512268 96.94942 
L 350.68242 134.958115 
L 350.852572 109.618985 
L 351.022724 109.618985 
L 351.192876 90.614637 
L 351.53318 128.623333 
L 351.703332 115.953767 
L 351.873484 122.28855 
L 352.043636 109.618985 
L 352.213788 109.618985 
L 352.38394 90.614637 
L 352.554092 96.94942 
L 352.724244 84.279854 
L 352.894396 103.284202 
L 353.064548 109.618985 
L 353.2347 103.284202 
L 353.404852 115.953767 
L 353.575004 90.614637 
L 353.745156 115.953767 
L 353.915308 109.618985 
L 354.08546 109.618985 
L 354.255612 103.284202 
L 354.425764 103.284202 
L 354.595916 109.618985 
L 354.93622 109.618985 
L 355.106372 115.953767 
L 355.276524 103.284202 
L 355.446676 115.953767 
L 355.616828 96.94942 
L 355.78698 128.623333 
L 355.957132 103.284202 
L 356.127284 109.618985 
L 356.297436 122.28855 
L 356.467588 122.28855 
L 356.63774 109.618985 
L 356.807892 122.28855 
L 356.978044 109.618985 
L 357.148196 109.618985 
L 357.318348 115.953767 
L 357.4885 115.953767 
L 357.658652 96.94942 
L 357.828804 115.953767 
L 357.998956 77.945072 
L 358.169108 109.618985 
L 358.33926 77.945072 
L 358.509412 103.284202 
L 358.679564 109.618985 
L 358.849716 134.958115 
L 359.019868 109.618985 
L 359.19002 109.618985 
L 359.360172 122.28855 
L 359.530324 115.953767 
L 359.870628 128.623333 
L 360.210932 115.953767 
L 360.381084 122.28855 
L 360.551236 122.28855 
L 360.721388 134.958115 
L 360.89154 115.953767 
L 361.061692 122.28855 
L 361.231844 115.953767 
L 361.401996 128.623333 
L 361.572148 128.623333 
L 361.7423 141.292898 
L 361.912452 141.292898 
L 362.082604 122.28855 
L 362.422908 134.958115 
L 362.59306 134.958115 
L 362.763212 122.28855 
L 362.933364 128.623333 
L 363.103516 153.962463 
L 363.273668 141.292898 
L 363.44382 153.962463 
L 363.613972 141.292898 
L 363.954276 141.292898 
L 364.124428 122.28855 
L 364.29458 141.292898 
L 364.464732 134.958115 
L 364.634884 147.627681 
L 364.805036 141.292898 
L 364.975188 128.623333 
L 365.14534 147.627681 
L 365.485644 134.958115 
L 365.655796 147.627681 
L 365.9961 147.627681 
L 366.166252 153.962463 
L 366.336404 147.627681 
L 366.506556 134.958115 
L 366.676708 153.962463 
L 366.84686 153.962463 
L 367.017012 160.297246 
L 367.187164 153.962463 
L 367.357316 153.962463 
L 367.527468 166.632028 
L 367.69762 160.297246 
L 367.867772 160.297246 
L 368.037924 147.627681 
L 368.208076 153.962463 
L 368.54838 153.962463 
L 368.718532 160.297246 
L 368.888684 153.962463 
L 369.058836 166.632028 
L 369.228988 147.627681 
L 369.39914 166.632028 
L 369.739444 153.962463 
L 369.909596 172.966811 
L 370.079748 160.297246 
L 370.2499 172.966811 
L 370.420052 160.297246 
L 370.590204 160.297246 
L 370.760356 172.966811 
L 370.930508 198.305941 
L 371.10066 185.636376 
L 371.270812 185.636376 
L 371.440964 179.301594 
L 371.611116 179.301594 
L 371.781268 160.297246 
L 372.121572 179.301594 
L 372.291724 185.636376 
L 372.461876 153.962463 
L 372.632028 179.301594 
L 372.80218 160.297246 
L 373.142484 160.297246 
L 373.312636 172.966811 
L 373.65294 172.966811 
L 373.823092 147.627681 
L 374.333548 185.636376 
L 374.673852 147.627681 
L 374.844004 160.297246 
L 375.184308 160.297246 
L 375.35446 166.632028 
L 375.524612 153.962463 
L 375.694764 153.962463 
L 375.864916 147.627681 
L 376.035068 153.962463 
L 376.20522 141.292898 
L 376.375372 166.632028 
L 376.545524 166.632028 
L 376.885828 153.962463 
L 377.05598 160.297246 
L 377.226132 153.962463 
L 377.396284 141.292898 
L 377.566436 147.627681 
L 377.736588 160.297246 
L 377.90674 153.962463 
L 378.076892 160.297246 
L 378.247044 147.627681 
L 378.587348 147.627681 
L 378.7575 134.958115 
L 378.927652 134.958115 
L 379.097804 147.627681 
L 379.267956 141.292898 
L 379.60826 141.292898 
L 379.948564 128.623333 
L 380.118716 141.292898 
L 380.45902 141.292898 
L 380.629172 122.28855 
L 380.969476 141.292898 
L 381.139628 147.627681 
L 381.479932 122.28855 
L 381.650084 134.958115 
L 381.820236 128.623333 
L 381.990388 109.618985 
L 382.330692 128.623333 
L 382.500844 115.953767 
L 382.670996 134.958115 
L 382.841148 134.958115 
L 383.0113 109.618985 
L 383.181452 109.618985 
L 383.351604 122.28855 
L 383.521756 90.614637 
L 383.691908 115.953767 
L 383.86206 115.953767 
L 384.032212 103.284202 
L 384.202364 103.284202 
L 384.372516 122.28855 
L 384.542668 115.953767 
L 384.71282 84.279854 
L 384.882972 90.614637 
L 385.053124 115.953767 
L 385.223276 103.284202 
L 385.393428 115.953767 
L 385.56358 90.614637 
L 385.733732 134.958115 
L 385.903884 122.28855 
L 386.074036 90.614637 
L 386.244188 109.618985 
L 386.924796 109.618985 
L 387.094948 115.953767 
L 387.2651 103.284202 
L 387.435252 109.618985 
L 387.605404 96.94942 
L 387.775556 103.284202 
L 387.945708 84.279854 
L 388.11586 109.618985 
L 388.286012 90.614637 
L 388.626316 115.953767 
L 388.796468 115.953767 
L 388.96662 109.618985 
L 389.136772 84.279854 
L 389.306924 109.618985 
L 389.477076 103.284202 
L 389.477076 103.284202 
" clip-path="url(#p1c535492a2)" style="fill: none; stroke: #1f77b4; stroke-opacity: 0.5; stroke-width: 1.5; stroke-linecap: square"/>
   </g>
   <g id="patch_7">
    <path d="M 49.088 302.2 
L 49.088 10.8 
" style="fill: none; stroke: #000000; stroke-width: 0.8; stroke-linejoin: miter; stroke-linecap: square"/>
   </g>
   <g id="patch_8">
    <path d="M 389.392 302.2 
L 389.392 10.8 
" style="fill: none; stroke: #000000; stroke-width: 0.8; stroke-linejoin: miter; stroke-linecap: square"/>
   </g>
   <g id="patch_9">
    <path d="M 49.088 302.2 
L 389.392 302.2 
" style="fill: none; stroke: #000000; stroke-width: 0.8; stroke-linejoin: miter; stroke-linecap: square"/>
   </g>
   <g id="patch_10">
    <path d="M 49.088 10.8 
L 389.392 10.8 
" style="fill: none; stroke: #000000; stroke-width: 0.8; stroke-linejoin: miter; stroke-linecap: square"/>
   </g>
  </g>
  <g id="legend_1">
   <g id="patch_11">
    <path d="M 387.064062 37.35625 
L 453.8 37.35625 
Q 455.8 37.35625 455.8 35.35625 
L 455.8 7 
Q 455.8 5 453.8 5 
L 387.064062 5 
Q 385.064062 5 385.064062 7 
L 385.064062 35.35625 
Q 385.064062 37.35625 387.064062 37.35625 
z
" style="fill: #ffffff; opacity: 0.8; stroke: #cccccc; stroke-linejoin: miter"/>
   </g>
   <g id="line2d_24">
    <path d="M 389.064062 13.098437 
L 399.064062 13.098437 
L 409.064062 13.098437 
" style="fill: none; stroke: #ff7f0e; stroke-width: 1.5; stroke-linecap: square"/>
   </g>
   <g id="text_25">
    <!-- Output -->
    <g transform="translate(417.064062 16.598437) scale(0.1 -0.1)">
     <defs>
      <path id="DejaVuSans-4f" d="M 2522 4238 
Q 1834 4238 1429 3725 
Q 1025 3213 1025 2328 
Q 1025 1447 1429 934 
Q 1834 422 2522 422 
Q 3209 422 3611 934 
Q 4013 1447 4013 2328 
Q 4013 3213 3611 3725 
Q 3209 4238 2522 4238 
z
M 2522 4750 
Q 3503 4750 4090 4092 
Q 4678 3434 4678 2328 
Q 4678 1225 4090 567 
Q 3503 -91 2522 -91 
Q 1538 -91 948 565 
Q 359 1222 359 2328 
Q 359 3434 948 4092 
Q 1538 4750 2522 4750 
z
" transform="scale(0.015625)"/>
      <path id="DejaVuSans-70" d="M 1159 525 
L 1159 -1331 
L 581 -1331 
L 581 3500 
L 1159 3500 
L 1159 2969 
Q 1341 3281 1617 3432 
Q 1894 3584 2278 3584 
Q 2916 3584 3314 3078 
Q 3713 2572 3713 1747 
Q 3713 922 3314 415 
Q 2916 -91 2278 -91 
Q 1894 -91 1617 61 
Q 1341 213 1159 525 
z
M 3116 1747 
Q 3116 2381 2855 2742 
Q 2594 3103 2138 3103 
Q 1681 3103 1420 2742 
Q 1159 2381 1159 1747 
Q 1159 1113 1420 752 
Q 1681 391 2138 391 
Q 2594 391 2855 752 
Q 3116 1113 3116 1747 
z
" transform="scale(0.015625)"/>
     </defs>
     <use xlink:href="#DejaVuSans-4f"/>
     <use xlink:href="#DejaVuSans-75" x="78.710938"/>
     <use xlink:href="#DejaVuSans-74" x="142.089844"/>
     <use xlink:href="#DejaVuSans-70" x="181.298828"/>
     <use xlink:href="#DejaVuSans-75" x="244.775391"/>
     <use xlink:href="#DejaVuSans-74" x="308.154297"/>
    </g>
   </g>
   <g id="line2d_25">
    <path d="M 389.064062 27.776563 
L 399.064062 27.776563 
L 409.064062 27.776563 
" style="fill: none; stroke: #1f77b4; stroke-opacity: 0.5; stroke-width: 1.5; stroke-linecap: square"/>
   </g>
   <g id="text_26">
    <!-- Input -->
    <g transform="translate(417.064062 31.276563) scale(0.1 -0.1)">
     <defs>
      <path id="DejaVuSans-49" d="M 628 4666 
L 1259 4666 
L 1259 0 
L 628 0 
L 628 4666 
z
" transform="scale(0.015625)"/>
     </defs>
     <use xlink:href="#DejaVuSans-49"/>
     <use xlink:href="#DejaVuSans-6e" x="29.492188"/>
     <use xlink:href="#DejaVuSans-70" x="92.871094"/>
     <use xlink:href="#DejaVuSans-75" x="156.347656"/>
     <use xlink:href="#DejaVuSans-74" x="219.726562"/>
    </g>
   </g>
  </g>
 </g>
 <defs>
  <clipPath id="p1c535492a2">
   <rect x="49.088" y="10.8" width="340.304" height="291.4"/>
  </clipPath>
 </defs>
</svg>
