<?xml version="1.0" encoding="utf-8" standalone="no"?>
<!DOCTYPE svg PUBLIC "-//W3C//DTD SVG 1.1//EN"
  "http://www.w3.org/Graphics/SVG/1.1/DTD/svg11.dtd">
<svg xmlns:xlink="http://www.w3.org/1999/xlink" width="460.8pt" height="345.6pt" viewBox="0 0 460.8 345.6" xmlns="http://www.w3.org/2000/svg" version="1.1">
 <metadata>
  <rdf:RDF xmlns:dc="http://purl.org/dc/elements/1.1/" xmlns:cc="http://creativecommons.org/ns#" xmlns:rdf="http://www.w3.org/1999/02/22-rdf-syntax-ns#">
   <cc:Work>
    <dc:type rdf:resource="http://purl.org/dc/dcmitype/StillImage"/>
    <dc:date>2024-05-08T14:10:11.528077</dc:date>
    <dc:format>image/svg+xml</dc:format>
    <dc:creator>
     <cc:Agent>
      <dc:title>Matplotlib v3.7.1, https://matplotlib.org/</dc:title>
     </cc:Agent>
    </dc:creator>
   </cc:Work>
  </rdf:RDF>
 </metadata>
 <defs>
  <style type="text/css">*{stroke-linejoin: round; stroke-linecap: butt}</style>
 </defs>
 <g id="figure_1">
  <g id="patch_1">
   <path d="M 0 345.6 
L 460.8 345.6 
L 460.8 0 
L 0 0 
z
" style="fill: #ffffff"/>
  </g>
  <g id="axes_1">
   <g id="patch_2">
    <path d="M 57.6 307.584 
L 414.72 307.584 
L 414.72 41.472 
L 57.6 41.472 
z
" style="fill: #ffffff"/>
   </g>
   <g id="matplotlib.axis_1">
    <g id="xtick_1">
     <g id="line2d_1">
      <defs>
       <path id="mf75f15cba3" d="M 0 0 
L 0 3.5 
" style="stroke: #000000; stroke-width: 0.8"/>
      </defs>
      <g>
       <use xlink:href="#mf75f15cba3" x="73.832727" y="307.584" style="stroke: #000000; stroke-width: 0.8"/>
      </g>
     </g>
     <g id="text_1">
      <!-- $\mathdefault{10^{0}}$ -->
      <g transform="translate(65.032727 322.182437) scale(0.1 -0.1)">
       <defs>
        <path id="DejaVuSans-31" d="M 794 531 
L 1825 531 
L 1825 4091 
L 703 3866 
L 703 4441 
L 1819 4666 
L 2450 4666 
L 2450 531 
L 3481 531 
L 3481 0 
L 794 0 
L 794 531 
z
" transform="scale(0.015625)"/>
        <path id="DejaVuSans-30" d="M 2034 4250 
Q 1547 4250 1301 3770 
Q 1056 3291 1056 2328 
Q 1056 1369 1301 889 
Q 1547 409 2034 409 
Q 2525 409 2770 889 
Q 3016 1369 3016 2328 
Q 3016 3291 2770 3770 
Q 2525 4250 2034 4250 
z
M 2034 4750 
Q 2819 4750 3233 4129 
Q 3647 3509 3647 2328 
Q 3647 1150 3233 529 
Q 2819 -91 2034 -91 
Q 1250 -91 836 529 
Q 422 1150 422 2328 
Q 422 3509 836 4129 
Q 1250 4750 2034 4750 
z
" transform="scale(0.015625)"/>
       </defs>
       <use xlink:href="#DejaVuSans-31" transform="translate(0 0.765625)"/>
       <use xlink:href="#DejaVuSans-30" transform="translate(63.623047 0.765625)"/>
       <use xlink:href="#DejaVuSans-30" transform="translate(128.203125 39.046875) scale(0.7)"/>
      </g>
     </g>
    </g>
    <g id="xtick_2">
     <g id="line2d_2">
      <g>
       <use xlink:href="#mf75f15cba3" x="138.763636" y="307.584" style="stroke: #000000; stroke-width: 0.8"/>
      </g>
     </g>
     <g id="text_2">
      <!-- $\mathdefault{10^{1}}$ -->
      <g transform="translate(129.963636 322.182437) scale(0.1 -0.1)">
       <use xlink:href="#DejaVuSans-31" transform="translate(0 0.684375)"/>
       <use xlink:href="#DejaVuSans-30" transform="translate(63.623047 0.684375)"/>
       <use xlink:href="#DejaVuSans-31" transform="translate(128.203125 38.965625) scale(0.7)"/>
      </g>
     </g>
    </g>
    <g id="xtick_3">
     <g id="line2d_3">
      <g>
       <use xlink:href="#mf75f15cba3" x="203.694545" y="307.584" style="stroke: #000000; stroke-width: 0.8"/>
      </g>
     </g>
     <g id="text_3">
      <!-- $\mathdefault{10^{2}}$ -->
      <g transform="translate(194.894545 322.182437) scale(0.1 -0.1)">
       <defs>
        <path id="DejaVuSans-32" d="M 1228 531 
L 3431 531 
L 3431 0 
L 469 0 
L 469 531 
Q 828 903 1448 1529 
Q 2069 2156 2228 2338 
Q 2531 2678 2651 2914 
Q 2772 3150 2772 3378 
Q 2772 3750 2511 3984 
Q 2250 4219 1831 4219 
Q 1534 4219 1204 4116 
Q 875 4013 500 3803 
L 500 4441 
Q 881 4594 1212 4672 
Q 1544 4750 1819 4750 
Q 2544 4750 2975 4387 
Q 3406 4025 3406 3419 
Q 3406 3131 3298 2873 
Q 3191 2616 2906 2266 
Q 2828 2175 2409 1742 
Q 1991 1309 1228 531 
z
" transform="scale(0.015625)"/>
       </defs>
       <use xlink:href="#DejaVuSans-31" transform="translate(0 0.765625)"/>
       <use xlink:href="#DejaVuSans-30" transform="translate(63.623047 0.765625)"/>
       <use xlink:href="#DejaVuSans-32" transform="translate(128.203125 39.046875) scale(0.7)"/>
      </g>
     </g>
    </g>
    <g id="xtick_4">
     <g id="line2d_4">
      <g>
       <use xlink:href="#mf75f15cba3" x="268.625455" y="307.584" style="stroke: #000000; stroke-width: 0.8"/>
      </g>
     </g>
     <g id="text_4">
      <!-- $\mathdefault{10^{3}}$ -->
      <g transform="translate(259.825455 322.182437) scale(0.1 -0.1)">
       <defs>
        <path id="DejaVuSans-33" d="M 2597 2516 
Q 3050 2419 3304 2112 
Q 3559 1806 3559 1356 
Q 3559 666 3084 287 
Q 2609 -91 1734 -91 
Q 1441 -91 1130 -33 
Q 819 25 488 141 
L 488 750 
Q 750 597 1062 519 
Q 1375 441 1716 441 
Q 2309 441 2620 675 
Q 2931 909 2931 1356 
Q 2931 1769 2642 2001 
Q 2353 2234 1838 2234 
L 1294 2234 
L 1294 2753 
L 1863 2753 
Q 2328 2753 2575 2939 
Q 2822 3125 2822 3475 
Q 2822 3834 2567 4026 
Q 2313 4219 1838 4219 
Q 1578 4219 1281 4162 
Q 984 4106 628 3988 
L 628 4550 
Q 988 4650 1302 4700 
Q 1616 4750 1894 4750 
Q 2613 4750 3031 4423 
Q 3450 4097 3450 3541 
Q 3450 3153 3228 2886 
Q 3006 2619 2597 2516 
z
" transform="scale(0.015625)"/>
       </defs>
       <use xlink:href="#DejaVuSans-31" transform="translate(0 0.765625)"/>
       <use xlink:href="#DejaVuSans-30" transform="translate(63.623047 0.765625)"/>
       <use xlink:href="#DejaVuSans-33" transform="translate(128.203125 39.046875) scale(0.7)"/>
      </g>
     </g>
    </g>
    <g id="xtick_5">
     <g id="line2d_5">
      <g>
       <use xlink:href="#mf75f15cba3" x="333.556364" y="307.584" style="stroke: #000000; stroke-width: 0.8"/>
      </g>
     </g>
     <g id="text_5">
      <!-- $\mathdefault{10^{4}}$ -->
      <g transform="translate(324.756364 322.182437) scale(0.1 -0.1)">
       <defs>
        <path id="DejaVuSans-34" d="M 2419 4116 
L 825 1625 
L 2419 1625 
L 2419 4116 
z
M 2253 4666 
L 3047 4666 
L 3047 1625 
L 3713 1625 
L 3713 1100 
L 3047 1100 
L 3047 0 
L 2419 0 
L 2419 1100 
L 313 1100 
L 313 1709 
L 2253 4666 
z
" transform="scale(0.015625)"/>
       </defs>
       <use xlink:href="#DejaVuSans-31" transform="translate(0 0.684375)"/>
       <use xlink:href="#DejaVuSans-30" transform="translate(63.623047 0.684375)"/>
       <use xlink:href="#DejaVuSans-34" transform="translate(128.203125 38.965625) scale(0.7)"/>
      </g>
     </g>
    </g>
    <g id="xtick_6">
     <g id="line2d_6">
      <g>
       <use xlink:href="#mf75f15cba3" x="398.487273" y="307.584" style="stroke: #000000; stroke-width: 0.8"/>
      </g>
     </g>
     <g id="text_6">
      <!-- $\mathdefault{10^{5}}$ -->
      <g transform="translate(389.687273 322.182437) scale(0.1 -0.1)">
       <defs>
        <path id="DejaVuSans-35" d="M 691 4666 
L 3169 4666 
L 3169 4134 
L 1269 4134 
L 1269 2991 
Q 1406 3038 1543 3061 
Q 1681 3084 1819 3084 
Q 2600 3084 3056 2656 
Q 3513 2228 3513 1497 
Q 3513 744 3044 326 
Q 2575 -91 1722 -91 
Q 1428 -91 1123 -41 
Q 819 9 494 109 
L 494 744 
Q 775 591 1075 516 
Q 1375 441 1709 441 
Q 2250 441 2565 725 
Q 2881 1009 2881 1497 
Q 2881 1984 2565 2268 
Q 2250 2553 1709 2553 
Q 1456 2553 1204 2497 
Q 953 2441 691 2322 
L 691 4666 
z
" transform="scale(0.015625)"/>
       </defs>
       <use xlink:href="#DejaVuSans-31" transform="translate(0 0.684375)"/>
       <use xlink:href="#DejaVuSans-30" transform="translate(63.623047 0.684375)"/>
       <use xlink:href="#DejaVuSans-35" transform="translate(128.203125 38.965625) scale(0.7)"/>
      </g>
     </g>
    </g>
    <g id="xtick_7">
     <g id="line2d_7">
      <defs>
       <path id="m412b8de7a4" d="M 0 0 
L 0 2 
" style="stroke: #000000; stroke-width: 0.6"/>
      </defs>
      <g>
       <use xlink:href="#m412b8de7a4" x="59.427886" y="307.584" style="stroke: #000000; stroke-width: 0.6"/>
      </g>
     </g>
    </g>
    <g id="xtick_8">
     <g id="line2d_8">
      <g>
       <use xlink:href="#m412b8de7a4" x="63.774802" y="307.584" style="stroke: #000000; stroke-width: 0.6"/>
      </g>
     </g>
    </g>
    <g id="xtick_9">
     <g id="line2d_9">
      <g>
       <use xlink:href="#m412b8de7a4" x="67.540272" y="307.584" style="stroke: #000000; stroke-width: 0.6"/>
      </g>
     </g>
    </g>
    <g id="xtick_10">
     <g id="line2d_10">
      <g>
       <use xlink:href="#m412b8de7a4" x="70.861652" y="307.584" style="stroke: #000000; stroke-width: 0.6"/>
      </g>
     </g>
    </g>
    <g id="xtick_11">
     <g id="line2d_11">
      <g>
       <use xlink:href="#m412b8de7a4" x="93.378879" y="307.584" style="stroke: #000000; stroke-width: 0.6"/>
      </g>
     </g>
    </g>
    <g id="xtick_12">
     <g id="line2d_12">
      <g>
       <use xlink:href="#m412b8de7a4" x="104.812644" y="307.584" style="stroke: #000000; stroke-width: 0.6"/>
      </g>
     </g>
    </g>
    <g id="xtick_13">
     <g id="line2d_13">
      <g>
       <use xlink:href="#m412b8de7a4" x="112.92503" y="307.584" style="stroke: #000000; stroke-width: 0.6"/>
      </g>
     </g>
    </g>
    <g id="xtick_14">
     <g id="line2d_14">
      <g>
       <use xlink:href="#m412b8de7a4" x="119.217485" y="307.584" style="stroke: #000000; stroke-width: 0.6"/>
      </g>
     </g>
    </g>
    <g id="xtick_15">
     <g id="line2d_15">
      <g>
       <use xlink:href="#m412b8de7a4" x="124.358795" y="307.584" style="stroke: #000000; stroke-width: 0.6"/>
      </g>
     </g>
    </g>
    <g id="xtick_16">
     <g id="line2d_16">
      <g>
       <use xlink:href="#m412b8de7a4" x="128.705711" y="307.584" style="stroke: #000000; stroke-width: 0.6"/>
      </g>
     </g>
    </g>
    <g id="xtick_17">
     <g id="line2d_17">
      <g>
       <use xlink:href="#m412b8de7a4" x="132.471181" y="307.584" style="stroke: #000000; stroke-width: 0.6"/>
      </g>
     </g>
    </g>
    <g id="xtick_18">
     <g id="line2d_18">
      <g>
       <use xlink:href="#m412b8de7a4" x="135.792561" y="307.584" style="stroke: #000000; stroke-width: 0.6"/>
      </g>
     </g>
    </g>
    <g id="xtick_19">
     <g id="line2d_19">
      <g>
       <use xlink:href="#m412b8de7a4" x="158.309788" y="307.584" style="stroke: #000000; stroke-width: 0.6"/>
      </g>
     </g>
    </g>
    <g id="xtick_20">
     <g id="line2d_20">
      <g>
       <use xlink:href="#m412b8de7a4" x="169.743553" y="307.584" style="stroke: #000000; stroke-width: 0.6"/>
      </g>
     </g>
    </g>
    <g id="xtick_21">
     <g id="line2d_21">
      <g>
       <use xlink:href="#m412b8de7a4" x="177.855939" y="307.584" style="stroke: #000000; stroke-width: 0.6"/>
      </g>
     </g>
    </g>
    <g id="xtick_22">
     <g id="line2d_22">
      <g>
       <use xlink:href="#m412b8de7a4" x="184.148394" y="307.584" style="stroke: #000000; stroke-width: 0.6"/>
      </g>
     </g>
    </g>
    <g id="xtick_23">
     <g id="line2d_23">
      <g>
       <use xlink:href="#m412b8de7a4" x="189.289704" y="307.584" style="stroke: #000000; stroke-width: 0.6"/>
      </g>
     </g>
    </g>
    <g id="xtick_24">
     <g id="line2d_24">
      <g>
       <use xlink:href="#m412b8de7a4" x="193.63662" y="307.584" style="stroke: #000000; stroke-width: 0.6"/>
      </g>
     </g>
    </g>
    <g id="xtick_25">
     <g id="line2d_25">
      <g>
       <use xlink:href="#m412b8de7a4" x="197.40209" y="307.584" style="stroke: #000000; stroke-width: 0.6"/>
      </g>
     </g>
    </g>
    <g id="xtick_26">
     <g id="line2d_26">
      <g>
       <use xlink:href="#m412b8de7a4" x="200.72347" y="307.584" style="stroke: #000000; stroke-width: 0.6"/>
      </g>
     </g>
    </g>
    <g id="xtick_27">
     <g id="line2d_27">
      <g>
       <use xlink:href="#m412b8de7a4" x="223.240697" y="307.584" style="stroke: #000000; stroke-width: 0.6"/>
      </g>
     </g>
    </g>
    <g id="xtick_28">
     <g id="line2d_28">
      <g>
       <use xlink:href="#m412b8de7a4" x="234.674462" y="307.584" style="stroke: #000000; stroke-width: 0.6"/>
      </g>
     </g>
    </g>
    <g id="xtick_29">
     <g id="line2d_29">
      <g>
       <use xlink:href="#m412b8de7a4" x="242.786848" y="307.584" style="stroke: #000000; stroke-width: 0.6"/>
      </g>
     </g>
    </g>
    <g id="xtick_30">
     <g id="line2d_30">
      <g>
       <use xlink:href="#m412b8de7a4" x="249.079303" y="307.584" style="stroke: #000000; stroke-width: 0.6"/>
      </g>
     </g>
    </g>
    <g id="xtick_31">
     <g id="line2d_31">
      <g>
       <use xlink:href="#m412b8de7a4" x="254.220614" y="307.584" style="stroke: #000000; stroke-width: 0.6"/>
      </g>
     </g>
    </g>
    <g id="xtick_32">
     <g id="line2d_32">
      <g>
       <use xlink:href="#m412b8de7a4" x="258.567529" y="307.584" style="stroke: #000000; stroke-width: 0.6"/>
      </g>
     </g>
    </g>
    <g id="xtick_33">
     <g id="line2d_33">
      <g>
       <use xlink:href="#m412b8de7a4" x="262.332999" y="307.584" style="stroke: #000000; stroke-width: 0.6"/>
      </g>
     </g>
    </g>
    <g id="xtick_34">
     <g id="line2d_34">
      <g>
       <use xlink:href="#m412b8de7a4" x="265.654379" y="307.584" style="stroke: #000000; stroke-width: 0.6"/>
      </g>
     </g>
    </g>
    <g id="xtick_35">
     <g id="line2d_35">
      <g>
       <use xlink:href="#m412b8de7a4" x="288.171606" y="307.584" style="stroke: #000000; stroke-width: 0.6"/>
      </g>
     </g>
    </g>
    <g id="xtick_36">
     <g id="line2d_36">
      <g>
       <use xlink:href="#m412b8de7a4" x="299.605371" y="307.584" style="stroke: #000000; stroke-width: 0.6"/>
      </g>
     </g>
    </g>
    <g id="xtick_37">
     <g id="line2d_37">
      <g>
       <use xlink:href="#m412b8de7a4" x="307.717757" y="307.584" style="stroke: #000000; stroke-width: 0.6"/>
      </g>
     </g>
    </g>
    <g id="xtick_38">
     <g id="line2d_38">
      <g>
       <use xlink:href="#m412b8de7a4" x="314.010212" y="307.584" style="stroke: #000000; stroke-width: 0.6"/>
      </g>
     </g>
    </g>
    <g id="xtick_39">
     <g id="line2d_39">
      <g>
       <use xlink:href="#m412b8de7a4" x="319.151523" y="307.584" style="stroke: #000000; stroke-width: 0.6"/>
      </g>
     </g>
    </g>
    <g id="xtick_40">
     <g id="line2d_40">
      <g>
       <use xlink:href="#m412b8de7a4" x="323.498439" y="307.584" style="stroke: #000000; stroke-width: 0.6"/>
      </g>
     </g>
    </g>
    <g id="xtick_41">
     <g id="line2d_41">
      <g>
       <use xlink:href="#m412b8de7a4" x="327.263908" y="307.584" style="stroke: #000000; stroke-width: 0.6"/>
      </g>
     </g>
    </g>
    <g id="xtick_42">
     <g id="line2d_42">
      <g>
       <use xlink:href="#m412b8de7a4" x="330.585288" y="307.584" style="stroke: #000000; stroke-width: 0.6"/>
      </g>
     </g>
    </g>
    <g id="xtick_43">
     <g id="line2d_43">
      <g>
       <use xlink:href="#m412b8de7a4" x="353.102515" y="307.584" style="stroke: #000000; stroke-width: 0.6"/>
      </g>
     </g>
    </g>
    <g id="xtick_44">
     <g id="line2d_44">
      <g>
       <use xlink:href="#m412b8de7a4" x="364.53628" y="307.584" style="stroke: #000000; stroke-width: 0.6"/>
      </g>
     </g>
    </g>
    <g id="xtick_45">
     <g id="line2d_45">
      <g>
       <use xlink:href="#m412b8de7a4" x="372.648666" y="307.584" style="stroke: #000000; stroke-width: 0.6"/>
      </g>
     </g>
    </g>
    <g id="xtick_46">
     <g id="line2d_46">
      <g>
       <use xlink:href="#m412b8de7a4" x="378.941121" y="307.584" style="stroke: #000000; stroke-width: 0.6"/>
      </g>
     </g>
    </g>
    <g id="xtick_47">
     <g id="line2d_47">
      <g>
       <use xlink:href="#m412b8de7a4" x="384.082432" y="307.584" style="stroke: #000000; stroke-width: 0.6"/>
      </g>
     </g>
    </g>
    <g id="xtick_48">
     <g id="line2d_48">
      <g>
       <use xlink:href="#m412b8de7a4" x="388.429348" y="307.584" style="stroke: #000000; stroke-width: 0.6"/>
      </g>
     </g>
    </g>
    <g id="xtick_49">
     <g id="line2d_49">
      <g>
       <use xlink:href="#m412b8de7a4" x="392.194817" y="307.584" style="stroke: #000000; stroke-width: 0.6"/>
      </g>
     </g>
    </g>
    <g id="xtick_50">
     <g id="line2d_50">
      <g>
       <use xlink:href="#m412b8de7a4" x="395.516197" y="307.584" style="stroke: #000000; stroke-width: 0.6"/>
      </g>
     </g>
    </g>
    <g id="text_7">
     <!-- $f$ (Hz) -->
     <g transform="translate(222.51 335.860562) scale(0.1 -0.1)">
      <defs>
       <path id="DejaVuSans-Oblique-66" d="M 3059 4863 
L 2969 4384 
L 2419 4384 
Q 2106 4384 1964 4261 
Q 1822 4138 1753 3809 
L 1691 3500 
L 2638 3500 
L 2553 3053 
L 1606 3053 
L 1013 0 
L 434 0 
L 1031 3053 
L 481 3053 
L 563 3500 
L 1113 3500 
L 1159 3744 
Q 1278 4363 1576 4613 
Q 1875 4863 2516 4863 
L 3059 4863 
z
" transform="scale(0.015625)"/>
       <path id="DejaVuSans-20" transform="scale(0.015625)"/>
       <path id="DejaVuSans-28" d="M 1984 4856 
Q 1566 4138 1362 3434 
Q 1159 2731 1159 2009 
Q 1159 1288 1364 580 
Q 1569 -128 1984 -844 
L 1484 -844 
Q 1016 -109 783 600 
Q 550 1309 550 2009 
Q 550 2706 781 3412 
Q 1013 4119 1484 4856 
L 1984 4856 
z
" transform="scale(0.015625)"/>
       <path id="DejaVuSans-48" d="M 628 4666 
L 1259 4666 
L 1259 2753 
L 3553 2753 
L 3553 4666 
L 4184 4666 
L 4184 0 
L 3553 0 
L 3553 2222 
L 1259 2222 
L 1259 0 
L 628 0 
L 628 4666 
z
" transform="scale(0.015625)"/>
       <path id="DejaVuSans-7a" d="M 353 3500 
L 3084 3500 
L 3084 2975 
L 922 459 
L 3084 459 
L 3084 0 
L 275 0 
L 275 525 
L 2438 3041 
L 353 3041 
L 353 3500 
z
" transform="scale(0.015625)"/>
       <path id="DejaVuSans-29" d="M 513 4856 
L 1013 4856 
Q 1481 4119 1714 3412 
Q 1947 2706 1947 2009 
Q 1947 1309 1714 600 
Q 1481 -109 1013 -844 
L 513 -844 
Q 928 -128 1133 580 
Q 1338 1288 1338 2009 
Q 1338 2731 1133 3434 
Q 928 4138 513 4856 
z
" transform="scale(0.015625)"/>
      </defs>
      <use xlink:href="#DejaVuSans-Oblique-66" transform="translate(0 0.015625)"/>
      <use xlink:href="#DejaVuSans-20" transform="translate(35.205078 0.015625)"/>
      <use xlink:href="#DejaVuSans-28" transform="translate(66.992188 0.015625)"/>
      <use xlink:href="#DejaVuSans-48" transform="translate(106.005859 0.015625)"/>
      <use xlink:href="#DejaVuSans-7a" transform="translate(181.201172 0.015625)"/>
      <use xlink:href="#DejaVuSans-29" transform="translate(233.691406 0.015625)"/>
     </g>
    </g>
   </g>
   <g id="matplotlib.axis_2">
    <g id="ytick_1">
     <g id="line2d_51">
      <defs>
       <path id="m1ec7a25f51" d="M 0 0 
L -3.5 0 
" style="stroke: #000000; stroke-width: 0.8"/>
      </defs>
      <g>
       <use xlink:href="#m1ec7a25f51" x="57.6" y="295.620791" style="stroke: #000000; stroke-width: 0.8"/>
      </g>
     </g>
     <g id="text_8">
      <!-- 0 -->
      <g transform="translate(44.2375 299.42001) scale(0.1 -0.1)">
       <use xlink:href="#DejaVuSans-30"/>
      </g>
     </g>
    </g>
    <g id="ytick_2">
     <g id="line2d_52">
      <g>
       <use xlink:href="#m1ec7a25f51" x="57.6" y="242.054975" style="stroke: #000000; stroke-width: 0.8"/>
      </g>
     </g>
     <g id="text_9">
      <!-- 500 -->
      <g transform="translate(31.5125 245.854193) scale(0.1 -0.1)">
       <use xlink:href="#DejaVuSans-35"/>
       <use xlink:href="#DejaVuSans-30" x="63.623047"/>
       <use xlink:href="#DejaVuSans-30" x="127.246094"/>
      </g>
     </g>
    </g>
    <g id="ytick_3">
     <g id="line2d_53">
      <g>
       <use xlink:href="#m1ec7a25f51" x="57.6" y="188.489158" style="stroke: #000000; stroke-width: 0.8"/>
      </g>
     </g>
     <g id="text_10">
      <!-- 1000 -->
      <g transform="translate(25.15 192.288377) scale(0.1 -0.1)">
       <use xlink:href="#DejaVuSans-31"/>
       <use xlink:href="#DejaVuSans-30" x="63.623047"/>
       <use xlink:href="#DejaVuSans-30" x="127.246094"/>
       <use xlink:href="#DejaVuSans-30" x="190.869141"/>
      </g>
     </g>
    </g>
    <g id="ytick_4">
     <g id="line2d_54">
      <g>
       <use xlink:href="#m1ec7a25f51" x="57.6" y="134.923342" style="stroke: #000000; stroke-width: 0.8"/>
      </g>
     </g>
     <g id="text_11">
      <!-- 1500 -->
      <g transform="translate(25.15 138.722561) scale(0.1 -0.1)">
       <use xlink:href="#DejaVuSans-31"/>
       <use xlink:href="#DejaVuSans-35" x="63.623047"/>
       <use xlink:href="#DejaVuSans-30" x="127.246094"/>
       <use xlink:href="#DejaVuSans-30" x="190.869141"/>
      </g>
     </g>
    </g>
    <g id="ytick_5">
     <g id="line2d_55">
      <g>
       <use xlink:href="#m1ec7a25f51" x="57.6" y="81.357526" style="stroke: #000000; stroke-width: 0.8"/>
      </g>
     </g>
     <g id="text_12">
      <!-- 2000 -->
      <g transform="translate(25.15 85.156745) scale(0.1 -0.1)">
       <use xlink:href="#DejaVuSans-32"/>
       <use xlink:href="#DejaVuSans-30" x="63.623047"/>
       <use xlink:href="#DejaVuSans-30" x="127.246094"/>
       <use xlink:href="#DejaVuSans-30" x="190.869141"/>
      </g>
     </g>
    </g>
    <g id="text_13">
     <!-- $\vert H \vert$ -->
     <g transform="translate(18.75 181.678) rotate(-90) scale(0.1 -0.1)">
      <defs>
       <path id="DejaVuSans-7c" d="M 1344 4891 
L 1344 -1509 
L 813 -1509 
L 813 4891 
L 1344 4891 
z
" transform="scale(0.015625)"/>
       <path id="DejaVuSans-Oblique-48" d="M 1081 4666 
L 1716 4666 
L 1344 2753 
L 3634 2753 
L 4006 4666 
L 4641 4666 
L 3731 0 
L 3097 0 
L 3531 2222 
L 1241 2222 
L 806 0 
L 172 0 
L 1081 4666 
z
" transform="scale(0.015625)"/>
      </defs>
      <use xlink:href="#DejaVuSans-7c" transform="translate(0 0.578125)"/>
      <use xlink:href="#DejaVuSans-Oblique-48" transform="translate(33.691406 0.578125)"/>
      <use xlink:href="#DejaVuSans-7c" transform="translate(108.886719 0.578125)"/>
     </g>
    </g>
   </g>
   <g id="line2d_56">
    <path d="M 73.832727 295.458949 
L 77.767934 295.467891 
L 81.70314 295.324874 
L 83.670744 295.321881 
L 85.638347 295.456947 
L 87.60595 295.269796 
L 99.41157 295.225736 
L 101.379174 295.319169 
L 111.21719 295.096534 
L 121.055207 294.601603 
L 126.958017 294.11657 
L 128.92562 293.105729 
L 130.893223 293.697578 
L 136.796033 292.689863 
L 138.763636 292.287524 
L 144.666446 290.599089 
L 148.601653 288.976642 
L 150.569256 287.965924 
L 154.504463 285.558654 
L 156.472066 284.11179 
L 158.439669 282.48612 
L 162.374876 278.394104 
L 164.342479 276.057749 
L 166.310083 273.485348 
L 168.277686 270.397464 
L 172.212893 263.240417 
L 176.148099 254.008898 
L 178.115702 248.736911 
L 180.083306 243.052008 
L 184.018512 230.094893 
L 185.986116 222.131888 
L 187.953719 214.682928 
L 189.921322 206.618317 
L 191.888926 199.11116 
L 193.856529 160.7457 
L 195.824132 181.788799 
L 197.791736 173.582536 
L 201.726942 158.914819 
L 203.694545 151.24633 
L 207.629752 138.72649 
L 209.597355 134.877834 
L 211.564959 129.899121 
L 213.532562 124.59118 
L 215.500165 79.49858 
L 217.467769 118.007443 
L 219.435372 115.233654 
L 221.402975 111.428632 
L 223.370579 109.537247 
L 225.338182 106.735234 
L 227.305785 105.902211 
L 229.273388 103.609102 
L 231.240992 104.402953 
L 233.208595 102.040017 
L 235.176198 100.85121 
L 237.143802 100.03876 
L 239.111405 99.80682 
L 241.079008 98.864073 
L 245.014215 98.289975 
L 246.981818 97.375646 
L 248.949421 97.763354 
L 250.917025 96.95384 
L 252.884628 97.769684 
L 254.852231 96.446357 
L 256.819835 96.151036 
L 258.787438 96.241311 
L 260.755041 96.048775 
L 262.722645 95.032596 
L 264.690248 95.052303 
L 266.657851 56.180743 
L 268.625455 95.737115 
L 270.593058 94.719061 
L 272.560661 95.04973 
L 274.528264 95.107 
L 276.495868 94.836439 
L 278.463471 95.432974 
L 280.431074 53.568 
L 282.398678 54.099288 
L 284.366281 96.252152 
L 286.333884 96.177767 
L 288.301488 96.222964 
L 290.269091 95.103437 
L 292.236694 94.342605 
L 296.171901 96.644341 
L 298.139504 94.904062 
L 300.107107 95.041842 
L 302.074711 95.837514 
L 304.042314 55.684723 
L 306.009917 95.687098 
L 307.977521 96.654817 
L 311.912727 95.453603 
L 313.880331 56.399392 
L 315.847934 95.868314 
L 317.815537 56.922795 
L 319.78314 95.265572 
L 321.750744 95.619666 
L 323.718347 96.600791 
L 329.621157 98.317293 
L 331.58876 99.430456 
L 333.556364 63.105042 
L 335.523967 100.249089 
L 337.49157 99.280045 
L 339.459174 97.449323 
L 341.426777 86.151436 
L 343.39438 95.837836 
L 345.361983 93.873992 
L 347.329587 65.277237 
L 349.29719 91.528806 
L 351.264793 89.73207 
L 353.232397 67.196267 
L 355.2 86.520555 
L 357.167603 84.868444 
L 359.135207 86.062329 
L 361.10281 86.1506 
L 363.070413 90.504396 
L 365.038017 98.39148 
L 367.00562 108.125857 
L 368.973223 119.759068 
L 372.90843 150.408729 
L 374.876033 168.91933 
L 378.81124 203.057212 
L 382.746446 231.993393 
L 384.71405 242.718302 
L 386.681653 252.796139 
L 388.649256 252.671882 
L 390.61686 260.779587 
L 392.584463 276.414802 
L 394.552066 282.470297 
L 396.519669 276.11802 
L 398.487273 291.735926 
L 398.487273 291.735926 
" clip-path="url(#p1c0e474b45)" style="fill: none; stroke-dasharray: 1.85,0.8; stroke-dashoffset: 0; stroke: #1f77b4; stroke-width: 0.5"/>
    <defs>
     <path id="m82a6edddfc" d="M 0 0.5 
C 0.132602 0.5 0.25979 0.447317 0.353553 0.353553 
C 0.447317 0.25979 0.5 0.132602 0.5 0 
C 0.5 -0.132602 0.447317 -0.25979 0.353553 -0.353553 
C 0.25979 -0.447317 0.132602 -0.5 0 -0.5 
C -0.132602 -0.5 -0.25979 -0.447317 -0.353553 -0.353553 
C -0.447317 -0.25979 -0.5 -0.132602 -0.5 0 
C -0.5 0.132602 -0.447317 0.25979 -0.353553 0.353553 
C -0.25979 0.447317 -0.132602 0.5 0 0.5 
z
" style="stroke: #1f77b4"/>
    </defs>
    <g clip-path="url(#p1c0e474b45)">
     <use xlink:href="#m82a6edddfc" x="73.832727" y="295.458949" style="fill: #1f77b4; stroke: #1f77b4"/>
     <use xlink:href="#m82a6edddfc" x="75.800331" y="295.488" style="fill: #1f77b4; stroke: #1f77b4"/>
     <use xlink:href="#m82a6edddfc" x="77.767934" y="295.467891" style="fill: #1f77b4; stroke: #1f77b4"/>
     <use xlink:href="#m82a6edddfc" x="79.735537" y="295.346106" style="fill: #1f77b4; stroke: #1f77b4"/>
     <use xlink:href="#m82a6edddfc" x="81.70314" y="295.324874" style="fill: #1f77b4; stroke: #1f77b4"/>
     <use xlink:href="#m82a6edddfc" x="83.670744" y="295.321881" style="fill: #1f77b4; stroke: #1f77b4"/>
     <use xlink:href="#m82a6edddfc" x="85.638347" y="295.456947" style="fill: #1f77b4; stroke: #1f77b4"/>
     <use xlink:href="#m82a6edddfc" x="87.60595" y="295.269796" style="fill: #1f77b4; stroke: #1f77b4"/>
     <use xlink:href="#m82a6edddfc" x="89.573554" y="295.260089" style="fill: #1f77b4; stroke: #1f77b4"/>
     <use xlink:href="#m82a6edddfc" x="91.541157" y="295.219586" style="fill: #1f77b4; stroke: #1f77b4"/>
     <use xlink:href="#m82a6edddfc" x="93.50876" y="295.20002" style="fill: #1f77b4; stroke: #1f77b4"/>
     <use xlink:href="#m82a6edddfc" x="95.476364" y="295.162779" style="fill: #1f77b4; stroke: #1f77b4"/>
     <use xlink:href="#m82a6edddfc" x="97.443967" y="295.127199" style="fill: #1f77b4; stroke: #1f77b4"/>
     <use xlink:href="#m82a6edddfc" x="99.41157" y="295.225736" style="fill: #1f77b4; stroke: #1f77b4"/>
     <use xlink:href="#m82a6edddfc" x="101.379174" y="295.319169" style="fill: #1f77b4; stroke: #1f77b4"/>
     <use xlink:href="#m82a6edddfc" x="103.346777" y="295.287531" style="fill: #1f77b4; stroke: #1f77b4"/>
     <use xlink:href="#m82a6edddfc" x="105.31438" y="295.255411" style="fill: #1f77b4; stroke: #1f77b4"/>
     <use xlink:href="#m82a6edddfc" x="107.281983" y="295.210732" style="fill: #1f77b4; stroke: #1f77b4"/>
     <use xlink:href="#m82a6edddfc" x="109.249587" y="295.152574" style="fill: #1f77b4; stroke: #1f77b4"/>
     <use xlink:href="#m82a6edddfc" x="111.21719" y="295.096534" style="fill: #1f77b4; stroke: #1f77b4"/>
     <use xlink:href="#m82a6edddfc" x="113.184793" y="295.017045" style="fill: #1f77b4; stroke: #1f77b4"/>
     <use xlink:href="#m82a6edddfc" x="115.152397" y="294.941347" style="fill: #1f77b4; stroke: #1f77b4"/>
     <use xlink:href="#m82a6edddfc" x="117.12" y="294.850147" style="fill: #1f77b4; stroke: #1f77b4"/>
     <use xlink:href="#m82a6edddfc" x="119.087603" y="294.738441" style="fill: #1f77b4; stroke: #1f77b4"/>
     <use xlink:href="#m82a6edddfc" x="121.055207" y="294.601603" style="fill: #1f77b4; stroke: #1f77b4"/>
     <use xlink:href="#m82a6edddfc" x="123.02281" y="294.441886" style="fill: #1f77b4; stroke: #1f77b4"/>
     <use xlink:href="#m82a6edddfc" x="124.990413" y="294.291369" style="fill: #1f77b4; stroke: #1f77b4"/>
     <use xlink:href="#m82a6edddfc" x="126.958017" y="294.11657" style="fill: #1f77b4; stroke: #1f77b4"/>
     <use xlink:href="#m82a6edddfc" x="128.92562" y="293.105729" style="fill: #1f77b4; stroke: #1f77b4"/>
     <use xlink:href="#m82a6edddfc" x="130.893223" y="293.697578" style="fill: #1f77b4; stroke: #1f77b4"/>
     <use xlink:href="#m82a6edddfc" x="132.860826" y="293.38014" style="fill: #1f77b4; stroke: #1f77b4"/>
     <use xlink:href="#m82a6edddfc" x="134.82843" y="292.997817" style="fill: #1f77b4; stroke: #1f77b4"/>
     <use xlink:href="#m82a6edddfc" x="136.796033" y="292.689863" style="fill: #1f77b4; stroke: #1f77b4"/>
     <use xlink:href="#m82a6edddfc" x="138.763636" y="292.287524" style="fill: #1f77b4; stroke: #1f77b4"/>
     <use xlink:href="#m82a6edddfc" x="140.73124" y="291.698887" style="fill: #1f77b4; stroke: #1f77b4"/>
     <use xlink:href="#m82a6edddfc" x="142.698843" y="291.182755" style="fill: #1f77b4; stroke: #1f77b4"/>
     <use xlink:href="#m82a6edddfc" x="144.666446" y="290.599089" style="fill: #1f77b4; stroke: #1f77b4"/>
     <use xlink:href="#m82a6edddfc" x="146.63405" y="289.785358" style="fill: #1f77b4; stroke: #1f77b4"/>
     <use xlink:href="#m82a6edddfc" x="148.601653" y="288.976642" style="fill: #1f77b4; stroke: #1f77b4"/>
     <use xlink:href="#m82a6edddfc" x="150.569256" y="287.965924" style="fill: #1f77b4; stroke: #1f77b4"/>
     <use xlink:href="#m82a6edddfc" x="152.53686" y="286.819667" style="fill: #1f77b4; stroke: #1f77b4"/>
     <use xlink:href="#m82a6edddfc" x="154.504463" y="285.558654" style="fill: #1f77b4; stroke: #1f77b4"/>
     <use xlink:href="#m82a6edddfc" x="156.472066" y="284.11179" style="fill: #1f77b4; stroke: #1f77b4"/>
     <use xlink:href="#m82a6edddfc" x="158.439669" y="282.48612" style="fill: #1f77b4; stroke: #1f77b4"/>
     <use xlink:href="#m82a6edddfc" x="160.407273" y="280.482827" style="fill: #1f77b4; stroke: #1f77b4"/>
     <use xlink:href="#m82a6edddfc" x="162.374876" y="278.394104" style="fill: #1f77b4; stroke: #1f77b4"/>
     <use xlink:href="#m82a6edddfc" x="164.342479" y="276.057749" style="fill: #1f77b4; stroke: #1f77b4"/>
     <use xlink:href="#m82a6edddfc" x="166.310083" y="273.485348" style="fill: #1f77b4; stroke: #1f77b4"/>
     <use xlink:href="#m82a6edddfc" x="168.277686" y="270.397464" style="fill: #1f77b4; stroke: #1f77b4"/>
     <use xlink:href="#m82a6edddfc" x="170.245289" y="266.755608" style="fill: #1f77b4; stroke: #1f77b4"/>
     <use xlink:href="#m82a6edddfc" x="172.212893" y="263.240417" style="fill: #1f77b4; stroke: #1f77b4"/>
     <use xlink:href="#m82a6edddfc" x="174.180496" y="258.729234" style="fill: #1f77b4; stroke: #1f77b4"/>
     <use xlink:href="#m82a6edddfc" x="176.148099" y="254.008898" style="fill: #1f77b4; stroke: #1f77b4"/>
     <use xlink:href="#m82a6edddfc" x="178.115702" y="248.736911" style="fill: #1f77b4; stroke: #1f77b4"/>
     <use xlink:href="#m82a6edddfc" x="180.083306" y="243.052008" style="fill: #1f77b4; stroke: #1f77b4"/>
     <use xlink:href="#m82a6edddfc" x="182.050909" y="236.481424" style="fill: #1f77b4; stroke: #1f77b4"/>
     <use xlink:href="#m82a6edddfc" x="184.018512" y="230.094893" style="fill: #1f77b4; stroke: #1f77b4"/>
     <use xlink:href="#m82a6edddfc" x="185.986116" y="222.131888" style="fill: #1f77b4; stroke: #1f77b4"/>
     <use xlink:href="#m82a6edddfc" x="187.953719" y="214.682928" style="fill: #1f77b4; stroke: #1f77b4"/>
     <use xlink:href="#m82a6edddfc" x="189.921322" y="206.618317" style="fill: #1f77b4; stroke: #1f77b4"/>
     <use xlink:href="#m82a6edddfc" x="191.888926" y="199.11116" style="fill: #1f77b4; stroke: #1f77b4"/>
     <use xlink:href="#m82a6edddfc" x="193.856529" y="160.7457" style="fill: #1f77b4; stroke: #1f77b4"/>
     <use xlink:href="#m82a6edddfc" x="195.824132" y="181.788799" style="fill: #1f77b4; stroke: #1f77b4"/>
     <use xlink:href="#m82a6edddfc" x="197.791736" y="173.582536" style="fill: #1f77b4; stroke: #1f77b4"/>
     <use xlink:href="#m82a6edddfc" x="199.759339" y="166.416709" style="fill: #1f77b4; stroke: #1f77b4"/>
     <use xlink:href="#m82a6edddfc" x="201.726942" y="158.914819" style="fill: #1f77b4; stroke: #1f77b4"/>
     <use xlink:href="#m82a6edddfc" x="203.694545" y="151.24633" style="fill: #1f77b4; stroke: #1f77b4"/>
     <use xlink:href="#m82a6edddfc" x="205.662149" y="145.105936" style="fill: #1f77b4; stroke: #1f77b4"/>
     <use xlink:href="#m82a6edddfc" x="207.629752" y="138.72649" style="fill: #1f77b4; stroke: #1f77b4"/>
     <use xlink:href="#m82a6edddfc" x="209.597355" y="134.877834" style="fill: #1f77b4; stroke: #1f77b4"/>
     <use xlink:href="#m82a6edddfc" x="211.564959" y="129.899121" style="fill: #1f77b4; stroke: #1f77b4"/>
     <use xlink:href="#m82a6edddfc" x="213.532562" y="124.59118" style="fill: #1f77b4; stroke: #1f77b4"/>
     <use xlink:href="#m82a6edddfc" x="215.500165" y="79.49858" style="fill: #1f77b4; stroke: #1f77b4"/>
     <use xlink:href="#m82a6edddfc" x="217.467769" y="118.007443" style="fill: #1f77b4; stroke: #1f77b4"/>
     <use xlink:href="#m82a6edddfc" x="219.435372" y="115.233654" style="fill: #1f77b4; stroke: #1f77b4"/>
     <use xlink:href="#m82a6edddfc" x="221.402975" y="111.428632" style="fill: #1f77b4; stroke: #1f77b4"/>
     <use xlink:href="#m82a6edddfc" x="223.370579" y="109.537247" style="fill: #1f77b4; stroke: #1f77b4"/>
     <use xlink:href="#m82a6edddfc" x="225.338182" y="106.735234" style="fill: #1f77b4; stroke: #1f77b4"/>
     <use xlink:href="#m82a6edddfc" x="227.305785" y="105.902211" style="fill: #1f77b4; stroke: #1f77b4"/>
     <use xlink:href="#m82a6edddfc" x="229.273388" y="103.609102" style="fill: #1f77b4; stroke: #1f77b4"/>
     <use xlink:href="#m82a6edddfc" x="231.240992" y="104.402953" style="fill: #1f77b4; stroke: #1f77b4"/>
     <use xlink:href="#m82a6edddfc" x="233.208595" y="102.040017" style="fill: #1f77b4; stroke: #1f77b4"/>
     <use xlink:href="#m82a6edddfc" x="235.176198" y="100.85121" style="fill: #1f77b4; stroke: #1f77b4"/>
     <use xlink:href="#m82a6edddfc" x="237.143802" y="100.03876" style="fill: #1f77b4; stroke: #1f77b4"/>
     <use xlink:href="#m82a6edddfc" x="239.111405" y="99.80682" style="fill: #1f77b4; stroke: #1f77b4"/>
     <use xlink:href="#m82a6edddfc" x="241.079008" y="98.864073" style="fill: #1f77b4; stroke: #1f77b4"/>
     <use xlink:href="#m82a6edddfc" x="243.046612" y="98.599735" style="fill: #1f77b4; stroke: #1f77b4"/>
     <use xlink:href="#m82a6edddfc" x="245.014215" y="98.289975" style="fill: #1f77b4; stroke: #1f77b4"/>
     <use xlink:href="#m82a6edddfc" x="246.981818" y="97.375646" style="fill: #1f77b4; stroke: #1f77b4"/>
     <use xlink:href="#m82a6edddfc" x="248.949421" y="97.763354" style="fill: #1f77b4; stroke: #1f77b4"/>
     <use xlink:href="#m82a6edddfc" x="250.917025" y="96.95384" style="fill: #1f77b4; stroke: #1f77b4"/>
     <use xlink:href="#m82a6edddfc" x="252.884628" y="97.769684" style="fill: #1f77b4; stroke: #1f77b4"/>
     <use xlink:href="#m82a6edddfc" x="254.852231" y="96.446357" style="fill: #1f77b4; stroke: #1f77b4"/>
     <use xlink:href="#m82a6edddfc" x="256.819835" y="96.151036" style="fill: #1f77b4; stroke: #1f77b4"/>
     <use xlink:href="#m82a6edddfc" x="258.787438" y="96.241311" style="fill: #1f77b4; stroke: #1f77b4"/>
     <use xlink:href="#m82a6edddfc" x="260.755041" y="96.048775" style="fill: #1f77b4; stroke: #1f77b4"/>
     <use xlink:href="#m82a6edddfc" x="262.722645" y="95.032596" style="fill: #1f77b4; stroke: #1f77b4"/>
     <use xlink:href="#m82a6edddfc" x="264.690248" y="95.052303" style="fill: #1f77b4; stroke: #1f77b4"/>
     <use xlink:href="#m82a6edddfc" x="266.657851" y="56.180743" style="fill: #1f77b4; stroke: #1f77b4"/>
     <use xlink:href="#m82a6edddfc" x="268.625455" y="95.737115" style="fill: #1f77b4; stroke: #1f77b4"/>
     <use xlink:href="#m82a6edddfc" x="270.593058" y="94.719061" style="fill: #1f77b4; stroke: #1f77b4"/>
     <use xlink:href="#m82a6edddfc" x="272.560661" y="95.04973" style="fill: #1f77b4; stroke: #1f77b4"/>
     <use xlink:href="#m82a6edddfc" x="274.528264" y="95.107" style="fill: #1f77b4; stroke: #1f77b4"/>
     <use xlink:href="#m82a6edddfc" x="276.495868" y="94.836439" style="fill: #1f77b4; stroke: #1f77b4"/>
     <use xlink:href="#m82a6edddfc" x="278.463471" y="95.432974" style="fill: #1f77b4; stroke: #1f77b4"/>
     <use xlink:href="#m82a6edddfc" x="280.431074" y="53.568" style="fill: #1f77b4; stroke: #1f77b4"/>
     <use xlink:href="#m82a6edddfc" x="282.398678" y="54.099288" style="fill: #1f77b4; stroke: #1f77b4"/>
     <use xlink:href="#m82a6edddfc" x="284.366281" y="96.252152" style="fill: #1f77b4; stroke: #1f77b4"/>
     <use xlink:href="#m82a6edddfc" x="286.333884" y="96.177767" style="fill: #1f77b4; stroke: #1f77b4"/>
     <use xlink:href="#m82a6edddfc" x="288.301488" y="96.222964" style="fill: #1f77b4; stroke: #1f77b4"/>
     <use xlink:href="#m82a6edddfc" x="290.269091" y="95.103437" style="fill: #1f77b4; stroke: #1f77b4"/>
     <use xlink:href="#m82a6edddfc" x="292.236694" y="94.342605" style="fill: #1f77b4; stroke: #1f77b4"/>
     <use xlink:href="#m82a6edddfc" x="294.204298" y="95.430778" style="fill: #1f77b4; stroke: #1f77b4"/>
     <use xlink:href="#m82a6edddfc" x="296.171901" y="96.644341" style="fill: #1f77b4; stroke: #1f77b4"/>
     <use xlink:href="#m82a6edddfc" x="298.139504" y="94.904062" style="fill: #1f77b4; stroke: #1f77b4"/>
     <use xlink:href="#m82a6edddfc" x="300.107107" y="95.041842" style="fill: #1f77b4; stroke: #1f77b4"/>
     <use xlink:href="#m82a6edddfc" x="302.074711" y="95.837514" style="fill: #1f77b4; stroke: #1f77b4"/>
     <use xlink:href="#m82a6edddfc" x="304.042314" y="55.684723" style="fill: #1f77b4; stroke: #1f77b4"/>
     <use xlink:href="#m82a6edddfc" x="306.009917" y="95.687098" style="fill: #1f77b4; stroke: #1f77b4"/>
     <use xlink:href="#m82a6edddfc" x="307.977521" y="96.654817" style="fill: #1f77b4; stroke: #1f77b4"/>
     <use xlink:href="#m82a6edddfc" x="309.945124" y="96.07787" style="fill: #1f77b4; stroke: #1f77b4"/>
     <use xlink:href="#m82a6edddfc" x="311.912727" y="95.453603" style="fill: #1f77b4; stroke: #1f77b4"/>
     <use xlink:href="#m82a6edddfc" x="313.880331" y="56.399392" style="fill: #1f77b4; stroke: #1f77b4"/>
     <use xlink:href="#m82a6edddfc" x="315.847934" y="95.868314" style="fill: #1f77b4; stroke: #1f77b4"/>
     <use xlink:href="#m82a6edddfc" x="317.815537" y="56.922795" style="fill: #1f77b4; stroke: #1f77b4"/>
     <use xlink:href="#m82a6edddfc" x="319.78314" y="95.265572" style="fill: #1f77b4; stroke: #1f77b4"/>
     <use xlink:href="#m82a6edddfc" x="321.750744" y="95.619666" style="fill: #1f77b4; stroke: #1f77b4"/>
     <use xlink:href="#m82a6edddfc" x="323.718347" y="96.600791" style="fill: #1f77b4; stroke: #1f77b4"/>
     <use xlink:href="#m82a6edddfc" x="325.68595" y="97.174794" style="fill: #1f77b4; stroke: #1f77b4"/>
     <use xlink:href="#m82a6edddfc" x="327.653554" y="97.820219" style="fill: #1f77b4; stroke: #1f77b4"/>
     <use xlink:href="#m82a6edddfc" x="329.621157" y="98.317293" style="fill: #1f77b4; stroke: #1f77b4"/>
     <use xlink:href="#m82a6edddfc" x="331.58876" y="99.430456" style="fill: #1f77b4; stroke: #1f77b4"/>
     <use xlink:href="#m82a6edddfc" x="333.556364" y="63.105042" style="fill: #1f77b4; stroke: #1f77b4"/>
     <use xlink:href="#m82a6edddfc" x="335.523967" y="100.249089" style="fill: #1f77b4; stroke: #1f77b4"/>
     <use xlink:href="#m82a6edddfc" x="337.49157" y="99.280045" style="fill: #1f77b4; stroke: #1f77b4"/>
     <use xlink:href="#m82a6edddfc" x="339.459174" y="97.449323" style="fill: #1f77b4; stroke: #1f77b4"/>
     <use xlink:href="#m82a6edddfc" x="341.426777" y="86.151436" style="fill: #1f77b4; stroke: #1f77b4"/>
     <use xlink:href="#m82a6edddfc" x="343.39438" y="95.837836" style="fill: #1f77b4; stroke: #1f77b4"/>
     <use xlink:href="#m82a6edddfc" x="345.361983" y="93.873992" style="fill: #1f77b4; stroke: #1f77b4"/>
     <use xlink:href="#m82a6edddfc" x="347.329587" y="65.277237" style="fill: #1f77b4; stroke: #1f77b4"/>
     <use xlink:href="#m82a6edddfc" x="349.29719" y="91.528806" style="fill: #1f77b4; stroke: #1f77b4"/>
     <use xlink:href="#m82a6edddfc" x="351.264793" y="89.73207" style="fill: #1f77b4; stroke: #1f77b4"/>
     <use xlink:href="#m82a6edddfc" x="353.232397" y="67.196267" style="fill: #1f77b4; stroke: #1f77b4"/>
     <use xlink:href="#m82a6edddfc" x="355.2" y="86.520555" style="fill: #1f77b4; stroke: #1f77b4"/>
     <use xlink:href="#m82a6edddfc" x="357.167603" y="84.868444" style="fill: #1f77b4; stroke: #1f77b4"/>
     <use xlink:href="#m82a6edddfc" x="359.135207" y="86.062329" style="fill: #1f77b4; stroke: #1f77b4"/>
     <use xlink:href="#m82a6edddfc" x="361.10281" y="86.1506" style="fill: #1f77b4; stroke: #1f77b4"/>
     <use xlink:href="#m82a6edddfc" x="363.070413" y="90.504396" style="fill: #1f77b4; stroke: #1f77b4"/>
     <use xlink:href="#m82a6edddfc" x="365.038017" y="98.39148" style="fill: #1f77b4; stroke: #1f77b4"/>
     <use xlink:href="#m82a6edddfc" x="367.00562" y="108.125857" style="fill: #1f77b4; stroke: #1f77b4"/>
     <use xlink:href="#m82a6edddfc" x="368.973223" y="119.759068" style="fill: #1f77b4; stroke: #1f77b4"/>
     <use xlink:href="#m82a6edddfc" x="370.940826" y="135.498038" style="fill: #1f77b4; stroke: #1f77b4"/>
     <use xlink:href="#m82a6edddfc" x="372.90843" y="150.408729" style="fill: #1f77b4; stroke: #1f77b4"/>
     <use xlink:href="#m82a6edddfc" x="374.876033" y="168.91933" style="fill: #1f77b4; stroke: #1f77b4"/>
     <use xlink:href="#m82a6edddfc" x="376.843636" y="186.296495" style="fill: #1f77b4; stroke: #1f77b4"/>
     <use xlink:href="#m82a6edddfc" x="378.81124" y="203.057212" style="fill: #1f77b4; stroke: #1f77b4"/>
     <use xlink:href="#m82a6edddfc" x="380.778843" y="217.542937" style="fill: #1f77b4; stroke: #1f77b4"/>
     <use xlink:href="#m82a6edddfc" x="382.746446" y="231.993393" style="fill: #1f77b4; stroke: #1f77b4"/>
     <use xlink:href="#m82a6edddfc" x="384.71405" y="242.718302" style="fill: #1f77b4; stroke: #1f77b4"/>
     <use xlink:href="#m82a6edddfc" x="386.681653" y="252.796139" style="fill: #1f77b4; stroke: #1f77b4"/>
     <use xlink:href="#m82a6edddfc" x="388.649256" y="252.671882" style="fill: #1f77b4; stroke: #1f77b4"/>
     <use xlink:href="#m82a6edddfc" x="390.61686" y="260.779587" style="fill: #1f77b4; stroke: #1f77b4"/>
     <use xlink:href="#m82a6edddfc" x="392.584463" y="276.414802" style="fill: #1f77b4; stroke: #1f77b4"/>
     <use xlink:href="#m82a6edddfc" x="394.552066" y="282.470297" style="fill: #1f77b4; stroke: #1f77b4"/>
     <use xlink:href="#m82a6edddfc" x="396.519669" y="276.11802" style="fill: #1f77b4; stroke: #1f77b4"/>
     <use xlink:href="#m82a6edddfc" x="398.487273" y="291.735926" style="fill: #1f77b4; stroke: #1f77b4"/>
    </g>
   </g>
   <g id="patch_3">
    <path d="M 57.6 307.584 
L 57.6 41.472 
" style="fill: none; stroke: #000000; stroke-width: 0.8; stroke-linejoin: miter; stroke-linecap: square"/>
   </g>
   <g id="patch_4">
    <path d="M 414.72 307.584 
L 414.72 41.472 
" style="fill: none; stroke: #000000; stroke-width: 0.8; stroke-linejoin: miter; stroke-linecap: square"/>
   </g>
   <g id="patch_5">
    <path d="M 57.6 307.584 
L 414.72 307.584 
" style="fill: none; stroke: #000000; stroke-width: 0.8; stroke-linejoin: miter; stroke-linecap: square"/>
   </g>
   <g id="patch_6">
    <path d="M 57.6 41.472 
L 414.72 41.472 
" style="fill: none; stroke: #000000; stroke-width: 0.8; stroke-linejoin: miter; stroke-linecap: square"/>
   </g>
  </g>
 </g>
 <defs>
  <clipPath id="p1c0e474b45">
   <rect x="57.6" y="41.472" width="357.12" height="266.112"/>
  </clipPath>
 </defs>
</svg>
