<?xml version="1.0" encoding="utf-8" standalone="no"?>
<!DOCTYPE svg PUBLIC "-//W3C//DTD SVG 1.1//EN"
  "http://www.w3.org/Graphics/SVG/1.1/DTD/svg11.dtd">
<svg xmlns:xlink="http://www.w3.org/1999/xlink" width="460.8pt" height="345.6pt" viewBox="0 0 460.8 345.6" xmlns="http://www.w3.org/2000/svg" version="1.1">
 <metadata>
  <rdf:RDF xmlns:dc="http://purl.org/dc/elements/1.1/" xmlns:cc="http://creativecommons.org/ns#" xmlns:rdf="http://www.w3.org/1999/02/22-rdf-syntax-ns#">
   <cc:Work>
    <dc:type rdf:resource="http://purl.org/dc/dcmitype/StillImage"/>
    <dc:date>2024-05-08T13:52:44.419473</dc:date>
    <dc:format>image/svg+xml</dc:format>
    <dc:creator>
     <cc:Agent>
      <dc:title>Matplotlib v3.7.1, https://matplotlib.org/</dc:title>
     </cc:Agent>
    </dc:creator>
   </cc:Work>
  </rdf:RDF>
 </metadata>
 <defs>
  <style type="text/css">*{stroke-linejoin: round; stroke-linecap: butt}</style>
 </defs>
 <g id="figure_1">
  <g id="patch_1">
   <path d="M 0 345.6 
L 460.8 345.6 
L 460.8 0 
L 0 0 
z
" style="fill: #ffffff"/>
  </g>
  <g id="axes_1">
   <g id="patch_2">
    <path d="M 57.6 307.584 
L 414.72 307.584 
L 414.72 41.472 
L 57.6 41.472 
z
" style="fill: #ffffff"/>
   </g>
   <g id="matplotlib.axis_1">
    <g id="xtick_1">
     <g id="line2d_1">
      <defs>
       <path id="mb5cc509b60" d="M 0 0 
L 0 3.5 
" style="stroke: #000000; stroke-width: 0.8"/>
      </defs>
      <g>
       <use xlink:href="#mb5cc509b60" x="73.832727" y="307.584" style="stroke: #000000; stroke-width: 0.8"/>
      </g>
     </g>
     <g id="text_1">
      <!-- $\mathdefault{10^{0}}$ -->
      <g transform="translate(65.032727 322.182437) scale(0.1 -0.1)">
       <defs>
        <path id="DejaVuSans-31" d="M 794 531 
L 1825 531 
L 1825 4091 
L 703 3866 
L 703 4441 
L 1819 4666 
L 2450 4666 
L 2450 531 
L 3481 531 
L 3481 0 
L 794 0 
L 794 531 
z
" transform="scale(0.015625)"/>
        <path id="DejaVuSans-30" d="M 2034 4250 
Q 1547 4250 1301 3770 
Q 1056 3291 1056 2328 
Q 1056 1369 1301 889 
Q 1547 409 2034 409 
Q 2525 409 2770 889 
Q 3016 1369 3016 2328 
Q 3016 3291 2770 3770 
Q 2525 4250 2034 4250 
z
M 2034 4750 
Q 2819 4750 3233 4129 
Q 3647 3509 3647 2328 
Q 3647 1150 3233 529 
Q 2819 -91 2034 -91 
Q 1250 -91 836 529 
Q 422 1150 422 2328 
Q 422 3509 836 4129 
Q 1250 4750 2034 4750 
z
" transform="scale(0.015625)"/>
       </defs>
       <use xlink:href="#DejaVuSans-31" transform="translate(0 0.765625)"/>
       <use xlink:href="#DejaVuSans-30" transform="translate(63.623047 0.765625)"/>
       <use xlink:href="#DejaVuSans-30" transform="translate(128.203125 39.046875) scale(0.7)"/>
      </g>
     </g>
    </g>
    <g id="xtick_2">
     <g id="line2d_2">
      <g>
       <use xlink:href="#mb5cc509b60" x="138.763636" y="307.584" style="stroke: #000000; stroke-width: 0.8"/>
      </g>
     </g>
     <g id="text_2">
      <!-- $\mathdefault{10^{1}}$ -->
      <g transform="translate(129.963636 322.182437) scale(0.1 -0.1)">
       <use xlink:href="#DejaVuSans-31" transform="translate(0 0.684375)"/>
       <use xlink:href="#DejaVuSans-30" transform="translate(63.623047 0.684375)"/>
       <use xlink:href="#DejaVuSans-31" transform="translate(128.203125 38.965625) scale(0.7)"/>
      </g>
     </g>
    </g>
    <g id="xtick_3">
     <g id="line2d_3">
      <g>
       <use xlink:href="#mb5cc509b60" x="203.694545" y="307.584" style="stroke: #000000; stroke-width: 0.8"/>
      </g>
     </g>
     <g id="text_3">
      <!-- $\mathdefault{10^{2}}$ -->
      <g transform="translate(194.894545 322.182437) scale(0.1 -0.1)">
       <defs>
        <path id="DejaVuSans-32" d="M 1228 531 
L 3431 531 
L 3431 0 
L 469 0 
L 469 531 
Q 828 903 1448 1529 
Q 2069 2156 2228 2338 
Q 2531 2678 2651 2914 
Q 2772 3150 2772 3378 
Q 2772 3750 2511 3984 
Q 2250 4219 1831 4219 
Q 1534 4219 1204 4116 
Q 875 4013 500 3803 
L 500 4441 
Q 881 4594 1212 4672 
Q 1544 4750 1819 4750 
Q 2544 4750 2975 4387 
Q 3406 4025 3406 3419 
Q 3406 3131 3298 2873 
Q 3191 2616 2906 2266 
Q 2828 2175 2409 1742 
Q 1991 1309 1228 531 
z
" transform="scale(0.015625)"/>
       </defs>
       <use xlink:href="#DejaVuSans-31" transform="translate(0 0.765625)"/>
       <use xlink:href="#DejaVuSans-30" transform="translate(63.623047 0.765625)"/>
       <use xlink:href="#DejaVuSans-32" transform="translate(128.203125 39.046875) scale(0.7)"/>
      </g>
     </g>
    </g>
    <g id="xtick_4">
     <g id="line2d_4">
      <g>
       <use xlink:href="#mb5cc509b60" x="268.625455" y="307.584" style="stroke: #000000; stroke-width: 0.8"/>
      </g>
     </g>
     <g id="text_4">
      <!-- $\mathdefault{10^{3}}$ -->
      <g transform="translate(259.825455 322.182437) scale(0.1 -0.1)">
       <defs>
        <path id="DejaVuSans-33" d="M 2597 2516 
Q 3050 2419 3304 2112 
Q 3559 1806 3559 1356 
Q 3559 666 3084 287 
Q 2609 -91 1734 -91 
Q 1441 -91 1130 -33 
Q 819 25 488 141 
L 488 750 
Q 750 597 1062 519 
Q 1375 441 1716 441 
Q 2309 441 2620 675 
Q 2931 909 2931 1356 
Q 2931 1769 2642 2001 
Q 2353 2234 1838 2234 
L 1294 2234 
L 1294 2753 
L 1863 2753 
Q 2328 2753 2575 2939 
Q 2822 3125 2822 3475 
Q 2822 3834 2567 4026 
Q 2313 4219 1838 4219 
Q 1578 4219 1281 4162 
Q 984 4106 628 3988 
L 628 4550 
Q 988 4650 1302 4700 
Q 1616 4750 1894 4750 
Q 2613 4750 3031 4423 
Q 3450 4097 3450 3541 
Q 3450 3153 3228 2886 
Q 3006 2619 2597 2516 
z
" transform="scale(0.015625)"/>
       </defs>
       <use xlink:href="#DejaVuSans-31" transform="translate(0 0.765625)"/>
       <use xlink:href="#DejaVuSans-30" transform="translate(63.623047 0.765625)"/>
       <use xlink:href="#DejaVuSans-33" transform="translate(128.203125 39.046875) scale(0.7)"/>
      </g>
     </g>
    </g>
    <g id="xtick_5">
     <g id="line2d_5">
      <g>
       <use xlink:href="#mb5cc509b60" x="333.556364" y="307.584" style="stroke: #000000; stroke-width: 0.8"/>
      </g>
     </g>
     <g id="text_5">
      <!-- $\mathdefault{10^{4}}$ -->
      <g transform="translate(324.756364 322.182437) scale(0.1 -0.1)">
       <defs>
        <path id="DejaVuSans-34" d="M 2419 4116 
L 825 1625 
L 2419 1625 
L 2419 4116 
z
M 2253 4666 
L 3047 4666 
L 3047 1625 
L 3713 1625 
L 3713 1100 
L 3047 1100 
L 3047 0 
L 2419 0 
L 2419 1100 
L 313 1100 
L 313 1709 
L 2253 4666 
z
" transform="scale(0.015625)"/>
       </defs>
       <use xlink:href="#DejaVuSans-31" transform="translate(0 0.684375)"/>
       <use xlink:href="#DejaVuSans-30" transform="translate(63.623047 0.684375)"/>
       <use xlink:href="#DejaVuSans-34" transform="translate(128.203125 38.965625) scale(0.7)"/>
      </g>
     </g>
    </g>
    <g id="xtick_6">
     <g id="line2d_6">
      <g>
       <use xlink:href="#mb5cc509b60" x="398.487273" y="307.584" style="stroke: #000000; stroke-width: 0.8"/>
      </g>
     </g>
     <g id="text_6">
      <!-- $\mathdefault{10^{5}}$ -->
      <g transform="translate(389.687273 322.182437) scale(0.1 -0.1)">
       <defs>
        <path id="DejaVuSans-35" d="M 691 4666 
L 3169 4666 
L 3169 4134 
L 1269 4134 
L 1269 2991 
Q 1406 3038 1543 3061 
Q 1681 3084 1819 3084 
Q 2600 3084 3056 2656 
Q 3513 2228 3513 1497 
Q 3513 744 3044 326 
Q 2575 -91 1722 -91 
Q 1428 -91 1123 -41 
Q 819 9 494 109 
L 494 744 
Q 775 591 1075 516 
Q 1375 441 1709 441 
Q 2250 441 2565 725 
Q 2881 1009 2881 1497 
Q 2881 1984 2565 2268 
Q 2250 2553 1709 2553 
Q 1456 2553 1204 2497 
Q 953 2441 691 2322 
L 691 4666 
z
" transform="scale(0.015625)"/>
       </defs>
       <use xlink:href="#DejaVuSans-31" transform="translate(0 0.684375)"/>
       <use xlink:href="#DejaVuSans-30" transform="translate(63.623047 0.684375)"/>
       <use xlink:href="#DejaVuSans-35" transform="translate(128.203125 38.965625) scale(0.7)"/>
      </g>
     </g>
    </g>
    <g id="xtick_7">
     <g id="line2d_7">
      <defs>
       <path id="macc8cdd195" d="M 0 0 
L 0 2 
" style="stroke: #000000; stroke-width: 0.6"/>
      </defs>
      <g>
       <use xlink:href="#macc8cdd195" x="59.427886" y="307.584" style="stroke: #000000; stroke-width: 0.6"/>
      </g>
     </g>
    </g>
    <g id="xtick_8">
     <g id="line2d_8">
      <g>
       <use xlink:href="#macc8cdd195" x="63.774802" y="307.584" style="stroke: #000000; stroke-width: 0.6"/>
      </g>
     </g>
    </g>
    <g id="xtick_9">
     <g id="line2d_9">
      <g>
       <use xlink:href="#macc8cdd195" x="67.540272" y="307.584" style="stroke: #000000; stroke-width: 0.6"/>
      </g>
     </g>
    </g>
    <g id="xtick_10">
     <g id="line2d_10">
      <g>
       <use xlink:href="#macc8cdd195" x="70.861652" y="307.584" style="stroke: #000000; stroke-width: 0.6"/>
      </g>
     </g>
    </g>
    <g id="xtick_11">
     <g id="line2d_11">
      <g>
       <use xlink:href="#macc8cdd195" x="93.378879" y="307.584" style="stroke: #000000; stroke-width: 0.6"/>
      </g>
     </g>
    </g>
    <g id="xtick_12">
     <g id="line2d_12">
      <g>
       <use xlink:href="#macc8cdd195" x="104.812644" y="307.584" style="stroke: #000000; stroke-width: 0.6"/>
      </g>
     </g>
    </g>
    <g id="xtick_13">
     <g id="line2d_13">
      <g>
       <use xlink:href="#macc8cdd195" x="112.92503" y="307.584" style="stroke: #000000; stroke-width: 0.6"/>
      </g>
     </g>
    </g>
    <g id="xtick_14">
     <g id="line2d_14">
      <g>
       <use xlink:href="#macc8cdd195" x="119.217485" y="307.584" style="stroke: #000000; stroke-width: 0.6"/>
      </g>
     </g>
    </g>
    <g id="xtick_15">
     <g id="line2d_15">
      <g>
       <use xlink:href="#macc8cdd195" x="124.358795" y="307.584" style="stroke: #000000; stroke-width: 0.6"/>
      </g>
     </g>
    </g>
    <g id="xtick_16">
     <g id="line2d_16">
      <g>
       <use xlink:href="#macc8cdd195" x="128.705711" y="307.584" style="stroke: #000000; stroke-width: 0.6"/>
      </g>
     </g>
    </g>
    <g id="xtick_17">
     <g id="line2d_17">
      <g>
       <use xlink:href="#macc8cdd195" x="132.471181" y="307.584" style="stroke: #000000; stroke-width: 0.6"/>
      </g>
     </g>
    </g>
    <g id="xtick_18">
     <g id="line2d_18">
      <g>
       <use xlink:href="#macc8cdd195" x="135.792561" y="307.584" style="stroke: #000000; stroke-width: 0.6"/>
      </g>
     </g>
    </g>
    <g id="xtick_19">
     <g id="line2d_19">
      <g>
       <use xlink:href="#macc8cdd195" x="158.309788" y="307.584" style="stroke: #000000; stroke-width: 0.6"/>
      </g>
     </g>
    </g>
    <g id="xtick_20">
     <g id="line2d_20">
      <g>
       <use xlink:href="#macc8cdd195" x="169.743553" y="307.584" style="stroke: #000000; stroke-width: 0.6"/>
      </g>
     </g>
    </g>
    <g id="xtick_21">
     <g id="line2d_21">
      <g>
       <use xlink:href="#macc8cdd195" x="177.855939" y="307.584" style="stroke: #000000; stroke-width: 0.6"/>
      </g>
     </g>
    </g>
    <g id="xtick_22">
     <g id="line2d_22">
      <g>
       <use xlink:href="#macc8cdd195" x="184.148394" y="307.584" style="stroke: #000000; stroke-width: 0.6"/>
      </g>
     </g>
    </g>
    <g id="xtick_23">
     <g id="line2d_23">
      <g>
       <use xlink:href="#macc8cdd195" x="189.289704" y="307.584" style="stroke: #000000; stroke-width: 0.6"/>
      </g>
     </g>
    </g>
    <g id="xtick_24">
     <g id="line2d_24">
      <g>
       <use xlink:href="#macc8cdd195" x="193.63662" y="307.584" style="stroke: #000000; stroke-width: 0.6"/>
      </g>
     </g>
    </g>
    <g id="xtick_25">
     <g id="line2d_25">
      <g>
       <use xlink:href="#macc8cdd195" x="197.40209" y="307.584" style="stroke: #000000; stroke-width: 0.6"/>
      </g>
     </g>
    </g>
    <g id="xtick_26">
     <g id="line2d_26">
      <g>
       <use xlink:href="#macc8cdd195" x="200.72347" y="307.584" style="stroke: #000000; stroke-width: 0.6"/>
      </g>
     </g>
    </g>
    <g id="xtick_27">
     <g id="line2d_27">
      <g>
       <use xlink:href="#macc8cdd195" x="223.240697" y="307.584" style="stroke: #000000; stroke-width: 0.6"/>
      </g>
     </g>
    </g>
    <g id="xtick_28">
     <g id="line2d_28">
      <g>
       <use xlink:href="#macc8cdd195" x="234.674462" y="307.584" style="stroke: #000000; stroke-width: 0.6"/>
      </g>
     </g>
    </g>
    <g id="xtick_29">
     <g id="line2d_29">
      <g>
       <use xlink:href="#macc8cdd195" x="242.786848" y="307.584" style="stroke: #000000; stroke-width: 0.6"/>
      </g>
     </g>
    </g>
    <g id="xtick_30">
     <g id="line2d_30">
      <g>
       <use xlink:href="#macc8cdd195" x="249.079303" y="307.584" style="stroke: #000000; stroke-width: 0.6"/>
      </g>
     </g>
    </g>
    <g id="xtick_31">
     <g id="line2d_31">
      <g>
       <use xlink:href="#macc8cdd195" x="254.220614" y="307.584" style="stroke: #000000; stroke-width: 0.6"/>
      </g>
     </g>
    </g>
    <g id="xtick_32">
     <g id="line2d_32">
      <g>
       <use xlink:href="#macc8cdd195" x="258.567529" y="307.584" style="stroke: #000000; stroke-width: 0.6"/>
      </g>
     </g>
    </g>
    <g id="xtick_33">
     <g id="line2d_33">
      <g>
       <use xlink:href="#macc8cdd195" x="262.332999" y="307.584" style="stroke: #000000; stroke-width: 0.6"/>
      </g>
     </g>
    </g>
    <g id="xtick_34">
     <g id="line2d_34">
      <g>
       <use xlink:href="#macc8cdd195" x="265.654379" y="307.584" style="stroke: #000000; stroke-width: 0.6"/>
      </g>
     </g>
    </g>
    <g id="xtick_35">
     <g id="line2d_35">
      <g>
       <use xlink:href="#macc8cdd195" x="288.171606" y="307.584" style="stroke: #000000; stroke-width: 0.6"/>
      </g>
     </g>
    </g>
    <g id="xtick_36">
     <g id="line2d_36">
      <g>
       <use xlink:href="#macc8cdd195" x="299.605371" y="307.584" style="stroke: #000000; stroke-width: 0.6"/>
      </g>
     </g>
    </g>
    <g id="xtick_37">
     <g id="line2d_37">
      <g>
       <use xlink:href="#macc8cdd195" x="307.717757" y="307.584" style="stroke: #000000; stroke-width: 0.6"/>
      </g>
     </g>
    </g>
    <g id="xtick_38">
     <g id="line2d_38">
      <g>
       <use xlink:href="#macc8cdd195" x="314.010212" y="307.584" style="stroke: #000000; stroke-width: 0.6"/>
      </g>
     </g>
    </g>
    <g id="xtick_39">
     <g id="line2d_39">
      <g>
       <use xlink:href="#macc8cdd195" x="319.151523" y="307.584" style="stroke: #000000; stroke-width: 0.6"/>
      </g>
     </g>
    </g>
    <g id="xtick_40">
     <g id="line2d_40">
      <g>
       <use xlink:href="#macc8cdd195" x="323.498439" y="307.584" style="stroke: #000000; stroke-width: 0.6"/>
      </g>
     </g>
    </g>
    <g id="xtick_41">
     <g id="line2d_41">
      <g>
       <use xlink:href="#macc8cdd195" x="327.263908" y="307.584" style="stroke: #000000; stroke-width: 0.6"/>
      </g>
     </g>
    </g>
    <g id="xtick_42">
     <g id="line2d_42">
      <g>
       <use xlink:href="#macc8cdd195" x="330.585288" y="307.584" style="stroke: #000000; stroke-width: 0.6"/>
      </g>
     </g>
    </g>
    <g id="xtick_43">
     <g id="line2d_43">
      <g>
       <use xlink:href="#macc8cdd195" x="353.102515" y="307.584" style="stroke: #000000; stroke-width: 0.6"/>
      </g>
     </g>
    </g>
    <g id="xtick_44">
     <g id="line2d_44">
      <g>
       <use xlink:href="#macc8cdd195" x="364.53628" y="307.584" style="stroke: #000000; stroke-width: 0.6"/>
      </g>
     </g>
    </g>
    <g id="xtick_45">
     <g id="line2d_45">
      <g>
       <use xlink:href="#macc8cdd195" x="372.648666" y="307.584" style="stroke: #000000; stroke-width: 0.6"/>
      </g>
     </g>
    </g>
    <g id="xtick_46">
     <g id="line2d_46">
      <g>
       <use xlink:href="#macc8cdd195" x="378.941121" y="307.584" style="stroke: #000000; stroke-width: 0.6"/>
      </g>
     </g>
    </g>
    <g id="xtick_47">
     <g id="line2d_47">
      <g>
       <use xlink:href="#macc8cdd195" x="384.082432" y="307.584" style="stroke: #000000; stroke-width: 0.6"/>
      </g>
     </g>
    </g>
    <g id="xtick_48">
     <g id="line2d_48">
      <g>
       <use xlink:href="#macc8cdd195" x="388.429348" y="307.584" style="stroke: #000000; stroke-width: 0.6"/>
      </g>
     </g>
    </g>
    <g id="xtick_49">
     <g id="line2d_49">
      <g>
       <use xlink:href="#macc8cdd195" x="392.194817" y="307.584" style="stroke: #000000; stroke-width: 0.6"/>
      </g>
     </g>
    </g>
    <g id="xtick_50">
     <g id="line2d_50">
      <g>
       <use xlink:href="#macc8cdd195" x="395.516197" y="307.584" style="stroke: #000000; stroke-width: 0.6"/>
      </g>
     </g>
    </g>
    <g id="text_7">
     <!-- $f$ (Hz) -->
     <g transform="translate(222.51 335.860562) scale(0.1 -0.1)">
      <defs>
       <path id="DejaVuSans-Oblique-66" d="M 3059 4863 
L 2969 4384 
L 2419 4384 
Q 2106 4384 1964 4261 
Q 1822 4138 1753 3809 
L 1691 3500 
L 2638 3500 
L 2553 3053 
L 1606 3053 
L 1013 0 
L 434 0 
L 1031 3053 
L 481 3053 
L 563 3500 
L 1113 3500 
L 1159 3744 
Q 1278 4363 1576 4613 
Q 1875 4863 2516 4863 
L 3059 4863 
z
" transform="scale(0.015625)"/>
       <path id="DejaVuSans-20" transform="scale(0.015625)"/>
       <path id="DejaVuSans-28" d="M 1984 4856 
Q 1566 4138 1362 3434 
Q 1159 2731 1159 2009 
Q 1159 1288 1364 580 
Q 1569 -128 1984 -844 
L 1484 -844 
Q 1016 -109 783 600 
Q 550 1309 550 2009 
Q 550 2706 781 3412 
Q 1013 4119 1484 4856 
L 1984 4856 
z
" transform="scale(0.015625)"/>
       <path id="DejaVuSans-48" d="M 628 4666 
L 1259 4666 
L 1259 2753 
L 3553 2753 
L 3553 4666 
L 4184 4666 
L 4184 0 
L 3553 0 
L 3553 2222 
L 1259 2222 
L 1259 0 
L 628 0 
L 628 4666 
z
" transform="scale(0.015625)"/>
       <path id="DejaVuSans-7a" d="M 353 3500 
L 3084 3500 
L 3084 2975 
L 922 459 
L 3084 459 
L 3084 0 
L 275 0 
L 275 525 
L 2438 3041 
L 353 3041 
L 353 3500 
z
" transform="scale(0.015625)"/>
       <path id="DejaVuSans-29" d="M 513 4856 
L 1013 4856 
Q 1481 4119 1714 3412 
Q 1947 2706 1947 2009 
Q 1947 1309 1714 600 
Q 1481 -109 1013 -844 
L 513 -844 
Q 928 -128 1133 580 
Q 1338 1288 1338 2009 
Q 1338 2731 1133 3434 
Q 928 4138 513 4856 
z
" transform="scale(0.015625)"/>
      </defs>
      <use xlink:href="#DejaVuSans-Oblique-66" transform="translate(0 0.015625)"/>
      <use xlink:href="#DejaVuSans-20" transform="translate(35.205078 0.015625)"/>
      <use xlink:href="#DejaVuSans-28" transform="translate(66.992188 0.015625)"/>
      <use xlink:href="#DejaVuSans-48" transform="translate(106.005859 0.015625)"/>
      <use xlink:href="#DejaVuSans-7a" transform="translate(181.201172 0.015625)"/>
      <use xlink:href="#DejaVuSans-29" transform="translate(233.691406 0.015625)"/>
     </g>
    </g>
   </g>
   <g id="matplotlib.axis_2">
    <g id="ytick_1">
     <g id="line2d_51">
      <defs>
       <path id="m31fb364c33" d="M 0 0 
L -3.5 0 
" style="stroke: #000000; stroke-width: 0.8"/>
      </defs>
      <g>
       <use xlink:href="#m31fb364c33" x="57.6" y="295.642131" style="stroke: #000000; stroke-width: 0.8"/>
      </g>
     </g>
     <g id="text_8">
      <!-- 0 -->
      <g transform="translate(44.2375 299.44135) scale(0.1 -0.1)">
       <use xlink:href="#DejaVuSans-30"/>
      </g>
     </g>
    </g>
    <g id="ytick_2">
     <g id="line2d_52">
      <g>
       <use xlink:href="#m31fb364c33" x="57.6" y="242.515071" style="stroke: #000000; stroke-width: 0.8"/>
      </g>
     </g>
     <g id="text_9">
      <!-- 500 -->
      <g transform="translate(31.5125 246.31429) scale(0.1 -0.1)">
       <use xlink:href="#DejaVuSans-35"/>
       <use xlink:href="#DejaVuSans-30" x="63.623047"/>
       <use xlink:href="#DejaVuSans-30" x="127.246094"/>
      </g>
     </g>
    </g>
    <g id="ytick_3">
     <g id="line2d_53">
      <g>
       <use xlink:href="#m31fb364c33" x="57.6" y="189.388011" style="stroke: #000000; stroke-width: 0.8"/>
      </g>
     </g>
     <g id="text_10">
      <!-- 1000 -->
      <g transform="translate(25.15 193.18723) scale(0.1 -0.1)">
       <use xlink:href="#DejaVuSans-31"/>
       <use xlink:href="#DejaVuSans-30" x="63.623047"/>
       <use xlink:href="#DejaVuSans-30" x="127.246094"/>
       <use xlink:href="#DejaVuSans-30" x="190.869141"/>
      </g>
     </g>
    </g>
    <g id="ytick_4">
     <g id="line2d_54">
      <g>
       <use xlink:href="#m31fb364c33" x="57.6" y="136.260951" style="stroke: #000000; stroke-width: 0.8"/>
      </g>
     </g>
     <g id="text_11">
      <!-- 1500 -->
      <g transform="translate(25.15 140.06017) scale(0.1 -0.1)">
       <use xlink:href="#DejaVuSans-31"/>
       <use xlink:href="#DejaVuSans-35" x="63.623047"/>
       <use xlink:href="#DejaVuSans-30" x="127.246094"/>
       <use xlink:href="#DejaVuSans-30" x="190.869141"/>
      </g>
     </g>
    </g>
    <g id="ytick_5">
     <g id="line2d_55">
      <g>
       <use xlink:href="#m31fb364c33" x="57.6" y="83.133891" style="stroke: #000000; stroke-width: 0.8"/>
      </g>
     </g>
     <g id="text_12">
      <!-- 2000 -->
      <g transform="translate(25.15 86.93311) scale(0.1 -0.1)">
       <use xlink:href="#DejaVuSans-32"/>
       <use xlink:href="#DejaVuSans-30" x="63.623047"/>
       <use xlink:href="#DejaVuSans-30" x="127.246094"/>
       <use xlink:href="#DejaVuSans-30" x="190.869141"/>
      </g>
     </g>
    </g>
    <g id="text_13">
     <!-- $\vert H \vert$ -->
     <g transform="translate(18.75 181.678) rotate(-90) scale(0.1 -0.1)">
      <defs>
       <path id="DejaVuSans-7c" d="M 1344 4891 
L 1344 -1509 
L 813 -1509 
L 813 4891 
L 1344 4891 
z
" transform="scale(0.015625)"/>
       <path id="DejaVuSans-Oblique-48" d="M 1081 4666 
L 1716 4666 
L 1344 2753 
L 3634 2753 
L 4006 4666 
L 4641 4666 
L 3731 0 
L 3097 0 
L 3531 2222 
L 1241 2222 
L 806 0 
L 172 0 
L 1081 4666 
z
" transform="scale(0.015625)"/>
      </defs>
      <use xlink:href="#DejaVuSans-7c" transform="translate(0 0.578125)"/>
      <use xlink:href="#DejaVuSans-Oblique-48" transform="translate(33.691406 0.578125)"/>
      <use xlink:href="#DejaVuSans-7c" transform="translate(108.886719 0.578125)"/>
     </g>
    </g>
   </g>
   <g id="line2d_56">
    <path d="M 73.832727 295.404954 
L 75.800331 295.488 
L 79.735537 295.372831 
L 99.41157 295.125147 
L 101.379174 295.348846 
L 103.346777 295.310664 
L 107.281983 294.902561 
L 109.249587 295.171171 
L 117.12 294.885481 
L 124.990413 294.35887 
L 132.860826 293.365093 
L 136.796033 292.69467 
L 138.763636 292.341844 
L 144.666446 290.572394 
L 148.601653 288.943739 
L 152.53686 286.991397 
L 154.504463 285.767815 
L 160.407273 280.804837 
L 164.342479 276.320899 
L 166.310083 267.185456 
L 168.277686 270.439616 
L 170.245289 258.81494 
L 172.212893 263.615765 
L 178.115702 248.799257 
L 180.083306 242.472563 
L 182.050909 237.034847 
L 184.018512 229.585099 
L 185.986116 222.851401 
L 187.953719 215.521373 
L 191.888926 198.00942 
L 193.856529 190.307906 
L 195.824132 150.53869 
L 197.791736 174.267079 
L 201.726942 159.75349 
L 203.694545 152.441862 
L 205.662149 146.714205 
L 207.629752 141.999325 
L 209.597355 137.643257 
L 211.564959 90.38948 
L 213.532562 125.620758 
L 215.500165 124.408049 
L 217.467769 122.094184 
L 219.435372 118.838429 
L 221.402975 116.469481 
L 223.370579 108.006068 
L 225.338182 102.962882 
L 227.305785 100.737488 
L 229.273388 98.815626 
L 231.240992 97.372449 
L 233.208595 96.716671 
L 235.176198 95.307979 
L 237.143802 95.878522 
L 239.111405 97.109196 
L 241.079008 93.052626 
L 243.046612 93.488689 
L 245.014215 91.931931 
L 246.981818 91.19271 
L 248.949421 91.643208 
L 252.884628 89.938346 
L 254.852231 96.42585 
L 256.819835 98.266349 
L 258.787438 56.452842 
L 260.755041 97.131011 
L 262.722645 94.917295 
L 264.690248 88.291016 
L 266.657851 88.696587 
L 268.625455 90.080089 
L 270.593058 89.576902 
L 272.560661 89.215942 
L 274.528264 90.909556 
L 276.495868 87.97407 
L 278.463471 89.154469 
L 280.431074 88.657982 
L 282.398678 89.047187 
L 284.366281 88.324622 
L 286.333884 88.449041 
L 288.301488 90.173809 
L 290.269091 90.366339 
L 292.236694 91.329173 
L 294.204298 90.789006 
L 296.171901 89.76915 
L 298.139504 91.749069 
L 300.107107 90.758324 
L 302.074711 91.574324 
L 304.042314 91.441492 
L 306.009917 91.15966 
L 307.977521 91.006714 
L 309.945124 90.559792 
L 311.912727 91.964422 
L 313.880331 91.717773 
L 315.847934 92.969597 
L 317.815537 92.038037 
L 321.750744 92.206701 
L 323.718347 92.889227 
L 325.68595 53.568 
L 327.653554 93.583632 
L 329.621157 95.286855 
L 331.58876 93.213197 
L 333.556364 94.296838 
L 337.49157 97.448272 
L 339.459174 94.186033 
L 341.426777 94.337344 
L 343.39438 92.122806 
L 345.361983 89.149941 
L 347.329587 88.986536 
L 349.29719 87.272914 
L 351.264793 85.784074 
L 353.232397 85.965571 
L 355.2 85.493388 
L 357.167603 65.887333 
L 359.135207 87.882099 
L 361.10281 92.318903 
L 363.070413 93.489348 
L 365.038017 104.251496 
L 367.00562 113.873335 
L 370.940826 143.238168 
L 372.90843 146.654771 
L 374.876033 175.806551 
L 378.81124 207.325984 
L 382.746446 233.304066 
L 384.71405 244.445659 
L 386.681653 248.71171 
L 388.649256 262.20868 
L 392.584463 276.436152 
L 394.552066 282.501694 
L 396.519669 272.202559 
L 398.487273 291.861069 
L 398.487273 291.861069 
" clip-path="url(#p22d43a4437)" style="fill: none; stroke-dasharray: 1.85,0.8; stroke-dashoffset: 0; stroke: #1f77b4; stroke-width: 0.5"/>
    <defs>
     <path id="m38718e882a" d="M 0 0.5 
C 0.132602 0.5 0.25979 0.447317 0.353553 0.353553 
C 0.447317 0.25979 0.5 0.132602 0.5 0 
C 0.5 -0.132602 0.447317 -0.25979 0.353553 -0.353553 
C 0.25979 -0.447317 0.132602 -0.5 0 -0.5 
C -0.132602 -0.5 -0.25979 -0.447317 -0.353553 -0.353553 
C -0.447317 -0.25979 -0.5 -0.132602 -0.5 0 
C -0.5 0.132602 -0.447317 0.25979 -0.353553 0.353553 
C -0.25979 0.447317 -0.132602 0.5 0 0.5 
z
" style="stroke: #1f77b4"/>
    </defs>
    <g clip-path="url(#p22d43a4437)">
     <use xlink:href="#m38718e882a" x="73.832727" y="295.404954" style="fill: #1f77b4; stroke: #1f77b4"/>
     <use xlink:href="#m38718e882a" x="75.800331" y="295.488" style="fill: #1f77b4; stroke: #1f77b4"/>
     <use xlink:href="#m38718e882a" x="77.767934" y="295.377785" style="fill: #1f77b4; stroke: #1f77b4"/>
     <use xlink:href="#m38718e882a" x="79.735537" y="295.372831" style="fill: #1f77b4; stroke: #1f77b4"/>
     <use xlink:href="#m38718e882a" x="81.70314" y="295.357004" style="fill: #1f77b4; stroke: #1f77b4"/>
     <use xlink:href="#m38718e882a" x="83.670744" y="295.33842" style="fill: #1f77b4; stroke: #1f77b4"/>
     <use xlink:href="#m38718e882a" x="85.638347" y="295.310472" style="fill: #1f77b4; stroke: #1f77b4"/>
     <use xlink:href="#m38718e882a" x="87.60595" y="295.294106" style="fill: #1f77b4; stroke: #1f77b4"/>
     <use xlink:href="#m38718e882a" x="89.573554" y="295.269941" style="fill: #1f77b4; stroke: #1f77b4"/>
     <use xlink:href="#m38718e882a" x="91.541157" y="295.251714" style="fill: #1f77b4; stroke: #1f77b4"/>
     <use xlink:href="#m38718e882a" x="93.50876" y="295.247419" style="fill: #1f77b4; stroke: #1f77b4"/>
     <use xlink:href="#m38718e882a" x="95.476364" y="295.181437" style="fill: #1f77b4; stroke: #1f77b4"/>
     <use xlink:href="#m38718e882a" x="97.443967" y="295.159097" style="fill: #1f77b4; stroke: #1f77b4"/>
     <use xlink:href="#m38718e882a" x="99.41157" y="295.125147" style="fill: #1f77b4; stroke: #1f77b4"/>
     <use xlink:href="#m38718e882a" x="101.379174" y="295.348846" style="fill: #1f77b4; stroke: #1f77b4"/>
     <use xlink:href="#m38718e882a" x="103.346777" y="295.310664" style="fill: #1f77b4; stroke: #1f77b4"/>
     <use xlink:href="#m38718e882a" x="105.31438" y="295.132593" style="fill: #1f77b4; stroke: #1f77b4"/>
     <use xlink:href="#m38718e882a" x="107.281983" y="294.902561" style="fill: #1f77b4; stroke: #1f77b4"/>
     <use xlink:href="#m38718e882a" x="109.249587" y="295.171171" style="fill: #1f77b4; stroke: #1f77b4"/>
     <use xlink:href="#m38718e882a" x="111.21719" y="295.125887" style="fill: #1f77b4; stroke: #1f77b4"/>
     <use xlink:href="#m38718e882a" x="113.184793" y="295.062746" style="fill: #1f77b4; stroke: #1f77b4"/>
     <use xlink:href="#m38718e882a" x="115.152397" y="294.980041" style="fill: #1f77b4; stroke: #1f77b4"/>
     <use xlink:href="#m38718e882a" x="117.12" y="294.885481" style="fill: #1f77b4; stroke: #1f77b4"/>
     <use xlink:href="#m38718e882a" x="119.087603" y="294.769903" style="fill: #1f77b4; stroke: #1f77b4"/>
     <use xlink:href="#m38718e882a" x="121.055207" y="294.658526" style="fill: #1f77b4; stroke: #1f77b4"/>
     <use xlink:href="#m38718e882a" x="123.02281" y="294.532771" style="fill: #1f77b4; stroke: #1f77b4"/>
     <use xlink:href="#m38718e882a" x="124.990413" y="294.35887" style="fill: #1f77b4; stroke: #1f77b4"/>
     <use xlink:href="#m38718e882a" x="126.958017" y="294.128221" style="fill: #1f77b4; stroke: #1f77b4"/>
     <use xlink:href="#m38718e882a" x="128.92562" y="293.961255" style="fill: #1f77b4; stroke: #1f77b4"/>
     <use xlink:href="#m38718e882a" x="130.893223" y="293.642586" style="fill: #1f77b4; stroke: #1f77b4"/>
     <use xlink:href="#m38718e882a" x="132.860826" y="293.365093" style="fill: #1f77b4; stroke: #1f77b4"/>
     <use xlink:href="#m38718e882a" x="134.82843" y="293.070811" style="fill: #1f77b4; stroke: #1f77b4"/>
     <use xlink:href="#m38718e882a" x="136.796033" y="292.69467" style="fill: #1f77b4; stroke: #1f77b4"/>
     <use xlink:href="#m38718e882a" x="138.763636" y="292.341844" style="fill: #1f77b4; stroke: #1f77b4"/>
     <use xlink:href="#m38718e882a" x="140.73124" y="291.765014" style="fill: #1f77b4; stroke: #1f77b4"/>
     <use xlink:href="#m38718e882a" x="142.698843" y="291.269927" style="fill: #1f77b4; stroke: #1f77b4"/>
     <use xlink:href="#m38718e882a" x="144.666446" y="290.572394" style="fill: #1f77b4; stroke: #1f77b4"/>
     <use xlink:href="#m38718e882a" x="146.63405" y="289.804742" style="fill: #1f77b4; stroke: #1f77b4"/>
     <use xlink:href="#m38718e882a" x="148.601653" y="288.943739" style="fill: #1f77b4; stroke: #1f77b4"/>
     <use xlink:href="#m38718e882a" x="150.569256" y="288.0182" style="fill: #1f77b4; stroke: #1f77b4"/>
     <use xlink:href="#m38718e882a" x="152.53686" y="286.991397" style="fill: #1f77b4; stroke: #1f77b4"/>
     <use xlink:href="#m38718e882a" x="154.504463" y="285.767815" style="fill: #1f77b4; stroke: #1f77b4"/>
     <use xlink:href="#m38718e882a" x="156.472066" y="284.153151" style="fill: #1f77b4; stroke: #1f77b4"/>
     <use xlink:href="#m38718e882a" x="158.439669" y="282.579631" style="fill: #1f77b4; stroke: #1f77b4"/>
     <use xlink:href="#m38718e882a" x="160.407273" y="280.804837" style="fill: #1f77b4; stroke: #1f77b4"/>
     <use xlink:href="#m38718e882a" x="162.374876" y="278.613792" style="fill: #1f77b4; stroke: #1f77b4"/>
     <use xlink:href="#m38718e882a" x="164.342479" y="276.320899" style="fill: #1f77b4; stroke: #1f77b4"/>
     <use xlink:href="#m38718e882a" x="166.310083" y="267.185456" style="fill: #1f77b4; stroke: #1f77b4"/>
     <use xlink:href="#m38718e882a" x="168.277686" y="270.439616" style="fill: #1f77b4; stroke: #1f77b4"/>
     <use xlink:href="#m38718e882a" x="170.245289" y="258.81494" style="fill: #1f77b4; stroke: #1f77b4"/>
     <use xlink:href="#m38718e882a" x="172.212893" y="263.615765" style="fill: #1f77b4; stroke: #1f77b4"/>
     <use xlink:href="#m38718e882a" x="174.180496" y="258.700834" style="fill: #1f77b4; stroke: #1f77b4"/>
     <use xlink:href="#m38718e882a" x="176.148099" y="253.962943" style="fill: #1f77b4; stroke: #1f77b4"/>
     <use xlink:href="#m38718e882a" x="178.115702" y="248.799257" style="fill: #1f77b4; stroke: #1f77b4"/>
     <use xlink:href="#m38718e882a" x="180.083306" y="242.472563" style="fill: #1f77b4; stroke: #1f77b4"/>
     <use xlink:href="#m38718e882a" x="182.050909" y="237.034847" style="fill: #1f77b4; stroke: #1f77b4"/>
     <use xlink:href="#m38718e882a" x="184.018512" y="229.585099" style="fill: #1f77b4; stroke: #1f77b4"/>
     <use xlink:href="#m38718e882a" x="185.986116" y="222.851401" style="fill: #1f77b4; stroke: #1f77b4"/>
     <use xlink:href="#m38718e882a" x="187.953719" y="215.521373" style="fill: #1f77b4; stroke: #1f77b4"/>
     <use xlink:href="#m38718e882a" x="189.921322" y="206.824452" style="fill: #1f77b4; stroke: #1f77b4"/>
     <use xlink:href="#m38718e882a" x="191.888926" y="198.00942" style="fill: #1f77b4; stroke: #1f77b4"/>
     <use xlink:href="#m38718e882a" x="193.856529" y="190.307906" style="fill: #1f77b4; stroke: #1f77b4"/>
     <use xlink:href="#m38718e882a" x="195.824132" y="150.53869" style="fill: #1f77b4; stroke: #1f77b4"/>
     <use xlink:href="#m38718e882a" x="197.791736" y="174.267079" style="fill: #1f77b4; stroke: #1f77b4"/>
     <use xlink:href="#m38718e882a" x="199.759339" y="166.803397" style="fill: #1f77b4; stroke: #1f77b4"/>
     <use xlink:href="#m38718e882a" x="201.726942" y="159.75349" style="fill: #1f77b4; stroke: #1f77b4"/>
     <use xlink:href="#m38718e882a" x="203.694545" y="152.441862" style="fill: #1f77b4; stroke: #1f77b4"/>
     <use xlink:href="#m38718e882a" x="205.662149" y="146.714205" style="fill: #1f77b4; stroke: #1f77b4"/>
     <use xlink:href="#m38718e882a" x="207.629752" y="141.999325" style="fill: #1f77b4; stroke: #1f77b4"/>
     <use xlink:href="#m38718e882a" x="209.597355" y="137.643257" style="fill: #1f77b4; stroke: #1f77b4"/>
     <use xlink:href="#m38718e882a" x="211.564959" y="90.38948" style="fill: #1f77b4; stroke: #1f77b4"/>
     <use xlink:href="#m38718e882a" x="213.532562" y="125.620758" style="fill: #1f77b4; stroke: #1f77b4"/>
     <use xlink:href="#m38718e882a" x="215.500165" y="124.408049" style="fill: #1f77b4; stroke: #1f77b4"/>
     <use xlink:href="#m38718e882a" x="217.467769" y="122.094184" style="fill: #1f77b4; stroke: #1f77b4"/>
     <use xlink:href="#m38718e882a" x="219.435372" y="118.838429" style="fill: #1f77b4; stroke: #1f77b4"/>
     <use xlink:href="#m38718e882a" x="221.402975" y="116.469481" style="fill: #1f77b4; stroke: #1f77b4"/>
     <use xlink:href="#m38718e882a" x="223.370579" y="108.006068" style="fill: #1f77b4; stroke: #1f77b4"/>
     <use xlink:href="#m38718e882a" x="225.338182" y="102.962882" style="fill: #1f77b4; stroke: #1f77b4"/>
     <use xlink:href="#m38718e882a" x="227.305785" y="100.737488" style="fill: #1f77b4; stroke: #1f77b4"/>
     <use xlink:href="#m38718e882a" x="229.273388" y="98.815626" style="fill: #1f77b4; stroke: #1f77b4"/>
     <use xlink:href="#m38718e882a" x="231.240992" y="97.372449" style="fill: #1f77b4; stroke: #1f77b4"/>
     <use xlink:href="#m38718e882a" x="233.208595" y="96.716671" style="fill: #1f77b4; stroke: #1f77b4"/>
     <use xlink:href="#m38718e882a" x="235.176198" y="95.307979" style="fill: #1f77b4; stroke: #1f77b4"/>
     <use xlink:href="#m38718e882a" x="237.143802" y="95.878522" style="fill: #1f77b4; stroke: #1f77b4"/>
     <use xlink:href="#m38718e882a" x="239.111405" y="97.109196" style="fill: #1f77b4; stroke: #1f77b4"/>
     <use xlink:href="#m38718e882a" x="241.079008" y="93.052626" style="fill: #1f77b4; stroke: #1f77b4"/>
     <use xlink:href="#m38718e882a" x="243.046612" y="93.488689" style="fill: #1f77b4; stroke: #1f77b4"/>
     <use xlink:href="#m38718e882a" x="245.014215" y="91.931931" style="fill: #1f77b4; stroke: #1f77b4"/>
     <use xlink:href="#m38718e882a" x="246.981818" y="91.19271" style="fill: #1f77b4; stroke: #1f77b4"/>
     <use xlink:href="#m38718e882a" x="248.949421" y="91.643208" style="fill: #1f77b4; stroke: #1f77b4"/>
     <use xlink:href="#m38718e882a" x="250.917025" y="90.734794" style="fill: #1f77b4; stroke: #1f77b4"/>
     <use xlink:href="#m38718e882a" x="252.884628" y="89.938346" style="fill: #1f77b4; stroke: #1f77b4"/>
     <use xlink:href="#m38718e882a" x="254.852231" y="96.42585" style="fill: #1f77b4; stroke: #1f77b4"/>
     <use xlink:href="#m38718e882a" x="256.819835" y="98.266349" style="fill: #1f77b4; stroke: #1f77b4"/>
     <use xlink:href="#m38718e882a" x="258.787438" y="56.452842" style="fill: #1f77b4; stroke: #1f77b4"/>
     <use xlink:href="#m38718e882a" x="260.755041" y="97.131011" style="fill: #1f77b4; stroke: #1f77b4"/>
     <use xlink:href="#m38718e882a" x="262.722645" y="94.917295" style="fill: #1f77b4; stroke: #1f77b4"/>
     <use xlink:href="#m38718e882a" x="264.690248" y="88.291016" style="fill: #1f77b4; stroke: #1f77b4"/>
     <use xlink:href="#m38718e882a" x="266.657851" y="88.696587" style="fill: #1f77b4; stroke: #1f77b4"/>
     <use xlink:href="#m38718e882a" x="268.625455" y="90.080089" style="fill: #1f77b4; stroke: #1f77b4"/>
     <use xlink:href="#m38718e882a" x="270.593058" y="89.576902" style="fill: #1f77b4; stroke: #1f77b4"/>
     <use xlink:href="#m38718e882a" x="272.560661" y="89.215942" style="fill: #1f77b4; stroke: #1f77b4"/>
     <use xlink:href="#m38718e882a" x="274.528264" y="90.909556" style="fill: #1f77b4; stroke: #1f77b4"/>
     <use xlink:href="#m38718e882a" x="276.495868" y="87.97407" style="fill: #1f77b4; stroke: #1f77b4"/>
     <use xlink:href="#m38718e882a" x="278.463471" y="89.154469" style="fill: #1f77b4; stroke: #1f77b4"/>
     <use xlink:href="#m38718e882a" x="280.431074" y="88.657982" style="fill: #1f77b4; stroke: #1f77b4"/>
     <use xlink:href="#m38718e882a" x="282.398678" y="89.047187" style="fill: #1f77b4; stroke: #1f77b4"/>
     <use xlink:href="#m38718e882a" x="284.366281" y="88.324622" style="fill: #1f77b4; stroke: #1f77b4"/>
     <use xlink:href="#m38718e882a" x="286.333884" y="88.449041" style="fill: #1f77b4; stroke: #1f77b4"/>
     <use xlink:href="#m38718e882a" x="288.301488" y="90.173809" style="fill: #1f77b4; stroke: #1f77b4"/>
     <use xlink:href="#m38718e882a" x="290.269091" y="90.366339" style="fill: #1f77b4; stroke: #1f77b4"/>
     <use xlink:href="#m38718e882a" x="292.236694" y="91.329173" style="fill: #1f77b4; stroke: #1f77b4"/>
     <use xlink:href="#m38718e882a" x="294.204298" y="90.789006" style="fill: #1f77b4; stroke: #1f77b4"/>
     <use xlink:href="#m38718e882a" x="296.171901" y="89.76915" style="fill: #1f77b4; stroke: #1f77b4"/>
     <use xlink:href="#m38718e882a" x="298.139504" y="91.749069" style="fill: #1f77b4; stroke: #1f77b4"/>
     <use xlink:href="#m38718e882a" x="300.107107" y="90.758324" style="fill: #1f77b4; stroke: #1f77b4"/>
     <use xlink:href="#m38718e882a" x="302.074711" y="91.574324" style="fill: #1f77b4; stroke: #1f77b4"/>
     <use xlink:href="#m38718e882a" x="304.042314" y="91.441492" style="fill: #1f77b4; stroke: #1f77b4"/>
     <use xlink:href="#m38718e882a" x="306.009917" y="91.15966" style="fill: #1f77b4; stroke: #1f77b4"/>
     <use xlink:href="#m38718e882a" x="307.977521" y="91.006714" style="fill: #1f77b4; stroke: #1f77b4"/>
     <use xlink:href="#m38718e882a" x="309.945124" y="90.559792" style="fill: #1f77b4; stroke: #1f77b4"/>
     <use xlink:href="#m38718e882a" x="311.912727" y="91.964422" style="fill: #1f77b4; stroke: #1f77b4"/>
     <use xlink:href="#m38718e882a" x="313.880331" y="91.717773" style="fill: #1f77b4; stroke: #1f77b4"/>
     <use xlink:href="#m38718e882a" x="315.847934" y="92.969597" style="fill: #1f77b4; stroke: #1f77b4"/>
     <use xlink:href="#m38718e882a" x="317.815537" y="92.038037" style="fill: #1f77b4; stroke: #1f77b4"/>
     <use xlink:href="#m38718e882a" x="319.78314" y="92.134498" style="fill: #1f77b4; stroke: #1f77b4"/>
     <use xlink:href="#m38718e882a" x="321.750744" y="92.206701" style="fill: #1f77b4; stroke: #1f77b4"/>
     <use xlink:href="#m38718e882a" x="323.718347" y="92.889227" style="fill: #1f77b4; stroke: #1f77b4"/>
     <use xlink:href="#m38718e882a" x="325.68595" y="53.568" style="fill: #1f77b4; stroke: #1f77b4"/>
     <use xlink:href="#m38718e882a" x="327.653554" y="93.583632" style="fill: #1f77b4; stroke: #1f77b4"/>
     <use xlink:href="#m38718e882a" x="329.621157" y="95.286855" style="fill: #1f77b4; stroke: #1f77b4"/>
     <use xlink:href="#m38718e882a" x="331.58876" y="93.213197" style="fill: #1f77b4; stroke: #1f77b4"/>
     <use xlink:href="#m38718e882a" x="333.556364" y="94.296838" style="fill: #1f77b4; stroke: #1f77b4"/>
     <use xlink:href="#m38718e882a" x="335.523967" y="95.941339" style="fill: #1f77b4; stroke: #1f77b4"/>
     <use xlink:href="#m38718e882a" x="337.49157" y="97.448272" style="fill: #1f77b4; stroke: #1f77b4"/>
     <use xlink:href="#m38718e882a" x="339.459174" y="94.186033" style="fill: #1f77b4; stroke: #1f77b4"/>
     <use xlink:href="#m38718e882a" x="341.426777" y="94.337344" style="fill: #1f77b4; stroke: #1f77b4"/>
     <use xlink:href="#m38718e882a" x="343.39438" y="92.122806" style="fill: #1f77b4; stroke: #1f77b4"/>
     <use xlink:href="#m38718e882a" x="345.361983" y="89.149941" style="fill: #1f77b4; stroke: #1f77b4"/>
     <use xlink:href="#m38718e882a" x="347.329587" y="88.986536" style="fill: #1f77b4; stroke: #1f77b4"/>
     <use xlink:href="#m38718e882a" x="349.29719" y="87.272914" style="fill: #1f77b4; stroke: #1f77b4"/>
     <use xlink:href="#m38718e882a" x="351.264793" y="85.784074" style="fill: #1f77b4; stroke: #1f77b4"/>
     <use xlink:href="#m38718e882a" x="353.232397" y="85.965571" style="fill: #1f77b4; stroke: #1f77b4"/>
     <use xlink:href="#m38718e882a" x="355.2" y="85.493388" style="fill: #1f77b4; stroke: #1f77b4"/>
     <use xlink:href="#m38718e882a" x="357.167603" y="65.887333" style="fill: #1f77b4; stroke: #1f77b4"/>
     <use xlink:href="#m38718e882a" x="359.135207" y="87.882099" style="fill: #1f77b4; stroke: #1f77b4"/>
     <use xlink:href="#m38718e882a" x="361.10281" y="92.318903" style="fill: #1f77b4; stroke: #1f77b4"/>
     <use xlink:href="#m38718e882a" x="363.070413" y="93.489348" style="fill: #1f77b4; stroke: #1f77b4"/>
     <use xlink:href="#m38718e882a" x="365.038017" y="104.251496" style="fill: #1f77b4; stroke: #1f77b4"/>
     <use xlink:href="#m38718e882a" x="367.00562" y="113.873335" style="fill: #1f77b4; stroke: #1f77b4"/>
     <use xlink:href="#m38718e882a" x="368.973223" y="128.771633" style="fill: #1f77b4; stroke: #1f77b4"/>
     <use xlink:href="#m38718e882a" x="370.940826" y="143.238168" style="fill: #1f77b4; stroke: #1f77b4"/>
     <use xlink:href="#m38718e882a" x="372.90843" y="146.654771" style="fill: #1f77b4; stroke: #1f77b4"/>
     <use xlink:href="#m38718e882a" x="374.876033" y="175.806551" style="fill: #1f77b4; stroke: #1f77b4"/>
     <use xlink:href="#m38718e882a" x="376.843636" y="191.941283" style="fill: #1f77b4; stroke: #1f77b4"/>
     <use xlink:href="#m38718e882a" x="378.81124" y="207.325984" style="fill: #1f77b4; stroke: #1f77b4"/>
     <use xlink:href="#m38718e882a" x="380.778843" y="220.459067" style="fill: #1f77b4; stroke: #1f77b4"/>
     <use xlink:href="#m38718e882a" x="382.746446" y="233.304066" style="fill: #1f77b4; stroke: #1f77b4"/>
     <use xlink:href="#m38718e882a" x="384.71405" y="244.445659" style="fill: #1f77b4; stroke: #1f77b4"/>
     <use xlink:href="#m38718e882a" x="386.681653" y="248.71171" style="fill: #1f77b4; stroke: #1f77b4"/>
     <use xlink:href="#m38718e882a" x="388.649256" y="262.20868" style="fill: #1f77b4; stroke: #1f77b4"/>
     <use xlink:href="#m38718e882a" x="390.61686" y="269.503198" style="fill: #1f77b4; stroke: #1f77b4"/>
     <use xlink:href="#m38718e882a" x="392.584463" y="276.436152" style="fill: #1f77b4; stroke: #1f77b4"/>
     <use xlink:href="#m38718e882a" x="394.552066" y="282.501694" style="fill: #1f77b4; stroke: #1f77b4"/>
     <use xlink:href="#m38718e882a" x="396.519669" y="272.202559" style="fill: #1f77b4; stroke: #1f77b4"/>
     <use xlink:href="#m38718e882a" x="398.487273" y="291.861069" style="fill: #1f77b4; stroke: #1f77b4"/>
    </g>
   </g>
   <g id="patch_3">
    <path d="M 57.6 307.584 
L 57.6 41.472 
" style="fill: none; stroke: #000000; stroke-width: 0.8; stroke-linejoin: miter; stroke-linecap: square"/>
   </g>
   <g id="patch_4">
    <path d="M 414.72 307.584 
L 414.72 41.472 
" style="fill: none; stroke: #000000; stroke-width: 0.8; stroke-linejoin: miter; stroke-linecap: square"/>
   </g>
   <g id="patch_5">
    <path d="M 57.6 307.584 
L 414.72 307.584 
" style="fill: none; stroke: #000000; stroke-width: 0.8; stroke-linejoin: miter; stroke-linecap: square"/>
   </g>
   <g id="patch_6">
    <path d="M 57.6 41.472 
L 414.72 41.472 
" style="fill: none; stroke: #000000; stroke-width: 0.8; stroke-linejoin: miter; stroke-linecap: square"/>
   </g>
  </g>
 </g>
 <defs>
  <clipPath id="p22d43a4437">
   <rect x="57.6" y="41.472" width="357.12" height="266.112"/>
  </clipPath>
 </defs>
</svg>
